%TF.GenerationSoftware,KiCad,Pcbnew,(6.0.10)*%
%TF.CreationDate,2023-03-05T22:19:38-08:00*%
%TF.ProjectId,tsbym-top_plate,74736279-6d2d-4746-9f70-5f706c617465,rev?*%
%TF.SameCoordinates,Original*%
%TF.FileFunction,Drillmap*%
%TF.FilePolarity,Positive*%
%FSLAX45Y45*%
G04 Gerber Fmt 4.5, Leading zero omitted, Abs format (unit mm)*
G04 Created by KiCad (PCBNEW (6.0.10)) date 2023-03-05 22:19:38*
%MOMM*%
%LPD*%
G01*
G04 APERTURE LIST*
%ADD10C,0.100000*%
%ADD11C,0.200000*%
G04 APERTURE END LIST*
D10*
X20675600Y-11709400D02*
G75*
G03*
X20878800Y-11506200I0J203200D01*
G01*
X11201400Y-11785600D02*
G75*
G03*
X11404600Y-11582400I0J203200D01*
G01*
X11404600Y-6273800D02*
X11404600Y-11582400D01*
X7759700Y-11785600D02*
G75*
G03*
X7556500Y-11988800I0J-203200D01*
G01*
X20675600Y-6070600D02*
X11607800Y-6070600D01*
X17132300Y-11709400D02*
G75*
G03*
X16977477Y-11766148I546J-241060D01*
G01*
X20878800Y-6273800D02*
G75*
G03*
X20675600Y-6070600I-203200J0D01*
G01*
X15191623Y-13557652D02*
X16977477Y-11766148D01*
X7556500Y-13411200D02*
G75*
G03*
X7759700Y-13614400I203200J0D01*
G01*
X20472400Y-11709400D02*
X17132300Y-11709400D01*
X20878800Y-11506200D02*
X20878800Y-6273800D01*
X11607800Y-6070600D02*
G75*
G03*
X11404600Y-6273800I0J-203200D01*
G01*
X11201400Y-11785600D02*
X7759700Y-11785600D01*
X15036800Y-13614400D02*
X7759700Y-13614400D01*
X20472400Y-11709400D02*
X20675600Y-11709400D01*
X7556500Y-11988800D02*
X7556500Y-13411200D01*
X15036800Y-13614400D02*
G75*
G03*
X15191623Y-13557652I-546J241060D01*
G01*
D11*
X7809119Y-13929876D02*
X7809119Y-13729876D01*
X7856738Y-13729876D01*
X7885309Y-13739400D01*
X7904357Y-13758448D01*
X7913881Y-13777495D01*
X7923405Y-13815590D01*
X7923405Y-13844162D01*
X7913881Y-13882257D01*
X7904357Y-13901305D01*
X7885309Y-13920352D01*
X7856738Y-13929876D01*
X7809119Y-13929876D01*
X8009119Y-13929876D02*
X8009119Y-13796543D01*
X8009119Y-13834638D02*
X8018643Y-13815590D01*
X8028167Y-13806067D01*
X8047214Y-13796543D01*
X8066262Y-13796543D01*
X8132928Y-13929876D02*
X8132928Y-13796543D01*
X8132928Y-13729876D02*
X8123405Y-13739400D01*
X8132928Y-13748924D01*
X8142452Y-13739400D01*
X8132928Y-13729876D01*
X8132928Y-13748924D01*
X8256738Y-13929876D02*
X8237690Y-13920352D01*
X8228167Y-13901305D01*
X8228167Y-13729876D01*
X8361500Y-13929876D02*
X8342452Y-13920352D01*
X8332928Y-13901305D01*
X8332928Y-13729876D01*
X8590071Y-13929876D02*
X8590071Y-13729876D01*
X8656738Y-13872733D01*
X8723405Y-13729876D01*
X8723405Y-13929876D01*
X8904357Y-13929876D02*
X8904357Y-13825114D01*
X8894833Y-13806067D01*
X8875786Y-13796543D01*
X8837690Y-13796543D01*
X8818643Y-13806067D01*
X8904357Y-13920352D02*
X8885310Y-13929876D01*
X8837690Y-13929876D01*
X8818643Y-13920352D01*
X8809119Y-13901305D01*
X8809119Y-13882257D01*
X8818643Y-13863209D01*
X8837690Y-13853686D01*
X8885310Y-13853686D01*
X8904357Y-13844162D01*
X8999595Y-13796543D02*
X8999595Y-13996543D01*
X8999595Y-13806067D02*
X9018643Y-13796543D01*
X9056738Y-13796543D01*
X9075786Y-13806067D01*
X9085310Y-13815590D01*
X9094833Y-13834638D01*
X9094833Y-13891781D01*
X9085310Y-13910828D01*
X9075786Y-13920352D01*
X9056738Y-13929876D01*
X9018643Y-13929876D01*
X8999595Y-13920352D01*
X9180548Y-13910828D02*
X9190071Y-13920352D01*
X9180548Y-13929876D01*
X9171024Y-13920352D01*
X9180548Y-13910828D01*
X9180548Y-13929876D01*
X9180548Y-13806067D02*
X9190071Y-13815590D01*
X9180548Y-13825114D01*
X9171024Y-13815590D01*
X9180548Y-13806067D01*
X9180548Y-13825114D01*
M02*
