%TF.GenerationSoftware,KiCad,Pcbnew,(6.0.10)*%
%TF.CreationDate,2023-03-05T22:19:41-08:00*%
%TF.ProjectId,tsbym-top_plate,74736279-6d2d-4746-9f70-5f706c617465,rev?*%
%TF.SameCoordinates,Original*%
%TF.FileFunction,Profile,NP*%
%FSLAX46Y46*%
G04 Gerber Fmt 4.6, Leading zero omitted, Abs format (unit mm)*
G04 Created by KiCad (PCBNEW (6.0.10)) date 2023-03-05 22:19:41*
%MOMM*%
%LPD*%
G01*
G04 APERTURE LIST*
%TA.AperFunction,Profile*%
%ADD10C,0.100000*%
%TD*%
%TA.AperFunction,Profile*%
%ADD11C,0.120000*%
%TD*%
G04 APERTURE END LIST*
D10*
X206756001Y-117093999D02*
G75*
G03*
X208788000Y-115062000I0J2031999D01*
G01*
X112014000Y-117855999D02*
G75*
G03*
X114045999Y-115824000I0J2031999D01*
G01*
X114046001Y-62738000D02*
X114045999Y-115824000D01*
X77597000Y-117856001D02*
G75*
G03*
X75565001Y-119888000I0J-2031999D01*
G01*
X206756000Y-60706000D02*
X116078000Y-60706001D01*
X171323000Y-117094000D02*
G75*
G03*
X169774773Y-117661481I5457J-2410600D01*
G01*
X208787999Y-62737999D02*
G75*
G03*
X206756000Y-60706000I-2031999J0D01*
G01*
X151916228Y-135576518D02*
X169774772Y-117661482D01*
X75565001Y-134112001D02*
G75*
G03*
X77597000Y-136144000I2031999J0D01*
G01*
X204724000Y-117094000D02*
X171323000Y-117094000D01*
X208788000Y-115062000D02*
X208788000Y-62738000D01*
X116078000Y-60706001D02*
G75*
G03*
X114046001Y-62738000I0J-2031999D01*
G01*
X112014000Y-117855999D02*
X77597000Y-117856001D01*
X150368000Y-136144000D02*
X77597000Y-136144000D01*
X204724000Y-117094000D02*
X206756000Y-117094000D01*
X75565001Y-119888000D02*
X75565000Y-134112000D01*
X150368000Y-136144000D02*
G75*
G03*
X151916227Y-135576519I-5457J2410600D01*
G01*
D11*
%TO.C,SW2*%
X130190000Y-62850000D02*
X116190000Y-62850000D01*
X116190000Y-76850000D02*
X130190000Y-76850000D01*
X130190000Y-76850000D02*
X130190000Y-62850000D01*
X116190000Y-62850000D02*
X116190000Y-76850000D01*
X116190000Y-134000000D02*
X130190000Y-134000000D01*
X130190000Y-134000000D02*
X130190000Y-120000000D01*
X130190000Y-120000000D02*
X116190000Y-120000000D01*
X116190000Y-120000000D02*
X116190000Y-134000000D01*
X168290000Y-62850000D02*
X154290000Y-62850000D01*
X168290000Y-76850000D02*
X168290000Y-62850000D01*
X154290000Y-76850000D02*
X168290000Y-76850000D01*
X154290000Y-62850000D02*
X154290000Y-76850000D01*
X206390000Y-95900000D02*
X206390000Y-81900000D01*
X192390000Y-81900000D02*
X192390000Y-95900000D01*
X192390000Y-95900000D02*
X206390000Y-95900000D01*
X206390000Y-81900000D02*
X192390000Y-81900000D01*
X116190000Y-114950000D02*
X130190000Y-114950000D01*
X116190000Y-100950000D02*
X116190000Y-114950000D01*
X130190000Y-100950000D02*
X116190000Y-100950000D01*
X130190000Y-114950000D02*
X130190000Y-100950000D01*
X154290000Y-81900000D02*
X154290000Y-95900000D01*
X154290000Y-95900000D02*
X168290000Y-95900000D01*
X168290000Y-81900000D02*
X154290000Y-81900000D01*
X168290000Y-95900000D02*
X168290000Y-81900000D01*
X149240000Y-120000000D02*
X135240000Y-120000000D01*
X149240000Y-134000000D02*
X149240000Y-120000000D01*
X135240000Y-134000000D02*
X149240000Y-134000000D01*
X135240000Y-120000000D02*
X135240000Y-134000000D01*
X173340000Y-95900000D02*
X187340000Y-95900000D01*
X187340000Y-95900000D02*
X187340000Y-81900000D01*
X187340000Y-81900000D02*
X173340000Y-81900000D01*
X173340000Y-81900000D02*
X173340000Y-95900000D01*
X78090000Y-120000000D02*
X78090000Y-134000000D01*
X78090000Y-134000000D02*
X92090000Y-134000000D01*
X92090000Y-134000000D02*
X92090000Y-120000000D01*
X92090000Y-120000000D02*
X78090000Y-120000000D01*
X135240000Y-81900000D02*
X135240000Y-95900000D01*
X149240000Y-81900000D02*
X135240000Y-81900000D01*
X149240000Y-95900000D02*
X149240000Y-81900000D01*
X135240000Y-95900000D02*
X149240000Y-95900000D01*
X149240000Y-62850000D02*
X135240000Y-62850000D01*
X149240000Y-76850000D02*
X149240000Y-62850000D01*
X135240000Y-62850000D02*
X135240000Y-76850000D01*
X135240000Y-76850000D02*
X149240000Y-76850000D01*
X130190000Y-81900000D02*
X116190000Y-81900000D01*
X116190000Y-81900000D02*
X116190000Y-95900000D01*
X116190000Y-95900000D02*
X130190000Y-95900000D01*
X130190000Y-95900000D02*
X130190000Y-81900000D01*
X154290000Y-114950000D02*
X168290000Y-114950000D01*
X168290000Y-114950000D02*
X168290000Y-100950000D01*
X168290000Y-100950000D02*
X154290000Y-100950000D01*
X154290000Y-100950000D02*
X154290000Y-114950000D01*
X192390000Y-100950000D02*
X192390000Y-114950000D01*
X192390000Y-114950000D02*
X206390000Y-114950000D01*
X206390000Y-100950000D02*
X192390000Y-100950000D01*
X206390000Y-114950000D02*
X206390000Y-100950000D01*
X173340000Y-76850000D02*
X187340000Y-76850000D01*
X187340000Y-76850000D02*
X187340000Y-62850000D01*
X187340000Y-62850000D02*
X173340000Y-62850000D01*
X173340000Y-62850000D02*
X173340000Y-76850000D01*
X135240000Y-100950000D02*
X135240000Y-114950000D01*
X135240000Y-114950000D02*
X149240000Y-114950000D01*
X149240000Y-114950000D02*
X149240000Y-100950000D01*
X149240000Y-100950000D02*
X135240000Y-100950000D01*
X97140000Y-134000000D02*
X111140000Y-134000000D01*
X111140000Y-120000000D02*
X97140000Y-120000000D01*
X111140000Y-134000000D02*
X111140000Y-120000000D01*
X97140000Y-120000000D02*
X97140000Y-134000000D01*
X192390000Y-62850000D02*
X192390000Y-76850000D01*
X206390000Y-62850000D02*
X192390000Y-62850000D01*
X206390000Y-76850000D02*
X206390000Y-62850000D01*
X192390000Y-76850000D02*
X206390000Y-76850000D01*
X173340000Y-114950000D02*
X187340000Y-114950000D01*
X187340000Y-100950000D02*
X173340000Y-100950000D01*
X173340000Y-100950000D02*
X173340000Y-114950000D01*
X187340000Y-114950000D02*
X187340000Y-100950000D01*
%TD*%
M02*
