%TF.GenerationSoftware,KiCad,Pcbnew,(6.0.10)*%
%TF.CreationDate,2023-03-05T22:19:38-08:00*%
%TF.ProjectId,tsbym-top_plate,74736279-6d2d-4746-9f70-5f706c617465,rev?*%
%TF.SameCoordinates,Original*%
%TF.FileFunction,Drillmap*%
%TF.FilePolarity,Positive*%
%FSLAX45Y45*%
G04 Gerber Fmt 4.5, Leading zero omitted, Abs format (unit mm)*
G04 Created by KiCad (PCBNEW (6.0.10)) date 2023-03-05 22:19:38*
%MOMM*%
%LPD*%
G01*
G04 APERTURE LIST*
%ADD10C,0.100000*%
%ADD11C,0.200000*%
%ADD12C,0.230000*%
G04 APERTURE END LIST*
D10*
X20675600Y-11709400D02*
G75*
G03*
X20878800Y-11506200I0J203200D01*
G01*
X11201400Y-11785600D02*
G75*
G03*
X11404600Y-11582400I0J203200D01*
G01*
X11404600Y-6273800D02*
X11404600Y-11582400D01*
X7759700Y-11785600D02*
G75*
G03*
X7556500Y-11988800I0J-203200D01*
G01*
X20675600Y-6070600D02*
X11607800Y-6070600D01*
X17132300Y-11709400D02*
G75*
G03*
X16977477Y-11766148I546J-241060D01*
G01*
X20878800Y-6273800D02*
G75*
G03*
X20675600Y-6070600I-203200J0D01*
G01*
X15191623Y-13557652D02*
X16977477Y-11766148D01*
X7556500Y-13411200D02*
G75*
G03*
X7759700Y-13614400I203200J0D01*
G01*
X20472400Y-11709400D02*
X17132300Y-11709400D01*
X20878800Y-11506200D02*
X20878800Y-6273800D01*
X11607800Y-6070600D02*
G75*
G03*
X11404600Y-6273800I0J-203200D01*
G01*
X11201400Y-11785600D02*
X7759700Y-11785600D01*
X15036800Y-13614400D02*
X7759700Y-13614400D01*
X20472400Y-11709400D02*
X20675600Y-11709400D01*
X7556500Y-11988800D02*
X7556500Y-13411200D01*
X15036800Y-13614400D02*
G75*
G03*
X15191623Y-13557652I-546J241060D01*
G01*
D11*
D12*
X13156500Y-9727500D02*
X13386500Y-9957500D01*
X13386500Y-9727500D02*
X13156500Y-9957500D01*
X15442500Y-12140500D02*
X15672500Y-12370500D01*
X15672500Y-12140500D02*
X15442500Y-12370500D01*
X18871500Y-7822500D02*
X19101500Y-8052500D01*
X19101500Y-7822500D02*
X18871500Y-8052500D01*
X18871500Y-9727500D02*
X19101500Y-9957500D01*
X19101500Y-9727500D02*
X18871500Y-9957500D01*
D11*
X7809119Y-13929876D02*
X7809119Y-13729876D01*
X7856738Y-13729876D01*
X7885309Y-13739400D01*
X7904357Y-13758448D01*
X7913881Y-13777495D01*
X7923405Y-13815590D01*
X7923405Y-13844162D01*
X7913881Y-13882257D01*
X7904357Y-13901305D01*
X7885309Y-13920352D01*
X7856738Y-13929876D01*
X7809119Y-13929876D01*
X8009119Y-13929876D02*
X8009119Y-13796543D01*
X8009119Y-13834638D02*
X8018643Y-13815590D01*
X8028167Y-13806067D01*
X8047214Y-13796543D01*
X8066262Y-13796543D01*
X8132928Y-13929876D02*
X8132928Y-13796543D01*
X8132928Y-13729876D02*
X8123405Y-13739400D01*
X8132928Y-13748924D01*
X8142452Y-13739400D01*
X8132928Y-13729876D01*
X8132928Y-13748924D01*
X8256738Y-13929876D02*
X8237690Y-13920352D01*
X8228167Y-13901305D01*
X8228167Y-13729876D01*
X8361500Y-13929876D02*
X8342452Y-13920352D01*
X8332928Y-13901305D01*
X8332928Y-13729876D01*
X8590071Y-13929876D02*
X8590071Y-13729876D01*
X8656738Y-13872733D01*
X8723405Y-13729876D01*
X8723405Y-13929876D01*
X8904357Y-13929876D02*
X8904357Y-13825114D01*
X8894833Y-13806067D01*
X8875786Y-13796543D01*
X8837690Y-13796543D01*
X8818643Y-13806067D01*
X8904357Y-13920352D02*
X8885310Y-13929876D01*
X8837690Y-13929876D01*
X8818643Y-13920352D01*
X8809119Y-13901305D01*
X8809119Y-13882257D01*
X8818643Y-13863209D01*
X8837690Y-13853686D01*
X8885310Y-13853686D01*
X8904357Y-13844162D01*
X8999595Y-13796543D02*
X8999595Y-13996543D01*
X8999595Y-13806067D02*
X9018643Y-13796543D01*
X9056738Y-13796543D01*
X9075786Y-13806067D01*
X9085310Y-13815590D01*
X9094833Y-13834638D01*
X9094833Y-13891781D01*
X9085310Y-13910828D01*
X9075786Y-13920352D01*
X9056738Y-13929876D01*
X9018643Y-13929876D01*
X8999595Y-13920352D01*
X9180548Y-13910828D02*
X9190071Y-13920352D01*
X9180548Y-13929876D01*
X9171024Y-13920352D01*
X9180548Y-13910828D01*
X9180548Y-13929876D01*
X9180548Y-13806067D02*
X9190071Y-13815590D01*
X9180548Y-13825114D01*
X9171024Y-13815590D01*
X9180548Y-13806067D01*
X9180548Y-13825114D01*
X7351500Y-14159400D02*
X7551500Y-14359400D01*
X7551500Y-14159400D02*
X7351500Y-14359400D01*
X7799595Y-14168924D02*
X7809119Y-14159400D01*
X7828167Y-14149876D01*
X7875786Y-14149876D01*
X7894833Y-14159400D01*
X7904357Y-14168924D01*
X7913881Y-14187971D01*
X7913881Y-14207019D01*
X7904357Y-14235590D01*
X7790071Y-14349876D01*
X7913881Y-14349876D01*
X7999595Y-14330828D02*
X8009119Y-14340352D01*
X7999595Y-14349876D01*
X7990071Y-14340352D01*
X7999595Y-14330828D01*
X7999595Y-14349876D01*
X8075786Y-14149876D02*
X8199595Y-14149876D01*
X8132928Y-14226067D01*
X8161500Y-14226067D01*
X8180548Y-14235590D01*
X8190071Y-14245114D01*
X8199595Y-14264162D01*
X8199595Y-14311781D01*
X8190071Y-14330828D01*
X8180548Y-14340352D01*
X8161500Y-14349876D01*
X8104357Y-14349876D01*
X8085309Y-14340352D01*
X8075786Y-14330828D01*
X8323405Y-14149876D02*
X8342452Y-14149876D01*
X8361500Y-14159400D01*
X8371024Y-14168924D01*
X8380548Y-14187971D01*
X8390071Y-14226067D01*
X8390071Y-14273686D01*
X8380548Y-14311781D01*
X8371024Y-14330828D01*
X8361500Y-14340352D01*
X8342452Y-14349876D01*
X8323405Y-14349876D01*
X8304357Y-14340352D01*
X8294833Y-14330828D01*
X8285309Y-14311781D01*
X8275786Y-14273686D01*
X8275786Y-14226067D01*
X8285309Y-14187971D01*
X8294833Y-14168924D01*
X8304357Y-14159400D01*
X8323405Y-14149876D01*
X8513881Y-14149876D02*
X8532929Y-14149876D01*
X8551976Y-14159400D01*
X8561500Y-14168924D01*
X8571024Y-14187971D01*
X8580548Y-14226067D01*
X8580548Y-14273686D01*
X8571024Y-14311781D01*
X8561500Y-14330828D01*
X8551976Y-14340352D01*
X8532929Y-14349876D01*
X8513881Y-14349876D01*
X8494833Y-14340352D01*
X8485310Y-14330828D01*
X8475786Y-14311781D01*
X8466262Y-14273686D01*
X8466262Y-14226067D01*
X8475786Y-14187971D01*
X8485310Y-14168924D01*
X8494833Y-14159400D01*
X8513881Y-14149876D01*
X8666262Y-14349876D02*
X8666262Y-14216543D01*
X8666262Y-14235590D02*
X8675786Y-14226067D01*
X8694833Y-14216543D01*
X8723405Y-14216543D01*
X8742452Y-14226067D01*
X8751976Y-14245114D01*
X8751976Y-14349876D01*
X8751976Y-14245114D02*
X8761500Y-14226067D01*
X8780548Y-14216543D01*
X8809119Y-14216543D01*
X8828167Y-14226067D01*
X8837690Y-14245114D01*
X8837690Y-14349876D01*
X8932929Y-14349876D02*
X8932929Y-14216543D01*
X8932929Y-14235590D02*
X8942452Y-14226067D01*
X8961500Y-14216543D01*
X8990071Y-14216543D01*
X9009119Y-14226067D01*
X9018643Y-14245114D01*
X9018643Y-14349876D01*
X9018643Y-14245114D02*
X9028167Y-14226067D01*
X9047214Y-14216543D01*
X9075786Y-14216543D01*
X9094833Y-14226067D01*
X9104357Y-14245114D01*
X9104357Y-14349876D01*
X9494833Y-14140352D02*
X9323405Y-14397495D01*
X9751976Y-14149876D02*
X9771024Y-14149876D01*
X9790071Y-14159400D01*
X9799595Y-14168924D01*
X9809119Y-14187971D01*
X9818643Y-14226067D01*
X9818643Y-14273686D01*
X9809119Y-14311781D01*
X9799595Y-14330828D01*
X9790071Y-14340352D01*
X9771024Y-14349876D01*
X9751976Y-14349876D01*
X9732929Y-14340352D01*
X9723405Y-14330828D01*
X9713881Y-14311781D01*
X9704357Y-14273686D01*
X9704357Y-14226067D01*
X9713881Y-14187971D01*
X9723405Y-14168924D01*
X9732929Y-14159400D01*
X9751976Y-14149876D01*
X9904357Y-14330828D02*
X9913881Y-14340352D01*
X9904357Y-14349876D01*
X9894833Y-14340352D01*
X9904357Y-14330828D01*
X9904357Y-14349876D01*
X10037690Y-14149876D02*
X10056738Y-14149876D01*
X10075786Y-14159400D01*
X10085310Y-14168924D01*
X10094833Y-14187971D01*
X10104357Y-14226067D01*
X10104357Y-14273686D01*
X10094833Y-14311781D01*
X10085310Y-14330828D01*
X10075786Y-14340352D01*
X10056738Y-14349876D01*
X10037690Y-14349876D01*
X10018643Y-14340352D01*
X10009119Y-14330828D01*
X9999595Y-14311781D01*
X9990071Y-14273686D01*
X9990071Y-14226067D01*
X9999595Y-14187971D01*
X10009119Y-14168924D01*
X10018643Y-14159400D01*
X10037690Y-14149876D01*
X10199595Y-14349876D02*
X10237690Y-14349876D01*
X10256738Y-14340352D01*
X10266262Y-14330828D01*
X10285310Y-14302257D01*
X10294833Y-14264162D01*
X10294833Y-14187971D01*
X10285310Y-14168924D01*
X10275786Y-14159400D01*
X10256738Y-14149876D01*
X10218643Y-14149876D01*
X10199595Y-14159400D01*
X10190071Y-14168924D01*
X10180548Y-14187971D01*
X10180548Y-14235590D01*
X10190071Y-14254638D01*
X10199595Y-14264162D01*
X10218643Y-14273686D01*
X10256738Y-14273686D01*
X10275786Y-14264162D01*
X10285310Y-14254638D01*
X10294833Y-14235590D01*
X10418643Y-14149876D02*
X10437690Y-14149876D01*
X10456738Y-14159400D01*
X10466262Y-14168924D01*
X10475786Y-14187971D01*
X10485310Y-14226067D01*
X10485310Y-14273686D01*
X10475786Y-14311781D01*
X10466262Y-14330828D01*
X10456738Y-14340352D01*
X10437690Y-14349876D01*
X10418643Y-14349876D01*
X10399595Y-14340352D01*
X10390071Y-14330828D01*
X10380548Y-14311781D01*
X10371024Y-14273686D01*
X10371024Y-14226067D01*
X10380548Y-14187971D01*
X10390071Y-14168924D01*
X10399595Y-14159400D01*
X10418643Y-14149876D01*
X10656738Y-14149876D02*
X10618643Y-14149876D01*
X10599595Y-14159400D01*
X10590071Y-14168924D01*
X10571024Y-14197495D01*
X10561500Y-14235590D01*
X10561500Y-14311781D01*
X10571024Y-14330828D01*
X10580548Y-14340352D01*
X10599595Y-14349876D01*
X10637690Y-14349876D01*
X10656738Y-14340352D01*
X10666262Y-14330828D01*
X10675786Y-14311781D01*
X10675786Y-14264162D01*
X10666262Y-14245114D01*
X10656738Y-14235590D01*
X10637690Y-14226067D01*
X10599595Y-14226067D01*
X10580548Y-14235590D01*
X10571024Y-14245114D01*
X10561500Y-14264162D01*
X10751976Y-14149876D02*
X10751976Y-14187971D01*
X10828167Y-14149876D02*
X10828167Y-14187971D01*
X11123405Y-14426067D02*
X11113881Y-14416543D01*
X11094833Y-14387971D01*
X11085310Y-14368924D01*
X11075786Y-14340352D01*
X11066262Y-14292733D01*
X11066262Y-14254638D01*
X11075786Y-14207019D01*
X11085310Y-14178448D01*
X11094833Y-14159400D01*
X11113881Y-14130828D01*
X11123405Y-14121305D01*
X11285309Y-14216543D02*
X11285309Y-14349876D01*
X11237690Y-14140352D02*
X11190071Y-14283209D01*
X11313881Y-14283209D01*
X11542452Y-14349876D02*
X11542452Y-14149876D01*
X11628167Y-14349876D02*
X11628167Y-14245114D01*
X11618643Y-14226067D01*
X11599595Y-14216543D01*
X11571024Y-14216543D01*
X11551976Y-14226067D01*
X11542452Y-14235590D01*
X11751976Y-14349876D02*
X11732928Y-14340352D01*
X11723405Y-14330828D01*
X11713881Y-14311781D01*
X11713881Y-14254638D01*
X11723405Y-14235590D01*
X11732928Y-14226067D01*
X11751976Y-14216543D01*
X11780548Y-14216543D01*
X11799595Y-14226067D01*
X11809119Y-14235590D01*
X11818643Y-14254638D01*
X11818643Y-14311781D01*
X11809119Y-14330828D01*
X11799595Y-14340352D01*
X11780548Y-14349876D01*
X11751976Y-14349876D01*
X11932928Y-14349876D02*
X11913881Y-14340352D01*
X11904357Y-14321305D01*
X11904357Y-14149876D01*
X12085309Y-14340352D02*
X12066262Y-14349876D01*
X12028167Y-14349876D01*
X12009119Y-14340352D01*
X11999595Y-14321305D01*
X11999595Y-14245114D01*
X12009119Y-14226067D01*
X12028167Y-14216543D01*
X12066262Y-14216543D01*
X12085309Y-14226067D01*
X12094833Y-14245114D01*
X12094833Y-14264162D01*
X11999595Y-14283209D01*
X12171024Y-14340352D02*
X12190071Y-14349876D01*
X12228167Y-14349876D01*
X12247214Y-14340352D01*
X12256738Y-14321305D01*
X12256738Y-14311781D01*
X12247214Y-14292733D01*
X12228167Y-14283209D01*
X12199595Y-14283209D01*
X12180548Y-14273686D01*
X12171024Y-14254638D01*
X12171024Y-14245114D01*
X12180548Y-14226067D01*
X12199595Y-14216543D01*
X12228167Y-14216543D01*
X12247214Y-14226067D01*
X12323405Y-14426067D02*
X12332928Y-14416543D01*
X12351976Y-14387971D01*
X12361500Y-14368924D01*
X12371024Y-14340352D01*
X12380548Y-14292733D01*
X12380548Y-14254638D01*
X12371024Y-14207019D01*
X12361500Y-14178448D01*
X12351976Y-14159400D01*
X12332928Y-14130828D01*
X12323405Y-14121305D01*
M02*
