%TF.GenerationSoftware,KiCad,Pcbnew,(6.0.10)*%
%TF.CreationDate,2023-03-05T22:19:41-08:00*%
%TF.ProjectId,tsbym-top_plate,74736279-6d2d-4746-9f70-5f706c617465,rev?*%
%TF.SameCoordinates,Original*%
%TF.FileFunction,Soldermask,Top*%
%TF.FilePolarity,Negative*%
%FSLAX46Y46*%
G04 Gerber Fmt 4.6, Leading zero omitted, Abs format (unit mm)*
G04 Created by KiCad (PCBNEW (6.0.10)) date 2023-03-05 22:19:41*
%MOMM*%
%LPD*%
G01*
G04 APERTURE LIST*
%ADD10C,0.300000*%
%ADD11C,4.200000*%
G04 APERTURE END LIST*
D10*
X152992142Y-119280714D02*
X152920714Y-119352142D01*
X152706428Y-119423571D01*
X152563571Y-119423571D01*
X152349285Y-119352142D01*
X152206428Y-119209285D01*
X152135000Y-119066428D01*
X152063571Y-118780714D01*
X152063571Y-118566428D01*
X152135000Y-118280714D01*
X152206428Y-118137857D01*
X152349285Y-117995000D01*
X152563571Y-117923571D01*
X152706428Y-117923571D01*
X152920714Y-117995000D01*
X152992142Y-118066428D01*
X154420714Y-117995000D02*
X154277857Y-117923571D01*
X154063571Y-117923571D01*
X153849285Y-117995000D01*
X153706428Y-118137857D01*
X153635000Y-118280714D01*
X153563571Y-118566428D01*
X153563571Y-118780714D01*
X153635000Y-119066428D01*
X153706428Y-119209285D01*
X153849285Y-119352142D01*
X154063571Y-119423571D01*
X154206428Y-119423571D01*
X154420714Y-119352142D01*
X154492142Y-119280714D01*
X154492142Y-118780714D01*
X154206428Y-118780714D01*
X154992142Y-119423571D02*
X155777857Y-118423571D01*
X154992142Y-118423571D02*
X155777857Y-119423571D01*
X156349285Y-119423571D02*
X156349285Y-117923571D01*
X157206428Y-119423571D02*
X156563571Y-118566428D01*
X157206428Y-117923571D02*
X156349285Y-118780714D01*
X158349285Y-118637857D02*
X158563571Y-118709285D01*
X158635000Y-118780714D01*
X158706428Y-118923571D01*
X158706428Y-119137857D01*
X158635000Y-119280714D01*
X158563571Y-119352142D01*
X158420714Y-119423571D01*
X157849285Y-119423571D01*
X157849285Y-117923571D01*
X158349285Y-117923571D01*
X158492142Y-117995000D01*
X158563571Y-118066428D01*
X158635000Y-118209285D01*
X158635000Y-118352142D01*
X158563571Y-118495000D01*
X158492142Y-118566428D01*
X158349285Y-118637857D01*
X157849285Y-118637857D01*
X160349285Y-118423571D02*
X160706428Y-119423571D01*
X161063571Y-118423571D01*
X161920714Y-117923571D02*
X162063571Y-117923571D01*
X162206428Y-117995000D01*
X162277857Y-118066428D01*
X162349285Y-118209285D01*
X162420714Y-118495000D01*
X162420714Y-118852142D01*
X162349285Y-119137857D01*
X162277857Y-119280714D01*
X162206428Y-119352142D01*
X162063571Y-119423571D01*
X161920714Y-119423571D01*
X161777857Y-119352142D01*
X161706428Y-119280714D01*
X161635000Y-119137857D01*
X161563571Y-118852142D01*
X161563571Y-118495000D01*
X161635000Y-118209285D01*
X161706428Y-118066428D01*
X161777857Y-117995000D01*
X161920714Y-117923571D01*
X163063571Y-119280714D02*
X163135000Y-119352142D01*
X163063571Y-119423571D01*
X162992142Y-119352142D01*
X163063571Y-119280714D01*
X163063571Y-119423571D01*
X164563571Y-119423571D02*
X163706428Y-119423571D01*
X164135000Y-119423571D02*
X164135000Y-117923571D01*
X163992142Y-118137857D01*
X163849285Y-118280714D01*
X163706428Y-118352142D01*
X165206428Y-119280714D02*
X165277857Y-119352142D01*
X165206428Y-119423571D01*
X165135000Y-119352142D01*
X165206428Y-119280714D01*
X165206428Y-119423571D01*
X166206428Y-117923571D02*
X166349285Y-117923571D01*
X166492142Y-117995000D01*
X166563571Y-118066428D01*
X166635000Y-118209285D01*
X166706428Y-118495000D01*
X166706428Y-118852142D01*
X166635000Y-119137857D01*
X166563571Y-119280714D01*
X166492142Y-119352142D01*
X166349285Y-119423571D01*
X166206428Y-119423571D01*
X166063571Y-119352142D01*
X165992142Y-119280714D01*
X165920714Y-119137857D01*
X165849285Y-118852142D01*
X165849285Y-118495000D01*
X165920714Y-118209285D01*
X165992142Y-118066428D01*
X166063571Y-117995000D01*
X166206428Y-117923571D01*
D11*
%TO.C,Ref\u002A\u002A*%
X189865000Y-79375000D03*
%TD*%
%TO.C,Ref\u002A\u002A*%
X155575000Y-122555000D03*
%TD*%
%TO.C,Ref\u002A\u002A*%
X132715000Y-98425000D03*
%TD*%
%TO.C,Ref\u002A\u002A*%
X189865000Y-98425000D03*
%TD*%
M02*
