G04 #@! TF.GenerationSoftware,KiCad,Pcbnew,(6.0.10)*
G04 #@! TF.CreationDate,2023-03-05T22:21:07-08:00*
G04 #@! TF.ProjectId,tsbym,74736279-6d2e-46b6-9963-61645f706362,rev?*
G04 #@! TF.SameCoordinates,Original*
G04 #@! TF.FileFunction,Paste,Bot*
G04 #@! TF.FilePolarity,Positive*
%FSLAX46Y46*%
G04 Gerber Fmt 4.6, Leading zero omitted, Abs format (unit mm)*
G04 Created by KiCad (PCBNEW (6.0.10)) date 2023-03-05 22:21:07*
%MOMM*%
%LPD*%
G01*
G04 APERTURE LIST*
%ADD10R,0.950000X1.300000*%
%ADD11R,2.000000X2.000000*%
%ADD12R,1.900000X2.000000*%
%ADD13R,1.300000X0.950000*%
G04 APERTURE END LIST*
D10*
X137795000Y-59941000D03*
X137795000Y-56391000D03*
X80645000Y-98041000D03*
X80645000Y-94491000D03*
X156845000Y-78991000D03*
X156845000Y-75441000D03*
D11*
X174470000Y-90280000D03*
X173270000Y-96520000D03*
D12*
X163570000Y-88080000D03*
D11*
X160770000Y-99060000D03*
X155420000Y-52180000D03*
X154220000Y-58420000D03*
X141720000Y-60960000D03*
D12*
X144520000Y-49980000D03*
D11*
X136370000Y-52180000D03*
X135170000Y-58420000D03*
X122670000Y-60960000D03*
D12*
X125470000Y-49980000D03*
D10*
X99695000Y-117091000D03*
X99695000Y-113541000D03*
D13*
X50295000Y-121031000D03*
X53845000Y-121031000D03*
D11*
X98270000Y-109330000D03*
X97070000Y-115570000D03*
D12*
X87370000Y-107130000D03*
D11*
X84570000Y-118110000D03*
D10*
X99695000Y-78991000D03*
X99695000Y-75441000D03*
D11*
X135170000Y-96520000D03*
X136370000Y-90280000D03*
D12*
X125470000Y-88080000D03*
D11*
X122670000Y-99060000D03*
X60170000Y-109330000D03*
X58970000Y-115570000D03*
D12*
X49270000Y-107130000D03*
D11*
X46470000Y-118110000D03*
D10*
X99695000Y-98041000D03*
X99695000Y-94491000D03*
X118745000Y-59941000D03*
X118745000Y-56391000D03*
D11*
X173270000Y-77470000D03*
X174470000Y-71230000D03*
D12*
X163570000Y-69030000D03*
D11*
X160770000Y-80010000D03*
D13*
X91945000Y-64008000D03*
X88395000Y-64008000D03*
D11*
X135170000Y-77470000D03*
X136370000Y-71230000D03*
D12*
X125470000Y-69030000D03*
D11*
X122670000Y-80010000D03*
D10*
X118745000Y-78991000D03*
X118745000Y-75441000D03*
D11*
X117320000Y-71230000D03*
X116120000Y-77470000D03*
D12*
X106420000Y-69030000D03*
D11*
X103620000Y-80010000D03*
D10*
X99695000Y-59941000D03*
X99695000Y-56391000D03*
X80645000Y-78991000D03*
X80645000Y-75441000D03*
X137795000Y-78991000D03*
X137795000Y-75441000D03*
X118745000Y-98041000D03*
X118745000Y-94491000D03*
X156845000Y-98041000D03*
X156845000Y-94491000D03*
D11*
X97070000Y-58420000D03*
X98270000Y-52180000D03*
X84570000Y-60960000D03*
D12*
X87370000Y-49980000D03*
D11*
X97070000Y-96520000D03*
X98270000Y-90280000D03*
X84570000Y-99060000D03*
D12*
X87370000Y-88080000D03*
D10*
X156845000Y-59941000D03*
X156845000Y-56391000D03*
D11*
X117320000Y-109330000D03*
X116120000Y-115570000D03*
X103620000Y-118110000D03*
D12*
X106420000Y-107130000D03*
D11*
X79220000Y-109330000D03*
X78020000Y-115570000D03*
X65520000Y-118110000D03*
D12*
X68320000Y-107130000D03*
D11*
X98270000Y-71230000D03*
X97070000Y-77470000D03*
D12*
X87370000Y-69030000D03*
D11*
X84570000Y-80010000D03*
D13*
X62735000Y-94742000D03*
X59185000Y-94742000D03*
D11*
X174470000Y-52180000D03*
X173270000Y-58420000D03*
D12*
X163570000Y-49980000D03*
D11*
X160770000Y-60960000D03*
D10*
X61595000Y-117091000D03*
X61595000Y-113541000D03*
X137795000Y-98041000D03*
X137795000Y-94491000D03*
D11*
X117320000Y-52180000D03*
X116120000Y-58420000D03*
X103620000Y-60960000D03*
D12*
X106420000Y-49980000D03*
D11*
X116120000Y-96520000D03*
X117320000Y-90280000D03*
D12*
X106420000Y-88080000D03*
D11*
X103620000Y-99060000D03*
D10*
X80645000Y-117091000D03*
X80645000Y-113541000D03*
D11*
X155420000Y-71230000D03*
X154220000Y-77470000D03*
D12*
X144520000Y-69030000D03*
D11*
X141720000Y-80010000D03*
X154220000Y-96520000D03*
X155420000Y-90280000D03*
D12*
X144520000Y-88080000D03*
D11*
X141720000Y-99060000D03*
M02*
