%TF.GenerationSoftware,KiCad,Pcbnew,(6.0.10)*%
%TF.CreationDate,2023-03-05T22:21:03-08:00*%
%TF.ProjectId,tsbym,74736279-6d2e-46b6-9963-61645f706362,rev?*%
%TF.SameCoordinates,Original*%
%TF.FileFunction,Drillmap*%
%TF.FilePolarity,Positive*%
%FSLAX45Y45*%
G04 Gerber Fmt 4.5, Leading zero omitted, Abs format (unit mm)*
G04 Created by KiCad (PCBNEW (6.0.10)) date 2023-03-05 22:21:03*
%MOMM*%
%LPD*%
G01*
G04 APERTURE LIST*
%ADD10C,0.100000*%
%ADD11C,0.200000*%
%ADD12C,0.040000*%
%ADD13C,0.070000*%
%ADD14C,0.081280*%
%ADD15C,0.130000*%
%ADD16C,0.150000*%
%ADD17C,0.230000*%
G04 APERTURE END LIST*
D10*
X17576800Y-4876800D02*
G75*
G03*
X17373600Y-4673600I-203200J0D01*
G01*
X14630400Y-10312400D02*
X13830300Y-10312400D01*
X14224000Y-10515600D02*
X14224000Y-12217400D01*
X17373600Y-10312400D02*
G75*
G03*
X17576800Y-10109200I0J203200D01*
G01*
X11734800Y-12217400D02*
G75*
G03*
X11889623Y-12160652I-546J241060D01*
G01*
X17576800Y-10109200D02*
X17576800Y-4876800D01*
X14224000Y-12217400D02*
X16332200Y-12217400D01*
X15011400Y-11798300D02*
X15011400Y-10934700D01*
X17373600Y-4673600D02*
X4470400Y-4673600D01*
X17170400Y-10312400D02*
X17373600Y-10312400D01*
X6096000Y-8242300D02*
G75*
G03*
X6096000Y-8775700I0J-266700D01*
G01*
X15392400Y-10312400D02*
G75*
G03*
X15392400Y-10515600I0J-101600D01*
G01*
X4470400Y-4673600D02*
G75*
G03*
X4254500Y-4889500I0J-215900D01*
G01*
X16408400Y-10312400D02*
X15392400Y-10312400D01*
X15011400Y-10934700D02*
X16751300Y-10934700D01*
X11734800Y-12217400D02*
X4457700Y-12217400D01*
X6527800Y-8242300D02*
X6527800Y-8775700D01*
X14630400Y-10515600D02*
G75*
G03*
X14630400Y-10312400I0J101600D01*
G01*
X17576800Y-10515600D02*
X17576800Y-12217400D01*
X15011400Y-11798300D02*
X16751300Y-11798300D01*
X15392400Y-10515600D02*
X16408400Y-10515600D01*
X16751300Y-10934700D02*
X16751300Y-11798300D01*
X4254500Y-4889500D02*
X4254500Y-12014200D01*
X6527800Y-8775700D02*
X6096000Y-8775700D01*
X4254500Y-12014200D02*
G75*
G03*
X4457700Y-12217400I203200J0D01*
G01*
X17170400Y-10515600D02*
X17576800Y-10515600D01*
X16332200Y-12217400D02*
X17576800Y-12217400D01*
X17170400Y-10312400D02*
G75*
G03*
X17170400Y-10515600I0J-101600D01*
G01*
X6096000Y-8242300D02*
X6527800Y-8242300D01*
X13830300Y-10312400D02*
G75*
G03*
X13675477Y-10369148I546J-241060D01*
G01*
X14224000Y-10515600D02*
X14630400Y-10515600D01*
X16408400Y-10515600D02*
G75*
G03*
X16408400Y-10312400I0J101600D01*
G01*
X11889623Y-12160652D02*
X13675477Y-10369148D01*
D11*
D12*
X4488500Y-11371900D02*
X4528500Y-11411900D01*
X4528500Y-11371900D02*
X4488500Y-11411900D01*
X4615500Y-5085400D02*
X4655500Y-5125400D01*
X4655500Y-5085400D02*
X4615500Y-5125400D01*
X4869500Y-5085400D02*
X4909500Y-5125400D01*
X4909500Y-5085400D02*
X4869500Y-5125400D01*
X4869500Y-6012500D02*
X4909500Y-6052500D01*
X4909500Y-6012500D02*
X4869500Y-6052500D01*
X5034000Y-10907800D02*
X5074000Y-10947800D01*
X5074000Y-10907800D02*
X5034000Y-10947800D01*
X5123500Y-5085400D02*
X5163500Y-5125400D01*
X5163500Y-5085400D02*
X5123500Y-5125400D01*
X5199700Y-5237800D02*
X5239700Y-5277800D01*
X5239700Y-5237800D02*
X5199700Y-5277800D01*
X5199700Y-6012500D02*
X5239700Y-6052500D01*
X5239700Y-6012500D02*
X5199700Y-6052500D01*
X5377500Y-5085400D02*
X5417500Y-5125400D01*
X5417500Y-5085400D02*
X5377500Y-5125400D01*
X5377500Y-5441000D02*
X5417500Y-5481000D01*
X5417500Y-5441000D02*
X5377500Y-5481000D01*
X5377500Y-5758500D02*
X5417500Y-5798500D01*
X5417500Y-5758500D02*
X5377500Y-5798500D01*
X5631500Y-5085400D02*
X5671500Y-5125400D01*
X5671500Y-5085400D02*
X5631500Y-5125400D01*
X5707700Y-5339400D02*
X5747700Y-5379400D01*
X5747700Y-5339400D02*
X5707700Y-5379400D01*
X5707700Y-5885500D02*
X5747700Y-5925500D01*
X5747700Y-5885500D02*
X5707700Y-5925500D01*
X5885500Y-5085400D02*
X5925500Y-5125400D01*
X5925500Y-5085400D02*
X5885500Y-5125400D01*
X5961700Y-5631500D02*
X6001700Y-5671500D01*
X6001700Y-5631500D02*
X5961700Y-5671500D01*
X5974400Y-7358700D02*
X6014400Y-7398700D01*
X6014400Y-7358700D02*
X5974400Y-7398700D01*
X5997000Y-11362000D02*
X6037000Y-11402000D01*
X6037000Y-11362000D02*
X5997000Y-11402000D01*
X6139500Y-5085400D02*
X6179500Y-5125400D01*
X6179500Y-5085400D02*
X6139500Y-5125400D01*
X6393500Y-5085400D02*
X6433500Y-5125400D01*
X6433500Y-5085400D02*
X6393500Y-5125400D01*
X6393500Y-11371900D02*
X6433500Y-11411900D01*
X6433500Y-11371900D02*
X6393500Y-11411900D01*
X6533200Y-7041200D02*
X6573200Y-7081200D01*
X6573200Y-7041200D02*
X6533200Y-7081200D01*
X6533200Y-7155500D02*
X6573200Y-7195500D01*
X6573200Y-7155500D02*
X6533200Y-7195500D01*
X6647500Y-5085400D02*
X6687500Y-5125400D01*
X6687500Y-5085400D02*
X6647500Y-5125400D01*
X6647500Y-7650800D02*
X6687500Y-7690800D01*
X6687500Y-7650800D02*
X6647500Y-7690800D01*
X6711000Y-8095300D02*
X6751000Y-8135300D01*
X6751000Y-8095300D02*
X6711000Y-8135300D01*
X6863400Y-8095300D02*
X6903400Y-8135300D01*
X6903400Y-8095300D02*
X6863400Y-8135300D01*
X6901500Y-5085400D02*
X6941500Y-5125400D01*
X6941500Y-5085400D02*
X6901500Y-5125400D01*
X6901500Y-7155500D02*
X6941500Y-7195500D01*
X6941500Y-7155500D02*
X6901500Y-7195500D01*
X6939000Y-10907800D02*
X6979000Y-10947800D01*
X6979000Y-10907800D02*
X6939000Y-10947800D01*
X6939600Y-8362000D02*
X6979600Y-8402000D01*
X6979600Y-8362000D02*
X6939600Y-8402000D01*
X6952300Y-7650800D02*
X6992300Y-7690800D01*
X6992300Y-7650800D02*
X6952300Y-7690800D01*
X7155500Y-5085400D02*
X7195500Y-5125400D01*
X7195500Y-5085400D02*
X7155500Y-5125400D01*
X7155500Y-7155500D02*
X7195500Y-7195500D01*
X7195500Y-7155500D02*
X7155500Y-7195500D01*
X7320600Y-5085400D02*
X7360600Y-5125400D01*
X7360600Y-5085400D02*
X7320600Y-5125400D01*
X7409500Y-7155500D02*
X7449500Y-7195500D01*
X7449500Y-7155500D02*
X7409500Y-7195500D01*
X7523800Y-5123500D02*
X7563800Y-5163500D01*
X7563800Y-5123500D02*
X7523800Y-5163500D01*
X7523800Y-5377500D02*
X7563800Y-5417500D01*
X7563800Y-5377500D02*
X7523800Y-5417500D01*
X7523800Y-5631500D02*
X7563800Y-5671500D01*
X7563800Y-5631500D02*
X7523800Y-5671500D01*
X7523800Y-5885500D02*
X7563800Y-5925500D01*
X7563800Y-5885500D02*
X7523800Y-5925500D01*
X7574600Y-6711000D02*
X7614600Y-6751000D01*
X7614600Y-6711000D02*
X7574600Y-6751000D01*
X7574600Y-6812600D02*
X7614600Y-6852600D01*
X7614600Y-6812600D02*
X7574600Y-6852600D01*
X7574600Y-6914200D02*
X7614600Y-6954200D01*
X7614600Y-6914200D02*
X7574600Y-6954200D01*
X7727000Y-9568500D02*
X7767000Y-9608500D01*
X7767000Y-9568500D02*
X7727000Y-9608500D01*
X7727000Y-10076500D02*
X7767000Y-10116500D01*
X7767000Y-10076500D02*
X7727000Y-10116500D01*
X7828600Y-6812600D02*
X7868600Y-6852600D01*
X7868600Y-6812600D02*
X7828600Y-6852600D01*
X7828600Y-8323900D02*
X7868600Y-8363900D01*
X7868600Y-8323900D02*
X7828600Y-8363900D01*
X7902000Y-11362000D02*
X7942000Y-11402000D01*
X7942000Y-11362000D02*
X7902000Y-11402000D01*
X7930200Y-6914200D02*
X7970200Y-6954200D01*
X7970200Y-6914200D02*
X7930200Y-6954200D01*
X8076250Y-8584250D02*
X8116250Y-8624250D01*
X8116250Y-8584250D02*
X8076250Y-8624250D01*
X8184200Y-6888800D02*
X8224200Y-6928800D01*
X8224200Y-6888800D02*
X8184200Y-6928800D01*
X8298500Y-5656900D02*
X8338500Y-5696900D01*
X8338500Y-5656900D02*
X8298500Y-5696900D01*
X8298500Y-7561900D02*
X8338500Y-7601900D01*
X8338500Y-7561900D02*
X8298500Y-7601900D01*
X8298500Y-9466900D02*
X8338500Y-9506900D01*
X8338500Y-9466900D02*
X8298500Y-9506900D01*
X8298500Y-11371900D02*
X8338500Y-11411900D01*
X8338500Y-11371900D02*
X8298500Y-11411900D01*
X8387400Y-4780600D02*
X8427400Y-4820600D01*
X8427400Y-4780600D02*
X8387400Y-4820600D01*
X8463600Y-10495600D02*
X8503600Y-10535600D01*
X8503600Y-10495600D02*
X8463600Y-10535600D01*
X8844000Y-7097800D02*
X8884000Y-7137800D01*
X8884000Y-7097800D02*
X8844000Y-7137800D01*
X8844000Y-9002800D02*
X8884000Y-9042800D01*
X8884000Y-9002800D02*
X8844000Y-9042800D01*
X8844000Y-10907800D02*
X8884000Y-10947800D01*
X8884000Y-10907800D02*
X8844000Y-10947800D01*
X8844600Y-5187000D02*
X8884600Y-5227000D01*
X8884600Y-5187000D02*
X8844600Y-5227000D01*
X9505000Y-10267000D02*
X9545000Y-10307000D01*
X9545000Y-10267000D02*
X9505000Y-10307000D01*
X9720900Y-10495600D02*
X9760900Y-10535600D01*
X9760900Y-10495600D02*
X9720900Y-10535600D01*
X9807000Y-6155000D02*
X9847000Y-6195000D01*
X9847000Y-6155000D02*
X9807000Y-6195000D01*
X9807000Y-6409000D02*
X9847000Y-6449000D01*
X9847000Y-6409000D02*
X9807000Y-6449000D01*
X9807000Y-8060000D02*
X9847000Y-8100000D01*
X9847000Y-8060000D02*
X9807000Y-8100000D01*
X9807000Y-9965000D02*
X9847000Y-10005000D01*
X9847000Y-9965000D02*
X9807000Y-10005000D01*
X9807000Y-11362000D02*
X9847000Y-11402000D01*
X9847000Y-11362000D02*
X9807000Y-11402000D01*
X10203500Y-5656900D02*
X10243500Y-5696900D01*
X10243500Y-5656900D02*
X10203500Y-5696900D01*
X10203500Y-7561900D02*
X10243500Y-7601900D01*
X10243500Y-7561900D02*
X10203500Y-7601900D01*
X10203500Y-9466900D02*
X10243500Y-9506900D01*
X10243500Y-9466900D02*
X10203500Y-9506900D01*
X10203500Y-11371900D02*
X10243500Y-11411900D01*
X10243500Y-11371900D02*
X10203500Y-11411900D01*
X10749000Y-7097800D02*
X10789000Y-7137800D01*
X10789000Y-7097800D02*
X10749000Y-7137800D01*
X10749000Y-9002800D02*
X10789000Y-9042800D01*
X10789000Y-9002800D02*
X10749000Y-9042800D01*
X10749000Y-10907800D02*
X10789000Y-10947800D01*
X10789000Y-10907800D02*
X10749000Y-10947800D01*
X10749600Y-5187000D02*
X10789600Y-5227000D01*
X10789600Y-5187000D02*
X10749600Y-5227000D01*
X11410000Y-10267000D02*
X11450000Y-10307000D01*
X11450000Y-10267000D02*
X11410000Y-10307000D01*
X11712000Y-6155000D02*
X11752000Y-6195000D01*
X11752000Y-6155000D02*
X11712000Y-6195000D01*
X11712000Y-6409000D02*
X11752000Y-6449000D01*
X11752000Y-6409000D02*
X11712000Y-6449000D01*
X11712000Y-8060000D02*
X11752000Y-8100000D01*
X11752000Y-8060000D02*
X11712000Y-8100000D01*
X11712000Y-8377500D02*
X11752000Y-8417500D01*
X11752000Y-8377500D02*
X11712000Y-8417500D01*
X11712000Y-9965000D02*
X11752000Y-10005000D01*
X11752000Y-9965000D02*
X11712000Y-10005000D01*
X11712000Y-11362000D02*
X11752000Y-11402000D01*
X11752000Y-11362000D02*
X11712000Y-11402000D01*
X11714800Y-11740200D02*
X11754800Y-11780200D01*
X11754800Y-11740200D02*
X11714800Y-11780200D01*
X12108500Y-5656900D02*
X12148500Y-5696900D01*
X12148500Y-5656900D02*
X12108500Y-5696900D01*
X12108500Y-7561900D02*
X12148500Y-7601900D01*
X12148500Y-7561900D02*
X12108500Y-7601900D01*
X12108500Y-9466900D02*
X12148500Y-9506900D01*
X12148500Y-9466900D02*
X12108500Y-9506900D01*
X12654000Y-5187600D02*
X12694000Y-5227600D01*
X12694000Y-5187600D02*
X12654000Y-5227600D01*
X12654000Y-7097800D02*
X12694000Y-7137800D01*
X12694000Y-7097800D02*
X12654000Y-7137800D01*
X12654000Y-9002800D02*
X12694000Y-9042800D01*
X12694000Y-9002800D02*
X12654000Y-9042800D01*
X13617000Y-6155000D02*
X13657000Y-6195000D01*
X13657000Y-6155000D02*
X13617000Y-6195000D01*
X13617000Y-6409000D02*
X13657000Y-6449000D01*
X13657000Y-6409000D02*
X13617000Y-6449000D01*
X13617000Y-8060000D02*
X13657000Y-8100000D01*
X13657000Y-8060000D02*
X13617000Y-8100000D01*
X13617000Y-8377500D02*
X13657000Y-8417500D01*
X13657000Y-8377500D02*
X13617000Y-8417500D01*
X13617000Y-9965000D02*
X13657000Y-10005000D01*
X13657000Y-9965000D02*
X13617000Y-10005000D01*
X14013500Y-5656900D02*
X14053500Y-5696900D01*
X14053500Y-5656900D02*
X14013500Y-5696900D01*
X14013500Y-7561900D02*
X14053500Y-7601900D01*
X14053500Y-7561900D02*
X14013500Y-7601900D01*
X14013500Y-9466900D02*
X14053500Y-9506900D01*
X14053500Y-9466900D02*
X14013500Y-9506900D01*
X14559000Y-5187600D02*
X14599000Y-5227600D01*
X14599000Y-5187600D02*
X14559000Y-5227600D01*
X14559000Y-7097800D02*
X14599000Y-7137800D01*
X14599000Y-7097800D02*
X14559000Y-7137800D01*
X14559000Y-9002800D02*
X14599000Y-9042800D01*
X14599000Y-9002800D02*
X14559000Y-9042800D01*
X14864400Y-10724200D02*
X14904400Y-10764200D01*
X14904400Y-10724200D02*
X14864400Y-10764200D01*
X15522000Y-6155000D02*
X15562000Y-6195000D01*
X15562000Y-6155000D02*
X15522000Y-6195000D01*
X15522000Y-8060000D02*
X15562000Y-8100000D01*
X15562000Y-8060000D02*
X15522000Y-8100000D01*
X15522000Y-9965000D02*
X15562000Y-10005000D01*
X15562000Y-9965000D02*
X15522000Y-10005000D01*
X15918500Y-5656900D02*
X15958500Y-5696900D01*
X15958500Y-5656900D02*
X15918500Y-5696900D01*
X15918500Y-7561900D02*
X15958500Y-7601900D01*
X15958500Y-7561900D02*
X15918500Y-7601900D01*
X15918500Y-9466900D02*
X15958500Y-9506900D01*
X15958500Y-9466900D02*
X15918500Y-9506900D01*
X16464000Y-5187600D02*
X16504000Y-5227600D01*
X16504000Y-5187600D02*
X16464000Y-5227600D01*
X16464000Y-7097800D02*
X16504000Y-7137800D01*
X16504000Y-7097800D02*
X16464000Y-7137800D01*
X16464000Y-9002800D02*
X16504000Y-9042800D01*
X16504000Y-9002800D02*
X16464000Y-9042800D01*
X16744000Y-11956100D02*
X16784000Y-11996100D01*
X16784000Y-11956100D02*
X16744000Y-11996100D01*
X16845600Y-10965500D02*
X16885600Y-11005500D01*
X16885600Y-10965500D02*
X16845600Y-11005500D01*
X16845600Y-11130600D02*
X16885600Y-11170600D01*
X16885600Y-11130600D02*
X16845600Y-11170600D01*
X16845600Y-11270300D02*
X16885600Y-11310300D01*
X16885600Y-11270300D02*
X16845600Y-11310300D01*
X16845600Y-11435400D02*
X16885600Y-11475400D01*
X16885600Y-11435400D02*
X16845600Y-11475400D01*
X16928150Y-11632250D02*
X16968150Y-11672250D01*
X16968150Y-11632250D02*
X16928150Y-11672250D01*
X16934500Y-11956100D02*
X16974500Y-11996100D01*
X16974500Y-11956100D02*
X16934500Y-11996100D01*
X17036100Y-10762300D02*
X17076100Y-10802300D01*
X17076100Y-10762300D02*
X17036100Y-10802300D01*
X17036100Y-11041700D02*
X17076100Y-11081700D01*
X17076100Y-11041700D02*
X17036100Y-11081700D01*
X17036100Y-11346500D02*
X17076100Y-11386500D01*
X17076100Y-11346500D02*
X17036100Y-11386500D01*
X17036100Y-11638600D02*
X17076100Y-11678600D01*
X17076100Y-11638600D02*
X17036100Y-11678600D01*
X17239300Y-11029000D02*
X17279300Y-11069000D01*
X17279300Y-11029000D02*
X17239300Y-11069000D01*
X17239300Y-11283000D02*
X17279300Y-11323000D01*
X17279300Y-11283000D02*
X17239300Y-11323000D01*
X17239300Y-11537000D02*
X17279300Y-11577000D01*
X17279300Y-11537000D02*
X17239300Y-11577000D01*
X17239300Y-11791000D02*
X17279300Y-11831000D01*
X17279300Y-11791000D02*
X17239300Y-11831000D01*
X17425800Y-9965000D02*
X17465800Y-10005000D01*
X17465800Y-9965000D02*
X17425800Y-10005000D01*
X17427000Y-6155000D02*
X17467000Y-6195000D01*
X17467000Y-6155000D02*
X17427000Y-6195000D01*
X17427000Y-8060000D02*
X17467000Y-8100000D01*
X17467000Y-8060000D02*
X17427000Y-8100000D01*
X17427000Y-9457000D02*
X17467000Y-9497000D01*
X17467000Y-9457000D02*
X17427000Y-9497000D01*
X5077000Y-9842500D02*
G75*
G03*
X5077000Y-9842500I-20000J0D01*
G01*
X5121000Y-9736500D02*
G75*
G03*
X5121000Y-9736500I-20000J0D01*
G01*
X5121000Y-9948500D02*
G75*
G03*
X5121000Y-9948500I-20000J0D01*
G01*
X5227000Y-9692500D02*
G75*
G03*
X5227000Y-9692500I-20000J0D01*
G01*
X5227000Y-9992500D02*
G75*
G03*
X5227000Y-9992500I-20000J0D01*
G01*
X5333000Y-9736500D02*
G75*
G03*
X5333000Y-9736500I-20000J0D01*
G01*
X5333000Y-9948500D02*
G75*
G03*
X5333000Y-9948500I-20000J0D01*
G01*
X5377000Y-9842500D02*
G75*
G03*
X5377000Y-9842500I-20000J0D01*
G01*
D13*
X15131900Y-11866500D02*
X15131900Y-11936500D01*
X15096900Y-11901500D02*
X15166900Y-11901500D01*
X15220900Y-10796500D02*
X15220900Y-10866500D01*
X15185900Y-10831500D02*
X15255900Y-10831500D01*
X15309900Y-11866500D02*
X15309900Y-11936500D01*
X15274900Y-11901500D02*
X15344900Y-11901500D01*
X15398900Y-10796500D02*
X15398900Y-10866500D01*
X15363900Y-10831500D02*
X15433900Y-10831500D01*
X15487900Y-11866500D02*
X15487900Y-11936500D01*
X15452900Y-11901500D02*
X15522900Y-11901500D01*
X15576900Y-10796500D02*
X15576900Y-10866500D01*
X15541900Y-10831500D02*
X15611900Y-10831500D01*
X15665900Y-11866500D02*
X15665900Y-11936500D01*
X15630900Y-11901500D02*
X15700900Y-11901500D01*
X15754900Y-10796500D02*
X15754900Y-10866500D01*
X15719900Y-10831500D02*
X15789900Y-10831500D01*
X15843900Y-11866500D02*
X15843900Y-11936500D01*
X15808900Y-11901500D02*
X15878900Y-11901500D01*
X15932900Y-10796500D02*
X15932900Y-10866500D01*
X15897900Y-10831500D02*
X15967900Y-10831500D01*
X16021900Y-11866500D02*
X16021900Y-11936500D01*
X15986900Y-11901500D02*
X16056900Y-11901500D01*
X16110900Y-10796500D02*
X16110900Y-10866500D01*
X16075900Y-10831500D02*
X16145900Y-10831500D01*
X16199900Y-11866500D02*
X16199900Y-11936500D01*
X16164900Y-11901500D02*
X16234900Y-11901500D01*
X16288900Y-10796500D02*
X16288900Y-10866500D01*
X16253900Y-10831500D02*
X16323900Y-10831500D01*
X16377900Y-11866500D02*
X16377900Y-11936500D01*
X16342900Y-11901500D02*
X16412900Y-11901500D01*
X16466900Y-10796500D02*
X16466900Y-10866500D01*
X16431900Y-10831500D02*
X16501900Y-10831500D01*
D14*
X4651537Y-8156737D02*
X4651537Y-8099263D01*
X4594063Y-8099263D01*
X4594063Y-8156737D01*
X4651537Y-8156737D01*
X4651537Y-8410737D02*
X4651537Y-8353263D01*
X4594063Y-8353263D01*
X4594063Y-8410737D01*
X4651537Y-8410737D01*
X4651537Y-8664737D02*
X4651537Y-8607263D01*
X4594063Y-8607263D01*
X4594063Y-8664737D01*
X4651537Y-8664737D01*
X4651537Y-8918737D02*
X4651537Y-8861263D01*
X4594063Y-8861263D01*
X4594063Y-8918737D01*
X4651537Y-8918737D01*
X4664237Y-4851097D02*
X4664237Y-4793623D01*
X4606763Y-4793623D01*
X4606763Y-4851097D01*
X4664237Y-4851097D01*
X4664237Y-6373097D02*
X4664237Y-6315623D01*
X4606763Y-6315623D01*
X4606763Y-6373097D01*
X4664237Y-6373097D01*
X4791237Y-4981737D02*
X4791237Y-4924263D01*
X4733763Y-4924263D01*
X4733763Y-4981737D01*
X4791237Y-4981737D01*
X4791237Y-6505737D02*
X4791237Y-6448263D01*
X4733763Y-6448263D01*
X4733763Y-6505737D01*
X4791237Y-6505737D01*
X4854737Y-12131837D02*
X4854737Y-12074363D01*
X4797263Y-12074363D01*
X4797263Y-12131837D01*
X4854737Y-12131837D01*
X4918237Y-4851097D02*
X4918237Y-4793623D01*
X4860763Y-4793623D01*
X4860763Y-4851097D01*
X4918237Y-4851097D01*
X4918237Y-6373097D02*
X4918237Y-6315623D01*
X4860763Y-6315623D01*
X4860763Y-6373097D01*
X4918237Y-6373097D01*
X5045237Y-4981737D02*
X5045237Y-4924263D01*
X4987763Y-4924263D01*
X4987763Y-4981737D01*
X5045237Y-4981737D01*
X5045237Y-6505737D02*
X5045237Y-6448263D01*
X4987763Y-6448263D01*
X4987763Y-6505737D01*
X5045237Y-6505737D01*
X5172237Y-4851097D02*
X5172237Y-4793623D01*
X5114763Y-4793623D01*
X5114763Y-4851097D01*
X5172237Y-4851097D01*
X5172237Y-6373097D02*
X5172237Y-6315623D01*
X5114763Y-6315623D01*
X5114763Y-6373097D01*
X5172237Y-6373097D01*
X5299237Y-4981737D02*
X5299237Y-4924263D01*
X5241763Y-4924263D01*
X5241763Y-4981737D01*
X5299237Y-4981737D01*
X5299237Y-6505737D02*
X5299237Y-6448263D01*
X5241763Y-6448263D01*
X5241763Y-6505737D01*
X5299237Y-6505737D01*
X5426237Y-4851097D02*
X5426237Y-4793623D01*
X5368763Y-4793623D01*
X5368763Y-4851097D01*
X5426237Y-4851097D01*
X5426237Y-6373097D02*
X5426237Y-6315623D01*
X5368763Y-6315623D01*
X5368763Y-6373097D01*
X5426237Y-6373097D01*
X5553237Y-4981737D02*
X5553237Y-4924263D01*
X5495763Y-4924263D01*
X5495763Y-4981737D01*
X5553237Y-4981737D01*
X5553237Y-6505737D02*
X5553237Y-6448263D01*
X5495763Y-6448263D01*
X5495763Y-6505737D01*
X5553237Y-6505737D01*
X5616737Y-12131837D02*
X5616737Y-12074363D01*
X5559263Y-12074363D01*
X5559263Y-12131837D01*
X5616737Y-12131837D01*
X5680237Y-4851097D02*
X5680237Y-4793623D01*
X5622763Y-4793623D01*
X5622763Y-4851097D01*
X5680237Y-4851097D01*
X5680237Y-6373097D02*
X5680237Y-6315623D01*
X5622763Y-6315623D01*
X5622763Y-6373097D01*
X5680237Y-6373097D01*
X5743737Y-9502937D02*
X5743737Y-9445463D01*
X5686263Y-9445463D01*
X5686263Y-9502937D01*
X5743737Y-9502937D01*
X5807237Y-4981737D02*
X5807237Y-4924263D01*
X5749763Y-4924263D01*
X5749763Y-4981737D01*
X5807237Y-4981737D01*
X5807237Y-6505737D02*
X5807237Y-6448263D01*
X5749763Y-6448263D01*
X5749763Y-6505737D01*
X5807237Y-6505737D01*
X5934237Y-4851097D02*
X5934237Y-4793623D01*
X5876763Y-4793623D01*
X5876763Y-4851097D01*
X5934237Y-4851097D01*
X5934237Y-6373097D02*
X5934237Y-6315623D01*
X5876763Y-6315623D01*
X5876763Y-6373097D01*
X5934237Y-6373097D01*
X6061237Y-4981737D02*
X6061237Y-4924263D01*
X6003763Y-4924263D01*
X6003763Y-4981737D01*
X6061237Y-4981737D01*
X6061237Y-6505737D02*
X6061237Y-6448263D01*
X6003763Y-6448263D01*
X6003763Y-6505737D01*
X6061237Y-6505737D01*
X6188237Y-4851097D02*
X6188237Y-4793623D01*
X6130763Y-4793623D01*
X6130763Y-4851097D01*
X6188237Y-4851097D01*
X6188237Y-6373097D02*
X6188237Y-6315623D01*
X6130763Y-6315623D01*
X6130763Y-6373097D01*
X6188237Y-6373097D01*
X6188237Y-11179337D02*
X6188237Y-11121863D01*
X6130763Y-11121863D01*
X6130763Y-11179337D01*
X6188237Y-11179337D01*
X6188237Y-11941337D02*
X6188237Y-11883863D01*
X6130763Y-11883863D01*
X6130763Y-11941337D01*
X6188237Y-11941337D01*
X6315237Y-4981737D02*
X6315237Y-4924263D01*
X6257763Y-4924263D01*
X6257763Y-4981737D01*
X6315237Y-4981737D01*
X6315237Y-6505737D02*
X6315237Y-6448263D01*
X6257763Y-6448263D01*
X6257763Y-6505737D01*
X6315237Y-6505737D01*
X6442237Y-4851097D02*
X6442237Y-4793623D01*
X6384763Y-4793623D01*
X6384763Y-4851097D01*
X6442237Y-4851097D01*
X6442237Y-6373097D02*
X6442237Y-6315623D01*
X6384763Y-6315623D01*
X6384763Y-6373097D01*
X6442237Y-6373097D01*
X6505737Y-9502937D02*
X6505737Y-9445463D01*
X6448263Y-9445463D01*
X6448263Y-9502937D01*
X6505737Y-9502937D01*
X6569237Y-4981737D02*
X6569237Y-4924263D01*
X6511763Y-4924263D01*
X6511763Y-4981737D01*
X6569237Y-4981737D01*
X6569237Y-6505737D02*
X6569237Y-6448263D01*
X6511763Y-6448263D01*
X6511763Y-6505737D01*
X6569237Y-6505737D01*
X6696237Y-4851097D02*
X6696237Y-4793623D01*
X6638763Y-4793623D01*
X6638763Y-4851097D01*
X6696237Y-4851097D01*
X6696237Y-6373097D02*
X6696237Y-6315623D01*
X6638763Y-6315623D01*
X6638763Y-6373097D01*
X6696237Y-6373097D01*
X6823237Y-4981737D02*
X6823237Y-4924263D01*
X6765763Y-4924263D01*
X6765763Y-4981737D01*
X6823237Y-4981737D01*
X6823237Y-6505737D02*
X6823237Y-6448263D01*
X6765763Y-6448263D01*
X6765763Y-6505737D01*
X6823237Y-6505737D01*
X6950237Y-4851097D02*
X6950237Y-4793623D01*
X6892763Y-4793623D01*
X6892763Y-4851097D01*
X6950237Y-4851097D01*
X6950237Y-6373097D02*
X6950237Y-6315623D01*
X6892763Y-6315623D01*
X6892763Y-6373097D01*
X6950237Y-6373097D01*
X7077237Y-4981737D02*
X7077237Y-4924263D01*
X7019763Y-4924263D01*
X7019763Y-4981737D01*
X7077237Y-4981737D01*
X7077237Y-6505737D02*
X7077237Y-6448263D01*
X7019763Y-6448263D01*
X7019763Y-6505737D01*
X7077237Y-6505737D01*
X7204237Y-4851097D02*
X7204237Y-4793623D01*
X7146763Y-4793623D01*
X7146763Y-4851097D01*
X7204237Y-4851097D01*
X7204237Y-6373097D02*
X7204237Y-6315623D01*
X7146763Y-6315623D01*
X7146763Y-6373097D01*
X7204237Y-6373097D01*
X7331237Y-4981737D02*
X7331237Y-4924263D01*
X7273763Y-4924263D01*
X7273763Y-4981737D01*
X7331237Y-4981737D01*
X7331237Y-6505737D02*
X7331237Y-6448263D01*
X7273763Y-6448263D01*
X7273763Y-6505737D01*
X7331237Y-6505737D01*
X7458237Y-4851097D02*
X7458237Y-4793623D01*
X7400763Y-4793623D01*
X7400763Y-4851097D01*
X7458237Y-4851097D01*
X7458237Y-6373097D02*
X7458237Y-6315623D01*
X7400763Y-6315623D01*
X7400763Y-6373097D01*
X7458237Y-6373097D01*
X7585237Y-4981737D02*
X7585237Y-4924263D01*
X7527763Y-4924263D01*
X7527763Y-4981737D01*
X7585237Y-4981737D01*
X7585237Y-6505737D02*
X7585237Y-6448263D01*
X7527763Y-6448263D01*
X7527763Y-6505737D01*
X7585237Y-6505737D01*
X7597937Y-8156737D02*
X7597937Y-8099263D01*
X7540463Y-8099263D01*
X7540463Y-8156737D01*
X7597937Y-8156737D01*
X7597937Y-8410737D02*
X7597937Y-8353263D01*
X7540463Y-8353263D01*
X7540463Y-8410737D01*
X7597937Y-8410737D01*
X7597937Y-8664737D02*
X7597937Y-8607263D01*
X7540463Y-8607263D01*
X7540463Y-8664737D01*
X7597937Y-8664737D01*
X7597937Y-8918737D02*
X7597937Y-8861263D01*
X7540463Y-8861263D01*
X7540463Y-8918737D01*
X7597937Y-8918737D01*
X7928137Y-5299237D02*
X7928137Y-5241763D01*
X7870663Y-5241763D01*
X7870663Y-5299237D01*
X7928137Y-5299237D01*
X7928137Y-5553237D02*
X7928137Y-5495763D01*
X7870663Y-5495763D01*
X7870663Y-5553237D01*
X7928137Y-5553237D01*
X7928137Y-5807237D02*
X7928137Y-5749763D01*
X7870663Y-5749763D01*
X7870663Y-5807237D01*
X7928137Y-5807237D01*
X7928137Y-6061237D02*
X7928137Y-6003763D01*
X7870663Y-6003763D01*
X7870663Y-6061237D01*
X7928137Y-6061237D01*
X8093237Y-7369337D02*
X8093237Y-7311863D01*
X8035763Y-7311863D01*
X8035763Y-7369337D01*
X8093237Y-7369337D01*
X8093237Y-8131337D02*
X8093237Y-8073863D01*
X8035763Y-8073863D01*
X8035763Y-8131337D01*
X8093237Y-8131337D01*
X8093237Y-9274337D02*
X8093237Y-9216863D01*
X8035763Y-9216863D01*
X8035763Y-9274337D01*
X8093237Y-9274337D01*
X8093237Y-10036337D02*
X8093237Y-9978863D01*
X8035763Y-9978863D01*
X8035763Y-10036337D01*
X8093237Y-10036337D01*
X8093237Y-11179337D02*
X8093237Y-11121863D01*
X8035763Y-11121863D01*
X8035763Y-11179337D01*
X8093237Y-11179337D01*
X8093237Y-11941337D02*
X8093237Y-11883863D01*
X8035763Y-11883863D01*
X8035763Y-11941337D01*
X8093237Y-11941337D01*
X8664737Y-6429537D02*
X8664737Y-6372063D01*
X8607263Y-6372063D01*
X8607263Y-6429537D01*
X8664737Y-6429537D01*
X9426737Y-6429537D02*
X9426737Y-6372063D01*
X9369263Y-6372063D01*
X9369263Y-6429537D01*
X9426737Y-6429537D01*
X9998237Y-5464337D02*
X9998237Y-5406863D01*
X9940763Y-5406863D01*
X9940763Y-5464337D01*
X9998237Y-5464337D01*
X9998237Y-6226337D02*
X9998237Y-6168863D01*
X9940763Y-6168863D01*
X9940763Y-6226337D01*
X9998237Y-6226337D01*
X9998237Y-7369337D02*
X9998237Y-7311863D01*
X9940763Y-7311863D01*
X9940763Y-7369337D01*
X9998237Y-7369337D01*
X9998237Y-8131337D02*
X9998237Y-8073863D01*
X9940763Y-8073863D01*
X9940763Y-8131337D01*
X9998237Y-8131337D01*
X9998237Y-9274337D02*
X9998237Y-9216863D01*
X9940763Y-9216863D01*
X9940763Y-9274337D01*
X9998237Y-9274337D01*
X9998237Y-10036337D02*
X9998237Y-9978863D01*
X9940763Y-9978863D01*
X9940763Y-10036337D01*
X9998237Y-10036337D01*
X9998237Y-11179337D02*
X9998237Y-11121863D01*
X9940763Y-11121863D01*
X9940763Y-11179337D01*
X9998237Y-11179337D01*
X9998237Y-11941337D02*
X9998237Y-11883863D01*
X9940763Y-11883863D01*
X9940763Y-11941337D01*
X9998237Y-11941337D01*
X11903237Y-5464337D02*
X11903237Y-5406863D01*
X11845763Y-5406863D01*
X11845763Y-5464337D01*
X11903237Y-5464337D01*
X11903237Y-6226337D02*
X11903237Y-6168863D01*
X11845763Y-6168863D01*
X11845763Y-6226337D01*
X11903237Y-6226337D01*
X11903237Y-7369337D02*
X11903237Y-7311863D01*
X11845763Y-7311863D01*
X11845763Y-7369337D01*
X11903237Y-7369337D01*
X11903237Y-8131337D02*
X11903237Y-8073863D01*
X11845763Y-8073863D01*
X11845763Y-8131337D01*
X11903237Y-8131337D01*
X11903237Y-9274337D02*
X11903237Y-9216863D01*
X11845763Y-9216863D01*
X11845763Y-9274337D01*
X11903237Y-9274337D01*
X11903237Y-10036337D02*
X11903237Y-9978863D01*
X11845763Y-9978863D01*
X11845763Y-10036337D01*
X11903237Y-10036337D01*
X13808237Y-5464337D02*
X13808237Y-5406863D01*
X13750763Y-5406863D01*
X13750763Y-5464337D01*
X13808237Y-5464337D01*
X13808237Y-6226337D02*
X13808237Y-6168863D01*
X13750763Y-6168863D01*
X13750763Y-6226337D01*
X13808237Y-6226337D01*
X13808237Y-7369337D02*
X13808237Y-7311863D01*
X13750763Y-7311863D01*
X13750763Y-7369337D01*
X13808237Y-7369337D01*
X13808237Y-8131337D02*
X13808237Y-8073863D01*
X13750763Y-8073863D01*
X13750763Y-8131337D01*
X13808237Y-8131337D01*
X13808237Y-9274337D02*
X13808237Y-9216863D01*
X13750763Y-9216863D01*
X13750763Y-9274337D01*
X13808237Y-9274337D01*
X13808237Y-10036337D02*
X13808237Y-9978863D01*
X13750763Y-9978863D01*
X13750763Y-10036337D01*
X13808237Y-10036337D01*
X14455937Y-11014237D02*
X14455937Y-10956763D01*
X14398463Y-10956763D01*
X14398463Y-11014237D01*
X14455937Y-11014237D01*
X14455937Y-11268237D02*
X14455937Y-11210763D01*
X14398463Y-11210763D01*
X14398463Y-11268237D01*
X14455937Y-11268237D01*
X14455937Y-11522237D02*
X14455937Y-11464763D01*
X14398463Y-11464763D01*
X14398463Y-11522237D01*
X14455937Y-11522237D01*
X14455937Y-11776237D02*
X14455937Y-11718763D01*
X14398463Y-11718763D01*
X14398463Y-11776237D01*
X14455937Y-11776237D01*
X15713237Y-5464337D02*
X15713237Y-5406863D01*
X15655763Y-5406863D01*
X15655763Y-5464337D01*
X15713237Y-5464337D01*
X15713237Y-6226337D02*
X15713237Y-6168863D01*
X15655763Y-6168863D01*
X15655763Y-6226337D01*
X15713237Y-6226337D01*
X15713237Y-7369337D02*
X15713237Y-7311863D01*
X15655763Y-7311863D01*
X15655763Y-7369337D01*
X15713237Y-7369337D01*
X15713237Y-8131337D02*
X15713237Y-8073863D01*
X15655763Y-8073863D01*
X15655763Y-8131337D01*
X15713237Y-8131337D01*
X15713237Y-9274337D02*
X15713237Y-9216863D01*
X15655763Y-9216863D01*
X15655763Y-9274337D01*
X15713237Y-9274337D01*
X15713237Y-10036337D02*
X15713237Y-9978863D01*
X15655763Y-9978863D01*
X15655763Y-10036337D01*
X15713237Y-10036337D01*
X17402337Y-11001537D02*
X17402337Y-10944063D01*
X17344863Y-10944063D01*
X17344863Y-11001537D01*
X17402337Y-11001537D01*
X17402337Y-11255537D02*
X17402337Y-11198063D01*
X17344863Y-11198063D01*
X17344863Y-11255537D01*
X17402337Y-11255537D01*
X17402337Y-11509537D02*
X17402337Y-11452063D01*
X17344863Y-11452063D01*
X17344863Y-11509537D01*
X17402337Y-11509537D01*
X17402337Y-11763537D02*
X17402337Y-11706063D01*
X17344863Y-11706063D01*
X17344863Y-11763537D01*
X17402337Y-11763537D01*
D10*
X4592200Y-6775600D02*
X4642200Y-6725600D01*
X4592200Y-6675600D01*
X4542200Y-6725600D01*
X4592200Y-6775600D01*
D11*
X4567200Y-6775600D02*
X4617200Y-6775600D01*
X4567200Y-6675600D02*
X4617200Y-6675600D01*
X4617200Y-6775600D02*
G75*
G03*
X4617200Y-6675600I0J50000D01*
G01*
X4567200Y-6675600D02*
G75*
G03*
X4567200Y-6775600I0J-50000D01*
G01*
D10*
X4592200Y-7370600D02*
X4642200Y-7320600D01*
X4592200Y-7270600D01*
X4542200Y-7320600D01*
X4592200Y-7370600D01*
D11*
X4567200Y-7370600D02*
X4617200Y-7370600D01*
X4567200Y-7270600D02*
X4617200Y-7270600D01*
X4617200Y-7370600D02*
G75*
G03*
X4617200Y-7270600I0J50000D01*
G01*
X4567200Y-7270600D02*
G75*
G03*
X4567200Y-7370600I0J-50000D01*
G01*
D10*
X4892200Y-6775600D02*
X4942200Y-6725600D01*
X4892200Y-6675600D01*
X4842200Y-6725600D01*
X4892200Y-6775600D01*
D11*
X4867200Y-6775600D02*
X4917200Y-6775600D01*
X4867200Y-6675600D02*
X4917200Y-6675600D01*
X4917200Y-6775600D02*
G75*
G03*
X4917200Y-6675600I0J50000D01*
G01*
X4867200Y-6675600D02*
G75*
G03*
X4867200Y-6775600I0J-50000D01*
G01*
D10*
X4892200Y-7370600D02*
X4942200Y-7320600D01*
X4892200Y-7270600D01*
X4842200Y-7320600D01*
X4892200Y-7370600D01*
D11*
X4867200Y-7370600D02*
X4917200Y-7370600D01*
X4867200Y-7270600D02*
X4917200Y-7270600D01*
X4917200Y-7370600D02*
G75*
G03*
X4917200Y-7270600I0J50000D01*
G01*
X4867200Y-7270600D02*
G75*
G03*
X4867200Y-7370600I0J-50000D01*
G01*
D10*
X5292200Y-6775600D02*
X5342200Y-6725600D01*
X5292200Y-6675600D01*
X5242200Y-6725600D01*
X5292200Y-6775600D01*
D11*
X5267200Y-6775600D02*
X5317200Y-6775600D01*
X5267200Y-6675600D02*
X5317200Y-6675600D01*
X5317200Y-6775600D02*
G75*
G03*
X5317200Y-6675600I0J50000D01*
G01*
X5267200Y-6675600D02*
G75*
G03*
X5267200Y-6775600I0J-50000D01*
G01*
D10*
X5292200Y-7370600D02*
X5342200Y-7320600D01*
X5292200Y-7270600D01*
X5242200Y-7320600D01*
X5292200Y-7370600D01*
D11*
X5267200Y-7370600D02*
X5317200Y-7370600D01*
X5267200Y-7270600D02*
X5317200Y-7270600D01*
X5317200Y-7370600D02*
G75*
G03*
X5317200Y-7270600I0J50000D01*
G01*
X5267200Y-7270600D02*
G75*
G03*
X5267200Y-7370600I0J-50000D01*
G01*
D10*
X5442200Y-6950600D02*
X5492200Y-6900600D01*
X5442200Y-6850600D01*
X5392200Y-6900600D01*
X5442200Y-6950600D01*
D11*
X5417200Y-6950600D02*
X5467200Y-6950600D01*
X5417200Y-6850600D02*
X5467200Y-6850600D01*
X5467200Y-6950600D02*
G75*
G03*
X5467200Y-6850600I0J50000D01*
G01*
X5417200Y-6850600D02*
G75*
G03*
X5417200Y-6950600I0J-50000D01*
G01*
D10*
X5442200Y-7195600D02*
X5492200Y-7145600D01*
X5442200Y-7095600D01*
X5392200Y-7145600D01*
X5442200Y-7195600D01*
D11*
X5417200Y-7195600D02*
X5467200Y-7195600D01*
X5417200Y-7095600D02*
X5467200Y-7095600D01*
X5467200Y-7195600D02*
G75*
G03*
X5467200Y-7095600I0J50000D01*
G01*
X5417200Y-7095600D02*
G75*
G03*
X5417200Y-7195600I0J-50000D01*
G01*
D10*
X5846000Y-7809000D02*
X5896000Y-7759000D01*
X5846000Y-7709000D01*
X5796000Y-7759000D01*
X5846000Y-7809000D01*
X5846000Y-9259000D02*
X5896000Y-9209000D01*
X5846000Y-9159000D01*
X5796000Y-9209000D01*
X5846000Y-9259000D01*
X6096000Y-7809000D02*
X6146000Y-7759000D01*
X6096000Y-7709000D01*
X6046000Y-7759000D01*
X6096000Y-7809000D01*
X6346000Y-7809000D02*
X6396000Y-7759000D01*
X6346000Y-7709000D01*
X6296000Y-7759000D01*
X6346000Y-7809000D01*
X6346000Y-9259000D02*
X6396000Y-9209000D01*
X6346000Y-9159000D01*
X6296000Y-9209000D01*
X6346000Y-9259000D01*
D15*
X4418100Y-9490600D02*
X4548100Y-9620600D01*
X4548100Y-9490600D02*
X4418100Y-9620600D01*
X4548100Y-9555600D02*
G75*
G03*
X4548100Y-9555600I-65000J0D01*
G01*
X4418100Y-10140600D02*
X4548100Y-10270600D01*
X4548100Y-10140600D02*
X4418100Y-10270600D01*
X4548100Y-10205600D02*
G75*
G03*
X4548100Y-10205600I-65000J0D01*
G01*
D16*
X5461000Y-8434000D02*
X5611000Y-8584000D01*
X5611000Y-8434000D02*
X5461000Y-8584000D01*
X5536000Y-8434000D02*
X5536000Y-8584000D01*
X5461000Y-8509000D02*
X5611000Y-8509000D01*
D11*
X5461000Y-8444000D02*
X5461000Y-8574000D01*
X5611000Y-8444000D02*
X5611000Y-8574000D01*
X5461000Y-8574000D02*
G75*
G03*
X5611000Y-8574000I75000J0D01*
G01*
X5611000Y-8444000D02*
G75*
G03*
X5461000Y-8444000I-75000J0D01*
G01*
D16*
X6581000Y-8434000D02*
X6731000Y-8584000D01*
X6731000Y-8434000D02*
X6581000Y-8584000D01*
X6656000Y-8434000D02*
X6656000Y-8584000D01*
X6581000Y-8509000D02*
X6731000Y-8509000D01*
D11*
X6581000Y-8444000D02*
X6581000Y-8574000D01*
X6731000Y-8444000D02*
X6731000Y-8574000D01*
X6581000Y-8574000D02*
G75*
G03*
X6731000Y-8574000I75000J0D01*
G01*
X6731000Y-8444000D02*
G75*
G03*
X6581000Y-8444000I-75000J0D01*
G01*
D17*
X5092000Y-9727500D02*
X5322000Y-9957500D01*
X5322000Y-9727500D02*
X5092000Y-9957500D01*
X5288318Y-9923818D02*
X5288318Y-9761182D01*
X5125682Y-9761182D01*
X5125682Y-9923818D01*
X5288318Y-9923818D01*
D11*
X4507119Y-12532876D02*
X4507119Y-12332876D01*
X4554738Y-12332876D01*
X4583309Y-12342400D01*
X4602357Y-12361448D01*
X4611881Y-12380495D01*
X4621405Y-12418590D01*
X4621405Y-12447162D01*
X4611881Y-12485257D01*
X4602357Y-12504305D01*
X4583309Y-12523352D01*
X4554738Y-12532876D01*
X4507119Y-12532876D01*
X4707119Y-12532876D02*
X4707119Y-12399543D01*
X4707119Y-12437638D02*
X4716643Y-12418590D01*
X4726167Y-12409067D01*
X4745214Y-12399543D01*
X4764262Y-12399543D01*
X4830928Y-12532876D02*
X4830928Y-12399543D01*
X4830928Y-12332876D02*
X4821405Y-12342400D01*
X4830928Y-12351924D01*
X4840452Y-12342400D01*
X4830928Y-12332876D01*
X4830928Y-12351924D01*
X4954738Y-12532876D02*
X4935690Y-12523352D01*
X4926167Y-12504305D01*
X4926167Y-12332876D01*
X5059500Y-12532876D02*
X5040452Y-12523352D01*
X5030928Y-12504305D01*
X5030928Y-12332876D01*
X5288071Y-12532876D02*
X5288071Y-12332876D01*
X5354738Y-12475733D01*
X5421405Y-12332876D01*
X5421405Y-12532876D01*
X5602357Y-12532876D02*
X5602357Y-12428114D01*
X5592833Y-12409067D01*
X5573786Y-12399543D01*
X5535690Y-12399543D01*
X5516643Y-12409067D01*
X5602357Y-12523352D02*
X5583309Y-12532876D01*
X5535690Y-12532876D01*
X5516643Y-12523352D01*
X5507119Y-12504305D01*
X5507119Y-12485257D01*
X5516643Y-12466209D01*
X5535690Y-12456686D01*
X5583309Y-12456686D01*
X5602357Y-12447162D01*
X5697595Y-12399543D02*
X5697595Y-12599543D01*
X5697595Y-12409067D02*
X5716643Y-12399543D01*
X5754738Y-12399543D01*
X5773786Y-12409067D01*
X5783309Y-12418590D01*
X5792833Y-12437638D01*
X5792833Y-12494781D01*
X5783309Y-12513828D01*
X5773786Y-12523352D01*
X5754738Y-12532876D01*
X5716643Y-12532876D01*
X5697595Y-12523352D01*
X5878547Y-12513828D02*
X5888071Y-12523352D01*
X5878547Y-12532876D01*
X5869024Y-12523352D01*
X5878547Y-12513828D01*
X5878547Y-12532876D01*
X5878547Y-12409067D02*
X5888071Y-12418590D01*
X5878547Y-12428114D01*
X5869024Y-12418590D01*
X5878547Y-12409067D01*
X5878547Y-12428114D01*
D12*
X4209500Y-12842400D02*
X4249500Y-12882400D01*
X4249500Y-12842400D02*
X4209500Y-12882400D01*
D11*
X4545214Y-12752876D02*
X4564262Y-12752876D01*
X4583309Y-12762400D01*
X4592833Y-12771924D01*
X4602357Y-12790971D01*
X4611881Y-12829067D01*
X4611881Y-12876686D01*
X4602357Y-12914781D01*
X4592833Y-12933828D01*
X4583309Y-12943352D01*
X4564262Y-12952876D01*
X4545214Y-12952876D01*
X4526167Y-12943352D01*
X4516643Y-12933828D01*
X4507119Y-12914781D01*
X4497595Y-12876686D01*
X4497595Y-12829067D01*
X4507119Y-12790971D01*
X4516643Y-12771924D01*
X4526167Y-12762400D01*
X4545214Y-12752876D01*
X4697595Y-12933828D02*
X4707119Y-12943352D01*
X4697595Y-12952876D01*
X4688071Y-12943352D01*
X4697595Y-12933828D01*
X4697595Y-12952876D01*
X4878548Y-12819543D02*
X4878548Y-12952876D01*
X4830928Y-12743352D02*
X4783309Y-12886209D01*
X4907119Y-12886209D01*
X5021405Y-12752876D02*
X5040452Y-12752876D01*
X5059500Y-12762400D01*
X5069024Y-12771924D01*
X5078548Y-12790971D01*
X5088071Y-12829067D01*
X5088071Y-12876686D01*
X5078548Y-12914781D01*
X5069024Y-12933828D01*
X5059500Y-12943352D01*
X5040452Y-12952876D01*
X5021405Y-12952876D01*
X5002357Y-12943352D01*
X4992833Y-12933828D01*
X4983309Y-12914781D01*
X4973786Y-12876686D01*
X4973786Y-12829067D01*
X4983309Y-12790971D01*
X4992833Y-12771924D01*
X5002357Y-12762400D01*
X5021405Y-12752876D01*
X5211881Y-12752876D02*
X5230928Y-12752876D01*
X5249976Y-12762400D01*
X5259500Y-12771924D01*
X5269024Y-12790971D01*
X5278548Y-12829067D01*
X5278548Y-12876686D01*
X5269024Y-12914781D01*
X5259500Y-12933828D01*
X5249976Y-12943352D01*
X5230928Y-12952876D01*
X5211881Y-12952876D01*
X5192833Y-12943352D01*
X5183309Y-12933828D01*
X5173786Y-12914781D01*
X5164262Y-12876686D01*
X5164262Y-12829067D01*
X5173786Y-12790971D01*
X5183309Y-12771924D01*
X5192833Y-12762400D01*
X5211881Y-12752876D01*
X5364262Y-12952876D02*
X5364262Y-12819543D01*
X5364262Y-12838590D02*
X5373786Y-12829067D01*
X5392833Y-12819543D01*
X5421405Y-12819543D01*
X5440452Y-12829067D01*
X5449976Y-12848114D01*
X5449976Y-12952876D01*
X5449976Y-12848114D02*
X5459500Y-12829067D01*
X5478548Y-12819543D01*
X5507119Y-12819543D01*
X5526167Y-12829067D01*
X5535690Y-12848114D01*
X5535690Y-12952876D01*
X5630928Y-12952876D02*
X5630928Y-12819543D01*
X5630928Y-12838590D02*
X5640452Y-12829067D01*
X5659500Y-12819543D01*
X5688071Y-12819543D01*
X5707119Y-12829067D01*
X5716643Y-12848114D01*
X5716643Y-12952876D01*
X5716643Y-12848114D02*
X5726166Y-12829067D01*
X5745214Y-12819543D01*
X5773786Y-12819543D01*
X5792833Y-12829067D01*
X5802357Y-12848114D01*
X5802357Y-12952876D01*
X6192833Y-12743352D02*
X6021405Y-13000495D01*
X6449976Y-12752876D02*
X6469024Y-12752876D01*
X6488071Y-12762400D01*
X6497595Y-12771924D01*
X6507119Y-12790971D01*
X6516643Y-12829067D01*
X6516643Y-12876686D01*
X6507119Y-12914781D01*
X6497595Y-12933828D01*
X6488071Y-12943352D01*
X6469024Y-12952876D01*
X6449976Y-12952876D01*
X6430928Y-12943352D01*
X6421405Y-12933828D01*
X6411881Y-12914781D01*
X6402357Y-12876686D01*
X6402357Y-12829067D01*
X6411881Y-12790971D01*
X6421405Y-12771924D01*
X6430928Y-12762400D01*
X6449976Y-12752876D01*
X6602357Y-12933828D02*
X6611881Y-12943352D01*
X6602357Y-12952876D01*
X6592833Y-12943352D01*
X6602357Y-12933828D01*
X6602357Y-12952876D01*
X6735690Y-12752876D02*
X6754738Y-12752876D01*
X6773786Y-12762400D01*
X6783309Y-12771924D01*
X6792833Y-12790971D01*
X6802357Y-12829067D01*
X6802357Y-12876686D01*
X6792833Y-12914781D01*
X6783309Y-12933828D01*
X6773786Y-12943352D01*
X6754738Y-12952876D01*
X6735690Y-12952876D01*
X6716643Y-12943352D01*
X6707119Y-12933828D01*
X6697595Y-12914781D01*
X6688071Y-12876686D01*
X6688071Y-12829067D01*
X6697595Y-12790971D01*
X6707119Y-12771924D01*
X6716643Y-12762400D01*
X6735690Y-12752876D01*
X6992833Y-12952876D02*
X6878547Y-12952876D01*
X6935690Y-12952876D02*
X6935690Y-12752876D01*
X6916643Y-12781448D01*
X6897595Y-12800495D01*
X6878547Y-12810019D01*
X7173786Y-12752876D02*
X7078547Y-12752876D01*
X7069024Y-12848114D01*
X7078547Y-12838590D01*
X7097595Y-12829067D01*
X7145214Y-12829067D01*
X7164262Y-12838590D01*
X7173786Y-12848114D01*
X7183309Y-12867162D01*
X7183309Y-12914781D01*
X7173786Y-12933828D01*
X7164262Y-12943352D01*
X7145214Y-12952876D01*
X7097595Y-12952876D01*
X7078547Y-12943352D01*
X7069024Y-12933828D01*
X7249976Y-12752876D02*
X7383309Y-12752876D01*
X7297595Y-12952876D01*
X7449976Y-12752876D02*
X7449976Y-12790971D01*
X7526166Y-12752876D02*
X7526166Y-12790971D01*
X7821405Y-13029067D02*
X7811881Y-13019543D01*
X7792833Y-12990971D01*
X7783309Y-12971924D01*
X7773786Y-12943352D01*
X7764262Y-12895733D01*
X7764262Y-12857638D01*
X7773786Y-12810019D01*
X7783309Y-12781448D01*
X7792833Y-12762400D01*
X7811881Y-12733828D01*
X7821405Y-12724305D01*
X8002357Y-12952876D02*
X7888071Y-12952876D01*
X7945214Y-12952876D02*
X7945214Y-12752876D01*
X7926166Y-12781448D01*
X7907119Y-12800495D01*
X7888071Y-12810019D01*
X8069024Y-12752876D02*
X8192833Y-12752876D01*
X8126166Y-12829067D01*
X8154738Y-12829067D01*
X8173786Y-12838590D01*
X8183309Y-12848114D01*
X8192833Y-12867162D01*
X8192833Y-12914781D01*
X8183309Y-12933828D01*
X8173786Y-12943352D01*
X8154738Y-12952876D01*
X8097595Y-12952876D01*
X8078547Y-12943352D01*
X8069024Y-12933828D01*
X8316643Y-12752876D02*
X8335690Y-12752876D01*
X8354738Y-12762400D01*
X8364262Y-12771924D01*
X8373786Y-12790971D01*
X8383309Y-12829067D01*
X8383309Y-12876686D01*
X8373786Y-12914781D01*
X8364262Y-12933828D01*
X8354738Y-12943352D01*
X8335690Y-12952876D01*
X8316643Y-12952876D01*
X8297595Y-12943352D01*
X8288071Y-12933828D01*
X8278547Y-12914781D01*
X8269024Y-12876686D01*
X8269024Y-12829067D01*
X8278547Y-12790971D01*
X8288071Y-12771924D01*
X8297595Y-12762400D01*
X8316643Y-12752876D01*
X8621405Y-12952876D02*
X8621405Y-12752876D01*
X8707119Y-12952876D02*
X8707119Y-12848114D01*
X8697595Y-12829067D01*
X8678548Y-12819543D01*
X8649976Y-12819543D01*
X8630928Y-12829067D01*
X8621405Y-12838590D01*
X8830928Y-12952876D02*
X8811881Y-12943352D01*
X8802357Y-12933828D01*
X8792833Y-12914781D01*
X8792833Y-12857638D01*
X8802357Y-12838590D01*
X8811881Y-12829067D01*
X8830928Y-12819543D01*
X8859500Y-12819543D01*
X8878548Y-12829067D01*
X8888071Y-12838590D01*
X8897595Y-12857638D01*
X8897595Y-12914781D01*
X8888071Y-12933828D01*
X8878548Y-12943352D01*
X8859500Y-12952876D01*
X8830928Y-12952876D01*
X9011881Y-12952876D02*
X8992833Y-12943352D01*
X8983309Y-12924305D01*
X8983309Y-12752876D01*
X9164262Y-12943352D02*
X9145214Y-12952876D01*
X9107119Y-12952876D01*
X9088071Y-12943352D01*
X9078548Y-12924305D01*
X9078548Y-12848114D01*
X9088071Y-12829067D01*
X9107119Y-12819543D01*
X9145214Y-12819543D01*
X9164262Y-12829067D01*
X9173786Y-12848114D01*
X9173786Y-12867162D01*
X9078548Y-12886209D01*
X9249976Y-12943352D02*
X9269024Y-12952876D01*
X9307119Y-12952876D01*
X9326167Y-12943352D01*
X9335690Y-12924305D01*
X9335690Y-12914781D01*
X9326167Y-12895733D01*
X9307119Y-12886209D01*
X9278548Y-12886209D01*
X9259500Y-12876686D01*
X9249976Y-12857638D01*
X9249976Y-12848114D01*
X9259500Y-12829067D01*
X9278548Y-12819543D01*
X9307119Y-12819543D01*
X9326167Y-12829067D01*
X9402357Y-13029067D02*
X9411881Y-13019543D01*
X9430928Y-12990971D01*
X9440452Y-12971924D01*
X9449976Y-12943352D01*
X9459500Y-12895733D01*
X9459500Y-12857638D01*
X9449976Y-12810019D01*
X9440452Y-12781448D01*
X9430928Y-12762400D01*
X9411881Y-12733828D01*
X9402357Y-12724305D01*
D12*
X4249500Y-13126400D02*
G75*
G03*
X4249500Y-13126400I-20000J0D01*
G01*
D11*
X4545214Y-13016876D02*
X4564262Y-13016876D01*
X4583309Y-13026400D01*
X4592833Y-13035924D01*
X4602357Y-13054971D01*
X4611881Y-13093067D01*
X4611881Y-13140686D01*
X4602357Y-13178781D01*
X4592833Y-13197828D01*
X4583309Y-13207352D01*
X4564262Y-13216876D01*
X4545214Y-13216876D01*
X4526167Y-13207352D01*
X4516643Y-13197828D01*
X4507119Y-13178781D01*
X4497595Y-13140686D01*
X4497595Y-13093067D01*
X4507119Y-13054971D01*
X4516643Y-13035924D01*
X4526167Y-13026400D01*
X4545214Y-13016876D01*
X4697595Y-13197828D02*
X4707119Y-13207352D01*
X4697595Y-13216876D01*
X4688071Y-13207352D01*
X4697595Y-13197828D01*
X4697595Y-13216876D01*
X4878548Y-13083543D02*
X4878548Y-13216876D01*
X4830928Y-13007352D02*
X4783309Y-13150209D01*
X4907119Y-13150209D01*
X5021405Y-13016876D02*
X5040452Y-13016876D01*
X5059500Y-13026400D01*
X5069024Y-13035924D01*
X5078548Y-13054971D01*
X5088071Y-13093067D01*
X5088071Y-13140686D01*
X5078548Y-13178781D01*
X5069024Y-13197828D01*
X5059500Y-13207352D01*
X5040452Y-13216876D01*
X5021405Y-13216876D01*
X5002357Y-13207352D01*
X4992833Y-13197828D01*
X4983309Y-13178781D01*
X4973786Y-13140686D01*
X4973786Y-13093067D01*
X4983309Y-13054971D01*
X4992833Y-13035924D01*
X5002357Y-13026400D01*
X5021405Y-13016876D01*
X5211881Y-13016876D02*
X5230928Y-13016876D01*
X5249976Y-13026400D01*
X5259500Y-13035924D01*
X5269024Y-13054971D01*
X5278548Y-13093067D01*
X5278548Y-13140686D01*
X5269024Y-13178781D01*
X5259500Y-13197828D01*
X5249976Y-13207352D01*
X5230928Y-13216876D01*
X5211881Y-13216876D01*
X5192833Y-13207352D01*
X5183309Y-13197828D01*
X5173786Y-13178781D01*
X5164262Y-13140686D01*
X5164262Y-13093067D01*
X5173786Y-13054971D01*
X5183309Y-13035924D01*
X5192833Y-13026400D01*
X5211881Y-13016876D01*
X5364262Y-13216876D02*
X5364262Y-13083543D01*
X5364262Y-13102590D02*
X5373786Y-13093067D01*
X5392833Y-13083543D01*
X5421405Y-13083543D01*
X5440452Y-13093067D01*
X5449976Y-13112114D01*
X5449976Y-13216876D01*
X5449976Y-13112114D02*
X5459500Y-13093067D01*
X5478548Y-13083543D01*
X5507119Y-13083543D01*
X5526167Y-13093067D01*
X5535690Y-13112114D01*
X5535690Y-13216876D01*
X5630928Y-13216876D02*
X5630928Y-13083543D01*
X5630928Y-13102590D02*
X5640452Y-13093067D01*
X5659500Y-13083543D01*
X5688071Y-13083543D01*
X5707119Y-13093067D01*
X5716643Y-13112114D01*
X5716643Y-13216876D01*
X5716643Y-13112114D02*
X5726166Y-13093067D01*
X5745214Y-13083543D01*
X5773786Y-13083543D01*
X5792833Y-13093067D01*
X5802357Y-13112114D01*
X5802357Y-13216876D01*
X6192833Y-13007352D02*
X6021405Y-13264495D01*
X6449976Y-13016876D02*
X6469024Y-13016876D01*
X6488071Y-13026400D01*
X6497595Y-13035924D01*
X6507119Y-13054971D01*
X6516643Y-13093067D01*
X6516643Y-13140686D01*
X6507119Y-13178781D01*
X6497595Y-13197828D01*
X6488071Y-13207352D01*
X6469024Y-13216876D01*
X6449976Y-13216876D01*
X6430928Y-13207352D01*
X6421405Y-13197828D01*
X6411881Y-13178781D01*
X6402357Y-13140686D01*
X6402357Y-13093067D01*
X6411881Y-13054971D01*
X6421405Y-13035924D01*
X6430928Y-13026400D01*
X6449976Y-13016876D01*
X6602357Y-13197828D02*
X6611881Y-13207352D01*
X6602357Y-13216876D01*
X6592833Y-13207352D01*
X6602357Y-13197828D01*
X6602357Y-13216876D01*
X6735690Y-13016876D02*
X6754738Y-13016876D01*
X6773786Y-13026400D01*
X6783309Y-13035924D01*
X6792833Y-13054971D01*
X6802357Y-13093067D01*
X6802357Y-13140686D01*
X6792833Y-13178781D01*
X6783309Y-13197828D01*
X6773786Y-13207352D01*
X6754738Y-13216876D01*
X6735690Y-13216876D01*
X6716643Y-13207352D01*
X6707119Y-13197828D01*
X6697595Y-13178781D01*
X6688071Y-13140686D01*
X6688071Y-13093067D01*
X6697595Y-13054971D01*
X6707119Y-13035924D01*
X6716643Y-13026400D01*
X6735690Y-13016876D01*
X6992833Y-13216876D02*
X6878547Y-13216876D01*
X6935690Y-13216876D02*
X6935690Y-13016876D01*
X6916643Y-13045448D01*
X6897595Y-13064495D01*
X6878547Y-13074019D01*
X7173786Y-13016876D02*
X7078547Y-13016876D01*
X7069024Y-13112114D01*
X7078547Y-13102590D01*
X7097595Y-13093067D01*
X7145214Y-13093067D01*
X7164262Y-13102590D01*
X7173786Y-13112114D01*
X7183309Y-13131162D01*
X7183309Y-13178781D01*
X7173786Y-13197828D01*
X7164262Y-13207352D01*
X7145214Y-13216876D01*
X7097595Y-13216876D01*
X7078547Y-13207352D01*
X7069024Y-13197828D01*
X7249976Y-13016876D02*
X7383309Y-13016876D01*
X7297595Y-13216876D01*
X7449976Y-13016876D02*
X7449976Y-13054971D01*
X7526166Y-13016876D02*
X7526166Y-13054971D01*
X7821405Y-13293067D02*
X7811881Y-13283543D01*
X7792833Y-13254971D01*
X7783309Y-13235924D01*
X7773786Y-13207352D01*
X7764262Y-13159733D01*
X7764262Y-13121638D01*
X7773786Y-13074019D01*
X7783309Y-13045448D01*
X7792833Y-13026400D01*
X7811881Y-12997828D01*
X7821405Y-12988305D01*
X7926166Y-13102590D02*
X7907119Y-13093067D01*
X7897595Y-13083543D01*
X7888071Y-13064495D01*
X7888071Y-13054971D01*
X7897595Y-13035924D01*
X7907119Y-13026400D01*
X7926166Y-13016876D01*
X7964262Y-13016876D01*
X7983309Y-13026400D01*
X7992833Y-13035924D01*
X8002357Y-13054971D01*
X8002357Y-13064495D01*
X7992833Y-13083543D01*
X7983309Y-13093067D01*
X7964262Y-13102590D01*
X7926166Y-13102590D01*
X7907119Y-13112114D01*
X7897595Y-13121638D01*
X7888071Y-13140686D01*
X7888071Y-13178781D01*
X7897595Y-13197828D01*
X7907119Y-13207352D01*
X7926166Y-13216876D01*
X7964262Y-13216876D01*
X7983309Y-13207352D01*
X7992833Y-13197828D01*
X8002357Y-13178781D01*
X8002357Y-13140686D01*
X7992833Y-13121638D01*
X7983309Y-13112114D01*
X7964262Y-13102590D01*
X8240452Y-13216876D02*
X8240452Y-13016876D01*
X8326166Y-13216876D02*
X8326166Y-13112114D01*
X8316643Y-13093067D01*
X8297595Y-13083543D01*
X8269024Y-13083543D01*
X8249976Y-13093067D01*
X8240452Y-13102590D01*
X8449976Y-13216876D02*
X8430928Y-13207352D01*
X8421405Y-13197828D01*
X8411881Y-13178781D01*
X8411881Y-13121638D01*
X8421405Y-13102590D01*
X8430928Y-13093067D01*
X8449976Y-13083543D01*
X8478548Y-13083543D01*
X8497595Y-13093067D01*
X8507119Y-13102590D01*
X8516643Y-13121638D01*
X8516643Y-13178781D01*
X8507119Y-13197828D01*
X8497595Y-13207352D01*
X8478548Y-13216876D01*
X8449976Y-13216876D01*
X8630928Y-13216876D02*
X8611881Y-13207352D01*
X8602357Y-13188305D01*
X8602357Y-13016876D01*
X8783309Y-13207352D02*
X8764262Y-13216876D01*
X8726167Y-13216876D01*
X8707119Y-13207352D01*
X8697595Y-13188305D01*
X8697595Y-13112114D01*
X8707119Y-13093067D01*
X8726167Y-13083543D01*
X8764262Y-13083543D01*
X8783309Y-13093067D01*
X8792833Y-13112114D01*
X8792833Y-13131162D01*
X8697595Y-13150209D01*
X8869024Y-13207352D02*
X8888071Y-13216876D01*
X8926167Y-13216876D01*
X8945214Y-13207352D01*
X8954738Y-13188305D01*
X8954738Y-13178781D01*
X8945214Y-13159733D01*
X8926167Y-13150209D01*
X8897595Y-13150209D01*
X8878548Y-13140686D01*
X8869024Y-13121638D01*
X8869024Y-13112114D01*
X8878548Y-13093067D01*
X8897595Y-13083543D01*
X8926167Y-13083543D01*
X8945214Y-13093067D01*
X9021405Y-13293067D02*
X9030928Y-13283543D01*
X9049976Y-13254971D01*
X9059500Y-13235924D01*
X9069024Y-13207352D01*
X9078548Y-13159733D01*
X9078548Y-13121638D01*
X9069024Y-13074019D01*
X9059500Y-13045448D01*
X9049976Y-13026400D01*
X9030928Y-12997828D01*
X9021405Y-12988305D01*
D13*
X4214500Y-13355400D02*
X4214500Y-13425400D01*
X4179500Y-13390400D02*
X4249500Y-13390400D01*
D11*
X4545214Y-13280876D02*
X4564262Y-13280876D01*
X4583309Y-13290400D01*
X4592833Y-13299924D01*
X4602357Y-13318971D01*
X4611881Y-13357067D01*
X4611881Y-13404686D01*
X4602357Y-13442781D01*
X4592833Y-13461828D01*
X4583309Y-13471352D01*
X4564262Y-13480876D01*
X4545214Y-13480876D01*
X4526167Y-13471352D01*
X4516643Y-13461828D01*
X4507119Y-13442781D01*
X4497595Y-13404686D01*
X4497595Y-13357067D01*
X4507119Y-13318971D01*
X4516643Y-13299924D01*
X4526167Y-13290400D01*
X4545214Y-13280876D01*
X4697595Y-13461828D02*
X4707119Y-13471352D01*
X4697595Y-13480876D01*
X4688071Y-13471352D01*
X4697595Y-13461828D01*
X4697595Y-13480876D01*
X4773786Y-13280876D02*
X4907119Y-13280876D01*
X4821405Y-13480876D01*
X5021405Y-13280876D02*
X5040452Y-13280876D01*
X5059500Y-13290400D01*
X5069024Y-13299924D01*
X5078548Y-13318971D01*
X5088071Y-13357067D01*
X5088071Y-13404686D01*
X5078548Y-13442781D01*
X5069024Y-13461828D01*
X5059500Y-13471352D01*
X5040452Y-13480876D01*
X5021405Y-13480876D01*
X5002357Y-13471352D01*
X4992833Y-13461828D01*
X4983309Y-13442781D01*
X4973786Y-13404686D01*
X4973786Y-13357067D01*
X4983309Y-13318971D01*
X4992833Y-13299924D01*
X5002357Y-13290400D01*
X5021405Y-13280876D01*
X5211881Y-13280876D02*
X5230928Y-13280876D01*
X5249976Y-13290400D01*
X5259500Y-13299924D01*
X5269024Y-13318971D01*
X5278548Y-13357067D01*
X5278548Y-13404686D01*
X5269024Y-13442781D01*
X5259500Y-13461828D01*
X5249976Y-13471352D01*
X5230928Y-13480876D01*
X5211881Y-13480876D01*
X5192833Y-13471352D01*
X5183309Y-13461828D01*
X5173786Y-13442781D01*
X5164262Y-13404686D01*
X5164262Y-13357067D01*
X5173786Y-13318971D01*
X5183309Y-13299924D01*
X5192833Y-13290400D01*
X5211881Y-13280876D01*
X5364262Y-13480876D02*
X5364262Y-13347543D01*
X5364262Y-13366590D02*
X5373786Y-13357067D01*
X5392833Y-13347543D01*
X5421405Y-13347543D01*
X5440452Y-13357067D01*
X5449976Y-13376114D01*
X5449976Y-13480876D01*
X5449976Y-13376114D02*
X5459500Y-13357067D01*
X5478548Y-13347543D01*
X5507119Y-13347543D01*
X5526167Y-13357067D01*
X5535690Y-13376114D01*
X5535690Y-13480876D01*
X5630928Y-13480876D02*
X5630928Y-13347543D01*
X5630928Y-13366590D02*
X5640452Y-13357067D01*
X5659500Y-13347543D01*
X5688071Y-13347543D01*
X5707119Y-13357067D01*
X5716643Y-13376114D01*
X5716643Y-13480876D01*
X5716643Y-13376114D02*
X5726166Y-13357067D01*
X5745214Y-13347543D01*
X5773786Y-13347543D01*
X5792833Y-13357067D01*
X5802357Y-13376114D01*
X5802357Y-13480876D01*
X6192833Y-13271352D02*
X6021405Y-13528495D01*
X6449976Y-13280876D02*
X6469024Y-13280876D01*
X6488071Y-13290400D01*
X6497595Y-13299924D01*
X6507119Y-13318971D01*
X6516643Y-13357067D01*
X6516643Y-13404686D01*
X6507119Y-13442781D01*
X6497595Y-13461828D01*
X6488071Y-13471352D01*
X6469024Y-13480876D01*
X6449976Y-13480876D01*
X6430928Y-13471352D01*
X6421405Y-13461828D01*
X6411881Y-13442781D01*
X6402357Y-13404686D01*
X6402357Y-13357067D01*
X6411881Y-13318971D01*
X6421405Y-13299924D01*
X6430928Y-13290400D01*
X6449976Y-13280876D01*
X6602357Y-13461828D02*
X6611881Y-13471352D01*
X6602357Y-13480876D01*
X6592833Y-13471352D01*
X6602357Y-13461828D01*
X6602357Y-13480876D01*
X6735690Y-13280876D02*
X6754738Y-13280876D01*
X6773786Y-13290400D01*
X6783309Y-13299924D01*
X6792833Y-13318971D01*
X6802357Y-13357067D01*
X6802357Y-13404686D01*
X6792833Y-13442781D01*
X6783309Y-13461828D01*
X6773786Y-13471352D01*
X6754738Y-13480876D01*
X6735690Y-13480876D01*
X6716643Y-13471352D01*
X6707119Y-13461828D01*
X6697595Y-13442781D01*
X6688071Y-13404686D01*
X6688071Y-13357067D01*
X6697595Y-13318971D01*
X6707119Y-13299924D01*
X6716643Y-13290400D01*
X6735690Y-13280876D01*
X6878547Y-13299924D02*
X6888071Y-13290400D01*
X6907119Y-13280876D01*
X6954738Y-13280876D01*
X6973786Y-13290400D01*
X6983309Y-13299924D01*
X6992833Y-13318971D01*
X6992833Y-13338019D01*
X6983309Y-13366590D01*
X6869024Y-13480876D01*
X6992833Y-13480876D01*
X7059500Y-13280876D02*
X7192833Y-13280876D01*
X7107119Y-13480876D01*
X7354738Y-13280876D02*
X7316643Y-13280876D01*
X7297595Y-13290400D01*
X7288071Y-13299924D01*
X7269024Y-13328495D01*
X7259500Y-13366590D01*
X7259500Y-13442781D01*
X7269024Y-13461828D01*
X7278547Y-13471352D01*
X7297595Y-13480876D01*
X7335690Y-13480876D01*
X7354738Y-13471352D01*
X7364262Y-13461828D01*
X7373786Y-13442781D01*
X7373786Y-13395162D01*
X7364262Y-13376114D01*
X7354738Y-13366590D01*
X7335690Y-13357067D01*
X7297595Y-13357067D01*
X7278547Y-13366590D01*
X7269024Y-13376114D01*
X7259500Y-13395162D01*
X7449976Y-13280876D02*
X7449976Y-13318971D01*
X7526166Y-13280876D02*
X7526166Y-13318971D01*
X7821405Y-13557067D02*
X7811881Y-13547543D01*
X7792833Y-13518971D01*
X7783309Y-13499924D01*
X7773786Y-13471352D01*
X7764262Y-13423733D01*
X7764262Y-13385638D01*
X7773786Y-13338019D01*
X7783309Y-13309448D01*
X7792833Y-13290400D01*
X7811881Y-13261828D01*
X7821405Y-13252305D01*
X8002357Y-13480876D02*
X7888071Y-13480876D01*
X7945214Y-13480876D02*
X7945214Y-13280876D01*
X7926166Y-13309448D01*
X7907119Y-13328495D01*
X7888071Y-13338019D01*
X8173786Y-13280876D02*
X8135690Y-13280876D01*
X8116643Y-13290400D01*
X8107119Y-13299924D01*
X8088071Y-13328495D01*
X8078547Y-13366590D01*
X8078547Y-13442781D01*
X8088071Y-13461828D01*
X8097595Y-13471352D01*
X8116643Y-13480876D01*
X8154738Y-13480876D01*
X8173786Y-13471352D01*
X8183309Y-13461828D01*
X8192833Y-13442781D01*
X8192833Y-13395162D01*
X8183309Y-13376114D01*
X8173786Y-13366590D01*
X8154738Y-13357067D01*
X8116643Y-13357067D01*
X8097595Y-13366590D01*
X8088071Y-13376114D01*
X8078547Y-13395162D01*
X8430928Y-13480876D02*
X8430928Y-13280876D01*
X8516643Y-13480876D02*
X8516643Y-13376114D01*
X8507119Y-13357067D01*
X8488071Y-13347543D01*
X8459500Y-13347543D01*
X8440452Y-13357067D01*
X8430928Y-13366590D01*
X8640452Y-13480876D02*
X8621405Y-13471352D01*
X8611881Y-13461828D01*
X8602357Y-13442781D01*
X8602357Y-13385638D01*
X8611881Y-13366590D01*
X8621405Y-13357067D01*
X8640452Y-13347543D01*
X8669024Y-13347543D01*
X8688071Y-13357067D01*
X8697595Y-13366590D01*
X8707119Y-13385638D01*
X8707119Y-13442781D01*
X8697595Y-13461828D01*
X8688071Y-13471352D01*
X8669024Y-13480876D01*
X8640452Y-13480876D01*
X8821405Y-13480876D02*
X8802357Y-13471352D01*
X8792833Y-13452305D01*
X8792833Y-13280876D01*
X8973786Y-13471352D02*
X8954738Y-13480876D01*
X8916643Y-13480876D01*
X8897595Y-13471352D01*
X8888071Y-13452305D01*
X8888071Y-13376114D01*
X8897595Y-13357067D01*
X8916643Y-13347543D01*
X8954738Y-13347543D01*
X8973786Y-13357067D01*
X8983309Y-13376114D01*
X8983309Y-13395162D01*
X8888071Y-13414209D01*
X9059500Y-13471352D02*
X9078548Y-13480876D01*
X9116643Y-13480876D01*
X9135690Y-13471352D01*
X9145214Y-13452305D01*
X9145214Y-13442781D01*
X9135690Y-13423733D01*
X9116643Y-13414209D01*
X9088071Y-13414209D01*
X9069024Y-13404686D01*
X9059500Y-13385638D01*
X9059500Y-13376114D01*
X9069024Y-13357067D01*
X9088071Y-13347543D01*
X9116643Y-13347543D01*
X9135690Y-13357067D01*
X9211881Y-13557067D02*
X9221405Y-13547543D01*
X9240452Y-13518971D01*
X9249976Y-13499924D01*
X9259500Y-13471352D01*
X9269024Y-13423733D01*
X9269024Y-13385638D01*
X9259500Y-13338019D01*
X9249976Y-13309448D01*
X9240452Y-13290400D01*
X9221405Y-13261828D01*
X9211881Y-13252305D01*
D14*
X4237597Y-13683137D02*
X4237597Y-13625663D01*
X4180123Y-13625663D01*
X4180123Y-13683137D01*
X4237597Y-13683137D01*
D11*
X4545214Y-13544876D02*
X4564262Y-13544876D01*
X4583309Y-13554400D01*
X4592833Y-13563924D01*
X4602357Y-13582971D01*
X4611881Y-13621067D01*
X4611881Y-13668686D01*
X4602357Y-13706781D01*
X4592833Y-13725828D01*
X4583309Y-13735352D01*
X4564262Y-13744876D01*
X4545214Y-13744876D01*
X4526167Y-13735352D01*
X4516643Y-13725828D01*
X4507119Y-13706781D01*
X4497595Y-13668686D01*
X4497595Y-13621067D01*
X4507119Y-13582971D01*
X4516643Y-13563924D01*
X4526167Y-13554400D01*
X4545214Y-13544876D01*
X4697595Y-13725828D02*
X4707119Y-13735352D01*
X4697595Y-13744876D01*
X4688071Y-13735352D01*
X4697595Y-13725828D01*
X4697595Y-13744876D01*
X4821405Y-13630590D02*
X4802357Y-13621067D01*
X4792833Y-13611543D01*
X4783309Y-13592495D01*
X4783309Y-13582971D01*
X4792833Y-13563924D01*
X4802357Y-13554400D01*
X4821405Y-13544876D01*
X4859500Y-13544876D01*
X4878548Y-13554400D01*
X4888071Y-13563924D01*
X4897595Y-13582971D01*
X4897595Y-13592495D01*
X4888071Y-13611543D01*
X4878548Y-13621067D01*
X4859500Y-13630590D01*
X4821405Y-13630590D01*
X4802357Y-13640114D01*
X4792833Y-13649638D01*
X4783309Y-13668686D01*
X4783309Y-13706781D01*
X4792833Y-13725828D01*
X4802357Y-13735352D01*
X4821405Y-13744876D01*
X4859500Y-13744876D01*
X4878548Y-13735352D01*
X4888071Y-13725828D01*
X4897595Y-13706781D01*
X4897595Y-13668686D01*
X4888071Y-13649638D01*
X4878548Y-13640114D01*
X4859500Y-13630590D01*
X5088071Y-13744876D02*
X4973786Y-13744876D01*
X5030928Y-13744876D02*
X5030928Y-13544876D01*
X5011881Y-13573448D01*
X4992833Y-13592495D01*
X4973786Y-13602019D01*
X5154738Y-13544876D02*
X5278548Y-13544876D01*
X5211881Y-13621067D01*
X5240452Y-13621067D01*
X5259500Y-13630590D01*
X5269024Y-13640114D01*
X5278548Y-13659162D01*
X5278548Y-13706781D01*
X5269024Y-13725828D01*
X5259500Y-13735352D01*
X5240452Y-13744876D01*
X5183309Y-13744876D01*
X5164262Y-13735352D01*
X5154738Y-13725828D01*
X5364262Y-13744876D02*
X5364262Y-13611543D01*
X5364262Y-13630590D02*
X5373786Y-13621067D01*
X5392833Y-13611543D01*
X5421405Y-13611543D01*
X5440452Y-13621067D01*
X5449976Y-13640114D01*
X5449976Y-13744876D01*
X5449976Y-13640114D02*
X5459500Y-13621067D01*
X5478548Y-13611543D01*
X5507119Y-13611543D01*
X5526167Y-13621067D01*
X5535690Y-13640114D01*
X5535690Y-13744876D01*
X5630928Y-13744876D02*
X5630928Y-13611543D01*
X5630928Y-13630590D02*
X5640452Y-13621067D01*
X5659500Y-13611543D01*
X5688071Y-13611543D01*
X5707119Y-13621067D01*
X5716643Y-13640114D01*
X5716643Y-13744876D01*
X5716643Y-13640114D02*
X5726166Y-13621067D01*
X5745214Y-13611543D01*
X5773786Y-13611543D01*
X5792833Y-13621067D01*
X5802357Y-13640114D01*
X5802357Y-13744876D01*
X6192833Y-13535352D02*
X6021405Y-13792495D01*
X6449976Y-13544876D02*
X6469024Y-13544876D01*
X6488071Y-13554400D01*
X6497595Y-13563924D01*
X6507119Y-13582971D01*
X6516643Y-13621067D01*
X6516643Y-13668686D01*
X6507119Y-13706781D01*
X6497595Y-13725828D01*
X6488071Y-13735352D01*
X6469024Y-13744876D01*
X6449976Y-13744876D01*
X6430928Y-13735352D01*
X6421405Y-13725828D01*
X6411881Y-13706781D01*
X6402357Y-13668686D01*
X6402357Y-13621067D01*
X6411881Y-13582971D01*
X6421405Y-13563924D01*
X6430928Y-13554400D01*
X6449976Y-13544876D01*
X6602357Y-13725828D02*
X6611881Y-13735352D01*
X6602357Y-13744876D01*
X6592833Y-13735352D01*
X6602357Y-13725828D01*
X6602357Y-13744876D01*
X6735690Y-13544876D02*
X6754738Y-13544876D01*
X6773786Y-13554400D01*
X6783309Y-13563924D01*
X6792833Y-13582971D01*
X6802357Y-13621067D01*
X6802357Y-13668686D01*
X6792833Y-13706781D01*
X6783309Y-13725828D01*
X6773786Y-13735352D01*
X6754738Y-13744876D01*
X6735690Y-13744876D01*
X6716643Y-13735352D01*
X6707119Y-13725828D01*
X6697595Y-13706781D01*
X6688071Y-13668686D01*
X6688071Y-13621067D01*
X6697595Y-13582971D01*
X6707119Y-13563924D01*
X6716643Y-13554400D01*
X6735690Y-13544876D01*
X6869024Y-13544876D02*
X6992833Y-13544876D01*
X6926166Y-13621067D01*
X6954738Y-13621067D01*
X6973786Y-13630590D01*
X6983309Y-13640114D01*
X6992833Y-13659162D01*
X6992833Y-13706781D01*
X6983309Y-13725828D01*
X6973786Y-13735352D01*
X6954738Y-13744876D01*
X6897595Y-13744876D01*
X6878547Y-13735352D01*
X6869024Y-13725828D01*
X7069024Y-13563924D02*
X7078547Y-13554400D01*
X7097595Y-13544876D01*
X7145214Y-13544876D01*
X7164262Y-13554400D01*
X7173786Y-13563924D01*
X7183309Y-13582971D01*
X7183309Y-13602019D01*
X7173786Y-13630590D01*
X7059500Y-13744876D01*
X7183309Y-13744876D01*
X7307119Y-13544876D02*
X7326166Y-13544876D01*
X7345214Y-13554400D01*
X7354738Y-13563924D01*
X7364262Y-13582971D01*
X7373786Y-13621067D01*
X7373786Y-13668686D01*
X7364262Y-13706781D01*
X7354738Y-13725828D01*
X7345214Y-13735352D01*
X7326166Y-13744876D01*
X7307119Y-13744876D01*
X7288071Y-13735352D01*
X7278547Y-13725828D01*
X7269024Y-13706781D01*
X7259500Y-13668686D01*
X7259500Y-13621067D01*
X7269024Y-13582971D01*
X7278547Y-13563924D01*
X7288071Y-13554400D01*
X7307119Y-13544876D01*
X7449976Y-13544876D02*
X7449976Y-13582971D01*
X7526166Y-13544876D02*
X7526166Y-13582971D01*
X7821405Y-13821067D02*
X7811881Y-13811543D01*
X7792833Y-13782971D01*
X7783309Y-13763924D01*
X7773786Y-13735352D01*
X7764262Y-13687733D01*
X7764262Y-13649638D01*
X7773786Y-13602019D01*
X7783309Y-13573448D01*
X7792833Y-13554400D01*
X7811881Y-13525828D01*
X7821405Y-13516305D01*
X8002357Y-13744876D02*
X7888071Y-13744876D01*
X7945214Y-13744876D02*
X7945214Y-13544876D01*
X7926166Y-13573448D01*
X7907119Y-13592495D01*
X7888071Y-13602019D01*
X8126166Y-13544876D02*
X8145214Y-13544876D01*
X8164262Y-13554400D01*
X8173786Y-13563924D01*
X8183309Y-13582971D01*
X8192833Y-13621067D01*
X8192833Y-13668686D01*
X8183309Y-13706781D01*
X8173786Y-13725828D01*
X8164262Y-13735352D01*
X8145214Y-13744876D01*
X8126166Y-13744876D01*
X8107119Y-13735352D01*
X8097595Y-13725828D01*
X8088071Y-13706781D01*
X8078547Y-13668686D01*
X8078547Y-13621067D01*
X8088071Y-13582971D01*
X8097595Y-13563924D01*
X8107119Y-13554400D01*
X8126166Y-13544876D01*
X8307119Y-13630590D02*
X8288071Y-13621067D01*
X8278547Y-13611543D01*
X8269024Y-13592495D01*
X8269024Y-13582971D01*
X8278547Y-13563924D01*
X8288071Y-13554400D01*
X8307119Y-13544876D01*
X8345214Y-13544876D01*
X8364262Y-13554400D01*
X8373786Y-13563924D01*
X8383309Y-13582971D01*
X8383309Y-13592495D01*
X8373786Y-13611543D01*
X8364262Y-13621067D01*
X8345214Y-13630590D01*
X8307119Y-13630590D01*
X8288071Y-13640114D01*
X8278547Y-13649638D01*
X8269024Y-13668686D01*
X8269024Y-13706781D01*
X8278547Y-13725828D01*
X8288071Y-13735352D01*
X8307119Y-13744876D01*
X8345214Y-13744876D01*
X8364262Y-13735352D01*
X8373786Y-13725828D01*
X8383309Y-13706781D01*
X8383309Y-13668686D01*
X8373786Y-13649638D01*
X8364262Y-13640114D01*
X8345214Y-13630590D01*
X8621405Y-13744876D02*
X8621405Y-13544876D01*
X8707119Y-13744876D02*
X8707119Y-13640114D01*
X8697595Y-13621067D01*
X8678548Y-13611543D01*
X8649976Y-13611543D01*
X8630928Y-13621067D01*
X8621405Y-13630590D01*
X8830928Y-13744876D02*
X8811881Y-13735352D01*
X8802357Y-13725828D01*
X8792833Y-13706781D01*
X8792833Y-13649638D01*
X8802357Y-13630590D01*
X8811881Y-13621067D01*
X8830928Y-13611543D01*
X8859500Y-13611543D01*
X8878548Y-13621067D01*
X8888071Y-13630590D01*
X8897595Y-13649638D01*
X8897595Y-13706781D01*
X8888071Y-13725828D01*
X8878548Y-13735352D01*
X8859500Y-13744876D01*
X8830928Y-13744876D01*
X9011881Y-13744876D02*
X8992833Y-13735352D01*
X8983309Y-13716305D01*
X8983309Y-13544876D01*
X9164262Y-13735352D02*
X9145214Y-13744876D01*
X9107119Y-13744876D01*
X9088071Y-13735352D01*
X9078548Y-13716305D01*
X9078548Y-13640114D01*
X9088071Y-13621067D01*
X9107119Y-13611543D01*
X9145214Y-13611543D01*
X9164262Y-13621067D01*
X9173786Y-13640114D01*
X9173786Y-13659162D01*
X9078548Y-13678209D01*
X9249976Y-13735352D02*
X9269024Y-13744876D01*
X9307119Y-13744876D01*
X9326167Y-13735352D01*
X9335690Y-13716305D01*
X9335690Y-13706781D01*
X9326167Y-13687733D01*
X9307119Y-13678209D01*
X9278548Y-13678209D01*
X9259500Y-13668686D01*
X9249976Y-13649638D01*
X9249976Y-13640114D01*
X9259500Y-13621067D01*
X9278548Y-13611543D01*
X9307119Y-13611543D01*
X9326167Y-13621067D01*
X9402357Y-13821067D02*
X9411881Y-13811543D01*
X9430928Y-13782971D01*
X9440452Y-13763924D01*
X9449976Y-13735352D01*
X9459500Y-13687733D01*
X9459500Y-13649638D01*
X9449976Y-13602019D01*
X9440452Y-13573448D01*
X9430928Y-13554400D01*
X9411881Y-13525828D01*
X9402357Y-13516305D01*
D10*
X4199500Y-13968400D02*
X4249500Y-13918400D01*
X4199500Y-13868400D01*
X4149500Y-13918400D01*
X4199500Y-13968400D01*
D11*
X4611881Y-14008876D02*
X4497595Y-14008876D01*
X4554738Y-14008876D02*
X4554738Y-13808876D01*
X4535690Y-13837448D01*
X4516643Y-13856495D01*
X4497595Y-13866019D01*
X4697595Y-13989828D02*
X4707119Y-13999352D01*
X4697595Y-14008876D01*
X4688071Y-13999352D01*
X4697595Y-13989828D01*
X4697595Y-14008876D01*
X4830928Y-13808876D02*
X4849976Y-13808876D01*
X4869024Y-13818400D01*
X4878548Y-13827924D01*
X4888071Y-13846971D01*
X4897595Y-13885067D01*
X4897595Y-13932686D01*
X4888071Y-13970781D01*
X4878548Y-13989828D01*
X4869024Y-13999352D01*
X4849976Y-14008876D01*
X4830928Y-14008876D01*
X4811881Y-13999352D01*
X4802357Y-13989828D01*
X4792833Y-13970781D01*
X4783309Y-13932686D01*
X4783309Y-13885067D01*
X4792833Y-13846971D01*
X4802357Y-13827924D01*
X4811881Y-13818400D01*
X4830928Y-13808876D01*
X5021405Y-13808876D02*
X5040452Y-13808876D01*
X5059500Y-13818400D01*
X5069024Y-13827924D01*
X5078548Y-13846971D01*
X5088071Y-13885067D01*
X5088071Y-13932686D01*
X5078548Y-13970781D01*
X5069024Y-13989828D01*
X5059500Y-13999352D01*
X5040452Y-14008876D01*
X5021405Y-14008876D01*
X5002357Y-13999352D01*
X4992833Y-13989828D01*
X4983309Y-13970781D01*
X4973786Y-13932686D01*
X4973786Y-13885067D01*
X4983309Y-13846971D01*
X4992833Y-13827924D01*
X5002357Y-13818400D01*
X5021405Y-13808876D01*
X5211881Y-13808876D02*
X5230928Y-13808876D01*
X5249976Y-13818400D01*
X5259500Y-13827924D01*
X5269024Y-13846971D01*
X5278548Y-13885067D01*
X5278548Y-13932686D01*
X5269024Y-13970781D01*
X5259500Y-13989828D01*
X5249976Y-13999352D01*
X5230928Y-14008876D01*
X5211881Y-14008876D01*
X5192833Y-13999352D01*
X5183309Y-13989828D01*
X5173786Y-13970781D01*
X5164262Y-13932686D01*
X5164262Y-13885067D01*
X5173786Y-13846971D01*
X5183309Y-13827924D01*
X5192833Y-13818400D01*
X5211881Y-13808876D01*
X5364262Y-14008876D02*
X5364262Y-13875543D01*
X5364262Y-13894590D02*
X5373786Y-13885067D01*
X5392833Y-13875543D01*
X5421405Y-13875543D01*
X5440452Y-13885067D01*
X5449976Y-13904114D01*
X5449976Y-14008876D01*
X5449976Y-13904114D02*
X5459500Y-13885067D01*
X5478548Y-13875543D01*
X5507119Y-13875543D01*
X5526167Y-13885067D01*
X5535690Y-13904114D01*
X5535690Y-14008876D01*
X5630928Y-14008876D02*
X5630928Y-13875543D01*
X5630928Y-13894590D02*
X5640452Y-13885067D01*
X5659500Y-13875543D01*
X5688071Y-13875543D01*
X5707119Y-13885067D01*
X5716643Y-13904114D01*
X5716643Y-14008876D01*
X5716643Y-13904114D02*
X5726166Y-13885067D01*
X5745214Y-13875543D01*
X5773786Y-13875543D01*
X5792833Y-13885067D01*
X5802357Y-13904114D01*
X5802357Y-14008876D01*
X6192833Y-13799352D02*
X6021405Y-14056495D01*
X6449976Y-13808876D02*
X6469024Y-13808876D01*
X6488071Y-13818400D01*
X6497595Y-13827924D01*
X6507119Y-13846971D01*
X6516643Y-13885067D01*
X6516643Y-13932686D01*
X6507119Y-13970781D01*
X6497595Y-13989828D01*
X6488071Y-13999352D01*
X6469024Y-14008876D01*
X6449976Y-14008876D01*
X6430928Y-13999352D01*
X6421405Y-13989828D01*
X6411881Y-13970781D01*
X6402357Y-13932686D01*
X6402357Y-13885067D01*
X6411881Y-13846971D01*
X6421405Y-13827924D01*
X6430928Y-13818400D01*
X6449976Y-13808876D01*
X6602357Y-13989828D02*
X6611881Y-13999352D01*
X6602357Y-14008876D01*
X6592833Y-13999352D01*
X6602357Y-13989828D01*
X6602357Y-14008876D01*
X6735690Y-13808876D02*
X6754738Y-13808876D01*
X6773786Y-13818400D01*
X6783309Y-13827924D01*
X6792833Y-13846971D01*
X6802357Y-13885067D01*
X6802357Y-13932686D01*
X6792833Y-13970781D01*
X6783309Y-13989828D01*
X6773786Y-13999352D01*
X6754738Y-14008876D01*
X6735690Y-14008876D01*
X6716643Y-13999352D01*
X6707119Y-13989828D01*
X6697595Y-13970781D01*
X6688071Y-13932686D01*
X6688071Y-13885067D01*
X6697595Y-13846971D01*
X6707119Y-13827924D01*
X6716643Y-13818400D01*
X6735690Y-13808876D01*
X6869024Y-13808876D02*
X6992833Y-13808876D01*
X6926166Y-13885067D01*
X6954738Y-13885067D01*
X6973786Y-13894590D01*
X6983309Y-13904114D01*
X6992833Y-13923162D01*
X6992833Y-13970781D01*
X6983309Y-13989828D01*
X6973786Y-13999352D01*
X6954738Y-14008876D01*
X6897595Y-14008876D01*
X6878547Y-13999352D01*
X6869024Y-13989828D01*
X7088071Y-14008876D02*
X7126166Y-14008876D01*
X7145214Y-13999352D01*
X7154738Y-13989828D01*
X7173786Y-13961257D01*
X7183309Y-13923162D01*
X7183309Y-13846971D01*
X7173786Y-13827924D01*
X7164262Y-13818400D01*
X7145214Y-13808876D01*
X7107119Y-13808876D01*
X7088071Y-13818400D01*
X7078547Y-13827924D01*
X7069024Y-13846971D01*
X7069024Y-13894590D01*
X7078547Y-13913638D01*
X7088071Y-13923162D01*
X7107119Y-13932686D01*
X7145214Y-13932686D01*
X7164262Y-13923162D01*
X7173786Y-13913638D01*
X7183309Y-13894590D01*
X7354738Y-13875543D02*
X7354738Y-14008876D01*
X7307119Y-13799352D02*
X7259500Y-13942209D01*
X7383309Y-13942209D01*
X7449976Y-13808876D02*
X7449976Y-13846971D01*
X7526166Y-13808876D02*
X7526166Y-13846971D01*
X7821405Y-14085067D02*
X7811881Y-14075543D01*
X7792833Y-14046971D01*
X7783309Y-14027924D01*
X7773786Y-13999352D01*
X7764262Y-13951733D01*
X7764262Y-13913638D01*
X7773786Y-13866019D01*
X7783309Y-13837448D01*
X7792833Y-13818400D01*
X7811881Y-13789828D01*
X7821405Y-13780305D01*
X7992833Y-13808876D02*
X7897595Y-13808876D01*
X7888071Y-13904114D01*
X7897595Y-13894590D01*
X7916643Y-13885067D01*
X7964262Y-13885067D01*
X7983309Y-13894590D01*
X7992833Y-13904114D01*
X8002357Y-13923162D01*
X8002357Y-13970781D01*
X7992833Y-13989828D01*
X7983309Y-13999352D01*
X7964262Y-14008876D01*
X7916643Y-14008876D01*
X7897595Y-13999352D01*
X7888071Y-13989828D01*
X8240452Y-14008876D02*
X8240452Y-13808876D01*
X8326166Y-14008876D02*
X8326166Y-13904114D01*
X8316643Y-13885067D01*
X8297595Y-13875543D01*
X8269024Y-13875543D01*
X8249976Y-13885067D01*
X8240452Y-13894590D01*
X8449976Y-14008876D02*
X8430928Y-13999352D01*
X8421405Y-13989828D01*
X8411881Y-13970781D01*
X8411881Y-13913638D01*
X8421405Y-13894590D01*
X8430928Y-13885067D01*
X8449976Y-13875543D01*
X8478548Y-13875543D01*
X8497595Y-13885067D01*
X8507119Y-13894590D01*
X8516643Y-13913638D01*
X8516643Y-13970781D01*
X8507119Y-13989828D01*
X8497595Y-13999352D01*
X8478548Y-14008876D01*
X8449976Y-14008876D01*
X8630928Y-14008876D02*
X8611881Y-13999352D01*
X8602357Y-13980305D01*
X8602357Y-13808876D01*
X8783309Y-13999352D02*
X8764262Y-14008876D01*
X8726167Y-14008876D01*
X8707119Y-13999352D01*
X8697595Y-13980305D01*
X8697595Y-13904114D01*
X8707119Y-13885067D01*
X8726167Y-13875543D01*
X8764262Y-13875543D01*
X8783309Y-13885067D01*
X8792833Y-13904114D01*
X8792833Y-13923162D01*
X8697595Y-13942209D01*
X8869024Y-13999352D02*
X8888071Y-14008876D01*
X8926167Y-14008876D01*
X8945214Y-13999352D01*
X8954738Y-13980305D01*
X8954738Y-13970781D01*
X8945214Y-13951733D01*
X8926167Y-13942209D01*
X8897595Y-13942209D01*
X8878548Y-13932686D01*
X8869024Y-13913638D01*
X8869024Y-13904114D01*
X8878548Y-13885067D01*
X8897595Y-13875543D01*
X8926167Y-13875543D01*
X8945214Y-13885067D01*
X9192833Y-13932686D02*
X9345214Y-13932686D01*
X9269024Y-14008876D02*
X9269024Y-13856495D01*
X9621405Y-13894590D02*
X9602357Y-13885067D01*
X9592833Y-13875543D01*
X9583309Y-13856495D01*
X9583309Y-13846971D01*
X9592833Y-13827924D01*
X9602357Y-13818400D01*
X9621405Y-13808876D01*
X9659500Y-13808876D01*
X9678548Y-13818400D01*
X9688071Y-13827924D01*
X9697595Y-13846971D01*
X9697595Y-13856495D01*
X9688071Y-13875543D01*
X9678548Y-13885067D01*
X9659500Y-13894590D01*
X9621405Y-13894590D01*
X9602357Y-13904114D01*
X9592833Y-13913638D01*
X9583309Y-13932686D01*
X9583309Y-13970781D01*
X9592833Y-13989828D01*
X9602357Y-13999352D01*
X9621405Y-14008876D01*
X9659500Y-14008876D01*
X9678548Y-13999352D01*
X9688071Y-13989828D01*
X9697595Y-13970781D01*
X9697595Y-13932686D01*
X9688071Y-13913638D01*
X9678548Y-13904114D01*
X9659500Y-13894590D01*
X9926167Y-13999352D02*
X9945214Y-14008876D01*
X9983309Y-14008876D01*
X10002357Y-13999352D01*
X10011881Y-13980305D01*
X10011881Y-13970781D01*
X10002357Y-13951733D01*
X9983309Y-13942209D01*
X9954738Y-13942209D01*
X9935690Y-13932686D01*
X9926167Y-13913638D01*
X9926167Y-13904114D01*
X9935690Y-13885067D01*
X9954738Y-13875543D01*
X9983309Y-13875543D01*
X10002357Y-13885067D01*
X10126167Y-14008876D02*
X10107119Y-13999352D01*
X10097595Y-13980305D01*
X10097595Y-13808876D01*
X10230928Y-14008876D02*
X10211881Y-13999352D01*
X10202357Y-13989828D01*
X10192833Y-13970781D01*
X10192833Y-13913638D01*
X10202357Y-13894590D01*
X10211881Y-13885067D01*
X10230928Y-13875543D01*
X10259500Y-13875543D01*
X10278548Y-13885067D01*
X10288071Y-13894590D01*
X10297595Y-13913638D01*
X10297595Y-13970781D01*
X10288071Y-13989828D01*
X10278548Y-13999352D01*
X10259500Y-14008876D01*
X10230928Y-14008876D01*
X10354738Y-13875543D02*
X10430928Y-13875543D01*
X10383309Y-13808876D02*
X10383309Y-13980305D01*
X10392833Y-13999352D01*
X10411881Y-14008876D01*
X10430928Y-14008876D01*
X10488071Y-13999352D02*
X10507119Y-14008876D01*
X10545214Y-14008876D01*
X10564262Y-13999352D01*
X10573786Y-13980305D01*
X10573786Y-13970781D01*
X10564262Y-13951733D01*
X10545214Y-13942209D01*
X10516643Y-13942209D01*
X10497595Y-13932686D01*
X10488071Y-13913638D01*
X10488071Y-13904114D01*
X10497595Y-13885067D01*
X10516643Y-13875543D01*
X10545214Y-13875543D01*
X10564262Y-13885067D01*
X10640452Y-14085067D02*
X10649976Y-14075543D01*
X10669024Y-14046971D01*
X10678548Y-14027924D01*
X10688071Y-13999352D01*
X10697595Y-13951733D01*
X10697595Y-13913638D01*
X10688071Y-13866019D01*
X10678548Y-13837448D01*
X10669024Y-13818400D01*
X10649976Y-13789828D01*
X10640452Y-13780305D01*
D15*
X4119500Y-14117400D02*
X4249500Y-14247400D01*
X4249500Y-14117400D02*
X4119500Y-14247400D01*
X4249500Y-14182400D02*
G75*
G03*
X4249500Y-14182400I-65000J0D01*
G01*
D11*
X4611881Y-14272876D02*
X4497595Y-14272876D01*
X4554738Y-14272876D02*
X4554738Y-14072876D01*
X4535690Y-14101448D01*
X4516643Y-14120495D01*
X4497595Y-14130019D01*
X4697595Y-14253828D02*
X4707119Y-14263352D01*
X4697595Y-14272876D01*
X4688071Y-14263352D01*
X4697595Y-14253828D01*
X4697595Y-14272876D01*
X4773786Y-14072876D02*
X4897595Y-14072876D01*
X4830928Y-14149067D01*
X4859500Y-14149067D01*
X4878548Y-14158590D01*
X4888071Y-14168114D01*
X4897595Y-14187162D01*
X4897595Y-14234781D01*
X4888071Y-14253828D01*
X4878548Y-14263352D01*
X4859500Y-14272876D01*
X4802357Y-14272876D01*
X4783309Y-14263352D01*
X4773786Y-14253828D01*
X5021405Y-14072876D02*
X5040452Y-14072876D01*
X5059500Y-14082400D01*
X5069024Y-14091924D01*
X5078548Y-14110971D01*
X5088071Y-14149067D01*
X5088071Y-14196686D01*
X5078548Y-14234781D01*
X5069024Y-14253828D01*
X5059500Y-14263352D01*
X5040452Y-14272876D01*
X5021405Y-14272876D01*
X5002357Y-14263352D01*
X4992833Y-14253828D01*
X4983309Y-14234781D01*
X4973786Y-14196686D01*
X4973786Y-14149067D01*
X4983309Y-14110971D01*
X4992833Y-14091924D01*
X5002357Y-14082400D01*
X5021405Y-14072876D01*
X5211881Y-14072876D02*
X5230928Y-14072876D01*
X5249976Y-14082400D01*
X5259500Y-14091924D01*
X5269024Y-14110971D01*
X5278548Y-14149067D01*
X5278548Y-14196686D01*
X5269024Y-14234781D01*
X5259500Y-14253828D01*
X5249976Y-14263352D01*
X5230928Y-14272876D01*
X5211881Y-14272876D01*
X5192833Y-14263352D01*
X5183309Y-14253828D01*
X5173786Y-14234781D01*
X5164262Y-14196686D01*
X5164262Y-14149067D01*
X5173786Y-14110971D01*
X5183309Y-14091924D01*
X5192833Y-14082400D01*
X5211881Y-14072876D01*
X5364262Y-14272876D02*
X5364262Y-14139543D01*
X5364262Y-14158590D02*
X5373786Y-14149067D01*
X5392833Y-14139543D01*
X5421405Y-14139543D01*
X5440452Y-14149067D01*
X5449976Y-14168114D01*
X5449976Y-14272876D01*
X5449976Y-14168114D02*
X5459500Y-14149067D01*
X5478548Y-14139543D01*
X5507119Y-14139543D01*
X5526167Y-14149067D01*
X5535690Y-14168114D01*
X5535690Y-14272876D01*
X5630928Y-14272876D02*
X5630928Y-14139543D01*
X5630928Y-14158590D02*
X5640452Y-14149067D01*
X5659500Y-14139543D01*
X5688071Y-14139543D01*
X5707119Y-14149067D01*
X5716643Y-14168114D01*
X5716643Y-14272876D01*
X5716643Y-14168114D02*
X5726166Y-14149067D01*
X5745214Y-14139543D01*
X5773786Y-14139543D01*
X5792833Y-14149067D01*
X5802357Y-14168114D01*
X5802357Y-14272876D01*
X6192833Y-14063352D02*
X6021405Y-14320495D01*
X6449976Y-14072876D02*
X6469024Y-14072876D01*
X6488071Y-14082400D01*
X6497595Y-14091924D01*
X6507119Y-14110971D01*
X6516643Y-14149067D01*
X6516643Y-14196686D01*
X6507119Y-14234781D01*
X6497595Y-14253828D01*
X6488071Y-14263352D01*
X6469024Y-14272876D01*
X6449976Y-14272876D01*
X6430928Y-14263352D01*
X6421405Y-14253828D01*
X6411881Y-14234781D01*
X6402357Y-14196686D01*
X6402357Y-14149067D01*
X6411881Y-14110971D01*
X6421405Y-14091924D01*
X6430928Y-14082400D01*
X6449976Y-14072876D01*
X6602357Y-14253828D02*
X6611881Y-14263352D01*
X6602357Y-14272876D01*
X6592833Y-14263352D01*
X6602357Y-14253828D01*
X6602357Y-14272876D01*
X6735690Y-14072876D02*
X6754738Y-14072876D01*
X6773786Y-14082400D01*
X6783309Y-14091924D01*
X6792833Y-14110971D01*
X6802357Y-14149067D01*
X6802357Y-14196686D01*
X6792833Y-14234781D01*
X6783309Y-14253828D01*
X6773786Y-14263352D01*
X6754738Y-14272876D01*
X6735690Y-14272876D01*
X6716643Y-14263352D01*
X6707119Y-14253828D01*
X6697595Y-14234781D01*
X6688071Y-14196686D01*
X6688071Y-14149067D01*
X6697595Y-14110971D01*
X6707119Y-14091924D01*
X6716643Y-14082400D01*
X6735690Y-14072876D01*
X6983309Y-14072876D02*
X6888071Y-14072876D01*
X6878547Y-14168114D01*
X6888071Y-14158590D01*
X6907119Y-14149067D01*
X6954738Y-14149067D01*
X6973786Y-14158590D01*
X6983309Y-14168114D01*
X6992833Y-14187162D01*
X6992833Y-14234781D01*
X6983309Y-14253828D01*
X6973786Y-14263352D01*
X6954738Y-14272876D01*
X6907119Y-14272876D01*
X6888071Y-14263352D01*
X6878547Y-14253828D01*
X7183309Y-14272876D02*
X7069024Y-14272876D01*
X7126166Y-14272876D02*
X7126166Y-14072876D01*
X7107119Y-14101448D01*
X7088071Y-14120495D01*
X7069024Y-14130019D01*
X7259500Y-14091924D02*
X7269024Y-14082400D01*
X7288071Y-14072876D01*
X7335690Y-14072876D01*
X7354738Y-14082400D01*
X7364262Y-14091924D01*
X7373786Y-14110971D01*
X7373786Y-14130019D01*
X7364262Y-14158590D01*
X7249976Y-14272876D01*
X7373786Y-14272876D01*
X7449976Y-14072876D02*
X7449976Y-14110971D01*
X7526166Y-14072876D02*
X7526166Y-14110971D01*
X7821405Y-14349067D02*
X7811881Y-14339543D01*
X7792833Y-14310971D01*
X7783309Y-14291924D01*
X7773786Y-14263352D01*
X7764262Y-14215733D01*
X7764262Y-14177638D01*
X7773786Y-14130019D01*
X7783309Y-14101448D01*
X7792833Y-14082400D01*
X7811881Y-14053828D01*
X7821405Y-14044305D01*
X7888071Y-14091924D02*
X7897595Y-14082400D01*
X7916643Y-14072876D01*
X7964262Y-14072876D01*
X7983309Y-14082400D01*
X7992833Y-14091924D01*
X8002357Y-14110971D01*
X8002357Y-14130019D01*
X7992833Y-14158590D01*
X7878547Y-14272876D01*
X8002357Y-14272876D01*
X8240452Y-14272876D02*
X8240452Y-14072876D01*
X8326166Y-14272876D02*
X8326166Y-14168114D01*
X8316643Y-14149067D01*
X8297595Y-14139543D01*
X8269024Y-14139543D01*
X8249976Y-14149067D01*
X8240452Y-14158590D01*
X8449976Y-14272876D02*
X8430928Y-14263352D01*
X8421405Y-14253828D01*
X8411881Y-14234781D01*
X8411881Y-14177638D01*
X8421405Y-14158590D01*
X8430928Y-14149067D01*
X8449976Y-14139543D01*
X8478548Y-14139543D01*
X8497595Y-14149067D01*
X8507119Y-14158590D01*
X8516643Y-14177638D01*
X8516643Y-14234781D01*
X8507119Y-14253828D01*
X8497595Y-14263352D01*
X8478548Y-14272876D01*
X8449976Y-14272876D01*
X8630928Y-14272876D02*
X8611881Y-14263352D01*
X8602357Y-14244305D01*
X8602357Y-14072876D01*
X8783309Y-14263352D02*
X8764262Y-14272876D01*
X8726167Y-14272876D01*
X8707119Y-14263352D01*
X8697595Y-14244305D01*
X8697595Y-14168114D01*
X8707119Y-14149067D01*
X8726167Y-14139543D01*
X8764262Y-14139543D01*
X8783309Y-14149067D01*
X8792833Y-14168114D01*
X8792833Y-14187162D01*
X8697595Y-14206209D01*
X8869024Y-14263352D02*
X8888071Y-14272876D01*
X8926167Y-14272876D01*
X8945214Y-14263352D01*
X8954738Y-14244305D01*
X8954738Y-14234781D01*
X8945214Y-14215733D01*
X8926167Y-14206209D01*
X8897595Y-14206209D01*
X8878548Y-14196686D01*
X8869024Y-14177638D01*
X8869024Y-14168114D01*
X8878548Y-14149067D01*
X8897595Y-14139543D01*
X8926167Y-14139543D01*
X8945214Y-14149067D01*
X9021405Y-14349067D02*
X9030928Y-14339543D01*
X9049976Y-14310971D01*
X9059500Y-14291924D01*
X9069024Y-14263352D01*
X9078548Y-14215733D01*
X9078548Y-14177638D01*
X9069024Y-14130019D01*
X9059500Y-14101448D01*
X9049976Y-14082400D01*
X9030928Y-14053828D01*
X9021405Y-14044305D01*
D16*
X4099500Y-14371400D02*
X4249500Y-14521400D01*
X4249500Y-14371400D02*
X4099500Y-14521400D01*
X4174500Y-14371400D02*
X4174500Y-14521400D01*
X4099500Y-14446400D02*
X4249500Y-14446400D01*
D11*
X4611881Y-14536876D02*
X4497595Y-14536876D01*
X4554738Y-14536876D02*
X4554738Y-14336876D01*
X4535690Y-14365448D01*
X4516643Y-14384495D01*
X4497595Y-14394019D01*
X4697595Y-14517828D02*
X4707119Y-14527352D01*
X4697595Y-14536876D01*
X4688071Y-14527352D01*
X4697595Y-14517828D01*
X4697595Y-14536876D01*
X4888071Y-14336876D02*
X4792833Y-14336876D01*
X4783309Y-14432114D01*
X4792833Y-14422590D01*
X4811881Y-14413067D01*
X4859500Y-14413067D01*
X4878548Y-14422590D01*
X4888071Y-14432114D01*
X4897595Y-14451162D01*
X4897595Y-14498781D01*
X4888071Y-14517828D01*
X4878548Y-14527352D01*
X4859500Y-14536876D01*
X4811881Y-14536876D01*
X4792833Y-14527352D01*
X4783309Y-14517828D01*
X5021405Y-14336876D02*
X5040452Y-14336876D01*
X5059500Y-14346400D01*
X5069024Y-14355924D01*
X5078548Y-14374971D01*
X5088071Y-14413067D01*
X5088071Y-14460686D01*
X5078548Y-14498781D01*
X5069024Y-14517828D01*
X5059500Y-14527352D01*
X5040452Y-14536876D01*
X5021405Y-14536876D01*
X5002357Y-14527352D01*
X4992833Y-14517828D01*
X4983309Y-14498781D01*
X4973786Y-14460686D01*
X4973786Y-14413067D01*
X4983309Y-14374971D01*
X4992833Y-14355924D01*
X5002357Y-14346400D01*
X5021405Y-14336876D01*
X5211881Y-14336876D02*
X5230928Y-14336876D01*
X5249976Y-14346400D01*
X5259500Y-14355924D01*
X5269024Y-14374971D01*
X5278548Y-14413067D01*
X5278548Y-14460686D01*
X5269024Y-14498781D01*
X5259500Y-14517828D01*
X5249976Y-14527352D01*
X5230928Y-14536876D01*
X5211881Y-14536876D01*
X5192833Y-14527352D01*
X5183309Y-14517828D01*
X5173786Y-14498781D01*
X5164262Y-14460686D01*
X5164262Y-14413067D01*
X5173786Y-14374971D01*
X5183309Y-14355924D01*
X5192833Y-14346400D01*
X5211881Y-14336876D01*
X5364262Y-14536876D02*
X5364262Y-14403543D01*
X5364262Y-14422590D02*
X5373786Y-14413067D01*
X5392833Y-14403543D01*
X5421405Y-14403543D01*
X5440452Y-14413067D01*
X5449976Y-14432114D01*
X5449976Y-14536876D01*
X5449976Y-14432114D02*
X5459500Y-14413067D01*
X5478548Y-14403543D01*
X5507119Y-14403543D01*
X5526167Y-14413067D01*
X5535690Y-14432114D01*
X5535690Y-14536876D01*
X5630928Y-14536876D02*
X5630928Y-14403543D01*
X5630928Y-14422590D02*
X5640452Y-14413067D01*
X5659500Y-14403543D01*
X5688071Y-14403543D01*
X5707119Y-14413067D01*
X5716643Y-14432114D01*
X5716643Y-14536876D01*
X5716643Y-14432114D02*
X5726166Y-14413067D01*
X5745214Y-14403543D01*
X5773786Y-14403543D01*
X5792833Y-14413067D01*
X5802357Y-14432114D01*
X5802357Y-14536876D01*
X6192833Y-14327352D02*
X6021405Y-14584495D01*
X6449976Y-14336876D02*
X6469024Y-14336876D01*
X6488071Y-14346400D01*
X6497595Y-14355924D01*
X6507119Y-14374971D01*
X6516643Y-14413067D01*
X6516643Y-14460686D01*
X6507119Y-14498781D01*
X6497595Y-14517828D01*
X6488071Y-14527352D01*
X6469024Y-14536876D01*
X6449976Y-14536876D01*
X6430928Y-14527352D01*
X6421405Y-14517828D01*
X6411881Y-14498781D01*
X6402357Y-14460686D01*
X6402357Y-14413067D01*
X6411881Y-14374971D01*
X6421405Y-14355924D01*
X6430928Y-14346400D01*
X6449976Y-14336876D01*
X6602357Y-14517828D02*
X6611881Y-14527352D01*
X6602357Y-14536876D01*
X6592833Y-14527352D01*
X6602357Y-14517828D01*
X6602357Y-14536876D01*
X6735690Y-14336876D02*
X6754738Y-14336876D01*
X6773786Y-14346400D01*
X6783309Y-14355924D01*
X6792833Y-14374971D01*
X6802357Y-14413067D01*
X6802357Y-14460686D01*
X6792833Y-14498781D01*
X6783309Y-14517828D01*
X6773786Y-14527352D01*
X6754738Y-14536876D01*
X6735690Y-14536876D01*
X6716643Y-14527352D01*
X6707119Y-14517828D01*
X6697595Y-14498781D01*
X6688071Y-14460686D01*
X6688071Y-14413067D01*
X6697595Y-14374971D01*
X6707119Y-14355924D01*
X6716643Y-14346400D01*
X6735690Y-14336876D01*
X6983309Y-14336876D02*
X6888071Y-14336876D01*
X6878547Y-14432114D01*
X6888071Y-14422590D01*
X6907119Y-14413067D01*
X6954738Y-14413067D01*
X6973786Y-14422590D01*
X6983309Y-14432114D01*
X6992833Y-14451162D01*
X6992833Y-14498781D01*
X6983309Y-14517828D01*
X6973786Y-14527352D01*
X6954738Y-14536876D01*
X6907119Y-14536876D01*
X6888071Y-14527352D01*
X6878547Y-14517828D01*
X7088071Y-14536876D02*
X7126166Y-14536876D01*
X7145214Y-14527352D01*
X7154738Y-14517828D01*
X7173786Y-14489257D01*
X7183309Y-14451162D01*
X7183309Y-14374971D01*
X7173786Y-14355924D01*
X7164262Y-14346400D01*
X7145214Y-14336876D01*
X7107119Y-14336876D01*
X7088071Y-14346400D01*
X7078547Y-14355924D01*
X7069024Y-14374971D01*
X7069024Y-14422590D01*
X7078547Y-14441638D01*
X7088071Y-14451162D01*
X7107119Y-14460686D01*
X7145214Y-14460686D01*
X7164262Y-14451162D01*
X7173786Y-14441638D01*
X7183309Y-14422590D01*
X7373786Y-14536876D02*
X7259500Y-14536876D01*
X7316643Y-14536876D02*
X7316643Y-14336876D01*
X7297595Y-14365448D01*
X7278547Y-14384495D01*
X7259500Y-14394019D01*
X7449976Y-14336876D02*
X7449976Y-14374971D01*
X7526166Y-14336876D02*
X7526166Y-14374971D01*
X7821405Y-14613067D02*
X7811881Y-14603543D01*
X7792833Y-14574971D01*
X7783309Y-14555924D01*
X7773786Y-14527352D01*
X7764262Y-14479733D01*
X7764262Y-14441638D01*
X7773786Y-14394019D01*
X7783309Y-14365448D01*
X7792833Y-14346400D01*
X7811881Y-14317828D01*
X7821405Y-14308305D01*
X7935690Y-14336876D02*
X7954738Y-14336876D01*
X7973786Y-14346400D01*
X7983309Y-14355924D01*
X7992833Y-14374971D01*
X8002357Y-14413067D01*
X8002357Y-14460686D01*
X7992833Y-14498781D01*
X7983309Y-14517828D01*
X7973786Y-14527352D01*
X7954738Y-14536876D01*
X7935690Y-14536876D01*
X7916643Y-14527352D01*
X7907119Y-14517828D01*
X7897595Y-14498781D01*
X7888071Y-14460686D01*
X7888071Y-14413067D01*
X7897595Y-14374971D01*
X7907119Y-14355924D01*
X7916643Y-14346400D01*
X7935690Y-14336876D01*
X8240452Y-14536876D02*
X8240452Y-14336876D01*
X8326166Y-14536876D02*
X8326166Y-14432114D01*
X8316643Y-14413067D01*
X8297595Y-14403543D01*
X8269024Y-14403543D01*
X8249976Y-14413067D01*
X8240452Y-14422590D01*
X8449976Y-14536876D02*
X8430928Y-14527352D01*
X8421405Y-14517828D01*
X8411881Y-14498781D01*
X8411881Y-14441638D01*
X8421405Y-14422590D01*
X8430928Y-14413067D01*
X8449976Y-14403543D01*
X8478548Y-14403543D01*
X8497595Y-14413067D01*
X8507119Y-14422590D01*
X8516643Y-14441638D01*
X8516643Y-14498781D01*
X8507119Y-14517828D01*
X8497595Y-14527352D01*
X8478548Y-14536876D01*
X8449976Y-14536876D01*
X8630928Y-14536876D02*
X8611881Y-14527352D01*
X8602357Y-14508305D01*
X8602357Y-14336876D01*
X8783309Y-14527352D02*
X8764262Y-14536876D01*
X8726167Y-14536876D01*
X8707119Y-14527352D01*
X8697595Y-14508305D01*
X8697595Y-14432114D01*
X8707119Y-14413067D01*
X8726167Y-14403543D01*
X8764262Y-14403543D01*
X8783309Y-14413067D01*
X8792833Y-14432114D01*
X8792833Y-14451162D01*
X8697595Y-14470209D01*
X8869024Y-14527352D02*
X8888071Y-14536876D01*
X8926167Y-14536876D01*
X8945214Y-14527352D01*
X8954738Y-14508305D01*
X8954738Y-14498781D01*
X8945214Y-14479733D01*
X8926167Y-14470209D01*
X8897595Y-14470209D01*
X8878548Y-14460686D01*
X8869024Y-14441638D01*
X8869024Y-14432114D01*
X8878548Y-14413067D01*
X8897595Y-14403543D01*
X8926167Y-14403543D01*
X8945214Y-14413067D01*
X9192833Y-14460686D02*
X9345214Y-14460686D01*
X9269024Y-14536876D02*
X9269024Y-14384495D01*
X9583309Y-14355924D02*
X9592833Y-14346400D01*
X9611881Y-14336876D01*
X9659500Y-14336876D01*
X9678548Y-14346400D01*
X9688071Y-14355924D01*
X9697595Y-14374971D01*
X9697595Y-14394019D01*
X9688071Y-14422590D01*
X9573786Y-14536876D01*
X9697595Y-14536876D01*
X9926167Y-14527352D02*
X9945214Y-14536876D01*
X9983309Y-14536876D01*
X10002357Y-14527352D01*
X10011881Y-14508305D01*
X10011881Y-14498781D01*
X10002357Y-14479733D01*
X9983309Y-14470209D01*
X9954738Y-14470209D01*
X9935690Y-14460686D01*
X9926167Y-14441638D01*
X9926167Y-14432114D01*
X9935690Y-14413067D01*
X9954738Y-14403543D01*
X9983309Y-14403543D01*
X10002357Y-14413067D01*
X10126167Y-14536876D02*
X10107119Y-14527352D01*
X10097595Y-14508305D01*
X10097595Y-14336876D01*
X10230928Y-14536876D02*
X10211881Y-14527352D01*
X10202357Y-14517828D01*
X10192833Y-14498781D01*
X10192833Y-14441638D01*
X10202357Y-14422590D01*
X10211881Y-14413067D01*
X10230928Y-14403543D01*
X10259500Y-14403543D01*
X10278548Y-14413067D01*
X10288071Y-14422590D01*
X10297595Y-14441638D01*
X10297595Y-14498781D01*
X10288071Y-14517828D01*
X10278548Y-14527352D01*
X10259500Y-14536876D01*
X10230928Y-14536876D01*
X10354738Y-14403543D02*
X10430928Y-14403543D01*
X10383309Y-14336876D02*
X10383309Y-14508305D01*
X10392833Y-14527352D01*
X10411881Y-14536876D01*
X10430928Y-14536876D01*
X10488071Y-14527352D02*
X10507119Y-14536876D01*
X10545214Y-14536876D01*
X10564262Y-14527352D01*
X10573786Y-14508305D01*
X10573786Y-14498781D01*
X10564262Y-14479733D01*
X10545214Y-14470209D01*
X10516643Y-14470209D01*
X10497595Y-14460686D01*
X10488071Y-14441638D01*
X10488071Y-14432114D01*
X10497595Y-14413067D01*
X10516643Y-14403543D01*
X10545214Y-14403543D01*
X10564262Y-14413067D01*
X10640452Y-14613067D02*
X10649976Y-14603543D01*
X10669024Y-14574971D01*
X10678548Y-14555924D01*
X10688071Y-14527352D01*
X10697595Y-14479733D01*
X10697595Y-14441638D01*
X10688071Y-14394019D01*
X10678548Y-14365448D01*
X10669024Y-14346400D01*
X10649976Y-14317828D01*
X10640452Y-14308305D01*
X4049500Y-14616400D02*
X4249500Y-14816400D01*
X4249500Y-14616400D02*
X4049500Y-14816400D01*
X4220211Y-14787111D02*
X4220211Y-14645689D01*
X4078788Y-14645689D01*
X4078788Y-14787111D01*
X4220211Y-14787111D01*
X4497595Y-14625924D02*
X4507119Y-14616400D01*
X4526167Y-14606876D01*
X4573786Y-14606876D01*
X4592833Y-14616400D01*
X4602357Y-14625924D01*
X4611881Y-14644971D01*
X4611881Y-14664019D01*
X4602357Y-14692590D01*
X4488071Y-14806876D01*
X4611881Y-14806876D01*
X4697595Y-14787828D02*
X4707119Y-14797352D01*
X4697595Y-14806876D01*
X4688071Y-14797352D01*
X4697595Y-14787828D01*
X4697595Y-14806876D01*
X4773786Y-14606876D02*
X4897595Y-14606876D01*
X4830928Y-14683067D01*
X4859500Y-14683067D01*
X4878548Y-14692590D01*
X4888071Y-14702114D01*
X4897595Y-14721162D01*
X4897595Y-14768781D01*
X4888071Y-14787828D01*
X4878548Y-14797352D01*
X4859500Y-14806876D01*
X4802357Y-14806876D01*
X4783309Y-14797352D01*
X4773786Y-14787828D01*
X5021405Y-14606876D02*
X5040452Y-14606876D01*
X5059500Y-14616400D01*
X5069024Y-14625924D01*
X5078548Y-14644971D01*
X5088071Y-14683067D01*
X5088071Y-14730686D01*
X5078548Y-14768781D01*
X5069024Y-14787828D01*
X5059500Y-14797352D01*
X5040452Y-14806876D01*
X5021405Y-14806876D01*
X5002357Y-14797352D01*
X4992833Y-14787828D01*
X4983309Y-14768781D01*
X4973786Y-14730686D01*
X4973786Y-14683067D01*
X4983309Y-14644971D01*
X4992833Y-14625924D01*
X5002357Y-14616400D01*
X5021405Y-14606876D01*
X5211881Y-14606876D02*
X5230928Y-14606876D01*
X5249976Y-14616400D01*
X5259500Y-14625924D01*
X5269024Y-14644971D01*
X5278548Y-14683067D01*
X5278548Y-14730686D01*
X5269024Y-14768781D01*
X5259500Y-14787828D01*
X5249976Y-14797352D01*
X5230928Y-14806876D01*
X5211881Y-14806876D01*
X5192833Y-14797352D01*
X5183309Y-14787828D01*
X5173786Y-14768781D01*
X5164262Y-14730686D01*
X5164262Y-14683067D01*
X5173786Y-14644971D01*
X5183309Y-14625924D01*
X5192833Y-14616400D01*
X5211881Y-14606876D01*
X5364262Y-14806876D02*
X5364262Y-14673543D01*
X5364262Y-14692590D02*
X5373786Y-14683067D01*
X5392833Y-14673543D01*
X5421405Y-14673543D01*
X5440452Y-14683067D01*
X5449976Y-14702114D01*
X5449976Y-14806876D01*
X5449976Y-14702114D02*
X5459500Y-14683067D01*
X5478548Y-14673543D01*
X5507119Y-14673543D01*
X5526167Y-14683067D01*
X5535690Y-14702114D01*
X5535690Y-14806876D01*
X5630928Y-14806876D02*
X5630928Y-14673543D01*
X5630928Y-14692590D02*
X5640452Y-14683067D01*
X5659500Y-14673543D01*
X5688071Y-14673543D01*
X5707119Y-14683067D01*
X5716643Y-14702114D01*
X5716643Y-14806876D01*
X5716643Y-14702114D02*
X5726166Y-14683067D01*
X5745214Y-14673543D01*
X5773786Y-14673543D01*
X5792833Y-14683067D01*
X5802357Y-14702114D01*
X5802357Y-14806876D01*
X6192833Y-14597352D02*
X6021405Y-14854495D01*
X6449976Y-14606876D02*
X6469024Y-14606876D01*
X6488071Y-14616400D01*
X6497595Y-14625924D01*
X6507119Y-14644971D01*
X6516643Y-14683067D01*
X6516643Y-14730686D01*
X6507119Y-14768781D01*
X6497595Y-14787828D01*
X6488071Y-14797352D01*
X6469024Y-14806876D01*
X6449976Y-14806876D01*
X6430928Y-14797352D01*
X6421405Y-14787828D01*
X6411881Y-14768781D01*
X6402357Y-14730686D01*
X6402357Y-14683067D01*
X6411881Y-14644971D01*
X6421405Y-14625924D01*
X6430928Y-14616400D01*
X6449976Y-14606876D01*
X6602357Y-14787828D02*
X6611881Y-14797352D01*
X6602357Y-14806876D01*
X6592833Y-14797352D01*
X6602357Y-14787828D01*
X6602357Y-14806876D01*
X6735690Y-14606876D02*
X6754738Y-14606876D01*
X6773786Y-14616400D01*
X6783309Y-14625924D01*
X6792833Y-14644971D01*
X6802357Y-14683067D01*
X6802357Y-14730686D01*
X6792833Y-14768781D01*
X6783309Y-14787828D01*
X6773786Y-14797352D01*
X6754738Y-14806876D01*
X6735690Y-14806876D01*
X6716643Y-14797352D01*
X6707119Y-14787828D01*
X6697595Y-14768781D01*
X6688071Y-14730686D01*
X6688071Y-14683067D01*
X6697595Y-14644971D01*
X6707119Y-14625924D01*
X6716643Y-14616400D01*
X6735690Y-14606876D01*
X6897595Y-14806876D02*
X6935690Y-14806876D01*
X6954738Y-14797352D01*
X6964262Y-14787828D01*
X6983309Y-14759257D01*
X6992833Y-14721162D01*
X6992833Y-14644971D01*
X6983309Y-14625924D01*
X6973786Y-14616400D01*
X6954738Y-14606876D01*
X6916643Y-14606876D01*
X6897595Y-14616400D01*
X6888071Y-14625924D01*
X6878547Y-14644971D01*
X6878547Y-14692590D01*
X6888071Y-14711638D01*
X6897595Y-14721162D01*
X6916643Y-14730686D01*
X6954738Y-14730686D01*
X6973786Y-14721162D01*
X6983309Y-14711638D01*
X6992833Y-14692590D01*
X7116643Y-14606876D02*
X7135690Y-14606876D01*
X7154738Y-14616400D01*
X7164262Y-14625924D01*
X7173786Y-14644971D01*
X7183309Y-14683067D01*
X7183309Y-14730686D01*
X7173786Y-14768781D01*
X7164262Y-14787828D01*
X7154738Y-14797352D01*
X7135690Y-14806876D01*
X7116643Y-14806876D01*
X7097595Y-14797352D01*
X7088071Y-14787828D01*
X7078547Y-14768781D01*
X7069024Y-14730686D01*
X7069024Y-14683067D01*
X7078547Y-14644971D01*
X7088071Y-14625924D01*
X7097595Y-14616400D01*
X7116643Y-14606876D01*
X7354738Y-14606876D02*
X7316643Y-14606876D01*
X7297595Y-14616400D01*
X7288071Y-14625924D01*
X7269024Y-14654495D01*
X7259500Y-14692590D01*
X7259500Y-14768781D01*
X7269024Y-14787828D01*
X7278547Y-14797352D01*
X7297595Y-14806876D01*
X7335690Y-14806876D01*
X7354738Y-14797352D01*
X7364262Y-14787828D01*
X7373786Y-14768781D01*
X7373786Y-14721162D01*
X7364262Y-14702114D01*
X7354738Y-14692590D01*
X7335690Y-14683067D01*
X7297595Y-14683067D01*
X7278547Y-14692590D01*
X7269024Y-14702114D01*
X7259500Y-14721162D01*
X7449976Y-14606876D02*
X7449976Y-14644971D01*
X7526166Y-14606876D02*
X7526166Y-14644971D01*
X7821405Y-14883067D02*
X7811881Y-14873543D01*
X7792833Y-14844971D01*
X7783309Y-14825924D01*
X7773786Y-14797352D01*
X7764262Y-14749733D01*
X7764262Y-14711638D01*
X7773786Y-14664019D01*
X7783309Y-14635448D01*
X7792833Y-14616400D01*
X7811881Y-14587828D01*
X7821405Y-14578305D01*
X8002357Y-14806876D02*
X7888071Y-14806876D01*
X7945214Y-14806876D02*
X7945214Y-14606876D01*
X7926166Y-14635448D01*
X7907119Y-14654495D01*
X7888071Y-14664019D01*
X8240452Y-14806876D02*
X8240452Y-14606876D01*
X8326166Y-14806876D02*
X8326166Y-14702114D01*
X8316643Y-14683067D01*
X8297595Y-14673543D01*
X8269024Y-14673543D01*
X8249976Y-14683067D01*
X8240452Y-14692590D01*
X8449976Y-14806876D02*
X8430928Y-14797352D01*
X8421405Y-14787828D01*
X8411881Y-14768781D01*
X8411881Y-14711638D01*
X8421405Y-14692590D01*
X8430928Y-14683067D01*
X8449976Y-14673543D01*
X8478548Y-14673543D01*
X8497595Y-14683067D01*
X8507119Y-14692590D01*
X8516643Y-14711638D01*
X8516643Y-14768781D01*
X8507119Y-14787828D01*
X8497595Y-14797352D01*
X8478548Y-14806876D01*
X8449976Y-14806876D01*
X8630928Y-14806876D02*
X8611881Y-14797352D01*
X8602357Y-14778305D01*
X8602357Y-14606876D01*
X8783309Y-14797352D02*
X8764262Y-14806876D01*
X8726167Y-14806876D01*
X8707119Y-14797352D01*
X8697595Y-14778305D01*
X8697595Y-14702114D01*
X8707119Y-14683067D01*
X8726167Y-14673543D01*
X8764262Y-14673543D01*
X8783309Y-14683067D01*
X8792833Y-14702114D01*
X8792833Y-14721162D01*
X8697595Y-14740209D01*
X8859500Y-14883067D02*
X8869024Y-14873543D01*
X8888071Y-14844971D01*
X8897595Y-14825924D01*
X8907119Y-14797352D01*
X8916643Y-14749733D01*
X8916643Y-14711638D01*
X8907119Y-14664019D01*
X8897595Y-14635448D01*
X8888071Y-14616400D01*
X8869024Y-14587828D01*
X8859500Y-14578305D01*
M02*
