G04 #@! TF.GenerationSoftware,KiCad,Pcbnew,(6.0.10)*
G04 #@! TF.CreationDate,2023-03-05T22:21:07-08:00*
G04 #@! TF.ProjectId,tsbym,74736279-6d2e-46b6-9963-61645f706362,rev?*
G04 #@! TF.SameCoordinates,Original*
G04 #@! TF.FileFunction,Profile,NP*
%FSLAX46Y46*%
G04 Gerber Fmt 4.6, Leading zero omitted, Abs format (unit mm)*
G04 Created by KiCad (PCBNEW (6.0.10)) date 2023-03-05 22:21:07*
%MOMM*%
%LPD*%
G01*
G04 APERTURE LIST*
G04 #@! TA.AperFunction,Profile*
%ADD10C,0.100000*%
G04 #@! TD*
G04 APERTURE END LIST*
D10*
X175767999Y-48767999D02*
G75*
G03*
X173736000Y-46736000I-2031999J0D01*
G01*
X146304000Y-103124000D02*
X138303000Y-103124000D01*
X142240000Y-105156000D02*
X142240000Y-122174000D01*
X173736001Y-103123999D02*
G75*
G03*
X175768000Y-101092000I0J2031999D01*
G01*
X117348000Y-122174000D02*
G75*
G03*
X118896227Y-121606519I-5457J2410600D01*
G01*
X175768000Y-101092000D02*
X175768000Y-48768000D01*
X142240000Y-122174000D02*
X163322000Y-122174000D01*
X150114000Y-117983000D02*
X150114000Y-109347000D01*
X173736000Y-46736000D02*
X44704000Y-46736000D01*
X171704000Y-103124000D02*
X173736000Y-103124000D01*
X60960000Y-82423000D02*
G75*
G03*
X60960000Y-87757000I0J-2667000D01*
G01*
X153924000Y-103124000D02*
G75*
G03*
X153924000Y-105156000I0J-1016000D01*
G01*
X44704000Y-46736000D02*
G75*
G03*
X42544999Y-48894999I-1J-2159000D01*
G01*
X164084000Y-103124000D02*
X153924000Y-103124000D01*
X150114000Y-109347000D02*
X167513000Y-109347000D01*
X117348000Y-122174000D02*
X44577000Y-122174000D01*
X65278000Y-82423000D02*
X65278000Y-87757000D01*
X146304000Y-105156000D02*
G75*
G03*
X146304000Y-103124000I0J1016000D01*
G01*
X175768000Y-105156000D02*
X175768000Y-122174000D01*
X150114000Y-117983000D02*
X167513000Y-117983000D01*
X153924000Y-105156000D02*
X164084000Y-105156000D01*
X167513000Y-109347000D02*
X167513000Y-117983000D01*
X42545000Y-48895000D02*
X42545000Y-120142000D01*
X65278000Y-87757000D02*
X60960000Y-87757000D01*
X42545001Y-120142001D02*
G75*
G03*
X44577000Y-122174000I2031999J0D01*
G01*
X171704000Y-105156000D02*
X175768000Y-105156000D01*
X163322000Y-122174000D02*
X175768000Y-122174000D01*
X171704000Y-103124000D02*
G75*
G03*
X171704000Y-105156000I0J-1016000D01*
G01*
X60960000Y-82423000D02*
X65278000Y-82423000D01*
X138303000Y-103124000D02*
G75*
G03*
X136754773Y-103691481I5457J-2410600D01*
G01*
X142240000Y-105156000D02*
X146304000Y-105156000D01*
X164084000Y-105156000D02*
G75*
G03*
X164084000Y-103124000I0J1016000D01*
G01*
X118896228Y-121606518D02*
X136754772Y-103691482D01*
M02*
