G04 #@! TF.GenerationSoftware,KiCad,Pcbnew,(6.0.10)*
G04 #@! TF.CreationDate,2023-03-05T22:21:07-08:00*
G04 #@! TF.ProjectId,tsbym,74736279-6d2e-46b6-9963-61645f706362,rev?*
G04 #@! TF.SameCoordinates,Original*
G04 #@! TF.FileFunction,Legend,Bot*
G04 #@! TF.FilePolarity,Positive*
%FSLAX46Y46*%
G04 Gerber Fmt 4.6, Leading zero omitted, Abs format (unit mm)*
G04 Created by KiCad (PCBNEW (6.0.10)) date 2023-03-05 22:21:07*
%MOMM*%
%LPD*%
G01*
G04 APERTURE LIST*
G04 Aperture macros list*
%AMFreePoly0*
4,1,22,0.500000,-0.750000,0.000000,-0.750000,0.000000,-0.745033,-0.079941,-0.743568,-0.215256,-0.701293,-0.333266,-0.622738,-0.424486,-0.514219,-0.481581,-0.384460,-0.499164,-0.250000,-0.500000,-0.250000,-0.500000,0.250000,-0.499164,0.250000,-0.499963,0.256109,-0.478152,0.396186,-0.417904,0.524511,-0.324060,0.630769,-0.204165,0.706417,-0.067858,0.745374,0.000000,0.744959,0.000000,0.750000,
0.500000,0.750000,0.500000,-0.750000,0.500000,-0.750000,$1*%
%AMFreePoly1*
4,1,20,0.000000,0.744959,0.073905,0.744508,0.209726,0.703889,0.328688,0.626782,0.421226,0.519385,0.479903,0.390333,0.500000,0.250000,0.500000,-0.250000,0.499851,-0.262216,0.476331,-0.402017,0.414519,-0.529596,0.319384,-0.634700,0.198574,-0.708877,0.061801,-0.746166,0.000000,-0.745033,0.000000,-0.750000,-0.500000,-0.750000,-0.500000,0.750000,0.000000,0.750000,0.000000,0.744959,
0.000000,0.744959,$1*%
G04 Aperture macros list end*
%ADD10C,0.150000*%
%ADD11C,0.125000*%
%ADD12C,0.120000*%
%ADD13R,0.950000X1.300000*%
%ADD14R,1.397000X1.397000*%
%ADD15C,1.397000*%
%ADD16C,4.100000*%
%ADD17C,3.000000*%
%ADD18C,1.700000*%
%ADD19C,1.900000*%
%ADD20R,2.000000X2.000000*%
%ADD21R,1.900000X2.000000*%
%ADD22C,2.000000*%
%ADD23R,2.000000X3.200000*%
%ADD24R,1.300000X0.950000*%
%ADD25C,1.524000*%
%ADD26R,1.200000X1.200000*%
%ADD27C,1.200000*%
%ADD28C,4.300000*%
%ADD29C,0.300000*%
%ADD30O,2.500000X1.700000*%
%ADD31C,0.500000*%
%ADD32C,4.000000*%
%ADD33FreePoly0,180.000000*%
%ADD34FreePoly1,180.000000*%
%ADD35FreePoly0,90.000000*%
%ADD36FreePoly1,90.000000*%
G04 APERTURE END LIST*
D10*
X77960000Y-85090000D02*
G75*
G03*
X77960000Y-85090000I-17000000J0D01*
G01*
X62769523Y-72461380D02*
X62769523Y-71461380D01*
X62198095Y-72461380D02*
X62626666Y-71889952D01*
X62198095Y-71461380D02*
X62769523Y-72032809D01*
X61769523Y-72461380D02*
X61769523Y-71461380D01*
X61198095Y-72461380D01*
X61198095Y-71461380D01*
X60531428Y-71461380D02*
X60340952Y-71461380D01*
X60245714Y-71509000D01*
X60150476Y-71604238D01*
X60102857Y-71794714D01*
X60102857Y-72128047D01*
X60150476Y-72318523D01*
X60245714Y-72413761D01*
X60340952Y-72461380D01*
X60531428Y-72461380D01*
X60626666Y-72413761D01*
X60721904Y-72318523D01*
X60769523Y-72128047D01*
X60769523Y-71794714D01*
X60721904Y-71604238D01*
X60626666Y-71509000D01*
X60531428Y-71461380D01*
X59340952Y-71937571D02*
X59198095Y-71985190D01*
X59150476Y-72032809D01*
X59102857Y-72128047D01*
X59102857Y-72270904D01*
X59150476Y-72366142D01*
X59198095Y-72413761D01*
X59293333Y-72461380D01*
X59674285Y-72461380D01*
X59674285Y-71461380D01*
X59340952Y-71461380D01*
X59245714Y-71509000D01*
X59198095Y-71556619D01*
X59150476Y-71651857D01*
X59150476Y-71747095D01*
X59198095Y-71842333D01*
X59245714Y-71889952D01*
X59340952Y-71937571D01*
X59674285Y-71937571D01*
X73239380Y-81137619D02*
X73239380Y-81709047D01*
X74239380Y-81423333D02*
X73239380Y-81423333D01*
X74239380Y-82613809D02*
X73763190Y-82280476D01*
X74239380Y-82042380D02*
X73239380Y-82042380D01*
X73239380Y-82423333D01*
X73287000Y-82518571D01*
X73334619Y-82566190D01*
X73429857Y-82613809D01*
X73572714Y-82613809D01*
X73667952Y-82566190D01*
X73715571Y-82518571D01*
X73763190Y-82423333D01*
X73763190Y-82042380D01*
X73953666Y-82994761D02*
X73953666Y-83470952D01*
X74239380Y-82899523D02*
X73239380Y-83232857D01*
X74239380Y-83566190D01*
X74144142Y-84470952D02*
X74191761Y-84423333D01*
X74239380Y-84280476D01*
X74239380Y-84185238D01*
X74191761Y-84042380D01*
X74096523Y-83947142D01*
X74001285Y-83899523D01*
X73810809Y-83851904D01*
X73667952Y-83851904D01*
X73477476Y-83899523D01*
X73382238Y-83947142D01*
X73287000Y-84042380D01*
X73239380Y-84185238D01*
X73239380Y-84280476D01*
X73287000Y-84423333D01*
X73334619Y-84470952D01*
X74239380Y-84899523D02*
X73239380Y-84899523D01*
X74239380Y-85470952D02*
X73667952Y-85042380D01*
X73239380Y-85470952D02*
X73810809Y-84899523D01*
X73715571Y-86232857D02*
X73763190Y-86375714D01*
X73810809Y-86423333D01*
X73906047Y-86470952D01*
X74048904Y-86470952D01*
X74144142Y-86423333D01*
X74191761Y-86375714D01*
X74239380Y-86280476D01*
X74239380Y-85899523D01*
X73239380Y-85899523D01*
X73239380Y-86232857D01*
X73287000Y-86328095D01*
X73334619Y-86375714D01*
X73429857Y-86423333D01*
X73525095Y-86423333D01*
X73620333Y-86375714D01*
X73667952Y-86328095D01*
X73715571Y-86232857D01*
X73715571Y-85899523D01*
X73953666Y-86851904D02*
X73953666Y-87328095D01*
X74239380Y-86756666D02*
X73239380Y-87090000D01*
X74239380Y-87423333D01*
X74239380Y-88232857D02*
X74239380Y-87756666D01*
X73239380Y-87756666D01*
X74239380Y-89042380D02*
X74239380Y-88566190D01*
X73239380Y-88566190D01*
X65094903Y-56217225D02*
X65142522Y-56264844D01*
X65285379Y-56312463D01*
X65380618Y-56312463D01*
X65523475Y-56264844D01*
X65618713Y-56169606D01*
X65666332Y-56074368D01*
X65713951Y-55883892D01*
X65713951Y-55741035D01*
X65666332Y-55550559D01*
X65618713Y-55455321D01*
X65523475Y-55360083D01*
X65380618Y-55312463D01*
X65285379Y-55312463D01*
X65142522Y-55360083D01*
X65094903Y-55407702D01*
X64142522Y-55360083D02*
X64237760Y-55312463D01*
X64380618Y-55312463D01*
X64523475Y-55360083D01*
X64618713Y-55455321D01*
X64666332Y-55550559D01*
X64713951Y-55741035D01*
X64713951Y-55883892D01*
X64666332Y-56074368D01*
X64618713Y-56169606D01*
X64523475Y-56264844D01*
X64380618Y-56312463D01*
X64285379Y-56312463D01*
X64142522Y-56264844D01*
X64094903Y-56217225D01*
X64094903Y-55883892D01*
X64285379Y-55883892D01*
X63761570Y-56312463D02*
X63237760Y-55645797D01*
X63761570Y-55645797D02*
X63237760Y-56312463D01*
X62856808Y-56312463D02*
X62856808Y-55312463D01*
X62285379Y-56312463D02*
X62713951Y-55741035D01*
X62285379Y-55312463D02*
X62856808Y-55883892D01*
X61523475Y-55788654D02*
X61380618Y-55836273D01*
X61332999Y-55883892D01*
X61285379Y-55979130D01*
X61285379Y-56121987D01*
X61332999Y-56217225D01*
X61380618Y-56264844D01*
X61475856Y-56312463D01*
X61856808Y-56312463D01*
X61856808Y-55312463D01*
X61523475Y-55312463D01*
X61428237Y-55360083D01*
X61380618Y-55407702D01*
X61332999Y-55502940D01*
X61332999Y-55598178D01*
X61380618Y-55693416D01*
X61428237Y-55741035D01*
X61523475Y-55788654D01*
X61856808Y-55788654D01*
X60190141Y-55645797D02*
X59952046Y-56312463D01*
X59713951Y-55645797D01*
X59142522Y-55312463D02*
X59047284Y-55312463D01*
X58952046Y-55360083D01*
X58904427Y-55407702D01*
X58856808Y-55502940D01*
X58809189Y-55693416D01*
X58809189Y-55931511D01*
X58856808Y-56121987D01*
X58904427Y-56217225D01*
X58952046Y-56264844D01*
X59047284Y-56312463D01*
X59142522Y-56312463D01*
X59237760Y-56264844D01*
X59285379Y-56217225D01*
X59332999Y-56121987D01*
X59380618Y-55931511D01*
X59380618Y-55693416D01*
X59332999Y-55502940D01*
X59285379Y-55407702D01*
X59237760Y-55360083D01*
X59142522Y-55312463D01*
X58380618Y-56217225D02*
X58332999Y-56264844D01*
X58380618Y-56312463D01*
X58428237Y-56264844D01*
X58380618Y-56217225D01*
X58380618Y-56312463D01*
X57380618Y-56312463D02*
X57952046Y-56312463D01*
X57666332Y-56312463D02*
X57666332Y-55312463D01*
X57761570Y-55455321D01*
X57856808Y-55550559D01*
X57952046Y-55598178D01*
X56952046Y-56217225D02*
X56904427Y-56264844D01*
X56952046Y-56312463D01*
X56999665Y-56264844D01*
X56952046Y-56217225D01*
X56952046Y-56312463D01*
X56285379Y-55312463D02*
X56190141Y-55312463D01*
X56094903Y-55360083D01*
X56047284Y-55407702D01*
X55999665Y-55502940D01*
X55952046Y-55693416D01*
X55952046Y-55931511D01*
X55999665Y-56121987D01*
X56047284Y-56217225D01*
X56094903Y-56264844D01*
X56190141Y-56312463D01*
X56285379Y-56312463D01*
X56380618Y-56264844D01*
X56428237Y-56217225D01*
X56475856Y-56121987D01*
X56523475Y-55931511D01*
X56523475Y-55693416D01*
X56475856Y-55502940D01*
X56428237Y-55407702D01*
X56380618Y-55360083D01*
X56285379Y-55312463D01*
X80605380Y-55122619D02*
X80605380Y-55313095D01*
X80653000Y-55408333D01*
X80748238Y-55503571D01*
X80938714Y-55551190D01*
X81272047Y-55551190D01*
X81462523Y-55503571D01*
X81557761Y-55408333D01*
X81605380Y-55313095D01*
X81605380Y-55122619D01*
X81557761Y-55027380D01*
X81462523Y-54932142D01*
X81272047Y-54884523D01*
X80938714Y-54884523D01*
X80748238Y-54932142D01*
X80653000Y-55027380D01*
X80605380Y-55122619D01*
X81605380Y-56455952D02*
X81605380Y-55979761D01*
X80605380Y-55979761D01*
X81081571Y-56789285D02*
X81081571Y-57122619D01*
X81605380Y-57265476D02*
X81605380Y-56789285D01*
X80605380Y-56789285D01*
X80605380Y-57265476D01*
X81605380Y-57694047D02*
X80605380Y-57694047D01*
X80605380Y-57932142D01*
X80653000Y-58075000D01*
X80748238Y-58170238D01*
X80843476Y-58217857D01*
X81033952Y-58265476D01*
X81176809Y-58265476D01*
X81367285Y-58217857D01*
X81462523Y-58170238D01*
X81557761Y-58075000D01*
X81605380Y-57932142D01*
X81605380Y-57694047D01*
X76096761Y-77716190D02*
X76144380Y-77859047D01*
X76144380Y-78097142D01*
X76096761Y-78192380D01*
X76049142Y-78240000D01*
X75953904Y-78287619D01*
X75858666Y-78287619D01*
X75763428Y-78240000D01*
X75715809Y-78192380D01*
X75668190Y-78097142D01*
X75620571Y-77906666D01*
X75572952Y-77811428D01*
X75525333Y-77763809D01*
X75430095Y-77716190D01*
X75334857Y-77716190D01*
X75239619Y-77763809D01*
X75192000Y-77811428D01*
X75144380Y-77906666D01*
X75144380Y-78144761D01*
X75192000Y-78287619D01*
X76144380Y-78716190D02*
X75144380Y-78716190D01*
X75144380Y-79097142D01*
X75192000Y-79192380D01*
X75239619Y-79240000D01*
X75334857Y-79287619D01*
X75477714Y-79287619D01*
X75572952Y-79240000D01*
X75620571Y-79192380D01*
X75668190Y-79097142D01*
X75668190Y-78716190D01*
X76144380Y-79716190D02*
X75144380Y-79716190D01*
D11*
X54897785Y-51085833D02*
X55647785Y-51252500D01*
X54897785Y-51419166D01*
X55576357Y-51871547D02*
X55612071Y-51847738D01*
X55647785Y-51776309D01*
X55647785Y-51728690D01*
X55612071Y-51657261D01*
X55540642Y-51609642D01*
X55469214Y-51585833D01*
X55326357Y-51562023D01*
X55219214Y-51562023D01*
X55076357Y-51585833D01*
X55004928Y-51609642D01*
X54933500Y-51657261D01*
X54897785Y-51728690D01*
X54897785Y-51776309D01*
X54933500Y-51847738D01*
X54969214Y-51871547D01*
X55576357Y-52371547D02*
X55612071Y-52347738D01*
X55647785Y-52276309D01*
X55647785Y-52228690D01*
X55612071Y-52157261D01*
X55540642Y-52109642D01*
X55469214Y-52085833D01*
X55326357Y-52062023D01*
X55219214Y-52062023D01*
X55076357Y-52085833D01*
X55004928Y-52109642D01*
X54933500Y-52157261D01*
X54897785Y-52228690D01*
X54897785Y-52276309D01*
X54933500Y-52347738D01*
X54969214Y-52371547D01*
X68212857Y-51382380D02*
X68248571Y-51358571D01*
X68284285Y-51287142D01*
X68284285Y-51239523D01*
X68248571Y-51168095D01*
X68177142Y-51120476D01*
X68105714Y-51096666D01*
X67962857Y-51072857D01*
X67855714Y-51072857D01*
X67712857Y-51096666D01*
X67641428Y-51120476D01*
X67570000Y-51168095D01*
X67534285Y-51239523D01*
X67534285Y-51287142D01*
X67570000Y-51358571D01*
X67605714Y-51382380D01*
X67534285Y-51691904D02*
X67534285Y-51787142D01*
X67570000Y-51834761D01*
X67641428Y-51882380D01*
X67784285Y-51906190D01*
X68034285Y-51906190D01*
X68177142Y-51882380D01*
X68248571Y-51834761D01*
X68284285Y-51787142D01*
X68284285Y-51691904D01*
X68248571Y-51644285D01*
X68177142Y-51596666D01*
X68034285Y-51572857D01*
X67784285Y-51572857D01*
X67641428Y-51596666D01*
X67570000Y-51644285D01*
X67534285Y-51691904D01*
X68284285Y-52358571D02*
X68284285Y-52120476D01*
X67534285Y-52120476D01*
X67784285Y-52739523D02*
X68284285Y-52739523D01*
X67498571Y-52620476D02*
X68034285Y-52501428D01*
X68034285Y-52810952D01*
X48027785Y-51343761D02*
X47670642Y-51177095D01*
X48027785Y-51058047D02*
X47277785Y-51058047D01*
X47277785Y-51248523D01*
X47313500Y-51296142D01*
X47349214Y-51319952D01*
X47420642Y-51343761D01*
X47527785Y-51343761D01*
X47599214Y-51319952D01*
X47634928Y-51296142D01*
X47670642Y-51248523D01*
X47670642Y-51058047D01*
X47813500Y-51534238D02*
X47813500Y-51772333D01*
X48027785Y-51486619D02*
X47277785Y-51653285D01*
X48027785Y-51819952D01*
X47277785Y-51939000D02*
X48027785Y-52058047D01*
X47492071Y-52153285D01*
X48027785Y-52248523D01*
X47277785Y-52367571D01*
X68411285Y-61913547D02*
X68054142Y-61746880D01*
X68411285Y-61627833D02*
X67661285Y-61627833D01*
X67661285Y-61818309D01*
X67697000Y-61865928D01*
X67732714Y-61889738D01*
X67804142Y-61913547D01*
X67911285Y-61913547D01*
X67982714Y-61889738D01*
X68018428Y-61865928D01*
X68054142Y-61818309D01*
X68054142Y-61627833D01*
X67661285Y-62223071D02*
X67661285Y-62318309D01*
X67697000Y-62365928D01*
X67768428Y-62413547D01*
X67911285Y-62437357D01*
X68161285Y-62437357D01*
X68304142Y-62413547D01*
X68375571Y-62365928D01*
X68411285Y-62318309D01*
X68411285Y-62223071D01*
X68375571Y-62175452D01*
X68304142Y-62127833D01*
X68161285Y-62104023D01*
X67911285Y-62104023D01*
X67768428Y-62127833D01*
X67697000Y-62175452D01*
X67661285Y-62223071D01*
X67661285Y-62604023D02*
X68411285Y-62723071D01*
X67875571Y-62818309D01*
X68411285Y-62913547D01*
X67661285Y-63032595D01*
X67732714Y-63199261D02*
X67697000Y-63223071D01*
X67661285Y-63270690D01*
X67661285Y-63389738D01*
X67697000Y-63437357D01*
X67732714Y-63461166D01*
X67804142Y-63484976D01*
X67875571Y-63484976D01*
X67982714Y-63461166D01*
X68411285Y-63175452D01*
X68411285Y-63484976D01*
X60656357Y-51332380D02*
X60692071Y-51308571D01*
X60727785Y-51237142D01*
X60727785Y-51189523D01*
X60692071Y-51118095D01*
X60620642Y-51070476D01*
X60549214Y-51046666D01*
X60406357Y-51022857D01*
X60299214Y-51022857D01*
X60156357Y-51046666D01*
X60084928Y-51070476D01*
X60013500Y-51118095D01*
X59977785Y-51189523D01*
X59977785Y-51237142D01*
X60013500Y-51308571D01*
X60049214Y-51332380D01*
X59977785Y-51641904D02*
X59977785Y-51737142D01*
X60013500Y-51784761D01*
X60084928Y-51832380D01*
X60227785Y-51856190D01*
X60477785Y-51856190D01*
X60620642Y-51832380D01*
X60692071Y-51784761D01*
X60727785Y-51737142D01*
X60727785Y-51641904D01*
X60692071Y-51594285D01*
X60620642Y-51546666D01*
X60477785Y-51522857D01*
X60227785Y-51522857D01*
X60084928Y-51546666D01*
X60013500Y-51594285D01*
X59977785Y-51641904D01*
X60727785Y-52308571D02*
X60727785Y-52070476D01*
X59977785Y-52070476D01*
X60727785Y-52737142D02*
X60727785Y-52451428D01*
X60727785Y-52594285D02*
X59977785Y-52594285D01*
X60084928Y-52546666D01*
X60156357Y-52499047D01*
X60192071Y-52451428D01*
X60692071Y-61698261D02*
X60727785Y-61769690D01*
X60727785Y-61888738D01*
X60692071Y-61936357D01*
X60656357Y-61960166D01*
X60584928Y-61983976D01*
X60513500Y-61983976D01*
X60442071Y-61960166D01*
X60406357Y-61936357D01*
X60370642Y-61888738D01*
X60334928Y-61793500D01*
X60299214Y-61745880D01*
X60263500Y-61722071D01*
X60192071Y-61698261D01*
X60120642Y-61698261D01*
X60049214Y-61722071D01*
X60013500Y-61745880D01*
X59977785Y-61793500D01*
X59977785Y-61912547D01*
X60013500Y-61983976D01*
X60656357Y-62483976D02*
X60692071Y-62460166D01*
X60727785Y-62388738D01*
X60727785Y-62341119D01*
X60692071Y-62269690D01*
X60620642Y-62222071D01*
X60549214Y-62198261D01*
X60406357Y-62174452D01*
X60299214Y-62174452D01*
X60156357Y-62198261D01*
X60084928Y-62222071D01*
X60013500Y-62269690D01*
X59977785Y-62341119D01*
X59977785Y-62388738D01*
X60013500Y-62460166D01*
X60049214Y-62483976D01*
X60727785Y-62936357D02*
X60727785Y-62698261D01*
X59977785Y-62698261D01*
X58150857Y-51332380D02*
X58186571Y-51308571D01*
X58222285Y-51237142D01*
X58222285Y-51189523D01*
X58186571Y-51118095D01*
X58115142Y-51070476D01*
X58043714Y-51046666D01*
X57900857Y-51022857D01*
X57793714Y-51022857D01*
X57650857Y-51046666D01*
X57579428Y-51070476D01*
X57508000Y-51118095D01*
X57472285Y-51189523D01*
X57472285Y-51237142D01*
X57508000Y-51308571D01*
X57543714Y-51332380D01*
X57472285Y-51641904D02*
X57472285Y-51737142D01*
X57508000Y-51784761D01*
X57579428Y-51832380D01*
X57722285Y-51856190D01*
X57972285Y-51856190D01*
X58115142Y-51832380D01*
X58186571Y-51784761D01*
X58222285Y-51737142D01*
X58222285Y-51641904D01*
X58186571Y-51594285D01*
X58115142Y-51546666D01*
X57972285Y-51522857D01*
X57722285Y-51522857D01*
X57579428Y-51546666D01*
X57508000Y-51594285D01*
X57472285Y-51641904D01*
X58222285Y-52308571D02*
X58222285Y-52070476D01*
X57472285Y-52070476D01*
X57472285Y-52570476D02*
X57472285Y-52618095D01*
X57508000Y-52665714D01*
X57543714Y-52689523D01*
X57615142Y-52713333D01*
X57758000Y-52737142D01*
X57936571Y-52737142D01*
X58079428Y-52713333D01*
X58150857Y-52689523D01*
X58186571Y-52665714D01*
X58222285Y-52618095D01*
X58222285Y-52570476D01*
X58186571Y-52522857D01*
X58150857Y-52499047D01*
X58079428Y-52475238D01*
X57936571Y-52451428D01*
X57758000Y-52451428D01*
X57615142Y-52475238D01*
X57543714Y-52499047D01*
X57508000Y-52522857D01*
X57472285Y-52570476D01*
X72907928Y-51169119D02*
X72943642Y-51240547D01*
X72979357Y-51264357D01*
X73050785Y-51288166D01*
X73157928Y-51288166D01*
X73229357Y-51264357D01*
X73265071Y-51240547D01*
X73300785Y-51192928D01*
X73300785Y-51002452D01*
X72550785Y-51002452D01*
X72550785Y-51169119D01*
X72586500Y-51216738D01*
X72622214Y-51240547D01*
X72693642Y-51264357D01*
X72765071Y-51264357D01*
X72836500Y-51240547D01*
X72872214Y-51216738D01*
X72907928Y-51169119D01*
X72907928Y-51002452D01*
X72622214Y-51478642D02*
X72586500Y-51502452D01*
X72550785Y-51550071D01*
X72550785Y-51669119D01*
X72586500Y-51716738D01*
X72622214Y-51740547D01*
X72693642Y-51764357D01*
X72765071Y-51764357D01*
X72872214Y-51740547D01*
X73300785Y-51454833D01*
X73300785Y-51764357D01*
X50672285Y-61694500D02*
X49922285Y-61694500D01*
X49922285Y-61813547D01*
X49958000Y-61884976D01*
X50029428Y-61932595D01*
X50100857Y-61956404D01*
X50243714Y-61980214D01*
X50350857Y-61980214D01*
X50493714Y-61956404D01*
X50565142Y-61932595D01*
X50636571Y-61884976D01*
X50672285Y-61813547D01*
X50672285Y-61694500D01*
X50458000Y-62170690D02*
X50458000Y-62408785D01*
X50672285Y-62123071D02*
X49922285Y-62289738D01*
X50672285Y-62456404D01*
X49922285Y-62551642D02*
X49922285Y-62837357D01*
X50672285Y-62694500D02*
X49922285Y-62694500D01*
X50458000Y-62980214D02*
X50458000Y-63218309D01*
X50672285Y-62932595D02*
X49922285Y-63099261D01*
X50672285Y-63265928D01*
X49790000Y-51371547D02*
X49754285Y-51323928D01*
X49754285Y-51252500D01*
X49790000Y-51181071D01*
X49861428Y-51133452D01*
X49932857Y-51109642D01*
X50075714Y-51085833D01*
X50182857Y-51085833D01*
X50325714Y-51109642D01*
X50397142Y-51133452D01*
X50468571Y-51181071D01*
X50504285Y-51252500D01*
X50504285Y-51300119D01*
X50468571Y-51371547D01*
X50432857Y-51395357D01*
X50182857Y-51395357D01*
X50182857Y-51300119D01*
X50504285Y-51609642D02*
X49754285Y-51609642D01*
X50504285Y-51895357D01*
X49754285Y-51895357D01*
X50504285Y-52133452D02*
X49754285Y-52133452D01*
X49754285Y-52252500D01*
X49790000Y-52323928D01*
X49861428Y-52371547D01*
X49932857Y-52395357D01*
X50075714Y-52419166D01*
X50182857Y-52419166D01*
X50325714Y-52395357D01*
X50397142Y-52371547D01*
X50468571Y-52323928D01*
X50504285Y-52252500D01*
X50504285Y-52133452D01*
X58152071Y-61686357D02*
X58187785Y-61757785D01*
X58187785Y-61876833D01*
X58152071Y-61924452D01*
X58116357Y-61948261D01*
X58044928Y-61972071D01*
X57973500Y-61972071D01*
X57902071Y-61948261D01*
X57866357Y-61924452D01*
X57830642Y-61876833D01*
X57794928Y-61781595D01*
X57759214Y-61733976D01*
X57723500Y-61710166D01*
X57652071Y-61686357D01*
X57580642Y-61686357D01*
X57509214Y-61710166D01*
X57473500Y-61733976D01*
X57437785Y-61781595D01*
X57437785Y-61900642D01*
X57473500Y-61972071D01*
X58187785Y-62186357D02*
X57437785Y-62186357D01*
X57437785Y-62305404D01*
X57473500Y-62376833D01*
X57544928Y-62424452D01*
X57616357Y-62448261D01*
X57759214Y-62472071D01*
X57866357Y-62472071D01*
X58009214Y-62448261D01*
X58080642Y-62424452D01*
X58152071Y-62376833D01*
X58187785Y-62305404D01*
X58187785Y-62186357D01*
X57973500Y-62662547D02*
X57973500Y-62900642D01*
X58187785Y-62614928D02*
X57437785Y-62781595D01*
X58187785Y-62948261D01*
X75574928Y-62091119D02*
X75610642Y-62162547D01*
X75646357Y-62186357D01*
X75717785Y-62210166D01*
X75824928Y-62210166D01*
X75896357Y-62186357D01*
X75932071Y-62162547D01*
X75967785Y-62114928D01*
X75967785Y-61924452D01*
X75217785Y-61924452D01*
X75217785Y-62091119D01*
X75253500Y-62138738D01*
X75289214Y-62162547D01*
X75360642Y-62186357D01*
X75432071Y-62186357D01*
X75503500Y-62162547D01*
X75539214Y-62138738D01*
X75574928Y-62091119D01*
X75574928Y-61924452D01*
X75217785Y-62662547D02*
X75217785Y-62424452D01*
X75574928Y-62400642D01*
X75539214Y-62424452D01*
X75503500Y-62472071D01*
X75503500Y-62591119D01*
X75539214Y-62638738D01*
X75574928Y-62662547D01*
X75646357Y-62686357D01*
X75824928Y-62686357D01*
X75896357Y-62662547D01*
X75932071Y-62638738D01*
X75967785Y-62591119D01*
X75967785Y-62472071D01*
X75932071Y-62424452D01*
X75896357Y-62400642D01*
X63204285Y-61913547D02*
X62847142Y-61746880D01*
X63204285Y-61627833D02*
X62454285Y-61627833D01*
X62454285Y-61818309D01*
X62490000Y-61865928D01*
X62525714Y-61889738D01*
X62597142Y-61913547D01*
X62704285Y-61913547D01*
X62775714Y-61889738D01*
X62811428Y-61865928D01*
X62847142Y-61818309D01*
X62847142Y-61627833D01*
X62454285Y-62223071D02*
X62454285Y-62318309D01*
X62490000Y-62365928D01*
X62561428Y-62413547D01*
X62704285Y-62437357D01*
X62954285Y-62437357D01*
X63097142Y-62413547D01*
X63168571Y-62365928D01*
X63204285Y-62318309D01*
X63204285Y-62223071D01*
X63168571Y-62175452D01*
X63097142Y-62127833D01*
X62954285Y-62104023D01*
X62704285Y-62104023D01*
X62561428Y-62127833D01*
X62490000Y-62175452D01*
X62454285Y-62223071D01*
X62454285Y-62604023D02*
X63204285Y-62723071D01*
X62668571Y-62818309D01*
X63204285Y-62913547D01*
X62454285Y-63032595D01*
X62454285Y-63318309D02*
X62454285Y-63365928D01*
X62490000Y-63413547D01*
X62525714Y-63437357D01*
X62597142Y-63461166D01*
X62740000Y-63484976D01*
X62918571Y-63484976D01*
X63061428Y-63461166D01*
X63132857Y-63437357D01*
X63168571Y-63413547D01*
X63204285Y-63365928D01*
X63204285Y-63318309D01*
X63168571Y-63270690D01*
X63132857Y-63246880D01*
X63061428Y-63223071D01*
X62918571Y-63199261D01*
X62740000Y-63199261D01*
X62597142Y-63223071D01*
X62525714Y-63246880D01*
X62490000Y-63270690D01*
X62454285Y-63318309D01*
X65807785Y-61913547D02*
X65450642Y-61746880D01*
X65807785Y-61627833D02*
X65057785Y-61627833D01*
X65057785Y-61818309D01*
X65093500Y-61865928D01*
X65129214Y-61889738D01*
X65200642Y-61913547D01*
X65307785Y-61913547D01*
X65379214Y-61889738D01*
X65414928Y-61865928D01*
X65450642Y-61818309D01*
X65450642Y-61627833D01*
X65057785Y-62223071D02*
X65057785Y-62318309D01*
X65093500Y-62365928D01*
X65164928Y-62413547D01*
X65307785Y-62437357D01*
X65557785Y-62437357D01*
X65700642Y-62413547D01*
X65772071Y-62365928D01*
X65807785Y-62318309D01*
X65807785Y-62223071D01*
X65772071Y-62175452D01*
X65700642Y-62127833D01*
X65557785Y-62104023D01*
X65307785Y-62104023D01*
X65164928Y-62127833D01*
X65093500Y-62175452D01*
X65057785Y-62223071D01*
X65057785Y-62604023D02*
X65807785Y-62723071D01*
X65272071Y-62818309D01*
X65807785Y-62913547D01*
X65057785Y-63032595D01*
X65807785Y-63484976D02*
X65807785Y-63199261D01*
X65807785Y-63342119D02*
X65057785Y-63342119D01*
X65164928Y-63294500D01*
X65236357Y-63246880D01*
X65272071Y-63199261D01*
X75511428Y-51232619D02*
X75547142Y-51304047D01*
X75582857Y-51327857D01*
X75654285Y-51351666D01*
X75761428Y-51351666D01*
X75832857Y-51327857D01*
X75868571Y-51304047D01*
X75904285Y-51256428D01*
X75904285Y-51065952D01*
X75154285Y-51065952D01*
X75154285Y-51232619D01*
X75190000Y-51280238D01*
X75225714Y-51304047D01*
X75297142Y-51327857D01*
X75368571Y-51327857D01*
X75440000Y-51304047D01*
X75475714Y-51280238D01*
X75511428Y-51232619D01*
X75511428Y-51065952D01*
X75154285Y-51780238D02*
X75154285Y-51685000D01*
X75190000Y-51637380D01*
X75225714Y-51613571D01*
X75332857Y-51565952D01*
X75475714Y-51542142D01*
X75761428Y-51542142D01*
X75832857Y-51565952D01*
X75868571Y-51589761D01*
X75904285Y-51637380D01*
X75904285Y-51732619D01*
X75868571Y-51780238D01*
X75832857Y-51804047D01*
X75761428Y-51827857D01*
X75582857Y-51827857D01*
X75511428Y-51804047D01*
X75475714Y-51780238D01*
X75440000Y-51732619D01*
X75440000Y-51637380D01*
X75475714Y-51589761D01*
X75511428Y-51565952D01*
X75582857Y-51542142D01*
X54933500Y-61912547D02*
X54897785Y-61864928D01*
X54897785Y-61793500D01*
X54933500Y-61722071D01*
X55004928Y-61674452D01*
X55076357Y-61650642D01*
X55219214Y-61626833D01*
X55326357Y-61626833D01*
X55469214Y-61650642D01*
X55540642Y-61674452D01*
X55612071Y-61722071D01*
X55647785Y-61793500D01*
X55647785Y-61841119D01*
X55612071Y-61912547D01*
X55576357Y-61936357D01*
X55326357Y-61936357D01*
X55326357Y-61841119D01*
X55647785Y-62150642D02*
X54897785Y-62150642D01*
X55647785Y-62436357D01*
X54897785Y-62436357D01*
X55647785Y-62674452D02*
X54897785Y-62674452D01*
X54897785Y-62793500D01*
X54933500Y-62864928D01*
X55004928Y-62912547D01*
X55076357Y-62936357D01*
X55219214Y-62960166D01*
X55326357Y-62960166D01*
X55469214Y-62936357D01*
X55540642Y-62912547D01*
X55612071Y-62864928D01*
X55647785Y-62793500D01*
X55647785Y-62674452D01*
X70922285Y-61913547D02*
X70565142Y-61746880D01*
X70922285Y-61627833D02*
X70172285Y-61627833D01*
X70172285Y-61818309D01*
X70208000Y-61865928D01*
X70243714Y-61889738D01*
X70315142Y-61913547D01*
X70422285Y-61913547D01*
X70493714Y-61889738D01*
X70529428Y-61865928D01*
X70565142Y-61818309D01*
X70565142Y-61627833D01*
X70172285Y-62223071D02*
X70172285Y-62318309D01*
X70208000Y-62365928D01*
X70279428Y-62413547D01*
X70422285Y-62437357D01*
X70672285Y-62437357D01*
X70815142Y-62413547D01*
X70886571Y-62365928D01*
X70922285Y-62318309D01*
X70922285Y-62223071D01*
X70886571Y-62175452D01*
X70815142Y-62127833D01*
X70672285Y-62104023D01*
X70422285Y-62104023D01*
X70279428Y-62127833D01*
X70208000Y-62175452D01*
X70172285Y-62223071D01*
X70172285Y-62604023D02*
X70922285Y-62723071D01*
X70386571Y-62818309D01*
X70922285Y-62913547D01*
X70172285Y-63032595D01*
X70172285Y-63175452D02*
X70172285Y-63484976D01*
X70458000Y-63318309D01*
X70458000Y-63389738D01*
X70493714Y-63437357D01*
X70529428Y-63461166D01*
X70600857Y-63484976D01*
X70779428Y-63484976D01*
X70850857Y-63461166D01*
X70886571Y-63437357D01*
X70922285Y-63389738D01*
X70922285Y-63246880D01*
X70886571Y-63199261D01*
X70850857Y-63175452D01*
X52393500Y-61912547D02*
X52357785Y-61864928D01*
X52357785Y-61793500D01*
X52393500Y-61722071D01*
X52464928Y-61674452D01*
X52536357Y-61650642D01*
X52679214Y-61626833D01*
X52786357Y-61626833D01*
X52929214Y-61650642D01*
X53000642Y-61674452D01*
X53072071Y-61722071D01*
X53107785Y-61793500D01*
X53107785Y-61841119D01*
X53072071Y-61912547D01*
X53036357Y-61936357D01*
X52786357Y-61936357D01*
X52786357Y-61841119D01*
X53107785Y-62150642D02*
X52357785Y-62150642D01*
X53107785Y-62436357D01*
X52357785Y-62436357D01*
X53107785Y-62674452D02*
X52357785Y-62674452D01*
X52357785Y-62793500D01*
X52393500Y-62864928D01*
X52464928Y-62912547D01*
X52536357Y-62936357D01*
X52679214Y-62960166D01*
X52786357Y-62960166D01*
X52929214Y-62936357D01*
X53000642Y-62912547D01*
X53072071Y-62864928D01*
X53107785Y-62793500D01*
X53107785Y-62674452D01*
X53107785Y-51415190D02*
X52750642Y-51248523D01*
X53107785Y-51129476D02*
X52357785Y-51129476D01*
X52357785Y-51319952D01*
X52393500Y-51367571D01*
X52429214Y-51391380D01*
X52500642Y-51415190D01*
X52607785Y-51415190D01*
X52679214Y-51391380D01*
X52714928Y-51367571D01*
X52750642Y-51319952D01*
X52750642Y-51129476D01*
X53072071Y-51605666D02*
X53107785Y-51677095D01*
X53107785Y-51796142D01*
X53072071Y-51843761D01*
X53036357Y-51867571D01*
X52964928Y-51891380D01*
X52893500Y-51891380D01*
X52822071Y-51867571D01*
X52786357Y-51843761D01*
X52750642Y-51796142D01*
X52714928Y-51700904D01*
X52679214Y-51653285D01*
X52643500Y-51629476D01*
X52572071Y-51605666D01*
X52500642Y-51605666D01*
X52429214Y-51629476D01*
X52393500Y-51653285D01*
X52357785Y-51700904D01*
X52357785Y-51819952D01*
X52393500Y-51891380D01*
X52357785Y-52034238D02*
X52357785Y-52319952D01*
X53107785Y-52177095D02*
X52357785Y-52177095D01*
X73034928Y-62091119D02*
X73070642Y-62162547D01*
X73106357Y-62186357D01*
X73177785Y-62210166D01*
X73284928Y-62210166D01*
X73356357Y-62186357D01*
X73392071Y-62162547D01*
X73427785Y-62114928D01*
X73427785Y-61924452D01*
X72677785Y-61924452D01*
X72677785Y-62091119D01*
X72713500Y-62138738D01*
X72749214Y-62162547D01*
X72820642Y-62186357D01*
X72892071Y-62186357D01*
X72963500Y-62162547D01*
X72999214Y-62138738D01*
X73034928Y-62091119D01*
X73034928Y-61924452D01*
X72927785Y-62638738D02*
X73427785Y-62638738D01*
X72642071Y-62519690D02*
X73177785Y-62400642D01*
X73177785Y-62710166D01*
X70850857Y-51332380D02*
X70886571Y-51308571D01*
X70922285Y-51237142D01*
X70922285Y-51189523D01*
X70886571Y-51118095D01*
X70815142Y-51070476D01*
X70743714Y-51046666D01*
X70600857Y-51022857D01*
X70493714Y-51022857D01*
X70350857Y-51046666D01*
X70279428Y-51070476D01*
X70208000Y-51118095D01*
X70172285Y-51189523D01*
X70172285Y-51237142D01*
X70208000Y-51308571D01*
X70243714Y-51332380D01*
X70172285Y-51641904D02*
X70172285Y-51737142D01*
X70208000Y-51784761D01*
X70279428Y-51832380D01*
X70422285Y-51856190D01*
X70672285Y-51856190D01*
X70815142Y-51832380D01*
X70886571Y-51784761D01*
X70922285Y-51737142D01*
X70922285Y-51641904D01*
X70886571Y-51594285D01*
X70815142Y-51546666D01*
X70672285Y-51522857D01*
X70422285Y-51522857D01*
X70279428Y-51546666D01*
X70208000Y-51594285D01*
X70172285Y-51641904D01*
X70922285Y-52308571D02*
X70922285Y-52070476D01*
X70172285Y-52070476D01*
X70172285Y-52713333D02*
X70172285Y-52475238D01*
X70529428Y-52451428D01*
X70493714Y-52475238D01*
X70458000Y-52522857D01*
X70458000Y-52641904D01*
X70493714Y-52689523D01*
X70529428Y-52713333D01*
X70600857Y-52737142D01*
X70779428Y-52737142D01*
X70850857Y-52713333D01*
X70886571Y-52689523D01*
X70922285Y-52641904D01*
X70922285Y-52522857D01*
X70886571Y-52475238D01*
X70850857Y-52451428D01*
X65700857Y-51332380D02*
X65736571Y-51308571D01*
X65772285Y-51237142D01*
X65772285Y-51189523D01*
X65736571Y-51118095D01*
X65665142Y-51070476D01*
X65593714Y-51046666D01*
X65450857Y-51022857D01*
X65343714Y-51022857D01*
X65200857Y-51046666D01*
X65129428Y-51070476D01*
X65058000Y-51118095D01*
X65022285Y-51189523D01*
X65022285Y-51237142D01*
X65058000Y-51308571D01*
X65093714Y-51332380D01*
X65022285Y-51641904D02*
X65022285Y-51737142D01*
X65058000Y-51784761D01*
X65129428Y-51832380D01*
X65272285Y-51856190D01*
X65522285Y-51856190D01*
X65665142Y-51832380D01*
X65736571Y-51784761D01*
X65772285Y-51737142D01*
X65772285Y-51641904D01*
X65736571Y-51594285D01*
X65665142Y-51546666D01*
X65522285Y-51522857D01*
X65272285Y-51522857D01*
X65129428Y-51546666D01*
X65058000Y-51594285D01*
X65022285Y-51641904D01*
X65772285Y-52308571D02*
X65772285Y-52070476D01*
X65022285Y-52070476D01*
X65022285Y-52427619D02*
X65022285Y-52737142D01*
X65308000Y-52570476D01*
X65308000Y-52641904D01*
X65343714Y-52689523D01*
X65379428Y-52713333D01*
X65450857Y-52737142D01*
X65629428Y-52737142D01*
X65700857Y-52713333D01*
X65736571Y-52689523D01*
X65772285Y-52641904D01*
X65772285Y-52499047D01*
X65736571Y-52451428D01*
X65700857Y-52427619D01*
X48027785Y-61972071D02*
X48027785Y-61733976D01*
X47277785Y-61733976D01*
X47634928Y-62138738D02*
X47634928Y-62305404D01*
X48027785Y-62376833D02*
X48027785Y-62138738D01*
X47277785Y-62138738D01*
X47277785Y-62376833D01*
X48027785Y-62591119D02*
X47277785Y-62591119D01*
X47277785Y-62710166D01*
X47313500Y-62781595D01*
X47384928Y-62829214D01*
X47456357Y-62853023D01*
X47599214Y-62876833D01*
X47706357Y-62876833D01*
X47849214Y-62853023D01*
X47920642Y-62829214D01*
X47992071Y-62781595D01*
X48027785Y-62710166D01*
X48027785Y-62591119D01*
D10*
D11*
X63200857Y-51332380D02*
X63236571Y-51308571D01*
X63272285Y-51237142D01*
X63272285Y-51189523D01*
X63236571Y-51118095D01*
X63165142Y-51070476D01*
X63093714Y-51046666D01*
X62950857Y-51022857D01*
X62843714Y-51022857D01*
X62700857Y-51046666D01*
X62629428Y-51070476D01*
X62558000Y-51118095D01*
X62522285Y-51189523D01*
X62522285Y-51237142D01*
X62558000Y-51308571D01*
X62593714Y-51332380D01*
X62522285Y-51641904D02*
X62522285Y-51737142D01*
X62558000Y-51784761D01*
X62629428Y-51832380D01*
X62772285Y-51856190D01*
X63022285Y-51856190D01*
X63165142Y-51832380D01*
X63236571Y-51784761D01*
X63272285Y-51737142D01*
X63272285Y-51641904D01*
X63236571Y-51594285D01*
X63165142Y-51546666D01*
X63022285Y-51522857D01*
X62772285Y-51522857D01*
X62629428Y-51546666D01*
X62558000Y-51594285D01*
X62522285Y-51641904D01*
X63272285Y-52308571D02*
X63272285Y-52070476D01*
X62522285Y-52070476D01*
X62593714Y-52451428D02*
X62558000Y-52475238D01*
X62522285Y-52522857D01*
X62522285Y-52641904D01*
X62558000Y-52689523D01*
X62593714Y-52713333D01*
X62665142Y-52737142D01*
X62736571Y-52737142D01*
X62843714Y-52713333D01*
X63272285Y-52427619D01*
X63272285Y-52737142D01*
D10*
X146883380Y-111355476D02*
X145883380Y-111355476D01*
X145883380Y-111736428D01*
X145931000Y-111831666D01*
X145978619Y-111879285D01*
X146073857Y-111926904D01*
X146216714Y-111926904D01*
X146311952Y-111879285D01*
X146359571Y-111831666D01*
X146407190Y-111736428D01*
X146407190Y-111355476D01*
X145883380Y-112545952D02*
X145883380Y-112736428D01*
X145931000Y-112831666D01*
X146026238Y-112926904D01*
X146216714Y-112974523D01*
X146550047Y-112974523D01*
X146740523Y-112926904D01*
X146835761Y-112831666D01*
X146883380Y-112736428D01*
X146883380Y-112545952D01*
X146835761Y-112450714D01*
X146740523Y-112355476D01*
X146550047Y-112307857D01*
X146216714Y-112307857D01*
X146026238Y-112355476D01*
X145931000Y-112450714D01*
X145883380Y-112545952D01*
X145883380Y-113307857D02*
X146883380Y-113545952D01*
X146169095Y-113736428D01*
X146883380Y-113926904D01*
X145883380Y-114165000D01*
X146359571Y-114545952D02*
X146359571Y-114879285D01*
X146883380Y-115022142D02*
X146883380Y-114545952D01*
X145883380Y-114545952D01*
X145883380Y-115022142D01*
X146883380Y-116022142D02*
X146407190Y-115688809D01*
X146883380Y-115450714D02*
X145883380Y-115450714D01*
X145883380Y-115831666D01*
X145931000Y-115926904D01*
X145978619Y-115974523D01*
X146073857Y-116022142D01*
X146216714Y-116022142D01*
X146311952Y-115974523D01*
X146359571Y-115926904D01*
X146407190Y-115831666D01*
X146407190Y-115450714D01*
X48487880Y-68419595D02*
X48487880Y-68991023D01*
X49487880Y-68705309D02*
X48487880Y-68705309D01*
X49487880Y-69895785D02*
X49011690Y-69562452D01*
X49487880Y-69324357D02*
X48487880Y-69324357D01*
X48487880Y-69705309D01*
X48535500Y-69800547D01*
X48583119Y-69848166D01*
X48678357Y-69895785D01*
X48821214Y-69895785D01*
X48916452Y-69848166D01*
X48964071Y-69800547D01*
X49011690Y-69705309D01*
X49011690Y-69324357D01*
X49487880Y-70895785D02*
X49011690Y-70562452D01*
X49487880Y-70324357D02*
X48487880Y-70324357D01*
X48487880Y-70705309D01*
X48535500Y-70800547D01*
X48583119Y-70848166D01*
X48678357Y-70895785D01*
X48821214Y-70895785D01*
X48916452Y-70848166D01*
X48964071Y-70800547D01*
X49011690Y-70705309D01*
X49011690Y-70324357D01*
X49440261Y-71276738D02*
X49487880Y-71419595D01*
X49487880Y-71657690D01*
X49440261Y-71752928D01*
X49392642Y-71800547D01*
X49297404Y-71848166D01*
X49202166Y-71848166D01*
X49106928Y-71800547D01*
X49059309Y-71752928D01*
X49011690Y-71657690D01*
X48964071Y-71467214D01*
X48916452Y-71371976D01*
X48868833Y-71324357D01*
X48773595Y-71276738D01*
X48678357Y-71276738D01*
X48583119Y-71324357D01*
X48535500Y-71371976D01*
X48487880Y-71467214D01*
X48487880Y-71705309D01*
X48535500Y-71848166D01*
X45283380Y-98385380D02*
X44807190Y-98052047D01*
X45283380Y-97813952D02*
X44283380Y-97813952D01*
X44283380Y-98194904D01*
X44331000Y-98290142D01*
X44378619Y-98337761D01*
X44473857Y-98385380D01*
X44616714Y-98385380D01*
X44711952Y-98337761D01*
X44759571Y-98290142D01*
X44807190Y-98194904D01*
X44807190Y-97813952D01*
X45235761Y-98766333D02*
X45283380Y-98909190D01*
X45283380Y-99147285D01*
X45235761Y-99242523D01*
X45188142Y-99290142D01*
X45092904Y-99337761D01*
X44997666Y-99337761D01*
X44902428Y-99290142D01*
X44854809Y-99242523D01*
X44807190Y-99147285D01*
X44759571Y-98956809D01*
X44711952Y-98861571D01*
X44664333Y-98813952D01*
X44569095Y-98766333D01*
X44473857Y-98766333D01*
X44378619Y-98813952D01*
X44331000Y-98861571D01*
X44283380Y-98956809D01*
X44283380Y-99194904D01*
X44331000Y-99337761D01*
X44283380Y-99623476D02*
X44283380Y-100194904D01*
X45283380Y-99909190D02*
X44283380Y-99909190D01*
X172040761Y-112574190D02*
X172088380Y-112717047D01*
X172088380Y-112955142D01*
X172040761Y-113050380D01*
X171993142Y-113098000D01*
X171897904Y-113145619D01*
X171802666Y-113145619D01*
X171707428Y-113098000D01*
X171659809Y-113050380D01*
X171612190Y-112955142D01*
X171564571Y-112764666D01*
X171516952Y-112669428D01*
X171469333Y-112621809D01*
X171374095Y-112574190D01*
X171278857Y-112574190D01*
X171183619Y-112621809D01*
X171136000Y-112669428D01*
X171088380Y-112764666D01*
X171088380Y-113002761D01*
X171136000Y-113145619D01*
X172088380Y-113574190D02*
X171088380Y-113574190D01*
X171088380Y-113955142D01*
X171136000Y-114050380D01*
X171183619Y-114098000D01*
X171278857Y-114145619D01*
X171421714Y-114145619D01*
X171516952Y-114098000D01*
X171564571Y-114050380D01*
X171612190Y-113955142D01*
X171612190Y-113574190D01*
X172088380Y-114574190D02*
X171088380Y-114574190D01*
X48780380Y-82720476D02*
X47780380Y-82720476D01*
X47780380Y-83101428D01*
X47828000Y-83196666D01*
X47875619Y-83244285D01*
X47970857Y-83291904D01*
X48113714Y-83291904D01*
X48208952Y-83244285D01*
X48256571Y-83196666D01*
X48304190Y-83101428D01*
X48304190Y-82720476D01*
X47780380Y-83910952D02*
X47780380Y-84101428D01*
X47828000Y-84196666D01*
X47923238Y-84291904D01*
X48113714Y-84339523D01*
X48447047Y-84339523D01*
X48637523Y-84291904D01*
X48732761Y-84196666D01*
X48780380Y-84101428D01*
X48780380Y-83910952D01*
X48732761Y-83815714D01*
X48637523Y-83720476D01*
X48447047Y-83672857D01*
X48113714Y-83672857D01*
X47923238Y-83720476D01*
X47828000Y-83815714D01*
X47780380Y-83910952D01*
X47780380Y-84672857D02*
X48780380Y-84910952D01*
X48066095Y-85101428D01*
X48780380Y-85291904D01*
X47780380Y-85530000D01*
X48256571Y-85910952D02*
X48256571Y-86244285D01*
X48780380Y-86387142D02*
X48780380Y-85910952D01*
X47780380Y-85910952D01*
X47780380Y-86387142D01*
X48780380Y-87387142D02*
X48304190Y-87053809D01*
X48780380Y-86815714D02*
X47780380Y-86815714D01*
X47780380Y-87196666D01*
X47828000Y-87291904D01*
X47875619Y-87339523D01*
X47970857Y-87387142D01*
X48113714Y-87387142D01*
X48208952Y-87339523D01*
X48256571Y-87291904D01*
X48304190Y-87196666D01*
X48304190Y-86815714D01*
X138545000Y-55466000D02*
X137045000Y-55466000D01*
X137295000Y-57666000D02*
X138295000Y-57666000D01*
X137795000Y-58566000D02*
X137295000Y-57666000D01*
X137045000Y-60866000D02*
X138545000Y-60866000D01*
X137295000Y-58666000D02*
X138295000Y-58666000D01*
X137045000Y-55466000D02*
X137045000Y-60866000D01*
X138545000Y-60866000D02*
X138545000Y-55466000D01*
X138295000Y-57666000D02*
X137795000Y-58566000D01*
X81395000Y-93566000D02*
X79895000Y-93566000D01*
X79895000Y-93566000D02*
X79895000Y-98966000D01*
X81395000Y-98966000D02*
X81395000Y-93566000D01*
X80645000Y-96666000D02*
X80145000Y-95766000D01*
X80145000Y-96766000D02*
X81145000Y-96766000D01*
X79895000Y-98966000D02*
X81395000Y-98966000D01*
X80145000Y-95766000D02*
X81145000Y-95766000D01*
X81145000Y-95766000D02*
X80645000Y-96666000D01*
X77724000Y-61595000D02*
X77724000Y-51435000D01*
X77724000Y-51435000D02*
X80264000Y-51435000D01*
X80264000Y-61595000D02*
X77724000Y-61595000D01*
X80264000Y-51435000D02*
X80264000Y-61595000D01*
X156845000Y-77616000D02*
X156345000Y-76716000D01*
X157595000Y-79916000D02*
X157595000Y-74516000D01*
X156345000Y-76716000D02*
X157345000Y-76716000D01*
X157345000Y-76716000D02*
X156845000Y-77616000D01*
X157595000Y-74516000D02*
X156095000Y-74516000D01*
X156095000Y-74516000D02*
X156095000Y-79916000D01*
X156095000Y-79916000D02*
X157595000Y-79916000D01*
X156345000Y-77716000D02*
X157345000Y-77716000D01*
X74422000Y-80010000D02*
X76962000Y-80010000D01*
X76962000Y-90170000D02*
X74422000Y-90170000D01*
X74422000Y-90170000D02*
X74422000Y-80010000D01*
X76962000Y-80010000D02*
X76962000Y-90170000D01*
X164095000Y-90405000D02*
X166645000Y-90405000D01*
X161570000Y-100784000D02*
X170195000Y-100784000D01*
X161570000Y-96876000D02*
X161570000Y-100784000D01*
X164095000Y-85755000D02*
X168645000Y-85755000D01*
X164070000Y-90380000D02*
X164070000Y-85780000D01*
X168650000Y-86480000D02*
X168650000Y-85780000D01*
X172470000Y-94876000D02*
X168860000Y-94876000D01*
X161570000Y-96830000D02*
X166620000Y-96784000D01*
X173645000Y-92580000D02*
X173670000Y-87980000D01*
X168945000Y-92605000D02*
X173645000Y-92605000D01*
X172470000Y-98830000D02*
X172470000Y-94885000D01*
X169870000Y-87955000D02*
X173645000Y-87955000D01*
X168940000Y-92580000D02*
G75*
G03*
X166570000Y-90410000I-2270000J-100000D01*
G01*
X170195000Y-100784000D02*
G75*
G03*
X172459000Y-98900000I190000J2074000D01*
G01*
X168650000Y-86530000D02*
G75*
G03*
X169870000Y-87950000I1320000J-100000D01*
G01*
X166595000Y-96780000D02*
G75*
G03*
X168855000Y-94900000I190000J2070000D01*
G01*
X145020000Y-52280000D02*
X145020000Y-47680000D01*
X142520000Y-58776000D02*
X142520000Y-62684000D01*
X154595000Y-54480000D02*
X154620000Y-49880000D01*
X142520000Y-58730000D02*
X147570000Y-58684000D01*
X145045000Y-47655000D02*
X149595000Y-47655000D01*
X153420000Y-56776000D02*
X149810000Y-56776000D01*
X150820000Y-49855000D02*
X154595000Y-49855000D01*
X149600000Y-48380000D02*
X149600000Y-47680000D01*
X149895000Y-54505000D02*
X154595000Y-54505000D01*
X153420000Y-60730000D02*
X153420000Y-56785000D01*
X142520000Y-62684000D02*
X151145000Y-62684000D01*
X145045000Y-52305000D02*
X147595000Y-52305000D01*
X149600000Y-48430000D02*
G75*
G03*
X150820000Y-49850000I1320000J-100000D01*
G01*
X149890000Y-54480000D02*
G75*
G03*
X147520000Y-52310000I-2270000J-100000D01*
G01*
X147545000Y-58680000D02*
G75*
G03*
X149805000Y-56800000I190000J2070000D01*
G01*
X151145000Y-62684000D02*
G75*
G03*
X153409000Y-60800000I190000J2074000D01*
G01*
X123470000Y-58730000D02*
X128520000Y-58684000D01*
X130845000Y-54505000D02*
X135545000Y-54505000D01*
X134370000Y-60730000D02*
X134370000Y-56785000D01*
X125970000Y-52280000D02*
X125970000Y-47680000D01*
X123470000Y-62684000D02*
X132095000Y-62684000D01*
X135545000Y-54480000D02*
X135570000Y-49880000D01*
X134370000Y-56776000D02*
X130760000Y-56776000D01*
X125995000Y-52305000D02*
X128545000Y-52305000D01*
X123470000Y-58776000D02*
X123470000Y-62684000D01*
X125995000Y-47655000D02*
X130545000Y-47655000D01*
X130550000Y-48380000D02*
X130550000Y-47680000D01*
X131770000Y-49855000D02*
X135545000Y-49855000D01*
X130840000Y-54480000D02*
G75*
G03*
X128470000Y-52310000I-2270000J-100000D01*
G01*
X132095000Y-62684000D02*
G75*
G03*
X134359000Y-60800000I190000J2074000D01*
G01*
X130550000Y-48430000D02*
G75*
G03*
X131770000Y-49850000I1320000J-100000D01*
G01*
X128495000Y-58680000D02*
G75*
G03*
X130755000Y-56800000I190000J2070000D01*
G01*
X100445000Y-112616000D02*
X98945000Y-112616000D01*
X99195000Y-114816000D02*
X100195000Y-114816000D01*
X100445000Y-118016000D02*
X100445000Y-112616000D01*
X99695000Y-115716000D02*
X99195000Y-114816000D01*
X99195000Y-115816000D02*
X100195000Y-115816000D01*
X100195000Y-114816000D02*
X99695000Y-115716000D01*
X98945000Y-112616000D02*
X98945000Y-118016000D01*
X98945000Y-118016000D02*
X100445000Y-118016000D01*
X51670000Y-121031000D02*
X52570000Y-120531000D01*
X54770000Y-121781000D02*
X54770000Y-120281000D01*
X52570000Y-121531000D02*
X51670000Y-121031000D01*
X51570000Y-120531000D02*
X51570000Y-121531000D01*
X52570000Y-120531000D02*
X52570000Y-121531000D01*
X54770000Y-120281000D02*
X49370000Y-120281000D01*
X49370000Y-121781000D02*
X54770000Y-121781000D01*
X49370000Y-120281000D02*
X49370000Y-121781000D01*
X76835000Y-63500000D02*
X76835000Y-66040000D01*
X76835000Y-48260000D02*
X76835000Y-50800000D01*
X46355000Y-50800000D02*
X46355000Y-48260000D01*
X76835000Y-50800000D02*
X46355000Y-50800000D01*
X46355000Y-48260000D02*
X76835000Y-48260000D01*
X46355000Y-66040000D02*
X46355000Y-63500000D01*
X46355000Y-63500000D02*
X76835000Y-63500000D01*
X76835000Y-66040000D02*
X46355000Y-66040000D01*
X145542000Y-108585000D02*
X145542000Y-118745000D01*
X143002000Y-118745000D02*
X143002000Y-108585000D01*
X145542000Y-118745000D02*
X143002000Y-118745000D01*
X143002000Y-108585000D02*
X145542000Y-108585000D01*
X96270000Y-117880000D02*
X96270000Y-113935000D01*
X96270000Y-113926000D02*
X92660000Y-113926000D01*
X93670000Y-107005000D02*
X97445000Y-107005000D01*
X85370000Y-119834000D02*
X93995000Y-119834000D01*
X85370000Y-115926000D02*
X85370000Y-119834000D01*
X87895000Y-104805000D02*
X92445000Y-104805000D01*
X87895000Y-109455000D02*
X90445000Y-109455000D01*
X87870000Y-109430000D02*
X87870000Y-104830000D01*
X97445000Y-111630000D02*
X97470000Y-107030000D01*
X85370000Y-115880000D02*
X90420000Y-115834000D01*
X92450000Y-105530000D02*
X92450000Y-104830000D01*
X92745000Y-111655000D02*
X97445000Y-111655000D01*
X92740000Y-111630000D02*
G75*
G03*
X90370000Y-109460000I-2270000J-100000D01*
G01*
X90395000Y-115830000D02*
G75*
G03*
X92655000Y-113950000I190000J2070000D01*
G01*
X92450000Y-105580000D02*
G75*
G03*
X93670000Y-107000000I1320000J-100000D01*
G01*
X93995000Y-119834000D02*
G75*
G03*
X96259000Y-117950000I190000J2074000D01*
G01*
X100445000Y-74516000D02*
X98945000Y-74516000D01*
X99695000Y-77616000D02*
X99195000Y-76716000D01*
X98945000Y-79916000D02*
X100445000Y-79916000D01*
X99195000Y-76716000D02*
X100195000Y-76716000D01*
X98945000Y-74516000D02*
X98945000Y-79916000D01*
X100195000Y-76716000D02*
X99695000Y-77616000D01*
X99195000Y-77716000D02*
X100195000Y-77716000D01*
X100445000Y-79916000D02*
X100445000Y-74516000D01*
X125970000Y-90380000D02*
X125970000Y-85780000D01*
X123470000Y-100784000D02*
X132095000Y-100784000D01*
X130845000Y-92605000D02*
X135545000Y-92605000D01*
X123470000Y-96876000D02*
X123470000Y-100784000D01*
X125995000Y-90405000D02*
X128545000Y-90405000D01*
X123470000Y-96830000D02*
X128520000Y-96784000D01*
X131770000Y-87955000D02*
X135545000Y-87955000D01*
X130550000Y-86480000D02*
X130550000Y-85780000D01*
X134370000Y-98830000D02*
X134370000Y-94885000D01*
X135545000Y-92580000D02*
X135570000Y-87980000D01*
X134370000Y-94876000D02*
X130760000Y-94876000D01*
X125995000Y-85755000D02*
X130545000Y-85755000D01*
X128495000Y-96780000D02*
G75*
G03*
X130755000Y-94900000I190000J2070000D01*
G01*
X130550000Y-86530000D02*
G75*
G03*
X131770000Y-87950000I1320000J-100000D01*
G01*
X130840000Y-92580000D02*
G75*
G03*
X128470000Y-90410000I-2270000J-100000D01*
G01*
X132095000Y-100784000D02*
G75*
G03*
X134359000Y-98900000I190000J2074000D01*
G01*
X58170000Y-117880000D02*
X58170000Y-113935000D01*
X47270000Y-119834000D02*
X55895000Y-119834000D01*
X54350000Y-105530000D02*
X54350000Y-104830000D01*
X47270000Y-115880000D02*
X52320000Y-115834000D01*
X58170000Y-113926000D02*
X54560000Y-113926000D01*
X54645000Y-111655000D02*
X59345000Y-111655000D01*
X49770000Y-109430000D02*
X49770000Y-104830000D01*
X47270000Y-115926000D02*
X47270000Y-119834000D01*
X59345000Y-111630000D02*
X59370000Y-107030000D01*
X55570000Y-107005000D02*
X59345000Y-107005000D01*
X49795000Y-109455000D02*
X52345000Y-109455000D01*
X49795000Y-104805000D02*
X54345000Y-104805000D01*
X54640000Y-111630000D02*
G75*
G03*
X52270000Y-109460000I-2270000J-100000D01*
G01*
X54350000Y-105580000D02*
G75*
G03*
X55570000Y-107000000I1320000J-100000D01*
G01*
X55895000Y-119834000D02*
G75*
G03*
X58159000Y-117950000I190000J2074000D01*
G01*
X52295000Y-115830000D02*
G75*
G03*
X54555000Y-113950000I190000J2070000D01*
G01*
X98945000Y-93566000D02*
X98945000Y-98966000D01*
X98945000Y-98966000D02*
X100445000Y-98966000D01*
X99695000Y-96666000D02*
X99195000Y-95766000D01*
X100445000Y-93566000D02*
X98945000Y-93566000D01*
X99195000Y-96766000D02*
X100195000Y-96766000D01*
X100445000Y-98966000D02*
X100445000Y-93566000D01*
X99195000Y-95766000D02*
X100195000Y-95766000D01*
X100195000Y-95766000D02*
X99695000Y-96666000D01*
X118245000Y-58666000D02*
X119245000Y-58666000D01*
X119495000Y-60866000D02*
X119495000Y-55466000D01*
X117995000Y-55466000D02*
X117995000Y-60866000D01*
X117995000Y-60866000D02*
X119495000Y-60866000D01*
X119245000Y-57666000D02*
X118745000Y-58566000D01*
X118745000Y-58566000D02*
X118245000Y-57666000D01*
X118245000Y-57666000D02*
X119245000Y-57666000D01*
X119495000Y-55466000D02*
X117995000Y-55466000D01*
X161570000Y-81734000D02*
X170195000Y-81734000D01*
X161570000Y-77826000D02*
X161570000Y-81734000D01*
X168945000Y-73555000D02*
X173645000Y-73555000D01*
X164070000Y-71330000D02*
X164070000Y-66730000D01*
X164095000Y-71355000D02*
X166645000Y-71355000D01*
X161570000Y-77780000D02*
X166620000Y-77734000D01*
X169870000Y-68905000D02*
X173645000Y-68905000D01*
X164095000Y-66705000D02*
X168645000Y-66705000D01*
X173645000Y-73530000D02*
X173670000Y-68930000D01*
X172470000Y-75826000D02*
X168860000Y-75826000D01*
X172470000Y-79780000D02*
X172470000Y-75835000D01*
X168650000Y-67430000D02*
X168650000Y-66730000D01*
X168650000Y-67480000D02*
G75*
G03*
X169870000Y-68900000I1320000J-100000D01*
G01*
X170195000Y-81734000D02*
G75*
G03*
X172459000Y-79850000I190000J2074000D01*
G01*
X166595000Y-77730000D02*
G75*
G03*
X168855000Y-75850000I190000J2070000D01*
G01*
X168940000Y-73530000D02*
G75*
G03*
X166570000Y-71360000I-2270000J-100000D01*
G01*
X92870000Y-64758000D02*
X92870000Y-63258000D01*
X90570000Y-64008000D02*
X89670000Y-64508000D01*
X90670000Y-64508000D02*
X90670000Y-63508000D01*
X92870000Y-63258000D02*
X87470000Y-63258000D01*
X89670000Y-64508000D02*
X89670000Y-63508000D01*
X87470000Y-64758000D02*
X92870000Y-64758000D01*
X89670000Y-63508000D02*
X90570000Y-64008000D01*
X87470000Y-63258000D02*
X87470000Y-64758000D01*
X125995000Y-71355000D02*
X128545000Y-71355000D01*
X131770000Y-68905000D02*
X135545000Y-68905000D01*
X135545000Y-73530000D02*
X135570000Y-68930000D01*
X123470000Y-77826000D02*
X123470000Y-81734000D01*
X125995000Y-66705000D02*
X130545000Y-66705000D01*
X130845000Y-73555000D02*
X135545000Y-73555000D01*
X125970000Y-71330000D02*
X125970000Y-66730000D01*
X134370000Y-75826000D02*
X130760000Y-75826000D01*
X134370000Y-79780000D02*
X134370000Y-75835000D01*
X123470000Y-81734000D02*
X132095000Y-81734000D01*
X130550000Y-67430000D02*
X130550000Y-66730000D01*
X123470000Y-77780000D02*
X128520000Y-77734000D01*
X132095000Y-81734000D02*
G75*
G03*
X134359000Y-79850000I190000J2074000D01*
G01*
X130840000Y-73530000D02*
G75*
G03*
X128470000Y-71360000I-2270000J-100000D01*
G01*
X130550000Y-67480000D02*
G75*
G03*
X131770000Y-68900000I1320000J-100000D01*
G01*
X128495000Y-77730000D02*
G75*
G03*
X130755000Y-75850000I190000J2070000D01*
G01*
X42622000Y-74106000D02*
X42622000Y-68106000D01*
X54622000Y-74106000D02*
X42622000Y-74106000D01*
X42622000Y-68106000D02*
X54622000Y-68106000D01*
X54622000Y-68106000D02*
X54622000Y-74106000D01*
X119495000Y-79916000D02*
X119495000Y-74516000D01*
X118245000Y-77716000D02*
X119245000Y-77716000D01*
X118745000Y-77616000D02*
X118245000Y-76716000D01*
X117995000Y-79916000D02*
X119495000Y-79916000D01*
X117995000Y-74516000D02*
X117995000Y-79916000D01*
X119495000Y-74516000D02*
X117995000Y-74516000D01*
X119245000Y-76716000D02*
X118745000Y-77616000D01*
X118245000Y-76716000D02*
X119245000Y-76716000D01*
X104420000Y-77780000D02*
X109470000Y-77734000D01*
X106945000Y-71355000D02*
X109495000Y-71355000D01*
X111500000Y-67430000D02*
X111500000Y-66730000D01*
X116495000Y-73530000D02*
X116520000Y-68930000D01*
X106920000Y-71330000D02*
X106920000Y-66730000D01*
X104420000Y-77826000D02*
X104420000Y-81734000D01*
X115320000Y-79780000D02*
X115320000Y-75835000D01*
X106945000Y-66705000D02*
X111495000Y-66705000D01*
X104420000Y-81734000D02*
X113045000Y-81734000D01*
X112720000Y-68905000D02*
X116495000Y-68905000D01*
X115320000Y-75826000D02*
X111710000Y-75826000D01*
X111795000Y-73555000D02*
X116495000Y-73555000D01*
X113045000Y-81734000D02*
G75*
G03*
X115309000Y-79850000I190000J2074000D01*
G01*
X111500000Y-67480000D02*
G75*
G03*
X112720000Y-68900000I1320000J-100000D01*
G01*
X111790000Y-73530000D02*
G75*
G03*
X109420000Y-71360000I-2270000J-100000D01*
G01*
X109445000Y-77730000D02*
G75*
G03*
X111705000Y-75850000I190000J2070000D01*
G01*
X98945000Y-60866000D02*
X100445000Y-60866000D01*
X99195000Y-58666000D02*
X100195000Y-58666000D01*
X99695000Y-58566000D02*
X99195000Y-57666000D01*
X99195000Y-57666000D02*
X100195000Y-57666000D01*
X100445000Y-60866000D02*
X100445000Y-55466000D01*
X100445000Y-55466000D02*
X98945000Y-55466000D01*
X98945000Y-55466000D02*
X98945000Y-60866000D01*
X100195000Y-57666000D02*
X99695000Y-58566000D01*
X81145000Y-76716000D02*
X80645000Y-77616000D01*
X81395000Y-74516000D02*
X79895000Y-74516000D01*
X79895000Y-79916000D02*
X81395000Y-79916000D01*
X81395000Y-79916000D02*
X81395000Y-74516000D01*
X80645000Y-77616000D02*
X80145000Y-76716000D01*
X80145000Y-76716000D02*
X81145000Y-76716000D01*
X79895000Y-74516000D02*
X79895000Y-79916000D01*
X80145000Y-77716000D02*
X81145000Y-77716000D01*
X46581000Y-101806000D02*
X46331000Y-101806000D01*
X43331000Y-101806000D02*
X43081000Y-101806000D01*
X43081000Y-95806000D02*
X43331000Y-95806000D01*
X46581000Y-95806000D02*
X46581000Y-101806000D01*
X46331000Y-95806000D02*
X46581000Y-95806000D01*
X43081000Y-101806000D02*
X43081000Y-95806000D01*
X138295000Y-76716000D02*
X137795000Y-77616000D01*
X137045000Y-79916000D02*
X138545000Y-79916000D01*
X138545000Y-74516000D02*
X137045000Y-74516000D01*
X137295000Y-77716000D02*
X138295000Y-77716000D01*
X137795000Y-77616000D02*
X137295000Y-76716000D01*
X138545000Y-79916000D02*
X138545000Y-74516000D01*
X137295000Y-76716000D02*
X138295000Y-76716000D01*
X137045000Y-74516000D02*
X137045000Y-79916000D01*
X119245000Y-95766000D02*
X118745000Y-96666000D01*
X119495000Y-93566000D02*
X117995000Y-93566000D01*
X118245000Y-95766000D02*
X119245000Y-95766000D01*
X117995000Y-98966000D02*
X119495000Y-98966000D01*
X118245000Y-96766000D02*
X119245000Y-96766000D01*
X117995000Y-93566000D02*
X117995000Y-98966000D01*
X118745000Y-96666000D02*
X118245000Y-95766000D01*
X119495000Y-98966000D02*
X119495000Y-93566000D01*
X156095000Y-93566000D02*
X156095000Y-98966000D01*
X156095000Y-98966000D02*
X157595000Y-98966000D01*
X157595000Y-93566000D02*
X156095000Y-93566000D01*
X156845000Y-96666000D02*
X156345000Y-95766000D01*
X156345000Y-95766000D02*
X157345000Y-95766000D01*
X157345000Y-95766000D02*
X156845000Y-96666000D01*
X157595000Y-98966000D02*
X157595000Y-93566000D01*
X156345000Y-96766000D02*
X157345000Y-96766000D01*
X87895000Y-52305000D02*
X90445000Y-52305000D01*
X85370000Y-58776000D02*
X85370000Y-62684000D01*
X96270000Y-56776000D02*
X92660000Y-56776000D01*
X97445000Y-54480000D02*
X97470000Y-49880000D01*
X85370000Y-62684000D02*
X93995000Y-62684000D01*
X92745000Y-54505000D02*
X97445000Y-54505000D01*
X92450000Y-48380000D02*
X92450000Y-47680000D01*
X87870000Y-52280000D02*
X87870000Y-47680000D01*
X85370000Y-58730000D02*
X90420000Y-58684000D01*
X87895000Y-47655000D02*
X92445000Y-47655000D01*
X96270000Y-60730000D02*
X96270000Y-56785000D01*
X93670000Y-49855000D02*
X97445000Y-49855000D01*
X93995000Y-62684000D02*
G75*
G03*
X96259000Y-60800000I190000J2074000D01*
G01*
X92740000Y-54480000D02*
G75*
G03*
X90370000Y-52310000I-2270000J-100000D01*
G01*
X92450000Y-48430000D02*
G75*
G03*
X93670000Y-49850000I1320000J-100000D01*
G01*
X90395000Y-58680000D02*
G75*
G03*
X92655000Y-56800000I190000J2070000D01*
G01*
X172466000Y-118618000D02*
X172466000Y-108458000D01*
X175006000Y-118618000D02*
X172466000Y-118618000D01*
X175006000Y-108458000D02*
X175006000Y-118618000D01*
X172466000Y-108458000D02*
X175006000Y-108458000D01*
X87870000Y-90380000D02*
X87870000Y-85780000D01*
X92450000Y-86480000D02*
X92450000Y-85780000D01*
X96270000Y-98830000D02*
X96270000Y-94885000D01*
X92745000Y-92605000D02*
X97445000Y-92605000D01*
X87895000Y-85755000D02*
X92445000Y-85755000D01*
X87895000Y-90405000D02*
X90445000Y-90405000D01*
X96270000Y-94876000D02*
X92660000Y-94876000D01*
X93670000Y-87955000D02*
X97445000Y-87955000D01*
X85370000Y-96830000D02*
X90420000Y-96784000D01*
X97445000Y-92580000D02*
X97470000Y-87980000D01*
X85370000Y-96876000D02*
X85370000Y-100784000D01*
X85370000Y-100784000D02*
X93995000Y-100784000D01*
X93995000Y-100784000D02*
G75*
G03*
X96259000Y-98900000I190000J2074000D01*
G01*
X92450000Y-86530000D02*
G75*
G03*
X93670000Y-87950000I1320000J-100000D01*
G01*
X92740000Y-92580000D02*
G75*
G03*
X90370000Y-90410000I-2270000J-100000D01*
G01*
X90395000Y-96780000D02*
G75*
G03*
X92655000Y-94900000I190000J2070000D01*
G01*
X156345000Y-58666000D02*
X157345000Y-58666000D01*
X156095000Y-60866000D02*
X157595000Y-60866000D01*
X156845000Y-58566000D02*
X156345000Y-57666000D01*
X157595000Y-55466000D02*
X156095000Y-55466000D01*
X156095000Y-55466000D02*
X156095000Y-60866000D01*
X157345000Y-57666000D02*
X156845000Y-58566000D01*
X157595000Y-60866000D02*
X157595000Y-55466000D01*
X156345000Y-57666000D02*
X157345000Y-57666000D01*
X116495000Y-111630000D02*
X116520000Y-107030000D01*
X106945000Y-104805000D02*
X111495000Y-104805000D01*
X106920000Y-109430000D02*
X106920000Y-104830000D01*
X111795000Y-111655000D02*
X116495000Y-111655000D01*
X106945000Y-109455000D02*
X109495000Y-109455000D01*
X111500000Y-105530000D02*
X111500000Y-104830000D01*
X104420000Y-119834000D02*
X113045000Y-119834000D01*
X112720000Y-107005000D02*
X116495000Y-107005000D01*
X104420000Y-115880000D02*
X109470000Y-115834000D01*
X115320000Y-117880000D02*
X115320000Y-113935000D01*
X115320000Y-113926000D02*
X111710000Y-113926000D01*
X104420000Y-115926000D02*
X104420000Y-119834000D01*
X111500000Y-105580000D02*
G75*
G03*
X112720000Y-107000000I1320000J-100000D01*
G01*
X109445000Y-115830000D02*
G75*
G03*
X111705000Y-113950000I190000J2070000D01*
G01*
X111790000Y-111630000D02*
G75*
G03*
X109420000Y-109460000I-2270000J-100000D01*
G01*
X113045000Y-119834000D02*
G75*
G03*
X115309000Y-117950000I190000J2074000D01*
G01*
X66320000Y-119834000D02*
X74945000Y-119834000D01*
X77220000Y-117880000D02*
X77220000Y-113935000D01*
X74620000Y-107005000D02*
X78395000Y-107005000D01*
X66320000Y-115880000D02*
X71370000Y-115834000D01*
X66320000Y-115926000D02*
X66320000Y-119834000D01*
X68845000Y-109455000D02*
X71395000Y-109455000D01*
X77220000Y-113926000D02*
X73610000Y-113926000D01*
X68820000Y-109430000D02*
X68820000Y-104830000D01*
X68845000Y-104805000D02*
X73395000Y-104805000D01*
X73695000Y-111655000D02*
X78395000Y-111655000D01*
X78395000Y-111630000D02*
X78420000Y-107030000D01*
X73400000Y-105530000D02*
X73400000Y-104830000D01*
X73690000Y-111630000D02*
G75*
G03*
X71320000Y-109460000I-2270000J-100000D01*
G01*
X71345000Y-115830000D02*
G75*
G03*
X73605000Y-113950000I190000J2070000D01*
G01*
X73400000Y-105580000D02*
G75*
G03*
X74620000Y-107000000I1320000J-100000D01*
G01*
X74945000Y-119834000D02*
G75*
G03*
X77209000Y-117950000I190000J2074000D01*
G01*
X44958000Y-80010000D02*
X47498000Y-80010000D01*
X47498000Y-90170000D02*
X44958000Y-90170000D01*
X44958000Y-90170000D02*
X44958000Y-80010000D01*
X47498000Y-80010000D02*
X47498000Y-90170000D01*
X87870000Y-71330000D02*
X87870000Y-66730000D01*
X87895000Y-66705000D02*
X92445000Y-66705000D01*
X93670000Y-68905000D02*
X97445000Y-68905000D01*
X87895000Y-71355000D02*
X90445000Y-71355000D01*
X92745000Y-73555000D02*
X97445000Y-73555000D01*
X92450000Y-67430000D02*
X92450000Y-66730000D01*
X96270000Y-79780000D02*
X96270000Y-75835000D01*
X97445000Y-73530000D02*
X97470000Y-68930000D01*
X85370000Y-77826000D02*
X85370000Y-81734000D01*
X85370000Y-81734000D02*
X93995000Y-81734000D01*
X85370000Y-77780000D02*
X90420000Y-77734000D01*
X96270000Y-75826000D02*
X92660000Y-75826000D01*
X92740000Y-73530000D02*
G75*
G03*
X90370000Y-71360000I-2270000J-100000D01*
G01*
X92450000Y-67480000D02*
G75*
G03*
X93670000Y-68900000I1320000J-100000D01*
G01*
X90395000Y-77730000D02*
G75*
G03*
X92655000Y-75850000I190000J2070000D01*
G01*
X93995000Y-81734000D02*
G75*
G03*
X96259000Y-79850000I190000J2074000D01*
G01*
X60460000Y-94242000D02*
X61360000Y-94742000D01*
X61360000Y-94742000D02*
X60460000Y-95242000D01*
X58260000Y-95492000D02*
X63660000Y-95492000D01*
X63660000Y-95492000D02*
X63660000Y-93992000D01*
X63660000Y-93992000D02*
X58260000Y-93992000D01*
X60460000Y-95242000D02*
X60460000Y-94242000D01*
X61460000Y-95242000D02*
X61460000Y-94242000D01*
X58260000Y-93992000D02*
X58260000Y-95492000D01*
X161570000Y-58730000D02*
X166620000Y-58684000D01*
X173645000Y-54480000D02*
X173670000Y-49880000D01*
X164070000Y-52280000D02*
X164070000Y-47680000D01*
X161570000Y-58776000D02*
X161570000Y-62684000D01*
X172470000Y-56776000D02*
X168860000Y-56776000D01*
X168650000Y-48380000D02*
X168650000Y-47680000D01*
X164095000Y-47655000D02*
X168645000Y-47655000D01*
X161570000Y-62684000D02*
X170195000Y-62684000D01*
X169870000Y-49855000D02*
X173645000Y-49855000D01*
X172470000Y-60730000D02*
X172470000Y-56785000D01*
X168945000Y-54505000D02*
X173645000Y-54505000D01*
X164095000Y-52305000D02*
X166645000Y-52305000D01*
X166595000Y-58680000D02*
G75*
G03*
X168855000Y-56800000I190000J2070000D01*
G01*
X168650000Y-48430000D02*
G75*
G03*
X169870000Y-49850000I1320000J-100000D01*
G01*
X170195000Y-62684000D02*
G75*
G03*
X172459000Y-60800000I190000J2074000D01*
G01*
X168940000Y-54480000D02*
G75*
G03*
X166570000Y-52310000I-2270000J-100000D01*
G01*
X62095000Y-114816000D02*
X61595000Y-115716000D01*
X60845000Y-112616000D02*
X60845000Y-118016000D01*
X61095000Y-114816000D02*
X62095000Y-114816000D01*
X62345000Y-112616000D02*
X60845000Y-112616000D01*
X61595000Y-115716000D02*
X61095000Y-114816000D01*
X62345000Y-118016000D02*
X62345000Y-112616000D01*
X60845000Y-118016000D02*
X62345000Y-118016000D01*
X61095000Y-115816000D02*
X62095000Y-115816000D01*
X137295000Y-95766000D02*
X138295000Y-95766000D01*
X137295000Y-96766000D02*
X138295000Y-96766000D01*
X138295000Y-95766000D02*
X137795000Y-96666000D01*
X137045000Y-98966000D02*
X138545000Y-98966000D01*
X138545000Y-93566000D02*
X137045000Y-93566000D01*
X138545000Y-98966000D02*
X138545000Y-93566000D01*
X137795000Y-96666000D02*
X137295000Y-95766000D01*
X137045000Y-93566000D02*
X137045000Y-98966000D01*
X112720000Y-49855000D02*
X116495000Y-49855000D01*
X106920000Y-52280000D02*
X106920000Y-47680000D01*
X104420000Y-62684000D02*
X113045000Y-62684000D01*
X104420000Y-58730000D02*
X109470000Y-58684000D01*
X106945000Y-47655000D02*
X111495000Y-47655000D01*
X111500000Y-48380000D02*
X111500000Y-47680000D01*
X115320000Y-60730000D02*
X115320000Y-56785000D01*
X104420000Y-58776000D02*
X104420000Y-62684000D01*
X116495000Y-54480000D02*
X116520000Y-49880000D01*
X115320000Y-56776000D02*
X111710000Y-56776000D01*
X106945000Y-52305000D02*
X109495000Y-52305000D01*
X111795000Y-54505000D02*
X116495000Y-54505000D01*
X109445000Y-58680000D02*
G75*
G03*
X111705000Y-56800000I190000J2070000D01*
G01*
X113045000Y-62684000D02*
G75*
G03*
X115309000Y-60800000I190000J2074000D01*
G01*
X111790000Y-54480000D02*
G75*
G03*
X109420000Y-52310000I-2270000J-100000D01*
G01*
X111500000Y-48430000D02*
G75*
G03*
X112720000Y-49850000I1320000J-100000D01*
G01*
X104420000Y-96830000D02*
X109470000Y-96784000D01*
X115320000Y-94876000D02*
X111710000Y-94876000D01*
X116495000Y-92580000D02*
X116520000Y-87980000D01*
X106945000Y-85755000D02*
X111495000Y-85755000D01*
X111500000Y-86480000D02*
X111500000Y-85780000D01*
X104420000Y-100784000D02*
X113045000Y-100784000D01*
X104420000Y-96876000D02*
X104420000Y-100784000D01*
X115320000Y-98830000D02*
X115320000Y-94885000D01*
X111795000Y-92605000D02*
X116495000Y-92605000D01*
X112720000Y-87955000D02*
X116495000Y-87955000D01*
X106945000Y-90405000D02*
X109495000Y-90405000D01*
X106920000Y-90380000D02*
X106920000Y-85780000D01*
X111500000Y-86530000D02*
G75*
G03*
X112720000Y-87950000I1320000J-100000D01*
G01*
X113045000Y-100784000D02*
G75*
G03*
X115309000Y-98900000I190000J2074000D01*
G01*
X109445000Y-96780000D02*
G75*
G03*
X111705000Y-94900000I190000J2070000D01*
G01*
X111790000Y-92580000D02*
G75*
G03*
X109420000Y-90410000I-2270000J-100000D01*
G01*
X81395000Y-112616000D02*
X79895000Y-112616000D01*
X81145000Y-114816000D02*
X80645000Y-115716000D01*
X80145000Y-115816000D02*
X81145000Y-115816000D01*
X79895000Y-112616000D02*
X79895000Y-118016000D01*
X79895000Y-118016000D02*
X81395000Y-118016000D01*
X80145000Y-114816000D02*
X81145000Y-114816000D01*
X81395000Y-118016000D02*
X81395000Y-112616000D01*
X80645000Y-115716000D02*
X80145000Y-114816000D01*
X145045000Y-66705000D02*
X149595000Y-66705000D01*
X145020000Y-71330000D02*
X145020000Y-66730000D01*
X154595000Y-73530000D02*
X154620000Y-68930000D01*
X142520000Y-81734000D02*
X151145000Y-81734000D01*
X145045000Y-71355000D02*
X147595000Y-71355000D01*
X153420000Y-79780000D02*
X153420000Y-75835000D01*
X142520000Y-77780000D02*
X147570000Y-77734000D01*
X149895000Y-73555000D02*
X154595000Y-73555000D01*
X150820000Y-68905000D02*
X154595000Y-68905000D01*
X142520000Y-77826000D02*
X142520000Y-81734000D01*
X153420000Y-75826000D02*
X149810000Y-75826000D01*
X149600000Y-67430000D02*
X149600000Y-66730000D01*
X147545000Y-77730000D02*
G75*
G03*
X149805000Y-75850000I190000J2070000D01*
G01*
X151145000Y-81734000D02*
G75*
G03*
X153409000Y-79850000I190000J2074000D01*
G01*
X149890000Y-73530000D02*
G75*
G03*
X147520000Y-71360000I-2270000J-100000D01*
G01*
X149600000Y-67480000D02*
G75*
G03*
X150820000Y-68900000I1320000J-100000D01*
G01*
X142520000Y-96876000D02*
X142520000Y-100784000D01*
X153420000Y-94876000D02*
X149810000Y-94876000D01*
X142520000Y-100784000D02*
X151145000Y-100784000D01*
X142520000Y-96830000D02*
X147570000Y-96784000D01*
X154595000Y-92580000D02*
X154620000Y-87980000D01*
X149895000Y-92605000D02*
X154595000Y-92605000D01*
X145020000Y-90380000D02*
X145020000Y-85780000D01*
X145045000Y-90405000D02*
X147595000Y-90405000D01*
X150820000Y-87955000D02*
X154595000Y-87955000D01*
X149600000Y-86480000D02*
X149600000Y-85780000D01*
X153420000Y-98830000D02*
X153420000Y-94885000D01*
X145045000Y-85755000D02*
X149595000Y-85755000D01*
X149600000Y-86530000D02*
G75*
G03*
X150820000Y-87950000I1320000J-100000D01*
G01*
X149890000Y-92580000D02*
G75*
G03*
X147520000Y-90410000I-2270000J-100000D01*
G01*
X147545000Y-96780000D02*
G75*
G03*
X149805000Y-94900000I190000J2070000D01*
G01*
X151145000Y-100784000D02*
G75*
G03*
X153409000Y-98900000I190000J2074000D01*
G01*
D12*
X72074000Y-80153000D02*
X70674000Y-80153000D01*
X72774000Y-81453000D02*
X72774000Y-80853000D01*
X70674000Y-82153000D02*
X72074000Y-82153000D01*
X69974000Y-80853000D02*
X69974000Y-81453000D01*
X72074000Y-82153000D02*
G75*
G03*
X72774000Y-81453000I0J700000D01*
G01*
X72774000Y-80853000D02*
G75*
G03*
X72074000Y-80153000I-700000J0D01*
G01*
X70674000Y-80153000D02*
G75*
G03*
X69974000Y-80853000I0J-700000D01*
G01*
X69974000Y-81453000D02*
G75*
G03*
X70674000Y-82153000I700000J0D01*
G01*
X69974000Y-88600000D02*
X69974000Y-89200000D01*
X72774000Y-89200000D02*
X72774000Y-88600000D01*
X72074000Y-87900000D02*
X70674000Y-87900000D01*
X70674000Y-89900000D02*
X72074000Y-89900000D01*
X70674000Y-87900000D02*
G75*
G03*
X69974000Y-88600000I0J-700000D01*
G01*
X72774000Y-88600000D02*
G75*
G03*
X72074000Y-87900000I-700000J0D01*
G01*
X72074000Y-89900000D02*
G75*
G03*
X72774000Y-89200000I0J700000D01*
G01*
X69974000Y-89200000D02*
G75*
G03*
X70674000Y-89900000I700000J0D01*
G01*
X72774000Y-84120000D02*
X72774000Y-83520000D01*
X72074000Y-82820000D02*
X70674000Y-82820000D01*
X69974000Y-83520000D02*
X69974000Y-84120000D01*
X70674000Y-84820000D02*
X72074000Y-84820000D01*
X69974000Y-84120000D02*
G75*
G03*
X70674000Y-84820000I700000J0D01*
G01*
X72074000Y-84820000D02*
G75*
G03*
X72774000Y-84120000I0J700000D01*
G01*
X72774000Y-83520000D02*
G75*
G03*
X72074000Y-82820000I-700000J0D01*
G01*
X70674000Y-82820000D02*
G75*
G03*
X69974000Y-83520000I0J-700000D01*
G01*
X77535000Y-51705000D02*
X76135000Y-51705000D01*
X75435000Y-52405000D02*
X75435000Y-53005000D01*
X78235000Y-53005000D02*
X78235000Y-52405000D01*
X76135000Y-53705000D02*
X77535000Y-53705000D01*
X76135000Y-51705000D02*
G75*
G03*
X75435000Y-52405000I0J-700000D01*
G01*
X78235000Y-52405000D02*
G75*
G03*
X77535000Y-51705000I-700000J0D01*
G01*
X75435000Y-53005000D02*
G75*
G03*
X76135000Y-53705000I700000J0D01*
G01*
X77535000Y-53705000D02*
G75*
G03*
X78235000Y-53005000I0J700000D01*
G01*
X62474600Y-73711600D02*
X62474600Y-75111600D01*
X63174600Y-75811600D02*
X63774600Y-75811600D01*
X63774600Y-73011600D02*
X63174600Y-73011600D01*
X64474600Y-75111600D02*
X64474600Y-73711600D01*
X64474600Y-73711600D02*
G75*
G03*
X63774600Y-73011600I-700000J0D01*
G01*
X63174600Y-73011600D02*
G75*
G03*
X62474600Y-73711600I0J-700000D01*
G01*
X63774600Y-75811600D02*
G75*
G03*
X64474600Y-75111600I0J700000D01*
G01*
X62474600Y-75111600D02*
G75*
G03*
X63174600Y-75811600I700000J0D01*
G01*
X58770800Y-73022000D02*
X58170800Y-73022000D01*
X58170800Y-75822000D02*
X58770800Y-75822000D01*
X57470800Y-73722000D02*
X57470800Y-75122000D01*
X59470800Y-75122000D02*
X59470800Y-73722000D01*
X59470800Y-73722000D02*
G75*
G03*
X58770800Y-73022000I-700000J0D01*
G01*
X58770800Y-75822000D02*
G75*
G03*
X59470800Y-75122000I0J700000D01*
G01*
X58170800Y-73022000D02*
G75*
G03*
X57470800Y-73722000I0J-700000D01*
G01*
X57470800Y-75122000D02*
G75*
G03*
X58170800Y-75822000I700000J0D01*
G01*
X78235000Y-60625000D02*
X78235000Y-60025000D01*
X75435000Y-60025000D02*
X75435000Y-60625000D01*
X76135000Y-61325000D02*
X77535000Y-61325000D01*
X77535000Y-59325000D02*
X76135000Y-59325000D01*
X76135000Y-59325000D02*
G75*
G03*
X75435000Y-60025000I0J-700000D01*
G01*
X75435000Y-60625000D02*
G75*
G03*
X76135000Y-61325000I700000J0D01*
G01*
X78235000Y-60025000D02*
G75*
G03*
X77535000Y-59325000I-700000J0D01*
G01*
X77535000Y-61325000D02*
G75*
G03*
X78235000Y-60625000I0J700000D01*
G01*
X78235000Y-55545000D02*
X78235000Y-54945000D01*
X76135000Y-56245000D02*
X77535000Y-56245000D01*
X77535000Y-54245000D02*
X76135000Y-54245000D01*
X75435000Y-54945000D02*
X75435000Y-55545000D01*
X76135000Y-54245000D02*
G75*
G03*
X75435000Y-54945000I0J-700000D01*
G01*
X75435000Y-55545000D02*
G75*
G03*
X76135000Y-56245000I700000J0D01*
G01*
X77535000Y-56245000D02*
G75*
G03*
X78235000Y-55545000I0J700000D01*
G01*
X78235000Y-54945000D02*
G75*
G03*
X77535000Y-54245000I-700000J0D01*
G01*
X78235000Y-58085000D02*
X78235000Y-57485000D01*
X76135000Y-58785000D02*
X77535000Y-58785000D01*
X77535000Y-56785000D02*
X76135000Y-56785000D01*
X75435000Y-57485000D02*
X75435000Y-58085000D01*
X76135000Y-56785000D02*
G75*
G03*
X75435000Y-57485000I0J-700000D01*
G01*
X78235000Y-57485000D02*
G75*
G03*
X77535000Y-56785000I-700000J0D01*
G01*
X77535000Y-58785000D02*
G75*
G03*
X78235000Y-58085000I0J700000D01*
G01*
X75435000Y-58085000D02*
G75*
G03*
X76135000Y-58785000I700000J0D01*
G01*
X70674000Y-87360000D02*
X72074000Y-87360000D01*
X72074000Y-85360000D02*
X70674000Y-85360000D01*
X69974000Y-86060000D02*
X69974000Y-86660000D01*
X72774000Y-86660000D02*
X72774000Y-86060000D01*
X70674000Y-85360000D02*
G75*
G03*
X69974000Y-86060000I0J-700000D01*
G01*
X69974000Y-86660000D02*
G75*
G03*
X70674000Y-87360000I700000J0D01*
G01*
X72774000Y-86060000D02*
G75*
G03*
X72074000Y-85360000I-700000J0D01*
G01*
X72074000Y-87360000D02*
G75*
G03*
X72774000Y-86660000I0J700000D01*
G01*
%LPC*%
D10*
X130220793Y-107393283D02*
X130288136Y-107393283D01*
X130422823Y-107325939D01*
X130490167Y-107258596D01*
X130557510Y-107123909D01*
X130557510Y-106989222D01*
X130523838Y-106888206D01*
X130422823Y-106719848D01*
X130321808Y-106618832D01*
X130153449Y-106517817D01*
X130052434Y-106484145D01*
X129917747Y-106484145D01*
X129783060Y-106551489D01*
X129715716Y-106618832D01*
X129648373Y-106753519D01*
X129648373Y-106820863D01*
X128941266Y-107460626D02*
X128974938Y-107359611D01*
X129075953Y-107258596D01*
X129210640Y-107191252D01*
X129345327Y-107191252D01*
X129446342Y-107224924D01*
X129614701Y-107325939D01*
X129715716Y-107426954D01*
X129816732Y-107595313D01*
X129850403Y-107696328D01*
X129850403Y-107831015D01*
X129783060Y-107965702D01*
X129715716Y-108033046D01*
X129581029Y-108100389D01*
X129513686Y-108100389D01*
X129277984Y-107864687D01*
X129412671Y-107730000D01*
X129345327Y-108403435D02*
X128503533Y-108302420D01*
X128873923Y-107932031D02*
X128974938Y-108773824D01*
X128705564Y-109043198D02*
X127998457Y-108336092D01*
X128301503Y-109447259D02*
X128200488Y-108740153D01*
X127594396Y-108740153D02*
X128402518Y-108740153D01*
X127392366Y-109615618D02*
X127325022Y-109750305D01*
X127325022Y-109817649D01*
X127358694Y-109918664D01*
X127459709Y-110019679D01*
X127560724Y-110053351D01*
X127628068Y-110053351D01*
X127729083Y-110019679D01*
X127998457Y-109750305D01*
X127291350Y-109043198D01*
X127055648Y-109278901D01*
X127021976Y-109379916D01*
X127021976Y-109447259D01*
X127055648Y-109548275D01*
X127122992Y-109615618D01*
X127224007Y-109649290D01*
X127291350Y-109649290D01*
X127392366Y-109615618D01*
X127628068Y-109379916D01*
X126348541Y-110457412D02*
X126651587Y-111097175D01*
X126011824Y-110794129D01*
X125372061Y-110962488D02*
X125304717Y-111029832D01*
X125271045Y-111130847D01*
X125271045Y-111198190D01*
X125304717Y-111299206D01*
X125405732Y-111467564D01*
X125574091Y-111635923D01*
X125742450Y-111736938D01*
X125843465Y-111770610D01*
X125910809Y-111770610D01*
X126011824Y-111736938D01*
X126079167Y-111669595D01*
X126112839Y-111568580D01*
X126112839Y-111501236D01*
X126079167Y-111400221D01*
X125978152Y-111231862D01*
X125809793Y-111063503D01*
X125641435Y-110962488D01*
X125540419Y-110928816D01*
X125473076Y-110928816D01*
X125372061Y-110962488D01*
X125473076Y-112141000D02*
X125473076Y-112208343D01*
X125540419Y-112208343D01*
X125540419Y-112141000D01*
X125473076Y-112141000D01*
X125540419Y-112208343D01*
X124833312Y-112915450D02*
X125237374Y-112511389D01*
X125035343Y-112713419D02*
X124328236Y-112006312D01*
X124496595Y-112039984D01*
X124631282Y-112039984D01*
X124732297Y-112006312D01*
X124462923Y-113151152D02*
X124462923Y-113218496D01*
X124530267Y-113218496D01*
X124530267Y-113151152D01*
X124462923Y-113151152D01*
X124530267Y-113218496D01*
X123351755Y-112982793D02*
X123284412Y-113050137D01*
X123250740Y-113151152D01*
X123250740Y-113218496D01*
X123284412Y-113319511D01*
X123385427Y-113487870D01*
X123553786Y-113656228D01*
X123722145Y-113757244D01*
X123823160Y-113790915D01*
X123890503Y-113790915D01*
X123991519Y-113757244D01*
X124058862Y-113689900D01*
X124092534Y-113588885D01*
X124092534Y-113521541D01*
X124058862Y-113420526D01*
X123957847Y-113252167D01*
X123789488Y-113083809D01*
X123621129Y-112982793D01*
X123520114Y-112949122D01*
X123452771Y-112949122D01*
X123351755Y-112982793D01*
X122644649Y-115104114D02*
X122981366Y-114767396D01*
X122274259Y-114060289D01*
X122139572Y-115070442D02*
X121600824Y-115609190D01*
X120927389Y-115407159D02*
X120523328Y-115811220D01*
X121432466Y-116316297D02*
X120725359Y-115609190D01*
X120152939Y-116181610D02*
X120018252Y-116316297D01*
X119984580Y-116417312D01*
X119984580Y-116551999D01*
X120085596Y-116720358D01*
X120321298Y-116956060D01*
X120489657Y-117057075D01*
X120624344Y-117057075D01*
X120725359Y-117023403D01*
X120860046Y-116888716D01*
X120893718Y-116787701D01*
X120893718Y-116653014D01*
X120792702Y-116484655D01*
X120557000Y-116248953D01*
X120388641Y-116147938D01*
X120253954Y-116147938D01*
X120152939Y-116181610D01*
X120253954Y-117494808D02*
X119546848Y-116787701D01*
X119277473Y-117057075D01*
X119243802Y-117158090D01*
X119243802Y-117225434D01*
X119277473Y-117326449D01*
X119378489Y-117427464D01*
X119479504Y-117461136D01*
X119546848Y-117461136D01*
X119647863Y-117427464D01*
X119917237Y-117158090D01*
D13*
X137795000Y-59941000D03*
D14*
X137795000Y-61976000D03*
D13*
X137795000Y-56391000D03*
D15*
X137795000Y-54356000D03*
D13*
X80645000Y-98041000D03*
D14*
X80645000Y-100076000D03*
D15*
X80645000Y-92456000D03*
D13*
X80645000Y-94491000D03*
D15*
X78994000Y-60325000D03*
X78994000Y-57785000D03*
X78994000Y-55245000D03*
X78994000Y-52705000D03*
D13*
X156845000Y-78991000D03*
D14*
X156845000Y-81026000D03*
D15*
X156845000Y-73406000D03*
D13*
X156845000Y-75441000D03*
D15*
X75692000Y-88900000D03*
X75692000Y-86360000D03*
X75692000Y-83820000D03*
X75692000Y-81280000D03*
D16*
X166370000Y-93980000D03*
D17*
X168910000Y-99060000D03*
D18*
X171450000Y-93980000D03*
D17*
X171370000Y-90280000D03*
X162560000Y-96520000D03*
D19*
X160870000Y-93980000D03*
D17*
X170180000Y-96520000D03*
D19*
X171870000Y-93980000D03*
D18*
X161870000Y-93980000D03*
D17*
X161370000Y-90280000D03*
D18*
X170870000Y-93980000D03*
X161290000Y-93980000D03*
D17*
X163830000Y-99060000D03*
X166370000Y-88080000D03*
D20*
X174470000Y-90280000D03*
X173270000Y-96520000D03*
D21*
X163570000Y-88080000D03*
D20*
X160770000Y-99060000D03*
D18*
X151820000Y-55880000D03*
D17*
X149860000Y-60960000D03*
D19*
X152820000Y-55880000D03*
D17*
X144780000Y-60960000D03*
D18*
X142820000Y-55880000D03*
D17*
X151130000Y-58420000D03*
D18*
X142240000Y-55880000D03*
D17*
X142320000Y-52180000D03*
X143510000Y-58420000D03*
D16*
X147320000Y-55880000D03*
D17*
X152320000Y-52180000D03*
X147320000Y-49980000D03*
D19*
X141820000Y-55880000D03*
D18*
X152400000Y-55880000D03*
D20*
X155420000Y-52180000D03*
X154220000Y-58420000D03*
X141720000Y-60960000D03*
D21*
X144520000Y-49980000D03*
D18*
X123770000Y-55880000D03*
D17*
X130810000Y-60960000D03*
X133270000Y-52180000D03*
X123270000Y-52180000D03*
D18*
X123190000Y-55880000D03*
X132770000Y-55880000D03*
D19*
X133770000Y-55880000D03*
D18*
X133350000Y-55880000D03*
D17*
X124460000Y-58420000D03*
X125730000Y-60960000D03*
X128270000Y-49980000D03*
D16*
X128270000Y-55880000D03*
D17*
X132080000Y-58420000D03*
D19*
X122770000Y-55880000D03*
D20*
X136370000Y-52180000D03*
X135170000Y-58420000D03*
X122670000Y-60960000D03*
D21*
X125470000Y-49980000D03*
D20*
X63460000Y-77590000D03*
D22*
X58460000Y-77590000D03*
X60960000Y-77590000D03*
D23*
X66560000Y-85090000D03*
X55360000Y-85090000D03*
D22*
X58460000Y-92090000D03*
X63460000Y-92090000D03*
D13*
X99695000Y-117091000D03*
D14*
X99695000Y-119126000D03*
D13*
X99695000Y-113541000D03*
D15*
X99695000Y-111506000D03*
D24*
X50295000Y-121031000D03*
D14*
X48260000Y-121031000D03*
D15*
X55880000Y-121031000D03*
D24*
X53845000Y-121031000D03*
D25*
X46355000Y-48223600D03*
X47625000Y-64770000D03*
X50165000Y-64770000D03*
X48895000Y-48223600D03*
X51435000Y-48223600D03*
X52705000Y-64770000D03*
X55245000Y-64770000D03*
X53975000Y-48223600D03*
X56515000Y-48223600D03*
X57785000Y-64770000D03*
X59055000Y-48223600D03*
X60325000Y-64770000D03*
X61595000Y-48223600D03*
X62865000Y-64770000D03*
X65405000Y-64770000D03*
X64135000Y-48223600D03*
X66675000Y-48223600D03*
X67945000Y-64770000D03*
X70485000Y-64770000D03*
X69215000Y-48223600D03*
X73025000Y-64770000D03*
X71755000Y-48223600D03*
X75565000Y-64770000D03*
X74295000Y-48223600D03*
X75565000Y-49530000D03*
X74295000Y-63443600D03*
X73025000Y-49530000D03*
X71755000Y-63443600D03*
X69215000Y-63443600D03*
X70485000Y-49530000D03*
X67945000Y-49530000D03*
X66675000Y-63443600D03*
X64135000Y-63443600D03*
X65405000Y-49530000D03*
X62865000Y-49530000D03*
X61595000Y-63443600D03*
X60325000Y-49530000D03*
X59055000Y-63443600D03*
X57785000Y-49530000D03*
X56515000Y-63443600D03*
X53975000Y-63443600D03*
X55245000Y-49530000D03*
X52705000Y-49530000D03*
X51435000Y-63443600D03*
X50165000Y-49530000D03*
X48895000Y-63443600D03*
X46355000Y-63443600D03*
X47625000Y-49530000D03*
D15*
X144272000Y-109855000D03*
X144272000Y-112395000D03*
X144272000Y-114935000D03*
X144272000Y-117475000D03*
D17*
X90170000Y-107130000D03*
X92710000Y-118110000D03*
X95170000Y-109330000D03*
X93980000Y-115570000D03*
X86360000Y-115570000D03*
D16*
X90170000Y-113030000D03*
D19*
X84670000Y-113030000D03*
D18*
X95250000Y-113030000D03*
D17*
X87630000Y-118110000D03*
D18*
X85670000Y-113030000D03*
X85090000Y-113030000D03*
X94670000Y-113030000D03*
D19*
X95670000Y-113030000D03*
D17*
X85170000Y-109330000D03*
D20*
X98270000Y-109330000D03*
X97070000Y-115570000D03*
D21*
X87370000Y-107130000D03*
D20*
X84570000Y-118110000D03*
D14*
X99695000Y-81026000D03*
D13*
X99695000Y-78991000D03*
X99695000Y-75441000D03*
D15*
X99695000Y-73406000D03*
D18*
X132770000Y-93980000D03*
D16*
X128270000Y-93980000D03*
D19*
X133770000Y-93980000D03*
D18*
X123770000Y-93980000D03*
D17*
X124460000Y-96520000D03*
D18*
X133350000Y-93980000D03*
D17*
X132080000Y-96520000D03*
X133270000Y-90280000D03*
X123270000Y-90280000D03*
D19*
X122770000Y-93980000D03*
D18*
X123190000Y-93980000D03*
D17*
X130810000Y-99060000D03*
X128270000Y-88080000D03*
X125730000Y-99060000D03*
D20*
X135170000Y-96520000D03*
X136370000Y-90280000D03*
D21*
X125470000Y-88080000D03*
D20*
X122670000Y-99060000D03*
D17*
X48260000Y-115570000D03*
D18*
X46990000Y-113030000D03*
D17*
X54610000Y-118110000D03*
X57070000Y-109330000D03*
X49530000Y-118110000D03*
X47070000Y-109330000D03*
X55880000Y-115570000D03*
D18*
X57150000Y-113030000D03*
D17*
X52070000Y-107130000D03*
D18*
X56570000Y-113030000D03*
X47570000Y-113030000D03*
D19*
X46570000Y-113030000D03*
X57570000Y-113030000D03*
D16*
X52070000Y-113030000D03*
D20*
X60170000Y-109330000D03*
X58970000Y-115570000D03*
D21*
X49270000Y-107130000D03*
D20*
X46470000Y-118110000D03*
D14*
X99695000Y-100076000D03*
D13*
X99695000Y-98041000D03*
X99695000Y-94491000D03*
D15*
X99695000Y-92456000D03*
D26*
X164669000Y-108315000D03*
D27*
X162889000Y-108315000D03*
X161109000Y-108315000D03*
X159329000Y-108315000D03*
X157549000Y-108315000D03*
X155769000Y-108315000D03*
X153989000Y-108315000D03*
X152209000Y-108315000D03*
X151319000Y-119015000D03*
X153099000Y-119015000D03*
X154879000Y-119015000D03*
X156659000Y-119015000D03*
X158439000Y-119015000D03*
X160219000Y-119015000D03*
X161999000Y-119015000D03*
X163779000Y-119015000D03*
D13*
X118745000Y-59941000D03*
D14*
X118745000Y-61976000D03*
D13*
X118745000Y-56391000D03*
D15*
X118745000Y-54356000D03*
D28*
X156845000Y-84455000D03*
D17*
X168910000Y-80010000D03*
D18*
X161870000Y-74930000D03*
D17*
X162560000Y-77470000D03*
X161370000Y-71230000D03*
D19*
X160870000Y-74930000D03*
X171870000Y-74930000D03*
D17*
X163830000Y-80010000D03*
X166370000Y-69030000D03*
D16*
X166370000Y-74930000D03*
D17*
X170180000Y-77470000D03*
X171370000Y-71230000D03*
D18*
X171450000Y-74930000D03*
X161290000Y-74930000D03*
X170870000Y-74930000D03*
D20*
X173270000Y-77470000D03*
X174470000Y-71230000D03*
D21*
X163570000Y-69030000D03*
D20*
X160770000Y-80010000D03*
D14*
X93980000Y-64008000D03*
D24*
X91945000Y-64008000D03*
D15*
X86360000Y-64008000D03*
D24*
X88395000Y-64008000D03*
D18*
X133350000Y-74930000D03*
D19*
X122770000Y-74930000D03*
D17*
X130810000Y-80010000D03*
X123270000Y-71230000D03*
D18*
X123770000Y-74930000D03*
D17*
X124460000Y-77470000D03*
D19*
X133770000Y-74930000D03*
D18*
X132770000Y-74930000D03*
D17*
X125730000Y-80010000D03*
X132080000Y-77470000D03*
X128270000Y-69030000D03*
D16*
X128270000Y-74930000D03*
D17*
X133270000Y-71230000D03*
D18*
X123190000Y-74930000D03*
D20*
X135170000Y-77470000D03*
X136370000Y-71230000D03*
D21*
X125470000Y-69030000D03*
D20*
X122670000Y-80010000D03*
D29*
X170269000Y-104140000D03*
X166112750Y-104140000D03*
X165519000Y-104140000D03*
X166706500Y-104140000D03*
X167894000Y-104140000D03*
X167300250Y-104140000D03*
X168487750Y-104140000D03*
X169675250Y-104140000D03*
X169081500Y-104140000D03*
D27*
X44122000Y-71106000D03*
X51122000Y-71106000D03*
X51122000Y-69356000D03*
X44122000Y-69356000D03*
D30*
X54422000Y-69006000D03*
X54422000Y-71456000D03*
X45922000Y-73206000D03*
X45922000Y-67256000D03*
X48922000Y-73206000D03*
X48922000Y-67256000D03*
X52922000Y-73206000D03*
X52922000Y-67256000D03*
D14*
X118745000Y-81026000D03*
D13*
X118745000Y-78991000D03*
D15*
X118745000Y-73406000D03*
D13*
X118745000Y-75441000D03*
D17*
X113030000Y-77470000D03*
X105410000Y-77470000D03*
D19*
X114720000Y-74930000D03*
D17*
X106680000Y-80010000D03*
D19*
X103720000Y-74930000D03*
D17*
X111760000Y-80010000D03*
D18*
X113720000Y-74930000D03*
X104720000Y-74930000D03*
X114300000Y-74930000D03*
D16*
X109220000Y-74930000D03*
D17*
X104220000Y-71230000D03*
X114220000Y-71230000D03*
D18*
X104140000Y-74930000D03*
D17*
X109220000Y-69030000D03*
D20*
X117320000Y-71230000D03*
X116120000Y-77470000D03*
D21*
X106420000Y-69030000D03*
D20*
X103620000Y-80010000D03*
D14*
X99695000Y-61976000D03*
D13*
X99695000Y-59941000D03*
D15*
X99695000Y-54356000D03*
D13*
X99695000Y-56391000D03*
D14*
X80645000Y-81026000D03*
D13*
X80645000Y-78991000D03*
D15*
X80645000Y-73406000D03*
D13*
X80645000Y-75441000D03*
D22*
X44831000Y-102056000D03*
X44831000Y-95556000D03*
D13*
X137795000Y-78991000D03*
D14*
X137795000Y-81026000D03*
D13*
X137795000Y-75441000D03*
D15*
X137795000Y-73406000D03*
D13*
X118745000Y-98041000D03*
D14*
X118745000Y-100076000D03*
D13*
X118745000Y-94491000D03*
D15*
X118745000Y-92456000D03*
D13*
X156845000Y-98041000D03*
D14*
X156845000Y-100076000D03*
D13*
X156845000Y-94491000D03*
D15*
X156845000Y-92456000D03*
D31*
X51010000Y-99485000D03*
X50570000Y-98425000D03*
X52070000Y-96925000D03*
X53130000Y-99485000D03*
X51010000Y-97365000D03*
D32*
X52070000Y-98425000D03*
D31*
X52070000Y-99925000D03*
X53570000Y-98425000D03*
X53130000Y-97365000D03*
D18*
X95250000Y-55880000D03*
D19*
X95670000Y-55880000D03*
D18*
X94670000Y-55880000D03*
X85090000Y-55880000D03*
D17*
X90170000Y-49980000D03*
D18*
X85670000Y-55880000D03*
D17*
X93980000Y-58420000D03*
X85170000Y-52180000D03*
D16*
X90170000Y-55880000D03*
D19*
X84670000Y-55880000D03*
D17*
X92710000Y-60960000D03*
X86360000Y-58420000D03*
X87630000Y-60960000D03*
X95170000Y-52180000D03*
D20*
X97070000Y-58420000D03*
X98270000Y-52180000D03*
X84570000Y-60960000D03*
D21*
X87370000Y-49980000D03*
D15*
X173736000Y-117348000D03*
X173736000Y-114808000D03*
X173736000Y-112268000D03*
X173736000Y-109728000D03*
D18*
X95250000Y-93980000D03*
D17*
X87630000Y-99060000D03*
X92710000Y-99060000D03*
X95170000Y-90280000D03*
X85170000Y-90280000D03*
X90170000Y-88080000D03*
D18*
X85670000Y-93980000D03*
X85090000Y-93980000D03*
D16*
X90170000Y-93980000D03*
D19*
X95670000Y-93980000D03*
D18*
X94670000Y-93980000D03*
D19*
X84670000Y-93980000D03*
D17*
X86360000Y-96520000D03*
X93980000Y-96520000D03*
D20*
X97070000Y-96520000D03*
X98270000Y-90280000D03*
X84570000Y-99060000D03*
D21*
X87370000Y-88080000D03*
D28*
X156845000Y-65405000D03*
D13*
X156845000Y-59941000D03*
D14*
X156845000Y-61976000D03*
D13*
X156845000Y-56391000D03*
D15*
X156845000Y-54356000D03*
D18*
X113720000Y-113030000D03*
D17*
X105410000Y-115570000D03*
D19*
X114720000Y-113030000D03*
D18*
X104140000Y-113030000D03*
D17*
X113030000Y-115570000D03*
X109220000Y-107130000D03*
X104220000Y-109330000D03*
D19*
X103720000Y-113030000D03*
D17*
X106680000Y-118110000D03*
X114220000Y-109330000D03*
D16*
X109220000Y-113030000D03*
D18*
X104720000Y-113030000D03*
X114300000Y-113030000D03*
D17*
X111760000Y-118110000D03*
D20*
X117320000Y-109330000D03*
X116120000Y-115570000D03*
X103620000Y-118110000D03*
D21*
X106420000Y-107130000D03*
D18*
X75620000Y-113030000D03*
D16*
X71120000Y-113030000D03*
D18*
X66040000Y-113030000D03*
D17*
X71120000Y-107130000D03*
X73660000Y-118110000D03*
X67310000Y-115570000D03*
D18*
X76200000Y-113030000D03*
D17*
X76120000Y-109330000D03*
X74930000Y-115570000D03*
X68580000Y-118110000D03*
D18*
X66620000Y-113030000D03*
D19*
X76620000Y-113030000D03*
D17*
X66120000Y-109330000D03*
D19*
X65620000Y-113030000D03*
D20*
X79220000Y-109330000D03*
X78020000Y-115570000D03*
X65520000Y-118110000D03*
D21*
X68320000Y-107130000D03*
D15*
X46228000Y-81280000D03*
X46228000Y-83820000D03*
X46228000Y-86360000D03*
X46228000Y-88900000D03*
D18*
X95250000Y-74930000D03*
X85090000Y-74930000D03*
X94670000Y-74930000D03*
D17*
X95170000Y-71230000D03*
D19*
X84670000Y-74930000D03*
D17*
X92710000Y-80010000D03*
X86360000Y-77470000D03*
X90170000Y-69030000D03*
D19*
X95670000Y-74930000D03*
D17*
X85170000Y-71230000D03*
D18*
X85670000Y-74930000D03*
D17*
X87630000Y-80010000D03*
X93980000Y-77470000D03*
D16*
X90170000Y-74930000D03*
D20*
X98270000Y-71230000D03*
X97070000Y-77470000D03*
D21*
X87370000Y-69030000D03*
D20*
X84570000Y-80010000D03*
D24*
X62735000Y-94742000D03*
D14*
X64770000Y-94742000D03*
D24*
X59185000Y-94742000D03*
D15*
X57150000Y-94742000D03*
D16*
X166370000Y-55880000D03*
D19*
X160870000Y-55880000D03*
D17*
X161370000Y-52180000D03*
D19*
X171870000Y-55880000D03*
D17*
X163830000Y-60960000D03*
X170180000Y-58420000D03*
D18*
X170870000Y-55880000D03*
D17*
X168910000Y-60960000D03*
X171370000Y-52180000D03*
X162560000Y-58420000D03*
D18*
X171450000Y-55880000D03*
D17*
X166370000Y-49980000D03*
D18*
X161870000Y-55880000D03*
X161290000Y-55880000D03*
D20*
X174470000Y-52180000D03*
X173270000Y-58420000D03*
D21*
X163570000Y-49980000D03*
D20*
X160770000Y-60960000D03*
D14*
X61595000Y-119126000D03*
D13*
X61595000Y-117091000D03*
X61595000Y-113541000D03*
D15*
X61595000Y-111506000D03*
D14*
X137795000Y-100076000D03*
D13*
X137795000Y-98041000D03*
D15*
X137795000Y-92456000D03*
D13*
X137795000Y-94491000D03*
D19*
X103720000Y-55880000D03*
D17*
X109220000Y-49980000D03*
D18*
X114300000Y-55880000D03*
X104140000Y-55880000D03*
D17*
X106680000Y-60960000D03*
X114220000Y-52180000D03*
X111760000Y-60960000D03*
D18*
X113720000Y-55880000D03*
D17*
X104220000Y-52180000D03*
D18*
X104720000Y-55880000D03*
D17*
X113030000Y-58420000D03*
D19*
X114720000Y-55880000D03*
D17*
X105410000Y-58420000D03*
D16*
X109220000Y-55880000D03*
D20*
X117320000Y-52180000D03*
X116120000Y-58420000D03*
X103620000Y-60960000D03*
D21*
X106420000Y-49980000D03*
D19*
X103720000Y-93980000D03*
D18*
X104720000Y-93980000D03*
D17*
X106680000Y-99060000D03*
X105410000Y-96520000D03*
D16*
X109220000Y-93980000D03*
D18*
X113720000Y-93980000D03*
D17*
X109220000Y-88080000D03*
D19*
X114720000Y-93980000D03*
D18*
X114300000Y-93980000D03*
D17*
X114220000Y-90280000D03*
X104220000Y-90280000D03*
X113030000Y-96520000D03*
D18*
X104140000Y-93980000D03*
D17*
X111760000Y-99060000D03*
D20*
X116120000Y-96520000D03*
X117320000Y-90280000D03*
D21*
X106420000Y-88080000D03*
D20*
X103620000Y-99060000D03*
D28*
X99695000Y-84455000D03*
D29*
X149520250Y-104140000D03*
X148926500Y-104140000D03*
X152489000Y-104140000D03*
X147739000Y-104140000D03*
X151301500Y-104140000D03*
X148332750Y-104140000D03*
X151895250Y-104140000D03*
X150707750Y-104140000D03*
X150114000Y-104140000D03*
D14*
X80645000Y-119126000D03*
D13*
X80645000Y-117091000D03*
D15*
X80645000Y-111506000D03*
D13*
X80645000Y-113541000D03*
D17*
X143510000Y-77470000D03*
D19*
X141820000Y-74930000D03*
D17*
X149860000Y-80010000D03*
D18*
X151820000Y-74930000D03*
D17*
X144780000Y-80010000D03*
D18*
X152400000Y-74930000D03*
D17*
X152320000Y-71230000D03*
D19*
X152820000Y-74930000D03*
D17*
X142320000Y-71230000D03*
X147320000Y-69030000D03*
D16*
X147320000Y-74930000D03*
D18*
X142240000Y-74930000D03*
D17*
X151130000Y-77470000D03*
D18*
X142820000Y-74930000D03*
D20*
X155420000Y-71230000D03*
X154220000Y-77470000D03*
D21*
X144520000Y-69030000D03*
D20*
X141720000Y-80010000D03*
D28*
X122555000Y-108585000D03*
D17*
X152320000Y-90280000D03*
D18*
X151820000Y-93980000D03*
D17*
X149860000Y-99060000D03*
D19*
X152820000Y-93980000D03*
D17*
X142320000Y-90280000D03*
D18*
X142240000Y-93980000D03*
D17*
X151130000Y-96520000D03*
D16*
X147320000Y-93980000D03*
D17*
X143510000Y-96520000D03*
D19*
X141820000Y-93980000D03*
D17*
X147320000Y-88080000D03*
X144780000Y-99060000D03*
D18*
X152400000Y-93980000D03*
X142820000Y-93980000D03*
D20*
X154220000Y-96520000D03*
X155420000Y-90280000D03*
D21*
X144520000Y-88080000D03*
D20*
X141720000Y-99060000D03*
D33*
X72024000Y-81153000D03*
D34*
X70724000Y-81153000D03*
D33*
X72024000Y-88900000D03*
D34*
X70724000Y-88900000D03*
D33*
X72024000Y-83820000D03*
D34*
X70724000Y-83820000D03*
D33*
X77485000Y-52705000D03*
D34*
X76185000Y-52705000D03*
D35*
X63474600Y-75061600D03*
D36*
X63474600Y-73761600D03*
D35*
X58470800Y-75072000D03*
D36*
X58470800Y-73772000D03*
D33*
X77485000Y-60325000D03*
D34*
X76185000Y-60325000D03*
D33*
X77485000Y-55245000D03*
D34*
X76185000Y-55245000D03*
D33*
X77485000Y-57785000D03*
D34*
X76185000Y-57785000D03*
D33*
X72024000Y-86360000D03*
D34*
X70724000Y-86360000D03*
M02*
