M48
; DRILL file {KiCad (6.0.10)} date Sun Mar  5 22:21:04 2023
; FORMAT={-:-/ absolute / metric / decimal}
; #@! TF.CreationDate,2023-03-05T22:21:04-08:00
; #@! TF.GenerationSoftware,Kicad,Pcbnew,(6.0.10)
; #@! TF.FileFunction,NonPlated,1,2,NPTH
FMAT,2
METRIC
; #@! TA.AperFunction,NonPlated,NPTH,ComponentDrill
T1C0.300
; #@! TA.AperFunction,NonPlated,NPTH,ComponentDrill
T2C1.200
; #@! TA.AperFunction,NonPlated,NPTH,ComponentDrill
T3C1.700
; #@! TA.AperFunction,NonPlated,NPTH,ComponentDrill
T4C1.900
; #@! TA.AperFunction,NonPlated,NPTH,ComponentDrill
T5C3.000
; #@! TA.AperFunction,NonPlated,NPTH,ComponentDrill
T6C4.100
; #@! TA.AperFunction,NonPlated,NPTH,ComponentDrill
T7C4.300
%
G90
G05
T1
X147.739Y-104.14
X148.333Y-104.14
X148.927Y-104.14
X149.52Y-104.14
X150.114Y-104.14
X150.708Y-104.14
X151.302Y-104.14
X151.895Y-104.14
X152.489Y-104.14
X165.519Y-104.14
X166.113Y-104.14
X166.707Y-104.14
X167.3Y-104.14
X167.894Y-104.14
X168.488Y-104.14
X169.082Y-104.14
X169.675Y-104.14
X170.269Y-104.14
T2
X44.122Y-69.356
X44.122Y-71.106
X51.122Y-69.356
X51.122Y-71.106
T3
X46.99Y-113.03
X47.57Y-113.03
X56.57Y-113.03
X57.15Y-113.03
X66.04Y-113.03
X66.62Y-113.03
X75.62Y-113.03
X76.2Y-113.03
X85.09Y-55.88
X85.09Y-74.93
X85.09Y-93.98
X85.09Y-113.03
X85.67Y-55.88
X85.67Y-74.93
X85.67Y-93.98
X85.67Y-113.03
X94.67Y-55.88
X94.67Y-74.93
X94.67Y-93.98
X94.67Y-113.03
X95.25Y-55.88
X95.25Y-74.93
X95.25Y-93.98
X95.25Y-113.03
X104.14Y-55.88
X104.14Y-74.93
X104.14Y-93.98
X104.14Y-113.03
X104.72Y-55.88
X104.72Y-74.93
X104.72Y-93.98
X104.72Y-113.03
X113.72Y-55.88
X113.72Y-74.93
X113.72Y-93.98
X113.72Y-113.03
X114.3Y-55.88
X114.3Y-74.93
X114.3Y-93.98
X114.3Y-113.03
X123.19Y-55.88
X123.19Y-74.93
X123.19Y-93.98
X123.77Y-55.88
X123.77Y-74.93
X123.77Y-93.98
X132.77Y-55.88
X132.77Y-74.93
X132.77Y-93.98
X133.35Y-55.88
X133.35Y-74.93
X133.35Y-93.98
X142.24Y-55.88
X142.24Y-74.93
X142.24Y-93.98
X142.82Y-55.88
X142.82Y-74.93
X142.82Y-93.98
X151.82Y-55.88
X151.82Y-74.93
X151.82Y-93.98
X152.4Y-55.88
X152.4Y-74.93
X152.4Y-93.98
X161.29Y-55.88
X161.29Y-74.93
X161.29Y-93.98
X161.87Y-55.88
X161.87Y-74.93
X161.87Y-93.98
X170.87Y-55.88
X170.87Y-74.93
X170.87Y-93.98
X171.45Y-55.88
X171.45Y-74.93
X171.45Y-93.98
T4
X46.57Y-113.03
X57.57Y-113.03
X65.62Y-113.03
X76.62Y-113.03
X84.67Y-55.88
X84.67Y-74.93
X84.67Y-93.98
X84.67Y-113.03
X95.67Y-55.88
X95.67Y-74.93
X95.67Y-93.98
X95.67Y-113.03
X103.72Y-55.88
X103.72Y-74.93
X103.72Y-93.98
X103.72Y-113.03
X114.72Y-55.88
X114.72Y-74.93
X114.72Y-93.98
X114.72Y-113.03
X122.77Y-55.88
X122.77Y-74.93
X122.77Y-93.98
X133.77Y-55.88
X133.77Y-74.93
X133.77Y-93.98
X141.82Y-55.88
X141.82Y-74.93
X141.82Y-93.98
X152.82Y-55.88
X152.82Y-74.93
X152.82Y-93.98
X160.87Y-55.88
X160.87Y-74.93
X160.87Y-93.98
X171.87Y-55.88
X171.87Y-74.93
X171.87Y-93.98
T5
X47.07Y-109.33
X48.26Y-115.57
X49.53Y-118.11
X52.07Y-107.13
X54.61Y-118.11
X55.88Y-115.57
X57.07Y-109.33
X66.12Y-109.33
X67.31Y-115.57
X68.58Y-118.11
X71.12Y-107.13
X73.66Y-118.11
X74.93Y-115.57
X76.12Y-109.33
X85.17Y-52.18
X85.17Y-71.23
X85.17Y-90.28
X85.17Y-109.33
X86.36Y-58.42
X86.36Y-77.47
X86.36Y-96.52
X86.36Y-115.57
X87.63Y-60.96
X87.63Y-80.01
X87.63Y-99.06
X87.63Y-118.11
X90.17Y-49.98
X90.17Y-69.03
X90.17Y-88.08
X90.17Y-107.13
X92.71Y-60.96
X92.71Y-80.01
X92.71Y-99.06
X92.71Y-118.11
X93.98Y-58.42
X93.98Y-77.47
X93.98Y-96.52
X93.98Y-115.57
X95.17Y-52.18
X95.17Y-71.23
X95.17Y-90.28
X95.17Y-109.33
X104.22Y-52.18
X104.22Y-71.23
X104.22Y-90.28
X104.22Y-109.33
X105.41Y-58.42
X105.41Y-77.47
X105.41Y-96.52
X105.41Y-115.57
X106.68Y-60.96
X106.68Y-80.01
X106.68Y-99.06
X106.68Y-118.11
X109.22Y-49.98
X109.22Y-69.03
X109.22Y-88.08
X109.22Y-107.13
X111.76Y-60.96
X111.76Y-80.01
X111.76Y-99.06
X111.76Y-118.11
X113.03Y-58.42
X113.03Y-77.47
X113.03Y-96.52
X113.03Y-115.57
X114.22Y-52.18
X114.22Y-71.23
X114.22Y-90.28
X114.22Y-109.33
X123.27Y-52.18
X123.27Y-71.23
X123.27Y-90.28
X124.46Y-58.42
X124.46Y-77.47
X124.46Y-96.52
X125.73Y-60.96
X125.73Y-80.01
X125.73Y-99.06
X128.27Y-49.98
X128.27Y-69.03
X128.27Y-88.08
X130.81Y-60.96
X130.81Y-80.01
X130.81Y-99.06
X132.08Y-58.42
X132.08Y-77.47
X132.08Y-96.52
X133.27Y-52.18
X133.27Y-71.23
X133.27Y-90.28
X142.32Y-52.18
X142.32Y-71.23
X142.32Y-90.28
X143.51Y-58.42
X143.51Y-77.47
X143.51Y-96.52
X144.78Y-60.96
X144.78Y-80.01
X144.78Y-99.06
X147.32Y-49.98
X147.32Y-69.03
X147.32Y-88.08
X149.86Y-60.96
X149.86Y-80.01
X149.86Y-99.06
X151.13Y-58.42
X151.13Y-77.47
X151.13Y-96.52
X152.32Y-52.18
X152.32Y-71.23
X152.32Y-90.28
X161.37Y-52.18
X161.37Y-71.23
X161.37Y-90.28
X162.56Y-58.42
X162.56Y-77.47
X162.56Y-96.52
X163.83Y-60.96
X163.83Y-80.01
X163.83Y-99.06
X166.37Y-49.98
X166.37Y-69.03
X166.37Y-88.08
X168.91Y-60.96
X168.91Y-80.01
X168.91Y-99.06
X170.18Y-58.42
X170.18Y-77.47
X170.18Y-96.52
X171.37Y-52.18
X171.37Y-71.23
X171.37Y-90.28
T6
X52.07Y-113.03
X71.12Y-113.03
X90.17Y-55.88
X90.17Y-74.93
X90.17Y-93.98
X90.17Y-113.03
X109.22Y-55.88
X109.22Y-74.93
X109.22Y-93.98
X109.22Y-113.03
X128.27Y-55.88
X128.27Y-74.93
X128.27Y-93.98
X147.32Y-55.88
X147.32Y-74.93
X147.32Y-93.98
X166.37Y-55.88
X166.37Y-74.93
X166.37Y-93.98
T7
X99.695Y-84.455
X122.555Y-108.585
X156.845Y-65.405
X156.845Y-84.455
T0
M30
