G04 #@! TF.GenerationSoftware,KiCad,Pcbnew,(6.0.10)*
G04 #@! TF.CreationDate,2023-03-05T22:21:07-08:00*
G04 #@! TF.ProjectId,tsbym,74736279-6d2e-46b6-9963-61645f706362,rev?*
G04 #@! TF.SameCoordinates,Original*
G04 #@! TF.FileFunction,Legend,Top*
G04 #@! TF.FilePolarity,Positive*
%FSLAX46Y46*%
G04 Gerber Fmt 4.6, Leading zero omitted, Abs format (unit mm)*
G04 Created by KiCad (PCBNEW (6.0.10)) date 2023-03-05 22:21:07*
%MOMM*%
%LPD*%
G01*
G04 APERTURE LIST*
G04 Aperture macros list*
%AMRoundRect*
0 Rectangle with rounded corners*
0 $1 Rounding radius*
0 $2 $3 $4 $5 $6 $7 $8 $9 X,Y pos of 4 corners*
0 Add a 4 corners polygon primitive as box body*
4,1,4,$2,$3,$4,$5,$6,$7,$8,$9,$2,$3,0*
0 Add four circle primitives for the rounded corners*
1,1,$1+$1,$2,$3*
1,1,$1+$1,$4,$5*
1,1,$1+$1,$6,$7*
1,1,$1+$1,$8,$9*
0 Add four rect primitives between the rounded corners*
20,1,$1+$1,$2,$3,$4,$5,0*
20,1,$1+$1,$4,$5,$6,$7,0*
20,1,$1+$1,$6,$7,$8,$9,0*
20,1,$1+$1,$8,$9,$2,$3,0*%
%AMFreePoly0*
4,1,22,0.500000,-0.750000,0.000000,-0.750000,0.000000,-0.745033,-0.079941,-0.743568,-0.215256,-0.701293,-0.333266,-0.622738,-0.424486,-0.514219,-0.481581,-0.384460,-0.499164,-0.250000,-0.500000,-0.250000,-0.500000,0.250000,-0.499164,0.250000,-0.499963,0.256109,-0.478152,0.396186,-0.417904,0.524511,-0.324060,0.630769,-0.204165,0.706417,-0.067858,0.745374,0.000000,0.744959,0.000000,0.750000,
0.500000,0.750000,0.500000,-0.750000,0.500000,-0.750000,$1*%
%AMFreePoly1*
4,1,20,0.000000,0.744959,0.073905,0.744508,0.209726,0.703889,0.328688,0.626782,0.421226,0.519385,0.479903,0.390333,0.500000,0.250000,0.500000,-0.250000,0.499851,-0.262216,0.476331,-0.402017,0.414519,-0.529596,0.319384,-0.634700,0.198574,-0.708877,0.061801,-0.746166,0.000000,-0.745033,0.000000,-0.750000,-0.500000,-0.750000,-0.500000,0.750000,0.000000,0.750000,0.000000,0.744959,
0.000000,0.744959,$1*%
G04 Aperture macros list end*
%ADD10C,0.150000*%
%ADD11C,0.125000*%
%ADD12C,0.120000*%
%ADD13R,1.397000X1.397000*%
%ADD14C,1.397000*%
%ADD15C,1.524000*%
%ADD16C,1.200000*%
%ADD17O,2.500000X1.700000*%
%ADD18C,2.000000*%
%ADD19RoundRect,0.155000X-0.212500X-0.155000X0.212500X-0.155000X0.212500X0.155000X-0.212500X0.155000X0*%
%ADD20R,0.950000X1.300000*%
%ADD21C,4.100000*%
%ADD22C,3.000000*%
%ADD23C,1.700000*%
%ADD24C,1.900000*%
%ADD25R,2.000000X2.000000*%
%ADD26R,1.800000X2.000000*%
%ADD27R,0.650000X0.400000*%
%ADD28FreePoly0,180.000000*%
%ADD29FreePoly1,180.000000*%
%ADD30R,2.000000X3.200000*%
%ADD31FreePoly0,90.000000*%
%ADD32FreePoly1,90.000000*%
%ADD33R,1.300000X0.950000*%
%ADD34RoundRect,0.150000X0.150000X-0.512500X0.150000X0.512500X-0.150000X0.512500X-0.150000X-0.512500X0*%
%ADD35R,1.200000X1.200000*%
%ADD36C,4.300000*%
%ADD37RoundRect,0.160000X-0.197500X-0.160000X0.197500X-0.160000X0.197500X0.160000X-0.197500X0.160000X0*%
%ADD38C,0.300000*%
%ADD39RoundRect,0.160000X0.197500X0.160000X-0.197500X0.160000X-0.197500X-0.160000X0.197500X-0.160000X0*%
%ADD40C,0.500000*%
%ADD41C,4.000000*%
%ADD42RoundRect,0.155000X0.212500X0.155000X-0.212500X0.155000X-0.212500X-0.155000X0.212500X-0.155000X0*%
G04 APERTURE END LIST*
D10*
X77960000Y-85090000D02*
G75*
G03*
X77960000Y-85090000I-17000000J0D01*
G01*
X56571095Y-56237142D02*
X56523476Y-56284761D01*
X56380619Y-56332380D01*
X56285380Y-56332380D01*
X56142523Y-56284761D01*
X56047285Y-56189523D01*
X55999666Y-56094285D01*
X55952047Y-55903809D01*
X55952047Y-55760952D01*
X55999666Y-55570476D01*
X56047285Y-55475238D01*
X56142523Y-55380000D01*
X56285380Y-55332380D01*
X56380619Y-55332380D01*
X56523476Y-55380000D01*
X56571095Y-55427619D01*
X57523476Y-55380000D02*
X57428238Y-55332380D01*
X57285380Y-55332380D01*
X57142523Y-55380000D01*
X57047285Y-55475238D01*
X56999666Y-55570476D01*
X56952047Y-55760952D01*
X56952047Y-55903809D01*
X56999666Y-56094285D01*
X57047285Y-56189523D01*
X57142523Y-56284761D01*
X57285380Y-56332380D01*
X57380619Y-56332380D01*
X57523476Y-56284761D01*
X57571095Y-56237142D01*
X57571095Y-55903809D01*
X57380619Y-55903809D01*
X57904428Y-56332380D02*
X58428238Y-55665714D01*
X57904428Y-55665714D02*
X58428238Y-56332380D01*
X58809190Y-56332380D02*
X58809190Y-55332380D01*
X59380619Y-56332380D02*
X58952047Y-55760952D01*
X59380619Y-55332380D02*
X58809190Y-55903809D01*
X60142523Y-55808571D02*
X60285380Y-55856190D01*
X60333000Y-55903809D01*
X60380619Y-55999047D01*
X60380619Y-56141904D01*
X60333000Y-56237142D01*
X60285380Y-56284761D01*
X60190142Y-56332380D01*
X59809190Y-56332380D01*
X59809190Y-55332380D01*
X60142523Y-55332380D01*
X60237761Y-55380000D01*
X60285380Y-55427619D01*
X60333000Y-55522857D01*
X60333000Y-55618095D01*
X60285380Y-55713333D01*
X60237761Y-55760952D01*
X60142523Y-55808571D01*
X59809190Y-55808571D01*
X61475857Y-55665714D02*
X61713952Y-56332380D01*
X61952047Y-55665714D01*
X62523476Y-55332380D02*
X62618714Y-55332380D01*
X62713952Y-55380000D01*
X62761571Y-55427619D01*
X62809190Y-55522857D01*
X62856809Y-55713333D01*
X62856809Y-55951428D01*
X62809190Y-56141904D01*
X62761571Y-56237142D01*
X62713952Y-56284761D01*
X62618714Y-56332380D01*
X62523476Y-56332380D01*
X62428238Y-56284761D01*
X62380619Y-56237142D01*
X62333000Y-56141904D01*
X62285380Y-55951428D01*
X62285380Y-55713333D01*
X62333000Y-55522857D01*
X62380619Y-55427619D01*
X62428238Y-55380000D01*
X62523476Y-55332380D01*
X63285380Y-56237142D02*
X63333000Y-56284761D01*
X63285380Y-56332380D01*
X63237761Y-56284761D01*
X63285380Y-56237142D01*
X63285380Y-56332380D01*
X64285380Y-56332380D02*
X63713952Y-56332380D01*
X63999666Y-56332380D02*
X63999666Y-55332380D01*
X63904428Y-55475238D01*
X63809190Y-55570476D01*
X63713952Y-55618095D01*
X64713952Y-56237142D02*
X64761571Y-56284761D01*
X64713952Y-56332380D01*
X64666333Y-56284761D01*
X64713952Y-56237142D01*
X64713952Y-56332380D01*
X65380619Y-55332380D02*
X65475857Y-55332380D01*
X65571095Y-55380000D01*
X65618714Y-55427619D01*
X65666333Y-55522857D01*
X65713952Y-55713333D01*
X65713952Y-55951428D01*
X65666333Y-56141904D01*
X65618714Y-56237142D01*
X65571095Y-56284761D01*
X65475857Y-56332380D01*
X65380619Y-56332380D01*
X65285380Y-56284761D01*
X65237761Y-56237142D01*
X65190142Y-56141904D01*
X65142523Y-55951428D01*
X65142523Y-55713333D01*
X65190142Y-55522857D01*
X65237761Y-55427619D01*
X65285380Y-55380000D01*
X65380619Y-55332380D01*
X73239380Y-89042380D02*
X73239380Y-88470952D01*
X74239380Y-88756666D02*
X73239380Y-88756666D01*
X74239380Y-87566190D02*
X73763190Y-87899523D01*
X74239380Y-88137619D02*
X73239380Y-88137619D01*
X73239380Y-87756666D01*
X73287000Y-87661428D01*
X73334619Y-87613809D01*
X73429857Y-87566190D01*
X73572714Y-87566190D01*
X73667952Y-87613809D01*
X73715571Y-87661428D01*
X73763190Y-87756666D01*
X73763190Y-88137619D01*
X73953666Y-87185238D02*
X73953666Y-86709047D01*
X74239380Y-87280476D02*
X73239380Y-86947142D01*
X74239380Y-86613809D01*
X74144142Y-85709047D02*
X74191761Y-85756666D01*
X74239380Y-85899523D01*
X74239380Y-85994761D01*
X74191761Y-86137619D01*
X74096523Y-86232857D01*
X74001285Y-86280476D01*
X73810809Y-86328095D01*
X73667952Y-86328095D01*
X73477476Y-86280476D01*
X73382238Y-86232857D01*
X73287000Y-86137619D01*
X73239380Y-85994761D01*
X73239380Y-85899523D01*
X73287000Y-85756666D01*
X73334619Y-85709047D01*
X74239380Y-85280476D02*
X73239380Y-85280476D01*
X74239380Y-84709047D02*
X73667952Y-85137619D01*
X73239380Y-84709047D02*
X73810809Y-85280476D01*
X73715571Y-83947142D02*
X73763190Y-83804285D01*
X73810809Y-83756666D01*
X73906047Y-83709047D01*
X74048904Y-83709047D01*
X74144142Y-83756666D01*
X74191761Y-83804285D01*
X74239380Y-83899523D01*
X74239380Y-84280476D01*
X73239380Y-84280476D01*
X73239380Y-83947142D01*
X73287000Y-83851904D01*
X73334619Y-83804285D01*
X73429857Y-83756666D01*
X73525095Y-83756666D01*
X73620333Y-83804285D01*
X73667952Y-83851904D01*
X73715571Y-83947142D01*
X73715571Y-84280476D01*
X73953666Y-83328095D02*
X73953666Y-82851904D01*
X74239380Y-83423333D02*
X73239380Y-83090000D01*
X74239380Y-82756666D01*
X74239380Y-81947142D02*
X74239380Y-82423333D01*
X73239380Y-82423333D01*
X74239380Y-81137619D02*
X74239380Y-81613809D01*
X73239380Y-81613809D01*
X59150476Y-72461380D02*
X59150476Y-71461380D01*
X59721904Y-72461380D02*
X59293333Y-71889952D01*
X59721904Y-71461380D02*
X59150476Y-72032809D01*
X60150476Y-72461380D02*
X60150476Y-71461380D01*
X60721904Y-72461380D01*
X60721904Y-71461380D01*
X61388571Y-71461380D02*
X61579047Y-71461380D01*
X61674285Y-71509000D01*
X61769523Y-71604238D01*
X61817142Y-71794714D01*
X61817142Y-72128047D01*
X61769523Y-72318523D01*
X61674285Y-72413761D01*
X61579047Y-72461380D01*
X61388571Y-72461380D01*
X61293333Y-72413761D01*
X61198095Y-72318523D01*
X61150476Y-72128047D01*
X61150476Y-71794714D01*
X61198095Y-71604238D01*
X61293333Y-71509000D01*
X61388571Y-71461380D01*
X62579047Y-71937571D02*
X62721904Y-71985190D01*
X62769523Y-72032809D01*
X62817142Y-72128047D01*
X62817142Y-72270904D01*
X62769523Y-72366142D01*
X62721904Y-72413761D01*
X62626666Y-72461380D01*
X62245714Y-72461380D01*
X62245714Y-71461380D01*
X62579047Y-71461380D01*
X62674285Y-71509000D01*
X62721904Y-71556619D01*
X62769523Y-71651857D01*
X62769523Y-71747095D01*
X62721904Y-71842333D01*
X62674285Y-71889952D01*
X62579047Y-71937571D01*
X62245714Y-71937571D01*
X154384952Y-106005380D02*
X154384952Y-106719666D01*
X154337333Y-106862523D01*
X154242095Y-106957761D01*
X154099238Y-107005380D01*
X154004000Y-107005380D01*
X155337333Y-107005380D02*
X154861142Y-107005380D01*
X154861142Y-106005380D01*
X156242095Y-106910142D02*
X156194476Y-106957761D01*
X156051619Y-107005380D01*
X155956380Y-107005380D01*
X155813523Y-106957761D01*
X155718285Y-106862523D01*
X155670666Y-106767285D01*
X155623047Y-106576809D01*
X155623047Y-106433952D01*
X155670666Y-106243476D01*
X155718285Y-106148238D01*
X155813523Y-106053000D01*
X155956380Y-106005380D01*
X156051619Y-106005380D01*
X156194476Y-106053000D01*
X156242095Y-106100619D01*
X156956380Y-106005380D02*
X156956380Y-106719666D01*
X156908761Y-106862523D01*
X156813523Y-106957761D01*
X156670666Y-107005380D01*
X156575428Y-107005380D01*
X157908761Y-107005380D02*
X157432571Y-107005380D01*
X157432571Y-106005380D01*
X158813523Y-106910142D02*
X158765904Y-106957761D01*
X158623047Y-107005380D01*
X158527809Y-107005380D01*
X158384952Y-106957761D01*
X158289714Y-106862523D01*
X158242095Y-106767285D01*
X158194476Y-106576809D01*
X158194476Y-106433952D01*
X158242095Y-106243476D01*
X158289714Y-106148238D01*
X158384952Y-106053000D01*
X158527809Y-106005380D01*
X158623047Y-106005380D01*
X158765904Y-106053000D01*
X158813523Y-106100619D01*
X159527809Y-106005380D02*
X159527809Y-106719666D01*
X159480190Y-106862523D01*
X159384952Y-106957761D01*
X159242095Y-107005380D01*
X159146857Y-107005380D01*
X160480190Y-107005380D02*
X160004000Y-107005380D01*
X160004000Y-106005380D01*
X161384952Y-106910142D02*
X161337333Y-106957761D01*
X161194476Y-107005380D01*
X161099238Y-107005380D01*
X160956380Y-106957761D01*
X160861142Y-106862523D01*
X160813523Y-106767285D01*
X160765904Y-106576809D01*
X160765904Y-106433952D01*
X160813523Y-106243476D01*
X160861142Y-106148238D01*
X160956380Y-106053000D01*
X161099238Y-106005380D01*
X161194476Y-106005380D01*
X161337333Y-106053000D01*
X161384952Y-106100619D01*
X162099238Y-106005380D02*
X162099238Y-106719666D01*
X162051619Y-106862523D01*
X161956380Y-106957761D01*
X161813523Y-107005380D01*
X161718285Y-107005380D01*
X163051619Y-107005380D02*
X162575428Y-107005380D01*
X162575428Y-106005380D01*
X163956380Y-106910142D02*
X163908761Y-106957761D01*
X163765904Y-107005380D01*
X163670666Y-107005380D01*
X163527809Y-106957761D01*
X163432571Y-106862523D01*
X163384952Y-106767285D01*
X163337333Y-106576809D01*
X163337333Y-106433952D01*
X163384952Y-106243476D01*
X163432571Y-106148238D01*
X163527809Y-106053000D01*
X163670666Y-106005380D01*
X163765904Y-106005380D01*
X163908761Y-106053000D01*
X163956380Y-106100619D01*
X149058333Y-117832142D02*
X149010714Y-117879761D01*
X148867857Y-117927380D01*
X148772619Y-117927380D01*
X148629761Y-117879761D01*
X148534523Y-117784523D01*
X148486904Y-117689285D01*
X148439285Y-117498809D01*
X148439285Y-117355952D01*
X148486904Y-117165476D01*
X148534523Y-117070238D01*
X148629761Y-116975000D01*
X148772619Y-116927380D01*
X148867857Y-116927380D01*
X149010714Y-116975000D01*
X149058333Y-117022619D01*
X149439285Y-117022619D02*
X149486904Y-116975000D01*
X149582142Y-116927380D01*
X149820238Y-116927380D01*
X149915476Y-116975000D01*
X149963095Y-117022619D01*
X150010714Y-117117857D01*
X150010714Y-117213095D01*
X149963095Y-117355952D01*
X149391666Y-117927380D01*
X150010714Y-117927380D01*
X80605380Y-57977380D02*
X80605380Y-57786904D01*
X80653000Y-57691666D01*
X80748238Y-57596428D01*
X80938714Y-57548809D01*
X81272047Y-57548809D01*
X81462523Y-57596428D01*
X81557761Y-57691666D01*
X81605380Y-57786904D01*
X81605380Y-57977380D01*
X81557761Y-58072619D01*
X81462523Y-58167857D01*
X81272047Y-58215476D01*
X80938714Y-58215476D01*
X80748238Y-58167857D01*
X80653000Y-58072619D01*
X80605380Y-57977380D01*
X81605380Y-56644047D02*
X81605380Y-57120238D01*
X80605380Y-57120238D01*
X81081571Y-56310714D02*
X81081571Y-55977380D01*
X81605380Y-55834523D02*
X81605380Y-56310714D01*
X80605380Y-56310714D01*
X80605380Y-55834523D01*
X81605380Y-55405952D02*
X80605380Y-55405952D01*
X80605380Y-55167857D01*
X80653000Y-55025000D01*
X80748238Y-54929761D01*
X80843476Y-54882142D01*
X81033952Y-54834523D01*
X81176809Y-54834523D01*
X81367285Y-54882142D01*
X81462523Y-54929761D01*
X81557761Y-55025000D01*
X81605380Y-55167857D01*
X81605380Y-55405952D01*
X76096761Y-79763809D02*
X76144380Y-79620952D01*
X76144380Y-79382857D01*
X76096761Y-79287619D01*
X76049142Y-79240000D01*
X75953904Y-79192380D01*
X75858666Y-79192380D01*
X75763428Y-79240000D01*
X75715809Y-79287619D01*
X75668190Y-79382857D01*
X75620571Y-79573333D01*
X75572952Y-79668571D01*
X75525333Y-79716190D01*
X75430095Y-79763809D01*
X75334857Y-79763809D01*
X75239619Y-79716190D01*
X75192000Y-79668571D01*
X75144380Y-79573333D01*
X75144380Y-79335238D01*
X75192000Y-79192380D01*
X76144380Y-78763809D02*
X75144380Y-78763809D01*
X75144380Y-78382857D01*
X75192000Y-78287619D01*
X75239619Y-78240000D01*
X75334857Y-78192380D01*
X75477714Y-78192380D01*
X75572952Y-78240000D01*
X75620571Y-78287619D01*
X75668190Y-78382857D01*
X75668190Y-78763809D01*
X76144380Y-77763809D02*
X75144380Y-77763809D01*
X167854380Y-112902904D02*
X168663904Y-112902904D01*
X168759142Y-112855285D01*
X168806761Y-112807666D01*
X168854380Y-112712428D01*
X168854380Y-112521952D01*
X168806761Y-112426714D01*
X168759142Y-112379095D01*
X168663904Y-112331476D01*
X167854380Y-112331476D01*
X167854380Y-111379095D02*
X167854380Y-111855285D01*
X168330571Y-111902904D01*
X168282952Y-111855285D01*
X168235333Y-111760047D01*
X168235333Y-111521952D01*
X168282952Y-111426714D01*
X168330571Y-111379095D01*
X168425809Y-111331476D01*
X168663904Y-111331476D01*
X168759142Y-111379095D01*
X168806761Y-111426714D01*
X168854380Y-111521952D01*
X168854380Y-111760047D01*
X168806761Y-111855285D01*
X168759142Y-111902904D01*
D11*
X53663500Y-50799952D02*
X53627785Y-50847571D01*
X53627785Y-50919000D01*
X53663500Y-50990428D01*
X53734928Y-51038047D01*
X53806357Y-51061857D01*
X53949214Y-51085666D01*
X54056357Y-51085666D01*
X54199214Y-51061857D01*
X54270642Y-51038047D01*
X54342071Y-50990428D01*
X54377785Y-50919000D01*
X54377785Y-50871380D01*
X54342071Y-50799952D01*
X54306357Y-50776142D01*
X54056357Y-50776142D01*
X54056357Y-50871380D01*
X54377785Y-50561857D02*
X53627785Y-50561857D01*
X54377785Y-50276142D01*
X53627785Y-50276142D01*
X54377785Y-50038047D02*
X53627785Y-50038047D01*
X53627785Y-49919000D01*
X53663500Y-49847571D01*
X53734928Y-49799952D01*
X53806357Y-49776142D01*
X53949214Y-49752333D01*
X54056357Y-49752333D01*
X54199214Y-49776142D01*
X54270642Y-49799952D01*
X54342071Y-49847571D01*
X54377785Y-49919000D01*
X54377785Y-50038047D01*
X64474285Y-51260952D02*
X64117142Y-51427619D01*
X64474285Y-51546666D02*
X63724285Y-51546666D01*
X63724285Y-51356190D01*
X63760000Y-51308571D01*
X63795714Y-51284761D01*
X63867142Y-51260952D01*
X63974285Y-51260952D01*
X64045714Y-51284761D01*
X64081428Y-51308571D01*
X64117142Y-51356190D01*
X64117142Y-51546666D01*
X63724285Y-50951428D02*
X63724285Y-50856190D01*
X63760000Y-50808571D01*
X63831428Y-50760952D01*
X63974285Y-50737142D01*
X64224285Y-50737142D01*
X64367142Y-50760952D01*
X64438571Y-50808571D01*
X64474285Y-50856190D01*
X64474285Y-50951428D01*
X64438571Y-50999047D01*
X64367142Y-51046666D01*
X64224285Y-51070476D01*
X63974285Y-51070476D01*
X63831428Y-51046666D01*
X63760000Y-50999047D01*
X63724285Y-50951428D01*
X63724285Y-50570476D02*
X64474285Y-50451428D01*
X63938571Y-50356190D01*
X64474285Y-50260952D01*
X63724285Y-50141904D01*
X64474285Y-49689523D02*
X64474285Y-49975238D01*
X64474285Y-49832380D02*
X63724285Y-49832380D01*
X63831428Y-49880000D01*
X63902857Y-49927619D01*
X63938571Y-49975238D01*
X59322857Y-61642119D02*
X59358571Y-61665928D01*
X59394285Y-61737357D01*
X59394285Y-61784976D01*
X59358571Y-61856404D01*
X59287142Y-61904023D01*
X59215714Y-61927833D01*
X59072857Y-61951642D01*
X58965714Y-61951642D01*
X58822857Y-61927833D01*
X58751428Y-61904023D01*
X58680000Y-61856404D01*
X58644285Y-61784976D01*
X58644285Y-61737357D01*
X58680000Y-61665928D01*
X58715714Y-61642119D01*
X58644285Y-61332595D02*
X58644285Y-61237357D01*
X58680000Y-61189738D01*
X58751428Y-61142119D01*
X58894285Y-61118309D01*
X59144285Y-61118309D01*
X59287142Y-61142119D01*
X59358571Y-61189738D01*
X59394285Y-61237357D01*
X59394285Y-61332595D01*
X59358571Y-61380214D01*
X59287142Y-61427833D01*
X59144285Y-61451642D01*
X58894285Y-61451642D01*
X58751428Y-61427833D01*
X58680000Y-61380214D01*
X58644285Y-61332595D01*
X59394285Y-60665928D02*
X59394285Y-60904023D01*
X58644285Y-60904023D01*
X59394285Y-60237357D02*
X59394285Y-60523071D01*
X59394285Y-60380214D02*
X58644285Y-60380214D01*
X58751428Y-60427833D01*
X58822857Y-60475452D01*
X58858571Y-60523071D01*
X56818571Y-51026142D02*
X56854285Y-50954714D01*
X56854285Y-50835666D01*
X56818571Y-50788047D01*
X56782857Y-50764238D01*
X56711428Y-50740428D01*
X56640000Y-50740428D01*
X56568571Y-50764238D01*
X56532857Y-50788047D01*
X56497142Y-50835666D01*
X56461428Y-50930904D01*
X56425714Y-50978523D01*
X56390000Y-51002333D01*
X56318571Y-51026142D01*
X56247142Y-51026142D01*
X56175714Y-51002333D01*
X56140000Y-50978523D01*
X56104285Y-50930904D01*
X56104285Y-50811857D01*
X56140000Y-50740428D01*
X56854285Y-50526142D02*
X56104285Y-50526142D01*
X56104285Y-50407095D01*
X56140000Y-50335666D01*
X56211428Y-50288047D01*
X56282857Y-50264238D01*
X56425714Y-50240428D01*
X56532857Y-50240428D01*
X56675714Y-50264238D01*
X56747142Y-50288047D01*
X56818571Y-50335666D01*
X56854285Y-50407095D01*
X56854285Y-50526142D01*
X56640000Y-50049952D02*
X56640000Y-49811857D01*
X56854285Y-50097571D02*
X56104285Y-49930904D01*
X56854285Y-49764238D01*
X69546357Y-61742119D02*
X69582071Y-61765928D01*
X69617785Y-61837357D01*
X69617785Y-61884976D01*
X69582071Y-61956404D01*
X69510642Y-62004023D01*
X69439214Y-62027833D01*
X69296357Y-62051642D01*
X69189214Y-62051642D01*
X69046357Y-62027833D01*
X68974928Y-62004023D01*
X68903500Y-61956404D01*
X68867785Y-61884976D01*
X68867785Y-61837357D01*
X68903500Y-61765928D01*
X68939214Y-61742119D01*
X68867785Y-61432595D02*
X68867785Y-61337357D01*
X68903500Y-61289738D01*
X68974928Y-61242119D01*
X69117785Y-61218309D01*
X69367785Y-61218309D01*
X69510642Y-61242119D01*
X69582071Y-61289738D01*
X69617785Y-61337357D01*
X69617785Y-61432595D01*
X69582071Y-61480214D01*
X69510642Y-61527833D01*
X69367785Y-61551642D01*
X69117785Y-61551642D01*
X68974928Y-61527833D01*
X68903500Y-61480214D01*
X68867785Y-61432595D01*
X69617785Y-60765928D02*
X69617785Y-61004023D01*
X68867785Y-61004023D01*
X68867785Y-60361166D02*
X68867785Y-60599261D01*
X69224928Y-60623071D01*
X69189214Y-60599261D01*
X69153500Y-60551642D01*
X69153500Y-60432595D01*
X69189214Y-60384976D01*
X69224928Y-60361166D01*
X69296357Y-60337357D01*
X69474928Y-60337357D01*
X69546357Y-60361166D01*
X69582071Y-60384976D01*
X69617785Y-60432595D01*
X69617785Y-60551642D01*
X69582071Y-60599261D01*
X69546357Y-60623071D01*
X71701428Y-50882380D02*
X71737142Y-50810952D01*
X71772857Y-50787142D01*
X71844285Y-50763333D01*
X71951428Y-50763333D01*
X72022857Y-50787142D01*
X72058571Y-50810952D01*
X72094285Y-50858571D01*
X72094285Y-51049047D01*
X71344285Y-51049047D01*
X71344285Y-50882380D01*
X71380000Y-50834761D01*
X71415714Y-50810952D01*
X71487142Y-50787142D01*
X71558571Y-50787142D01*
X71630000Y-50810952D01*
X71665714Y-50834761D01*
X71701428Y-50882380D01*
X71701428Y-51049047D01*
X71594285Y-50334761D02*
X72094285Y-50334761D01*
X71308571Y-50453809D02*
X71844285Y-50572857D01*
X71844285Y-50263333D01*
X46694285Y-50701428D02*
X46694285Y-50939523D01*
X45944285Y-50939523D01*
X46301428Y-50534761D02*
X46301428Y-50368095D01*
X46694285Y-50296666D02*
X46694285Y-50534761D01*
X45944285Y-50534761D01*
X45944285Y-50296666D01*
X46694285Y-50082380D02*
X45944285Y-50082380D01*
X45944285Y-49963333D01*
X45980000Y-49891904D01*
X46051428Y-49844285D01*
X46122857Y-49820476D01*
X46265714Y-49796666D01*
X46372857Y-49796666D01*
X46515714Y-49820476D01*
X46587142Y-49844285D01*
X46658571Y-49891904D01*
X46694285Y-49963333D01*
X46694285Y-50082380D01*
X49222285Y-51280000D02*
X48472285Y-51280000D01*
X48472285Y-51160952D01*
X48508000Y-51089523D01*
X48579428Y-51041904D01*
X48650857Y-51018095D01*
X48793714Y-50994285D01*
X48900857Y-50994285D01*
X49043714Y-51018095D01*
X49115142Y-51041904D01*
X49186571Y-51089523D01*
X49222285Y-51160952D01*
X49222285Y-51280000D01*
X49008000Y-50803809D02*
X49008000Y-50565714D01*
X49222285Y-50851428D02*
X48472285Y-50684761D01*
X49222285Y-50518095D01*
X48472285Y-50422857D02*
X48472285Y-50137142D01*
X49222285Y-50280000D02*
X48472285Y-50280000D01*
X49008000Y-49994285D02*
X49008000Y-49756190D01*
X49222285Y-50041904D02*
X48472285Y-49875238D01*
X49222285Y-49708571D01*
D10*
D11*
X64450857Y-61792119D02*
X64486571Y-61815928D01*
X64522285Y-61887357D01*
X64522285Y-61934976D01*
X64486571Y-62006404D01*
X64415142Y-62054023D01*
X64343714Y-62077833D01*
X64200857Y-62101642D01*
X64093714Y-62101642D01*
X63950857Y-62077833D01*
X63879428Y-62054023D01*
X63808000Y-62006404D01*
X63772285Y-61934976D01*
X63772285Y-61887357D01*
X63808000Y-61815928D01*
X63843714Y-61792119D01*
X63772285Y-61482595D02*
X63772285Y-61387357D01*
X63808000Y-61339738D01*
X63879428Y-61292119D01*
X64022285Y-61268309D01*
X64272285Y-61268309D01*
X64415142Y-61292119D01*
X64486571Y-61339738D01*
X64522285Y-61387357D01*
X64522285Y-61482595D01*
X64486571Y-61530214D01*
X64415142Y-61577833D01*
X64272285Y-61601642D01*
X64022285Y-61601642D01*
X63879428Y-61577833D01*
X63808000Y-61530214D01*
X63772285Y-61482595D01*
X64522285Y-60815928D02*
X64522285Y-61054023D01*
X63772285Y-61054023D01*
X63772285Y-60696880D02*
X63772285Y-60387357D01*
X64058000Y-60554023D01*
X64058000Y-60482595D01*
X64093714Y-60434976D01*
X64129428Y-60411166D01*
X64200857Y-60387357D01*
X64379428Y-60387357D01*
X64450857Y-60411166D01*
X64486571Y-60434976D01*
X64522285Y-60482595D01*
X64522285Y-60625452D01*
X64486571Y-60673071D01*
X64450857Y-60696880D01*
X67022285Y-51310952D02*
X66665142Y-51477619D01*
X67022285Y-51596666D02*
X66272285Y-51596666D01*
X66272285Y-51406190D01*
X66308000Y-51358571D01*
X66343714Y-51334761D01*
X66415142Y-51310952D01*
X66522285Y-51310952D01*
X66593714Y-51334761D01*
X66629428Y-51358571D01*
X66665142Y-51406190D01*
X66665142Y-51596666D01*
X66272285Y-51001428D02*
X66272285Y-50906190D01*
X66308000Y-50858571D01*
X66379428Y-50810952D01*
X66522285Y-50787142D01*
X66772285Y-50787142D01*
X66915142Y-50810952D01*
X66986571Y-50858571D01*
X67022285Y-50906190D01*
X67022285Y-51001428D01*
X66986571Y-51049047D01*
X66915142Y-51096666D01*
X66772285Y-51120476D01*
X66522285Y-51120476D01*
X66379428Y-51096666D01*
X66308000Y-51049047D01*
X66272285Y-51001428D01*
X66272285Y-50620476D02*
X67022285Y-50501428D01*
X66486571Y-50406190D01*
X67022285Y-50310952D01*
X66272285Y-50191904D01*
X66343714Y-50025238D02*
X66308000Y-50001428D01*
X66272285Y-49953809D01*
X66272285Y-49834761D01*
X66308000Y-49787142D01*
X66343714Y-49763333D01*
X66415142Y-49739523D01*
X66486571Y-49739523D01*
X66593714Y-49763333D01*
X67022285Y-50049047D01*
X67022285Y-49739523D01*
X69617785Y-51310952D02*
X69260642Y-51477619D01*
X69617785Y-51596666D02*
X68867785Y-51596666D01*
X68867785Y-51406190D01*
X68903500Y-51358571D01*
X68939214Y-51334761D01*
X69010642Y-51310952D01*
X69117785Y-51310952D01*
X69189214Y-51334761D01*
X69224928Y-51358571D01*
X69260642Y-51406190D01*
X69260642Y-51596666D01*
X68867785Y-51001428D02*
X68867785Y-50906190D01*
X68903500Y-50858571D01*
X68974928Y-50810952D01*
X69117785Y-50787142D01*
X69367785Y-50787142D01*
X69510642Y-50810952D01*
X69582071Y-50858571D01*
X69617785Y-50906190D01*
X69617785Y-51001428D01*
X69582071Y-51049047D01*
X69510642Y-51096666D01*
X69367785Y-51120476D01*
X69117785Y-51120476D01*
X68974928Y-51096666D01*
X68903500Y-51049047D01*
X68867785Y-51001428D01*
X68867785Y-50620476D02*
X69617785Y-50501428D01*
X69082071Y-50406190D01*
X69617785Y-50310952D01*
X68867785Y-50191904D01*
X68867785Y-50049047D02*
X68867785Y-49739523D01*
X69153500Y-49906190D01*
X69153500Y-49834761D01*
X69189214Y-49787142D01*
X69224928Y-49763333D01*
X69296357Y-49739523D01*
X69474928Y-49739523D01*
X69546357Y-49763333D01*
X69582071Y-49787142D01*
X69617785Y-49834761D01*
X69617785Y-49977619D01*
X69582071Y-50025238D01*
X69546357Y-50049047D01*
X48520000Y-61340952D02*
X48484285Y-61388571D01*
X48484285Y-61460000D01*
X48520000Y-61531428D01*
X48591428Y-61579047D01*
X48662857Y-61602857D01*
X48805714Y-61626666D01*
X48912857Y-61626666D01*
X49055714Y-61602857D01*
X49127142Y-61579047D01*
X49198571Y-61531428D01*
X49234285Y-61460000D01*
X49234285Y-61412380D01*
X49198571Y-61340952D01*
X49162857Y-61317142D01*
X48912857Y-61317142D01*
X48912857Y-61412380D01*
X49234285Y-61102857D02*
X48484285Y-61102857D01*
X49234285Y-60817142D01*
X48484285Y-60817142D01*
X49234285Y-60579047D02*
X48484285Y-60579047D01*
X48484285Y-60460000D01*
X48520000Y-60388571D01*
X48591428Y-60340952D01*
X48662857Y-60317142D01*
X48805714Y-60293333D01*
X48912857Y-60293333D01*
X49055714Y-60317142D01*
X49127142Y-60340952D01*
X49198571Y-60388571D01*
X49234285Y-60460000D01*
X49234285Y-60579047D01*
X74304928Y-50882380D02*
X74340642Y-50810952D01*
X74376357Y-50787142D01*
X74447785Y-50763333D01*
X74554928Y-50763333D01*
X74626357Y-50787142D01*
X74662071Y-50810952D01*
X74697785Y-50858571D01*
X74697785Y-51049047D01*
X73947785Y-51049047D01*
X73947785Y-50882380D01*
X73983500Y-50834761D01*
X74019214Y-50810952D01*
X74090642Y-50787142D01*
X74162071Y-50787142D01*
X74233500Y-50810952D01*
X74269214Y-50834761D01*
X74304928Y-50882380D01*
X74304928Y-51049047D01*
X73947785Y-50310952D02*
X73947785Y-50549047D01*
X74304928Y-50572857D01*
X74269214Y-50549047D01*
X74233500Y-50501428D01*
X74233500Y-50382380D01*
X74269214Y-50334761D01*
X74304928Y-50310952D01*
X74376357Y-50287142D01*
X74554928Y-50287142D01*
X74626357Y-50310952D01*
X74662071Y-50334761D01*
X74697785Y-50382380D01*
X74697785Y-50501428D01*
X74662071Y-50549047D01*
X74626357Y-50572857D01*
X61972285Y-51310952D02*
X61615142Y-51477619D01*
X61972285Y-51596666D02*
X61222285Y-51596666D01*
X61222285Y-51406190D01*
X61258000Y-51358571D01*
X61293714Y-51334761D01*
X61365142Y-51310952D01*
X61472285Y-51310952D01*
X61543714Y-51334761D01*
X61579428Y-51358571D01*
X61615142Y-51406190D01*
X61615142Y-51596666D01*
X61222285Y-51001428D02*
X61222285Y-50906190D01*
X61258000Y-50858571D01*
X61329428Y-50810952D01*
X61472285Y-50787142D01*
X61722285Y-50787142D01*
X61865142Y-50810952D01*
X61936571Y-50858571D01*
X61972285Y-50906190D01*
X61972285Y-51001428D01*
X61936571Y-51049047D01*
X61865142Y-51096666D01*
X61722285Y-51120476D01*
X61472285Y-51120476D01*
X61329428Y-51096666D01*
X61258000Y-51049047D01*
X61222285Y-51001428D01*
X61222285Y-50620476D02*
X61972285Y-50501428D01*
X61436571Y-50406190D01*
X61972285Y-50310952D01*
X61222285Y-50191904D01*
X61222285Y-49906190D02*
X61222285Y-49858571D01*
X61258000Y-49810952D01*
X61293714Y-49787142D01*
X61365142Y-49763333D01*
X61508000Y-49739523D01*
X61686571Y-49739523D01*
X61829428Y-49763333D01*
X61900857Y-49787142D01*
X61936571Y-49810952D01*
X61972285Y-49858571D01*
X61972285Y-49906190D01*
X61936571Y-49953809D01*
X61900857Y-49977619D01*
X61829428Y-50001428D01*
X61686571Y-50025238D01*
X61508000Y-50025238D01*
X61365142Y-50001428D01*
X61293714Y-49977619D01*
X61258000Y-49953809D01*
X61222285Y-49906190D01*
X56800857Y-61692119D02*
X56836571Y-61715928D01*
X56872285Y-61787357D01*
X56872285Y-61834976D01*
X56836571Y-61906404D01*
X56765142Y-61954023D01*
X56693714Y-61977833D01*
X56550857Y-62001642D01*
X56443714Y-62001642D01*
X56300857Y-61977833D01*
X56229428Y-61954023D01*
X56158000Y-61906404D01*
X56122285Y-61834976D01*
X56122285Y-61787357D01*
X56158000Y-61715928D01*
X56193714Y-61692119D01*
X56122285Y-61382595D02*
X56122285Y-61287357D01*
X56158000Y-61239738D01*
X56229428Y-61192119D01*
X56372285Y-61168309D01*
X56622285Y-61168309D01*
X56765142Y-61192119D01*
X56836571Y-61239738D01*
X56872285Y-61287357D01*
X56872285Y-61382595D01*
X56836571Y-61430214D01*
X56765142Y-61477833D01*
X56622285Y-61501642D01*
X56372285Y-61501642D01*
X56229428Y-61477833D01*
X56158000Y-61430214D01*
X56122285Y-61382595D01*
X56872285Y-60715928D02*
X56872285Y-60954023D01*
X56122285Y-60954023D01*
X56122285Y-60454023D02*
X56122285Y-60406404D01*
X56158000Y-60358785D01*
X56193714Y-60334976D01*
X56265142Y-60311166D01*
X56408000Y-60287357D01*
X56586571Y-60287357D01*
X56729428Y-60311166D01*
X56800857Y-60334976D01*
X56836571Y-60358785D01*
X56872285Y-60406404D01*
X56872285Y-60454023D01*
X56836571Y-60501642D01*
X56800857Y-60525452D01*
X56729428Y-60549261D01*
X56586571Y-60573071D01*
X56408000Y-60573071D01*
X56265142Y-60549261D01*
X56193714Y-60525452D01*
X56158000Y-60501642D01*
X56122285Y-60454023D01*
X74279428Y-61496880D02*
X74315142Y-61425452D01*
X74350857Y-61401642D01*
X74422285Y-61377833D01*
X74529428Y-61377833D01*
X74600857Y-61401642D01*
X74636571Y-61425452D01*
X74672285Y-61473071D01*
X74672285Y-61663547D01*
X73922285Y-61663547D01*
X73922285Y-61496880D01*
X73958000Y-61449261D01*
X73993714Y-61425452D01*
X74065142Y-61401642D01*
X74136571Y-61401642D01*
X74208000Y-61425452D01*
X74243714Y-61449261D01*
X74279428Y-61496880D01*
X74279428Y-61663547D01*
X73922285Y-60949261D02*
X73922285Y-61044500D01*
X73958000Y-61092119D01*
X73993714Y-61115928D01*
X74100857Y-61163547D01*
X74243714Y-61187357D01*
X74529428Y-61187357D01*
X74600857Y-61163547D01*
X74636571Y-61139738D01*
X74672285Y-61092119D01*
X74672285Y-60996880D01*
X74636571Y-60949261D01*
X74600857Y-60925452D01*
X74529428Y-60901642D01*
X74350857Y-60901642D01*
X74279428Y-60925452D01*
X74243714Y-60949261D01*
X74208000Y-60996880D01*
X74208000Y-61092119D01*
X74243714Y-61139738D01*
X74279428Y-61163547D01*
X74350857Y-61187357D01*
X53564285Y-61626666D02*
X54314285Y-61460000D01*
X53564285Y-61293333D01*
X54242857Y-60840952D02*
X54278571Y-60864761D01*
X54314285Y-60936190D01*
X54314285Y-60983809D01*
X54278571Y-61055238D01*
X54207142Y-61102857D01*
X54135714Y-61126666D01*
X53992857Y-61150476D01*
X53885714Y-61150476D01*
X53742857Y-61126666D01*
X53671428Y-61102857D01*
X53600000Y-61055238D01*
X53564285Y-60983809D01*
X53564285Y-60936190D01*
X53600000Y-60864761D01*
X53635714Y-60840952D01*
X54242857Y-60340952D02*
X54278571Y-60364761D01*
X54314285Y-60436190D01*
X54314285Y-60483809D01*
X54278571Y-60555238D01*
X54207142Y-60602857D01*
X54135714Y-60626666D01*
X53992857Y-60650476D01*
X53885714Y-60650476D01*
X53742857Y-60626666D01*
X53671428Y-60602857D01*
X53600000Y-60555238D01*
X53564285Y-60483809D01*
X53564285Y-60436190D01*
X53600000Y-60364761D01*
X53635714Y-60340952D01*
X46694285Y-61305238D02*
X46337142Y-61471904D01*
X46694285Y-61590952D02*
X45944285Y-61590952D01*
X45944285Y-61400476D01*
X45980000Y-61352857D01*
X46015714Y-61329047D01*
X46087142Y-61305238D01*
X46194285Y-61305238D01*
X46265714Y-61329047D01*
X46301428Y-61352857D01*
X46337142Y-61400476D01*
X46337142Y-61590952D01*
X46480000Y-61114761D02*
X46480000Y-60876666D01*
X46694285Y-61162380D02*
X45944285Y-60995714D01*
X46694285Y-60829047D01*
X45944285Y-60710000D02*
X46694285Y-60590952D01*
X46158571Y-60495714D01*
X46694285Y-60400476D01*
X45944285Y-60281428D01*
X66950857Y-61742119D02*
X66986571Y-61765928D01*
X67022285Y-61837357D01*
X67022285Y-61884976D01*
X66986571Y-61956404D01*
X66915142Y-62004023D01*
X66843714Y-62027833D01*
X66700857Y-62051642D01*
X66593714Y-62051642D01*
X66450857Y-62027833D01*
X66379428Y-62004023D01*
X66308000Y-61956404D01*
X66272285Y-61884976D01*
X66272285Y-61837357D01*
X66308000Y-61765928D01*
X66343714Y-61742119D01*
X66272285Y-61432595D02*
X66272285Y-61337357D01*
X66308000Y-61289738D01*
X66379428Y-61242119D01*
X66522285Y-61218309D01*
X66772285Y-61218309D01*
X66915142Y-61242119D01*
X66986571Y-61289738D01*
X67022285Y-61337357D01*
X67022285Y-61432595D01*
X66986571Y-61480214D01*
X66915142Y-61527833D01*
X66772285Y-61551642D01*
X66522285Y-61551642D01*
X66379428Y-61527833D01*
X66308000Y-61480214D01*
X66272285Y-61432595D01*
X67022285Y-60765928D02*
X67022285Y-61004023D01*
X66272285Y-61004023D01*
X66522285Y-60384976D02*
X67022285Y-60384976D01*
X66236571Y-60504023D02*
X66772285Y-60623071D01*
X66772285Y-60313547D01*
X51123500Y-50736452D02*
X51087785Y-50784071D01*
X51087785Y-50855500D01*
X51123500Y-50926928D01*
X51194928Y-50974547D01*
X51266357Y-50998357D01*
X51409214Y-51022166D01*
X51516357Y-51022166D01*
X51659214Y-50998357D01*
X51730642Y-50974547D01*
X51802071Y-50926928D01*
X51837785Y-50855500D01*
X51837785Y-50807880D01*
X51802071Y-50736452D01*
X51766357Y-50712642D01*
X51516357Y-50712642D01*
X51516357Y-50807880D01*
X51837785Y-50498357D02*
X51087785Y-50498357D01*
X51837785Y-50212642D01*
X51087785Y-50212642D01*
X51837785Y-49974547D02*
X51087785Y-49974547D01*
X51087785Y-49855500D01*
X51123500Y-49784071D01*
X51194928Y-49736452D01*
X51266357Y-49712642D01*
X51409214Y-49688833D01*
X51516357Y-49688833D01*
X51659214Y-49712642D01*
X51730642Y-49736452D01*
X51802071Y-49784071D01*
X51837785Y-49855500D01*
X51837785Y-49974547D01*
X71729428Y-61396880D02*
X71765142Y-61325452D01*
X71800857Y-61301642D01*
X71872285Y-61277833D01*
X71979428Y-61277833D01*
X72050857Y-61301642D01*
X72086571Y-61325452D01*
X72122285Y-61373071D01*
X72122285Y-61563547D01*
X71372285Y-61563547D01*
X71372285Y-61396880D01*
X71408000Y-61349261D01*
X71443714Y-61325452D01*
X71515142Y-61301642D01*
X71586571Y-61301642D01*
X71658000Y-61325452D01*
X71693714Y-61349261D01*
X71729428Y-61396880D01*
X71729428Y-61563547D01*
X71443714Y-61087357D02*
X71408000Y-61063547D01*
X71372285Y-61015928D01*
X71372285Y-60896880D01*
X71408000Y-60849261D01*
X71443714Y-60825452D01*
X71515142Y-60801642D01*
X71586571Y-60801642D01*
X71693714Y-60825452D01*
X72122285Y-61111166D01*
X72122285Y-60801642D01*
X59358571Y-51014238D02*
X59394285Y-50942809D01*
X59394285Y-50823761D01*
X59358571Y-50776142D01*
X59322857Y-50752333D01*
X59251428Y-50728523D01*
X59180000Y-50728523D01*
X59108571Y-50752333D01*
X59072857Y-50776142D01*
X59037142Y-50823761D01*
X59001428Y-50919000D01*
X58965714Y-50966619D01*
X58930000Y-50990428D01*
X58858571Y-51014238D01*
X58787142Y-51014238D01*
X58715714Y-50990428D01*
X58680000Y-50966619D01*
X58644285Y-50919000D01*
X58644285Y-50799952D01*
X58680000Y-50728523D01*
X59322857Y-50228523D02*
X59358571Y-50252333D01*
X59394285Y-50323761D01*
X59394285Y-50371380D01*
X59358571Y-50442809D01*
X59287142Y-50490428D01*
X59215714Y-50514238D01*
X59072857Y-50538047D01*
X58965714Y-50538047D01*
X58822857Y-50514238D01*
X58751428Y-50490428D01*
X58680000Y-50442809D01*
X58644285Y-50371380D01*
X58644285Y-50323761D01*
X58680000Y-50252333D01*
X58715714Y-50228523D01*
X59394285Y-49776142D02*
X59394285Y-50014238D01*
X58644285Y-50014238D01*
X61862857Y-61692119D02*
X61898571Y-61715928D01*
X61934285Y-61787357D01*
X61934285Y-61834976D01*
X61898571Y-61906404D01*
X61827142Y-61954023D01*
X61755714Y-61977833D01*
X61612857Y-62001642D01*
X61505714Y-62001642D01*
X61362857Y-61977833D01*
X61291428Y-61954023D01*
X61220000Y-61906404D01*
X61184285Y-61834976D01*
X61184285Y-61787357D01*
X61220000Y-61715928D01*
X61255714Y-61692119D01*
X61184285Y-61382595D02*
X61184285Y-61287357D01*
X61220000Y-61239738D01*
X61291428Y-61192119D01*
X61434285Y-61168309D01*
X61684285Y-61168309D01*
X61827142Y-61192119D01*
X61898571Y-61239738D01*
X61934285Y-61287357D01*
X61934285Y-61382595D01*
X61898571Y-61430214D01*
X61827142Y-61477833D01*
X61684285Y-61501642D01*
X61434285Y-61501642D01*
X61291428Y-61477833D01*
X61220000Y-61430214D01*
X61184285Y-61382595D01*
X61934285Y-60715928D02*
X61934285Y-60954023D01*
X61184285Y-60954023D01*
X61255714Y-60573071D02*
X61220000Y-60549261D01*
X61184285Y-60501642D01*
X61184285Y-60382595D01*
X61220000Y-60334976D01*
X61255714Y-60311166D01*
X61327142Y-60287357D01*
X61398571Y-60287357D01*
X61505714Y-60311166D01*
X61934285Y-60596880D01*
X61934285Y-60287357D01*
X51837785Y-61233809D02*
X51480642Y-61400476D01*
X51837785Y-61519523D02*
X51087785Y-61519523D01*
X51087785Y-61329047D01*
X51123500Y-61281428D01*
X51159214Y-61257619D01*
X51230642Y-61233809D01*
X51337785Y-61233809D01*
X51409214Y-61257619D01*
X51444928Y-61281428D01*
X51480642Y-61329047D01*
X51480642Y-61519523D01*
X51802071Y-61043333D02*
X51837785Y-60971904D01*
X51837785Y-60852857D01*
X51802071Y-60805238D01*
X51766357Y-60781428D01*
X51694928Y-60757619D01*
X51623500Y-60757619D01*
X51552071Y-60781428D01*
X51516357Y-60805238D01*
X51480642Y-60852857D01*
X51444928Y-60948095D01*
X51409214Y-60995714D01*
X51373500Y-61019523D01*
X51302071Y-61043333D01*
X51230642Y-61043333D01*
X51159214Y-61019523D01*
X51123500Y-60995714D01*
X51087785Y-60948095D01*
X51087785Y-60829047D01*
X51123500Y-60757619D01*
X51087785Y-60614761D02*
X51087785Y-60329047D01*
X51837785Y-60471904D02*
X51087785Y-60471904D01*
D10*
X142978476Y-120213380D02*
X142978476Y-119213380D01*
X143359428Y-119213380D01*
X143454666Y-119261000D01*
X143502285Y-119308619D01*
X143549904Y-119403857D01*
X143549904Y-119546714D01*
X143502285Y-119641952D01*
X143454666Y-119689571D01*
X143359428Y-119737190D01*
X142978476Y-119737190D01*
X144168952Y-119213380D02*
X144359428Y-119213380D01*
X144454666Y-119261000D01*
X144549904Y-119356238D01*
X144597523Y-119546714D01*
X144597523Y-119880047D01*
X144549904Y-120070523D01*
X144454666Y-120165761D01*
X144359428Y-120213380D01*
X144168952Y-120213380D01*
X144073714Y-120165761D01*
X143978476Y-120070523D01*
X143930857Y-119880047D01*
X143930857Y-119546714D01*
X143978476Y-119356238D01*
X144073714Y-119261000D01*
X144168952Y-119213380D01*
X144930857Y-119213380D02*
X145168952Y-120213380D01*
X145359428Y-119499095D01*
X145549904Y-120213380D01*
X145788000Y-119213380D01*
X146168952Y-119689571D02*
X146502285Y-119689571D01*
X146645142Y-120213380D02*
X146168952Y-120213380D01*
X146168952Y-119213380D01*
X146645142Y-119213380D01*
X147645142Y-120213380D02*
X147311809Y-119737190D01*
X147073714Y-120213380D02*
X147073714Y-119213380D01*
X147454666Y-119213380D01*
X147549904Y-119261000D01*
X147597523Y-119308619D01*
X147645142Y-119403857D01*
X147645142Y-119546714D01*
X147597523Y-119641952D01*
X147549904Y-119689571D01*
X147454666Y-119737190D01*
X147073714Y-119737190D01*
X149058380Y-114426904D02*
X149867904Y-114426904D01*
X149963142Y-114379285D01*
X150010761Y-114331666D01*
X150058380Y-114236428D01*
X150058380Y-114045952D01*
X150010761Y-113950714D01*
X149963142Y-113903095D01*
X149867904Y-113855476D01*
X149058380Y-113855476D01*
X149058380Y-113474523D02*
X149058380Y-112807857D01*
X150058380Y-113236428D01*
X149058333Y-111355142D02*
X149010714Y-111402761D01*
X148867857Y-111450380D01*
X148772619Y-111450380D01*
X148629761Y-111402761D01*
X148534523Y-111307523D01*
X148486904Y-111212285D01*
X148439285Y-111021809D01*
X148439285Y-110878952D01*
X148486904Y-110688476D01*
X148534523Y-110593238D01*
X148629761Y-110498000D01*
X148772619Y-110450380D01*
X148867857Y-110450380D01*
X149010714Y-110498000D01*
X149058333Y-110545619D01*
X149391666Y-110450380D02*
X150010714Y-110450380D01*
X149677380Y-110831333D01*
X149820238Y-110831333D01*
X149915476Y-110878952D01*
X149963095Y-110926571D01*
X150010714Y-111021809D01*
X150010714Y-111259904D01*
X149963095Y-111355142D01*
X149915476Y-111402761D01*
X149820238Y-111450380D01*
X149534523Y-111450380D01*
X149439285Y-111402761D01*
X149391666Y-111355142D01*
X167854380Y-115823904D02*
X168663904Y-115823904D01*
X168759142Y-115776285D01*
X168806761Y-115728666D01*
X168854380Y-115633428D01*
X168854380Y-115442952D01*
X168806761Y-115347714D01*
X168759142Y-115300095D01*
X168663904Y-115252476D01*
X167854380Y-115252476D01*
X168187714Y-114347714D02*
X168854380Y-114347714D01*
X167806761Y-114585809D02*
X168521047Y-114823904D01*
X168521047Y-114204857D01*
X149058333Y-116689142D02*
X149010714Y-116736761D01*
X148867857Y-116784380D01*
X148772619Y-116784380D01*
X148629761Y-116736761D01*
X148534523Y-116641523D01*
X148486904Y-116546285D01*
X148439285Y-116355809D01*
X148439285Y-116212952D01*
X148486904Y-116022476D01*
X148534523Y-115927238D01*
X148629761Y-115832000D01*
X148772619Y-115784380D01*
X148867857Y-115784380D01*
X149010714Y-115832000D01*
X149058333Y-115879619D01*
X150010714Y-116784380D02*
X149439285Y-116784380D01*
X149725000Y-116784380D02*
X149725000Y-115784380D01*
X149629761Y-115927238D01*
X149534523Y-116022476D01*
X149439285Y-116070095D01*
X149058333Y-110180380D02*
X148725000Y-109704190D01*
X148486904Y-110180380D02*
X148486904Y-109180380D01*
X148867857Y-109180380D01*
X148963095Y-109228000D01*
X149010714Y-109275619D01*
X149058333Y-109370857D01*
X149058333Y-109513714D01*
X149010714Y-109608952D01*
X148963095Y-109656571D01*
X148867857Y-109704190D01*
X148486904Y-109704190D01*
X150010714Y-110180380D02*
X149439285Y-110180380D01*
X149725000Y-110180380D02*
X149725000Y-109180380D01*
X149629761Y-109323238D01*
X149534523Y-109418476D01*
X149439285Y-109466095D01*
X48524380Y-71867904D02*
X48524380Y-71296476D01*
X49524380Y-71582190D02*
X48524380Y-71582190D01*
X49524380Y-70391714D02*
X49048190Y-70725047D01*
X49524380Y-70963142D02*
X48524380Y-70963142D01*
X48524380Y-70582190D01*
X48572000Y-70486952D01*
X48619619Y-70439333D01*
X48714857Y-70391714D01*
X48857714Y-70391714D01*
X48952952Y-70439333D01*
X49000571Y-70486952D01*
X49048190Y-70582190D01*
X49048190Y-70963142D01*
X49524380Y-69391714D02*
X49048190Y-69725047D01*
X49524380Y-69963142D02*
X48524380Y-69963142D01*
X48524380Y-69582190D01*
X48572000Y-69486952D01*
X48619619Y-69439333D01*
X48714857Y-69391714D01*
X48857714Y-69391714D01*
X48952952Y-69439333D01*
X49000571Y-69486952D01*
X49048190Y-69582190D01*
X49048190Y-69963142D01*
X49476761Y-69010761D02*
X49524380Y-68867904D01*
X49524380Y-68629809D01*
X49476761Y-68534571D01*
X49429142Y-68486952D01*
X49333904Y-68439333D01*
X49238666Y-68439333D01*
X49143428Y-68486952D01*
X49095809Y-68534571D01*
X49048190Y-68629809D01*
X49000571Y-68820285D01*
X48952952Y-68915523D01*
X48905333Y-68963142D01*
X48810095Y-69010761D01*
X48714857Y-69010761D01*
X48619619Y-68963142D01*
X48572000Y-68915523D01*
X48524380Y-68820285D01*
X48524380Y-68582190D01*
X48572000Y-68439333D01*
X149058333Y-106751380D02*
X148725000Y-106275190D01*
X148486904Y-106751380D02*
X148486904Y-105751380D01*
X148867857Y-105751380D01*
X148963095Y-105799000D01*
X149010714Y-105846619D01*
X149058333Y-105941857D01*
X149058333Y-106084714D01*
X149010714Y-106179952D01*
X148963095Y-106227571D01*
X148867857Y-106275190D01*
X148486904Y-106275190D01*
X149439285Y-105846619D02*
X149486904Y-105799000D01*
X149582142Y-105751380D01*
X149820238Y-105751380D01*
X149915476Y-105799000D01*
X149963095Y-105846619D01*
X150010714Y-105941857D01*
X150010714Y-106037095D01*
X149963095Y-106179952D01*
X149391666Y-106751380D01*
X150010714Y-106751380D01*
X45283380Y-99353619D02*
X44807190Y-99686952D01*
X45283380Y-99925047D02*
X44283380Y-99925047D01*
X44283380Y-99544095D01*
X44331000Y-99448857D01*
X44378619Y-99401238D01*
X44473857Y-99353619D01*
X44616714Y-99353619D01*
X44711952Y-99401238D01*
X44759571Y-99448857D01*
X44807190Y-99544095D01*
X44807190Y-99925047D01*
X45235761Y-98972666D02*
X45283380Y-98829809D01*
X45283380Y-98591714D01*
X45235761Y-98496476D01*
X45188142Y-98448857D01*
X45092904Y-98401238D01*
X44997666Y-98401238D01*
X44902428Y-98448857D01*
X44854809Y-98496476D01*
X44807190Y-98591714D01*
X44759571Y-98782190D01*
X44711952Y-98877428D01*
X44664333Y-98925047D01*
X44569095Y-98972666D01*
X44473857Y-98972666D01*
X44378619Y-98925047D01*
X44331000Y-98877428D01*
X44283380Y-98782190D01*
X44283380Y-98544095D01*
X44331000Y-98401238D01*
X44283380Y-98115523D02*
X44283380Y-97544095D01*
X45283380Y-97829809D02*
X44283380Y-97829809D01*
X174140761Y-108211809D02*
X174188380Y-108068952D01*
X174188380Y-107830857D01*
X174140761Y-107735619D01*
X174093142Y-107688000D01*
X173997904Y-107640380D01*
X173902666Y-107640380D01*
X173807428Y-107688000D01*
X173759809Y-107735619D01*
X173712190Y-107830857D01*
X173664571Y-108021333D01*
X173616952Y-108116571D01*
X173569333Y-108164190D01*
X173474095Y-108211809D01*
X173378857Y-108211809D01*
X173283619Y-108164190D01*
X173236000Y-108116571D01*
X173188380Y-108021333D01*
X173188380Y-107783238D01*
X173236000Y-107640380D01*
X174188380Y-107211809D02*
X173188380Y-107211809D01*
X173188380Y-106830857D01*
X173236000Y-106735619D01*
X173283619Y-106688000D01*
X173378857Y-106640380D01*
X173521714Y-106640380D01*
X173616952Y-106688000D01*
X173664571Y-106735619D01*
X173712190Y-106830857D01*
X173712190Y-107211809D01*
X174188380Y-106211809D02*
X173188380Y-106211809D01*
X48780380Y-87389523D02*
X47780380Y-87389523D01*
X47780380Y-87008571D01*
X47828000Y-86913333D01*
X47875619Y-86865714D01*
X47970857Y-86818095D01*
X48113714Y-86818095D01*
X48208952Y-86865714D01*
X48256571Y-86913333D01*
X48304190Y-87008571D01*
X48304190Y-87389523D01*
X47780380Y-86199047D02*
X47780380Y-86008571D01*
X47828000Y-85913333D01*
X47923238Y-85818095D01*
X48113714Y-85770476D01*
X48447047Y-85770476D01*
X48637523Y-85818095D01*
X48732761Y-85913333D01*
X48780380Y-86008571D01*
X48780380Y-86199047D01*
X48732761Y-86294285D01*
X48637523Y-86389523D01*
X48447047Y-86437142D01*
X48113714Y-86437142D01*
X47923238Y-86389523D01*
X47828000Y-86294285D01*
X47780380Y-86199047D01*
X47780380Y-85437142D02*
X48780380Y-85199047D01*
X48066095Y-85008571D01*
X48780380Y-84818095D01*
X47780380Y-84580000D01*
X48256571Y-84199047D02*
X48256571Y-83865714D01*
X48780380Y-83722857D02*
X48780380Y-84199047D01*
X47780380Y-84199047D01*
X47780380Y-83722857D01*
X48780380Y-82722857D02*
X48304190Y-83056190D01*
X48780380Y-83294285D02*
X47780380Y-83294285D01*
X47780380Y-82913333D01*
X47828000Y-82818095D01*
X47875619Y-82770476D01*
X47970857Y-82722857D01*
X48113714Y-82722857D01*
X48208952Y-82770476D01*
X48256571Y-82818095D01*
X48304190Y-82913333D01*
X48304190Y-83294285D01*
X149058333Y-107799142D02*
X149010714Y-107846761D01*
X148867857Y-107894380D01*
X148772619Y-107894380D01*
X148629761Y-107846761D01*
X148534523Y-107751523D01*
X148486904Y-107656285D01*
X148439285Y-107465809D01*
X148439285Y-107322952D01*
X148486904Y-107132476D01*
X148534523Y-107037238D01*
X148629761Y-106942000D01*
X148772619Y-106894380D01*
X148867857Y-106894380D01*
X149010714Y-106942000D01*
X149058333Y-106989619D01*
X149915476Y-107227714D02*
X149915476Y-107894380D01*
X149677380Y-106846761D02*
X149439285Y-107561047D01*
X150058333Y-107561047D01*
X167854380Y-109981904D02*
X168663904Y-109981904D01*
X168759142Y-109934285D01*
X168806761Y-109886666D01*
X168854380Y-109791428D01*
X168854380Y-109600952D01*
X168806761Y-109505714D01*
X168759142Y-109458095D01*
X168663904Y-109410476D01*
X167854380Y-109410476D01*
X167854380Y-109029523D02*
X167854380Y-108410476D01*
X168235333Y-108743809D01*
X168235333Y-108600952D01*
X168282952Y-108505714D01*
X168330571Y-108458095D01*
X168425809Y-108410476D01*
X168663904Y-108410476D01*
X168759142Y-108458095D01*
X168806761Y-108505714D01*
X168854380Y-108600952D01*
X168854380Y-108886666D01*
X168806761Y-108981904D01*
X168759142Y-109029523D01*
X167854380Y-118744904D02*
X168663904Y-118744904D01*
X168759142Y-118697285D01*
X168806761Y-118649666D01*
X168854380Y-118554428D01*
X168854380Y-118363952D01*
X168806761Y-118268714D01*
X168759142Y-118221095D01*
X168663904Y-118173476D01*
X167854380Y-118173476D01*
X167854380Y-117268714D02*
X167854380Y-117459190D01*
X167902000Y-117554428D01*
X167949619Y-117602047D01*
X168092476Y-117697285D01*
X168282952Y-117744904D01*
X168663904Y-117744904D01*
X168759142Y-117697285D01*
X168806761Y-117649666D01*
X168854380Y-117554428D01*
X168854380Y-117363952D01*
X168806761Y-117268714D01*
X168759142Y-117221095D01*
X168663904Y-117173476D01*
X168425809Y-117173476D01*
X168330571Y-117221095D01*
X168282952Y-117268714D01*
X168235333Y-117363952D01*
X168235333Y-117554428D01*
X168282952Y-117649666D01*
X168330571Y-117697285D01*
X168425809Y-117744904D01*
D12*
X147077165Y-117708000D02*
X147308835Y-117708000D01*
X147077165Y-116988000D02*
X147308835Y-116988000D01*
D10*
X138545000Y-60866000D02*
X138545000Y-55466000D01*
X137295000Y-57666000D02*
X138295000Y-57666000D01*
X137295000Y-58666000D02*
X138295000Y-58666000D01*
X137795000Y-58566000D02*
X137295000Y-57666000D01*
X137045000Y-60866000D02*
X138545000Y-60866000D01*
X138295000Y-57666000D02*
X137795000Y-58566000D01*
X137045000Y-55466000D02*
X137045000Y-60866000D01*
X138545000Y-55466000D02*
X137045000Y-55466000D01*
X81395000Y-93566000D02*
X79895000Y-93566000D01*
X79895000Y-93566000D02*
X79895000Y-98966000D01*
X81145000Y-95766000D02*
X80645000Y-96666000D01*
X80645000Y-96666000D02*
X80145000Y-95766000D01*
X81395000Y-98966000D02*
X81395000Y-93566000D01*
X79895000Y-98966000D02*
X81395000Y-98966000D01*
X80145000Y-95766000D02*
X81145000Y-95766000D01*
X80145000Y-96766000D02*
X81145000Y-96766000D01*
X77724000Y-51435000D02*
X80264000Y-51435000D01*
X77724000Y-61595000D02*
X77724000Y-51435000D01*
X80264000Y-61595000D02*
X77724000Y-61595000D01*
X80264000Y-61595000D02*
X80264000Y-51435000D01*
X156095000Y-74516000D02*
X156095000Y-79916000D01*
X156345000Y-77716000D02*
X157345000Y-77716000D01*
X156345000Y-76716000D02*
X157345000Y-76716000D01*
X156845000Y-77616000D02*
X156345000Y-76716000D01*
X157595000Y-79916000D02*
X157595000Y-74516000D01*
X157345000Y-76716000D02*
X156845000Y-77616000D01*
X157595000Y-74516000D02*
X156095000Y-74516000D01*
X156095000Y-79916000D02*
X157595000Y-79916000D01*
X74422000Y-90170000D02*
X74422000Y-80010000D01*
X76962000Y-90170000D02*
X74422000Y-90170000D01*
X76962000Y-90170000D02*
X76962000Y-80010000D01*
X74422000Y-80010000D02*
X76962000Y-80010000D01*
X171170000Y-100784000D02*
X162545000Y-100784000D01*
X160270000Y-94876000D02*
X163880000Y-94876000D01*
X171170000Y-96830000D02*
X166120000Y-96784000D01*
X171170000Y-96876000D02*
X171170000Y-100784000D01*
X168645000Y-90405000D02*
X166095000Y-90405000D01*
X160270000Y-98830000D02*
X160270000Y-94885000D01*
X168645000Y-85755000D02*
X164095000Y-85755000D01*
X162870000Y-87955000D02*
X159095000Y-87955000D01*
X168670000Y-90380000D02*
X168670000Y-85780000D01*
X163795000Y-92605000D02*
X159095000Y-92605000D01*
X164090000Y-86480000D02*
X164090000Y-85780000D01*
X159095000Y-92580000D02*
X159070000Y-87980000D01*
X160281000Y-98900000D02*
G75*
G03*
X162545000Y-100784000I2074000J190000D01*
G01*
X162870000Y-87950000D02*
G75*
G03*
X164090000Y-86530000I-100000J1320000D01*
G01*
X163885000Y-94900000D02*
G75*
G03*
X166145000Y-96780000I2070000J190000D01*
G01*
X166170000Y-90410000D02*
G75*
G03*
X163800000Y-92580000I-100000J-2270000D01*
G01*
X149595000Y-52305000D02*
X147045000Y-52305000D01*
X141220000Y-56776000D02*
X144830000Y-56776000D01*
X149595000Y-47655000D02*
X145045000Y-47655000D01*
X140045000Y-54480000D02*
X140020000Y-49880000D01*
X144745000Y-54505000D02*
X140045000Y-54505000D01*
X145040000Y-48380000D02*
X145040000Y-47680000D01*
X152120000Y-58776000D02*
X152120000Y-62684000D01*
X141220000Y-60730000D02*
X141220000Y-56785000D01*
X149620000Y-52280000D02*
X149620000Y-47680000D01*
X152120000Y-58730000D02*
X147070000Y-58684000D01*
X143820000Y-49855000D02*
X140045000Y-49855000D01*
X152120000Y-62684000D02*
X143495000Y-62684000D01*
X147120000Y-52310000D02*
G75*
G03*
X144750000Y-54480000I-100000J-2270000D01*
G01*
X143820000Y-49850000D02*
G75*
G03*
X145040000Y-48430000I-100000J1320000D01*
G01*
X141231000Y-60800000D02*
G75*
G03*
X143495000Y-62684000I2074000J190000D01*
G01*
X144835000Y-56800000D02*
G75*
G03*
X147095000Y-58680000I2070000J190000D01*
G01*
D12*
X169861000Y-113301000D02*
X171761000Y-113301000D01*
X171261000Y-110981000D02*
X169861000Y-110981000D01*
D10*
X133070000Y-58730000D02*
X128020000Y-58684000D01*
X120995000Y-54480000D02*
X120970000Y-49880000D01*
X130545000Y-47655000D02*
X125995000Y-47655000D01*
X122170000Y-56776000D02*
X125780000Y-56776000D01*
X130545000Y-52305000D02*
X127995000Y-52305000D01*
X130570000Y-52280000D02*
X130570000Y-47680000D01*
X125695000Y-54505000D02*
X120995000Y-54505000D01*
X125990000Y-48380000D02*
X125990000Y-47680000D01*
X133070000Y-62684000D02*
X124445000Y-62684000D01*
X133070000Y-58776000D02*
X133070000Y-62684000D01*
X124770000Y-49855000D02*
X120995000Y-49855000D01*
X122170000Y-60730000D02*
X122170000Y-56785000D01*
X122181000Y-60800000D02*
G75*
G03*
X124445000Y-62684000I2074000J190000D01*
G01*
X124770000Y-49850000D02*
G75*
G03*
X125990000Y-48430000I-100000J1320000D01*
G01*
X125785000Y-56800000D02*
G75*
G03*
X128045000Y-58680000I2070000J190000D01*
G01*
X128070000Y-52310000D02*
G75*
G03*
X125700000Y-54480000I-100000J-2270000D01*
G01*
D12*
X77535000Y-58785000D02*
X76135000Y-58785000D01*
X76135000Y-56785000D02*
X77535000Y-56785000D01*
X78235000Y-57485000D02*
X78235000Y-58085000D01*
X75435000Y-58085000D02*
X75435000Y-57485000D01*
X77535000Y-58785000D02*
G75*
G03*
X78235000Y-58085000I0J700000D01*
G01*
X78235000Y-57485000D02*
G75*
G03*
X77535000Y-56785000I-700000J0D01*
G01*
X75435000Y-58085000D02*
G75*
G03*
X76135000Y-58785000I700000J0D01*
G01*
X76135000Y-56785000D02*
G75*
G03*
X75435000Y-57485000I0J-700000D01*
G01*
X70674000Y-85360000D02*
X72074000Y-85360000D01*
X69974000Y-86660000D02*
X69974000Y-86060000D01*
X72774000Y-86060000D02*
X72774000Y-86660000D01*
X72074000Y-87360000D02*
X70674000Y-87360000D01*
X69974000Y-86660000D02*
G75*
G03*
X70674000Y-87360000I700000J0D01*
G01*
X72774000Y-86060000D02*
G75*
G03*
X72074000Y-85360000I-700000J0D01*
G01*
X72074000Y-87360000D02*
G75*
G03*
X72774000Y-86660000I0J700000D01*
G01*
X70674000Y-85360000D02*
G75*
G03*
X69974000Y-86060000I0J-700000D01*
G01*
X57460000Y-91190000D02*
X55060000Y-91190000D01*
X55060000Y-91190000D02*
X55060000Y-87090000D01*
X66860000Y-83090000D02*
X66860000Y-78990000D01*
X65060000Y-77290000D02*
X65060000Y-77890000D01*
X66860000Y-91190000D02*
X64460000Y-91190000D01*
X61460000Y-85090000D02*
X60460000Y-85090000D01*
X64760000Y-77590000D02*
X65060000Y-77290000D01*
X62260000Y-91190000D02*
X59660000Y-91190000D01*
X65060000Y-77890000D02*
X64760000Y-77590000D01*
X55060000Y-83090000D02*
X55060000Y-78990000D01*
X60960000Y-84590000D02*
X60960000Y-85590000D01*
X66860000Y-87090000D02*
X66860000Y-91190000D01*
X66860000Y-78990000D02*
X55060000Y-78990000D01*
X63960000Y-85090000D02*
G75*
G03*
X63960000Y-85090000I-3000000J0D01*
G01*
D10*
X99195000Y-115816000D02*
X100195000Y-115816000D01*
X100445000Y-118016000D02*
X100445000Y-112616000D01*
X100195000Y-114816000D02*
X99695000Y-115716000D01*
X98945000Y-118016000D02*
X100445000Y-118016000D01*
X99195000Y-114816000D02*
X100195000Y-114816000D01*
X99695000Y-115716000D02*
X99195000Y-114816000D01*
X100445000Y-112616000D02*
X98945000Y-112616000D01*
X98945000Y-112616000D02*
X98945000Y-118016000D01*
D12*
X57470800Y-75122000D02*
X57470800Y-73722000D01*
X58770800Y-75822000D02*
X58170800Y-75822000D01*
X59470800Y-73722000D02*
X59470800Y-75122000D01*
X58170800Y-73022000D02*
X58770800Y-73022000D01*
X57470800Y-75122000D02*
G75*
G03*
X58170800Y-75822000I700000J0D01*
G01*
X59470800Y-73722000D02*
G75*
G03*
X58770800Y-73022000I-700000J0D01*
G01*
X58770800Y-75822000D02*
G75*
G03*
X59470800Y-75122000I0J700000D01*
G01*
X58170800Y-73022000D02*
G75*
G03*
X57470800Y-73722000I0J-700000D01*
G01*
D10*
X52570000Y-121531000D02*
X51670000Y-121031000D01*
X54770000Y-120281000D02*
X49370000Y-120281000D01*
X49370000Y-121781000D02*
X54770000Y-121781000D01*
X51670000Y-121031000D02*
X52570000Y-120531000D01*
X52570000Y-120531000D02*
X52570000Y-121531000D01*
X51570000Y-120531000D02*
X51570000Y-121531000D01*
X49370000Y-120281000D02*
X49370000Y-121781000D01*
X54770000Y-121781000D02*
X54770000Y-120281000D01*
X45085000Y-64713600D02*
X45085000Y-62173600D01*
X75565000Y-49493600D02*
X45085000Y-49493600D01*
X45085000Y-49493600D02*
X45085000Y-46953600D01*
X75565000Y-64713600D02*
X45085000Y-64713600D01*
X45085000Y-46953600D02*
X75565000Y-46953600D01*
X45085000Y-62173600D02*
X75565000Y-62173600D01*
X75565000Y-46953600D02*
X75565000Y-49493600D01*
X75565000Y-62173600D02*
X75565000Y-64713600D01*
X143002000Y-108585000D02*
X145542000Y-108585000D01*
X143002000Y-108585000D02*
X143002000Y-118745000D01*
X145542000Y-108585000D02*
X145542000Y-118745000D01*
X145542000Y-118745000D02*
X143002000Y-118745000D01*
D12*
X145633000Y-113665000D02*
X145633000Y-115465000D01*
X148753000Y-113665000D02*
X148753000Y-114465000D01*
X148753000Y-113665000D02*
X148753000Y-112865000D01*
X145633000Y-113665000D02*
X145633000Y-112865000D01*
D10*
X87595000Y-111655000D02*
X82895000Y-111655000D01*
X84070000Y-117880000D02*
X84070000Y-113935000D01*
X94970000Y-119834000D02*
X86345000Y-119834000D01*
X82895000Y-111630000D02*
X82870000Y-107030000D01*
X92445000Y-109455000D02*
X89895000Y-109455000D01*
X92445000Y-104805000D02*
X87895000Y-104805000D01*
X92470000Y-109430000D02*
X92470000Y-104830000D01*
X94970000Y-115926000D02*
X94970000Y-119834000D01*
X94970000Y-115880000D02*
X89920000Y-115834000D01*
X84070000Y-113926000D02*
X87680000Y-113926000D01*
X87890000Y-105530000D02*
X87890000Y-104830000D01*
X86670000Y-107005000D02*
X82895000Y-107005000D01*
X86670000Y-107000000D02*
G75*
G03*
X87890000Y-105580000I-100000J1320000D01*
G01*
X84081000Y-117950000D02*
G75*
G03*
X86345000Y-119834000I2074000J190000D01*
G01*
X87685000Y-113950000D02*
G75*
G03*
X89945000Y-115830000I2070000J190000D01*
G01*
X89970000Y-109460000D02*
G75*
G03*
X87600000Y-111630000I-100000J-2270000D01*
G01*
D12*
X147077165Y-111231000D02*
X147308835Y-111231000D01*
X147077165Y-110511000D02*
X147308835Y-110511000D01*
D10*
X99195000Y-76716000D02*
X100195000Y-76716000D01*
X100195000Y-76716000D02*
X99695000Y-77616000D01*
X99695000Y-77616000D02*
X99195000Y-76716000D01*
X100445000Y-79916000D02*
X100445000Y-74516000D01*
X98945000Y-79916000D02*
X100445000Y-79916000D01*
X100445000Y-74516000D02*
X98945000Y-74516000D01*
X98945000Y-74516000D02*
X98945000Y-79916000D01*
X99195000Y-77716000D02*
X100195000Y-77716000D01*
X124770000Y-87955000D02*
X120995000Y-87955000D01*
X122170000Y-94876000D02*
X125780000Y-94876000D01*
X122170000Y-98830000D02*
X122170000Y-94885000D01*
X130545000Y-90405000D02*
X127995000Y-90405000D01*
X133070000Y-96876000D02*
X133070000Y-100784000D01*
X133070000Y-96830000D02*
X128020000Y-96784000D01*
X125990000Y-86480000D02*
X125990000Y-85780000D01*
X120995000Y-92580000D02*
X120970000Y-87980000D01*
X130545000Y-85755000D02*
X125995000Y-85755000D01*
X125695000Y-92605000D02*
X120995000Y-92605000D01*
X133070000Y-100784000D02*
X124445000Y-100784000D01*
X130570000Y-90380000D02*
X130570000Y-85780000D01*
X124770000Y-87950000D02*
G75*
G03*
X125990000Y-86530000I-100000J1320000D01*
G01*
X128070000Y-90410000D02*
G75*
G03*
X125700000Y-92580000I-100000J-2270000D01*
G01*
X125785000Y-94900000D02*
G75*
G03*
X128045000Y-96780000I2070000J190000D01*
G01*
X122181000Y-98900000D02*
G75*
G03*
X124445000Y-100784000I2074000J190000D01*
G01*
D12*
X72774000Y-83520000D02*
X72774000Y-84120000D01*
X72074000Y-84820000D02*
X70674000Y-84820000D01*
X70674000Y-82820000D02*
X72074000Y-82820000D01*
X69974000Y-84120000D02*
X69974000Y-83520000D01*
X69974000Y-84120000D02*
G75*
G03*
X70674000Y-84820000I700000J0D01*
G01*
X72774000Y-83520000D02*
G75*
G03*
X72074000Y-82820000I-700000J0D01*
G01*
X72074000Y-84820000D02*
G75*
G03*
X72774000Y-84120000I0J700000D01*
G01*
X70674000Y-82820000D02*
G75*
G03*
X69974000Y-83520000I0J-700000D01*
G01*
D10*
X56870000Y-115880000D02*
X51820000Y-115834000D01*
X56870000Y-115926000D02*
X56870000Y-119834000D01*
X49790000Y-105530000D02*
X49790000Y-104830000D01*
X56870000Y-119834000D02*
X48245000Y-119834000D01*
X49495000Y-111655000D02*
X44795000Y-111655000D01*
X45970000Y-113926000D02*
X49580000Y-113926000D01*
X54345000Y-109455000D02*
X51795000Y-109455000D01*
X54345000Y-104805000D02*
X49795000Y-104805000D01*
X44795000Y-111630000D02*
X44770000Y-107030000D01*
X54370000Y-109430000D02*
X54370000Y-104830000D01*
X48570000Y-107005000D02*
X44795000Y-107005000D01*
X45970000Y-117880000D02*
X45970000Y-113935000D01*
X49585000Y-113950000D02*
G75*
G03*
X51845000Y-115830000I2070000J190000D01*
G01*
X51870000Y-109460000D02*
G75*
G03*
X49500000Y-111630000I-100000J-2270000D01*
G01*
X48570000Y-107000000D02*
G75*
G03*
X49790000Y-105580000I-100000J1320000D01*
G01*
X45981000Y-117950000D02*
G75*
G03*
X48245000Y-119834000I2074000J190000D01*
G01*
X99195000Y-96766000D02*
X100195000Y-96766000D01*
X98945000Y-93566000D02*
X98945000Y-98966000D01*
X100445000Y-98966000D02*
X100445000Y-93566000D01*
X100195000Y-95766000D02*
X99695000Y-96666000D01*
X99195000Y-95766000D02*
X100195000Y-95766000D01*
X100445000Y-93566000D02*
X98945000Y-93566000D01*
X98945000Y-98966000D02*
X100445000Y-98966000D01*
X99695000Y-96666000D02*
X99195000Y-95766000D01*
D12*
X171261000Y-113902000D02*
X169861000Y-113902000D01*
X169861000Y-116222000D02*
X171761000Y-116222000D01*
X64474600Y-73711600D02*
X64474600Y-75111600D01*
X63774600Y-75811600D02*
X63174600Y-75811600D01*
X62474600Y-75111600D02*
X62474600Y-73711600D01*
X63174600Y-73011600D02*
X63774600Y-73011600D01*
X63774600Y-75811600D02*
G75*
G03*
X64474600Y-75111600I0J700000D01*
G01*
X63174600Y-73011600D02*
G75*
G03*
X62474600Y-73711600I0J-700000D01*
G01*
X64474600Y-73711600D02*
G75*
G03*
X63774600Y-73011600I-700000J0D01*
G01*
X62474600Y-75111600D02*
G75*
G03*
X63174600Y-75811600I700000J0D01*
G01*
D10*
X118245000Y-58666000D02*
X119245000Y-58666000D01*
X117995000Y-55466000D02*
X117995000Y-60866000D01*
X117995000Y-60866000D02*
X119495000Y-60866000D01*
X118245000Y-57666000D02*
X119245000Y-57666000D01*
X119495000Y-60866000D02*
X119495000Y-55466000D01*
X119495000Y-55466000D02*
X117995000Y-55466000D01*
X119245000Y-57666000D02*
X118745000Y-58566000D01*
X118745000Y-58566000D02*
X118245000Y-57666000D01*
X171170000Y-77826000D02*
X171170000Y-81734000D01*
X168645000Y-66705000D02*
X164095000Y-66705000D01*
X164090000Y-67430000D02*
X164090000Y-66730000D01*
X171170000Y-77780000D02*
X166120000Y-77734000D01*
X159095000Y-73530000D02*
X159070000Y-68930000D01*
X168645000Y-71355000D02*
X166095000Y-71355000D01*
X162870000Y-68905000D02*
X159095000Y-68905000D01*
X168670000Y-71330000D02*
X168670000Y-66730000D01*
X171170000Y-81734000D02*
X162545000Y-81734000D01*
X160270000Y-75826000D02*
X163880000Y-75826000D01*
X163795000Y-73555000D02*
X159095000Y-73555000D01*
X160270000Y-79780000D02*
X160270000Y-75835000D01*
X166170000Y-71360000D02*
G75*
G03*
X163800000Y-73530000I-100000J-2270000D01*
G01*
X162870000Y-68900000D02*
G75*
G03*
X164090000Y-67480000I-100000J1320000D01*
G01*
X163885000Y-75850000D02*
G75*
G03*
X166145000Y-77730000I2070000J190000D01*
G01*
X160281000Y-79850000D02*
G75*
G03*
X162545000Y-81734000I2074000J190000D01*
G01*
D12*
X147077165Y-115972000D02*
X147308835Y-115972000D01*
X147077165Y-116692000D02*
X147308835Y-116692000D01*
D10*
X92870000Y-63258000D02*
X87470000Y-63258000D01*
X92870000Y-64758000D02*
X92870000Y-63258000D01*
X90670000Y-64508000D02*
X90670000Y-63508000D01*
X87470000Y-63258000D02*
X87470000Y-64758000D01*
X89670000Y-63508000D02*
X90570000Y-64008000D01*
X87470000Y-64758000D02*
X92870000Y-64758000D01*
X89670000Y-64508000D02*
X89670000Y-63508000D01*
X90570000Y-64008000D02*
X89670000Y-64508000D01*
X130545000Y-66705000D02*
X125995000Y-66705000D01*
X130570000Y-71330000D02*
X130570000Y-66730000D01*
X122170000Y-79780000D02*
X122170000Y-75835000D01*
X133070000Y-81734000D02*
X124445000Y-81734000D01*
X120995000Y-73530000D02*
X120970000Y-68930000D01*
X122170000Y-75826000D02*
X125780000Y-75826000D01*
X125990000Y-67430000D02*
X125990000Y-66730000D01*
X125695000Y-73555000D02*
X120995000Y-73555000D01*
X133070000Y-77780000D02*
X128020000Y-77734000D01*
X124770000Y-68905000D02*
X120995000Y-68905000D01*
X133070000Y-77826000D02*
X133070000Y-81734000D01*
X130545000Y-71355000D02*
X127995000Y-71355000D01*
X124770000Y-68900000D02*
G75*
G03*
X125990000Y-67480000I-100000J1320000D01*
G01*
X128070000Y-71360000D02*
G75*
G03*
X125700000Y-73530000I-100000J-2270000D01*
G01*
X122181000Y-79850000D02*
G75*
G03*
X124445000Y-81734000I2074000J190000D01*
G01*
X125785000Y-75850000D02*
G75*
G03*
X128045000Y-77730000I2070000J190000D01*
G01*
D12*
X147025379Y-110108000D02*
X147360621Y-110108000D01*
X147025379Y-109348000D02*
X147360621Y-109348000D01*
X77535000Y-61325000D02*
X76135000Y-61325000D01*
X76135000Y-59325000D02*
X77535000Y-59325000D01*
X75435000Y-60625000D02*
X75435000Y-60025000D01*
X78235000Y-60025000D02*
X78235000Y-60625000D01*
X75435000Y-60625000D02*
G75*
G03*
X76135000Y-61325000I700000J0D01*
G01*
X76135000Y-59325000D02*
G75*
G03*
X75435000Y-60025000I0J-700000D01*
G01*
X78235000Y-60025000D02*
G75*
G03*
X77535000Y-59325000I-700000J0D01*
G01*
X77535000Y-61325000D02*
G75*
G03*
X78235000Y-60625000I0J700000D01*
G01*
D10*
X54622000Y-72356000D02*
X42622000Y-72356000D01*
X42622000Y-72356000D02*
X42622000Y-66356000D01*
X54622000Y-66356000D02*
X54622000Y-72356000D01*
X42622000Y-66356000D02*
X54622000Y-66356000D01*
X117995000Y-79916000D02*
X119495000Y-79916000D01*
X119245000Y-76716000D02*
X118745000Y-77616000D01*
X119495000Y-79916000D02*
X119495000Y-74516000D01*
X118745000Y-77616000D02*
X118245000Y-76716000D01*
X119495000Y-74516000D02*
X117995000Y-74516000D01*
X117995000Y-74516000D02*
X117995000Y-79916000D01*
X118245000Y-76716000D02*
X119245000Y-76716000D01*
X118245000Y-77716000D02*
X119245000Y-77716000D01*
D12*
X78235000Y-52405000D02*
X78235000Y-53005000D01*
X76135000Y-51705000D02*
X77535000Y-51705000D01*
X77535000Y-53705000D02*
X76135000Y-53705000D01*
X75435000Y-53005000D02*
X75435000Y-52405000D01*
X76135000Y-51705000D02*
G75*
G03*
X75435000Y-52405000I0J-700000D01*
G01*
X77535000Y-53705000D02*
G75*
G03*
X78235000Y-53005000I0J700000D01*
G01*
X78235000Y-52405000D02*
G75*
G03*
X77535000Y-51705000I-700000J0D01*
G01*
X75435000Y-53005000D02*
G75*
G03*
X76135000Y-53705000I700000J0D01*
G01*
D10*
X111495000Y-71355000D02*
X108945000Y-71355000D01*
X105720000Y-68905000D02*
X101945000Y-68905000D01*
X101945000Y-73530000D02*
X101920000Y-68930000D01*
X114020000Y-77780000D02*
X108970000Y-77734000D01*
X114020000Y-77826000D02*
X114020000Y-81734000D01*
X106645000Y-73555000D02*
X101945000Y-73555000D01*
X111520000Y-71330000D02*
X111520000Y-66730000D01*
X111495000Y-66705000D02*
X106945000Y-66705000D01*
X103120000Y-79780000D02*
X103120000Y-75835000D01*
X103120000Y-75826000D02*
X106730000Y-75826000D01*
X106940000Y-67430000D02*
X106940000Y-66730000D01*
X114020000Y-81734000D02*
X105395000Y-81734000D01*
X105720000Y-68900000D02*
G75*
G03*
X106940000Y-67480000I-100000J1320000D01*
G01*
X106735000Y-75850000D02*
G75*
G03*
X108995000Y-77730000I2070000J190000D01*
G01*
X109020000Y-71360000D02*
G75*
G03*
X106650000Y-73530000I-100000J-2270000D01*
G01*
X103131000Y-79850000D02*
G75*
G03*
X105395000Y-81734000I2074000J190000D01*
G01*
X98945000Y-55466000D02*
X98945000Y-60866000D01*
X99195000Y-58666000D02*
X100195000Y-58666000D01*
X99695000Y-58566000D02*
X99195000Y-57666000D01*
X100195000Y-57666000D02*
X99695000Y-58566000D01*
X100445000Y-55466000D02*
X98945000Y-55466000D01*
X99195000Y-57666000D02*
X100195000Y-57666000D01*
X98945000Y-60866000D02*
X100445000Y-60866000D01*
X100445000Y-60866000D02*
X100445000Y-55466000D01*
D12*
X147360621Y-106679000D02*
X147025379Y-106679000D01*
X147360621Y-105919000D02*
X147025379Y-105919000D01*
D10*
X81395000Y-79916000D02*
X81395000Y-74516000D01*
X79895000Y-74516000D02*
X79895000Y-79916000D01*
X79895000Y-79916000D02*
X81395000Y-79916000D01*
X80145000Y-76716000D02*
X81145000Y-76716000D01*
X81145000Y-76716000D02*
X80645000Y-77616000D01*
X81395000Y-74516000D02*
X79895000Y-74516000D01*
X80145000Y-77716000D02*
X81145000Y-77716000D01*
X80645000Y-77616000D02*
X80145000Y-76716000D01*
X43081000Y-95806000D02*
X43331000Y-95806000D01*
X43081000Y-95806000D02*
X43081000Y-101806000D01*
X46581000Y-101806000D02*
X46331000Y-101806000D01*
X46581000Y-95806000D02*
X46581000Y-101806000D01*
X46581000Y-95806000D02*
X46331000Y-95806000D01*
X43081000Y-101806000D02*
X43331000Y-101806000D01*
X137045000Y-74516000D02*
X137045000Y-79916000D01*
X138545000Y-79916000D02*
X138545000Y-74516000D01*
X138295000Y-76716000D02*
X137795000Y-77616000D01*
X137295000Y-76716000D02*
X138295000Y-76716000D01*
X137045000Y-79916000D02*
X138545000Y-79916000D01*
X138545000Y-74516000D02*
X137045000Y-74516000D01*
X137795000Y-77616000D02*
X137295000Y-76716000D01*
X137295000Y-77716000D02*
X138295000Y-77716000D01*
X118745000Y-96666000D02*
X118245000Y-95766000D01*
X117995000Y-93566000D02*
X117995000Y-98966000D01*
X119495000Y-98966000D02*
X119495000Y-93566000D01*
X118245000Y-96766000D02*
X119245000Y-96766000D01*
X117995000Y-98966000D02*
X119495000Y-98966000D01*
X118245000Y-95766000D02*
X119245000Y-95766000D01*
X119245000Y-95766000D02*
X118745000Y-96666000D01*
X119495000Y-93566000D02*
X117995000Y-93566000D01*
D12*
X72074000Y-89900000D02*
X70674000Y-89900000D01*
X70674000Y-87900000D02*
X72074000Y-87900000D01*
X69974000Y-89200000D02*
X69974000Y-88600000D01*
X72774000Y-88600000D02*
X72774000Y-89200000D01*
X72774000Y-88600000D02*
G75*
G03*
X72074000Y-87900000I-700000J0D01*
G01*
X69974000Y-89200000D02*
G75*
G03*
X70674000Y-89900000I700000J0D01*
G01*
X70674000Y-87900000D02*
G75*
G03*
X69974000Y-88600000I0J-700000D01*
G01*
X72074000Y-89900000D02*
G75*
G03*
X72774000Y-89200000I0J700000D01*
G01*
D10*
X156095000Y-98966000D02*
X157595000Y-98966000D01*
X156845000Y-96666000D02*
X156345000Y-95766000D01*
X156095000Y-93566000D02*
X156095000Y-98966000D01*
X157595000Y-93566000D02*
X156095000Y-93566000D01*
X157595000Y-98966000D02*
X157595000Y-93566000D01*
X156345000Y-96766000D02*
X157345000Y-96766000D01*
X156345000Y-95766000D02*
X157345000Y-95766000D01*
X157345000Y-95766000D02*
X156845000Y-96666000D01*
X94970000Y-58776000D02*
X94970000Y-62684000D01*
X82895000Y-54480000D02*
X82870000Y-49880000D01*
X86670000Y-49855000D02*
X82895000Y-49855000D01*
X92445000Y-52305000D02*
X89895000Y-52305000D01*
X94970000Y-58730000D02*
X89920000Y-58684000D01*
X92445000Y-47655000D02*
X87895000Y-47655000D01*
X87890000Y-48380000D02*
X87890000Y-47680000D01*
X92470000Y-52280000D02*
X92470000Y-47680000D01*
X84070000Y-60730000D02*
X84070000Y-56785000D01*
X84070000Y-56776000D02*
X87680000Y-56776000D01*
X87595000Y-54505000D02*
X82895000Y-54505000D01*
X94970000Y-62684000D02*
X86345000Y-62684000D01*
X89970000Y-52310000D02*
G75*
G03*
X87600000Y-54480000I-100000J-2270000D01*
G01*
X87685000Y-56800000D02*
G75*
G03*
X89945000Y-58680000I2070000J190000D01*
G01*
X86670000Y-49850000D02*
G75*
G03*
X87890000Y-48430000I-100000J1320000D01*
G01*
X84081000Y-60800000D02*
G75*
G03*
X86345000Y-62684000I2074000J190000D01*
G01*
X175006000Y-118618000D02*
X175006000Y-108458000D01*
X175006000Y-118618000D02*
X172466000Y-118618000D01*
X172466000Y-118618000D02*
X172466000Y-108458000D01*
X172466000Y-108458000D02*
X175006000Y-108458000D01*
X86670000Y-87955000D02*
X82895000Y-87955000D01*
X82895000Y-92580000D02*
X82870000Y-87980000D01*
X92445000Y-90405000D02*
X89895000Y-90405000D01*
X94970000Y-100784000D02*
X86345000Y-100784000D01*
X92470000Y-90380000D02*
X92470000Y-85780000D01*
X94970000Y-96876000D02*
X94970000Y-100784000D01*
X87595000Y-92605000D02*
X82895000Y-92605000D01*
X92445000Y-85755000D02*
X87895000Y-85755000D01*
X87890000Y-86480000D02*
X87890000Y-85780000D01*
X84070000Y-98830000D02*
X84070000Y-94885000D01*
X94970000Y-96830000D02*
X89920000Y-96784000D01*
X84070000Y-94876000D02*
X87680000Y-94876000D01*
X87685000Y-94900000D02*
G75*
G03*
X89945000Y-96780000I2070000J190000D01*
G01*
X89970000Y-90410000D02*
G75*
G03*
X87600000Y-92580000I-100000J-2270000D01*
G01*
X86670000Y-87950000D02*
G75*
G03*
X87890000Y-86530000I-100000J1320000D01*
G01*
X84081000Y-98900000D02*
G75*
G03*
X86345000Y-100784000I2074000J190000D01*
G01*
X156845000Y-58566000D02*
X156345000Y-57666000D01*
X156345000Y-57666000D02*
X157345000Y-57666000D01*
X156345000Y-58666000D02*
X157345000Y-58666000D01*
X156095000Y-55466000D02*
X156095000Y-60866000D01*
X157345000Y-57666000D02*
X156845000Y-58566000D01*
X157595000Y-55466000D02*
X156095000Y-55466000D01*
X157595000Y-60866000D02*
X157595000Y-55466000D01*
X156095000Y-60866000D02*
X157595000Y-60866000D01*
X114020000Y-115880000D02*
X108970000Y-115834000D01*
X105720000Y-107005000D02*
X101945000Y-107005000D01*
X106645000Y-111655000D02*
X101945000Y-111655000D01*
X114020000Y-115926000D02*
X114020000Y-119834000D01*
X103120000Y-117880000D02*
X103120000Y-113935000D01*
X111495000Y-104805000D02*
X106945000Y-104805000D01*
X101945000Y-111630000D02*
X101920000Y-107030000D01*
X114020000Y-119834000D02*
X105395000Y-119834000D01*
X103120000Y-113926000D02*
X106730000Y-113926000D01*
X111495000Y-109455000D02*
X108945000Y-109455000D01*
X111520000Y-109430000D02*
X111520000Y-104830000D01*
X106940000Y-105530000D02*
X106940000Y-104830000D01*
X106735000Y-113950000D02*
G75*
G03*
X108995000Y-115830000I2070000J190000D01*
G01*
X109020000Y-109460000D02*
G75*
G03*
X106650000Y-111630000I-100000J-2270000D01*
G01*
X105720000Y-107000000D02*
G75*
G03*
X106940000Y-105580000I-100000J1320000D01*
G01*
X103131000Y-117950000D02*
G75*
G03*
X105395000Y-119834000I2074000J190000D01*
G01*
X65020000Y-117880000D02*
X65020000Y-113935000D01*
X75920000Y-119834000D02*
X67295000Y-119834000D01*
X73395000Y-104805000D02*
X68845000Y-104805000D01*
X67620000Y-107005000D02*
X63845000Y-107005000D01*
X63845000Y-111630000D02*
X63820000Y-107030000D01*
X68545000Y-111655000D02*
X63845000Y-111655000D01*
X75920000Y-115880000D02*
X70870000Y-115834000D01*
X73395000Y-109455000D02*
X70845000Y-109455000D01*
X65020000Y-113926000D02*
X68630000Y-113926000D01*
X75920000Y-115926000D02*
X75920000Y-119834000D01*
X73420000Y-109430000D02*
X73420000Y-104830000D01*
X68840000Y-105530000D02*
X68840000Y-104830000D01*
X68635000Y-113950000D02*
G75*
G03*
X70895000Y-115830000I2070000J190000D01*
G01*
X67620000Y-107000000D02*
G75*
G03*
X68840000Y-105580000I-100000J1320000D01*
G01*
X65031000Y-117950000D02*
G75*
G03*
X67295000Y-119834000I2074000J190000D01*
G01*
X70920000Y-109460000D02*
G75*
G03*
X68550000Y-111630000I-100000J-2270000D01*
G01*
X44958000Y-80010000D02*
X44958000Y-90170000D01*
X47498000Y-90170000D02*
X44958000Y-90170000D01*
X47498000Y-80010000D02*
X47498000Y-90170000D01*
X44958000Y-80010000D02*
X47498000Y-80010000D01*
X94970000Y-77826000D02*
X94970000Y-81734000D01*
X92445000Y-71355000D02*
X89895000Y-71355000D01*
X94970000Y-77780000D02*
X89920000Y-77734000D01*
X94970000Y-81734000D02*
X86345000Y-81734000D01*
X92445000Y-66705000D02*
X87895000Y-66705000D01*
X87595000Y-73555000D02*
X82895000Y-73555000D01*
X92470000Y-71330000D02*
X92470000Y-66730000D01*
X87890000Y-67430000D02*
X87890000Y-66730000D01*
X84070000Y-79780000D02*
X84070000Y-75835000D01*
X84070000Y-75826000D02*
X87680000Y-75826000D01*
X86670000Y-68905000D02*
X82895000Y-68905000D01*
X82895000Y-73530000D02*
X82870000Y-68930000D01*
X87685000Y-75850000D02*
G75*
G03*
X89945000Y-77730000I2070000J190000D01*
G01*
X89970000Y-71360000D02*
G75*
G03*
X87600000Y-73530000I-100000J-2270000D01*
G01*
X84081000Y-79850000D02*
G75*
G03*
X86345000Y-81734000I2074000J190000D01*
G01*
X86670000Y-68900000D02*
G75*
G03*
X87890000Y-67480000I-100000J1320000D01*
G01*
X61460000Y-95242000D02*
X61460000Y-94242000D01*
X58260000Y-95492000D02*
X63660000Y-95492000D01*
X60460000Y-94242000D02*
X61360000Y-94742000D01*
X60460000Y-95242000D02*
X60460000Y-94242000D01*
X58260000Y-93992000D02*
X58260000Y-95492000D01*
X61360000Y-94742000D02*
X60460000Y-95242000D01*
X63660000Y-93992000D02*
X58260000Y-93992000D01*
X63660000Y-95492000D02*
X63660000Y-93992000D01*
X160270000Y-56776000D02*
X163880000Y-56776000D01*
X171170000Y-58730000D02*
X166120000Y-58684000D01*
X168645000Y-52305000D02*
X166095000Y-52305000D01*
X168645000Y-47655000D02*
X164095000Y-47655000D01*
X171170000Y-62684000D02*
X162545000Y-62684000D01*
X160270000Y-60730000D02*
X160270000Y-56785000D01*
X162870000Y-49855000D02*
X159095000Y-49855000D01*
X164090000Y-48380000D02*
X164090000Y-47680000D01*
X159095000Y-54480000D02*
X159070000Y-49880000D01*
X168670000Y-52280000D02*
X168670000Y-47680000D01*
X163795000Y-54505000D02*
X159095000Y-54505000D01*
X171170000Y-58776000D02*
X171170000Y-62684000D01*
X160281000Y-60800000D02*
G75*
G03*
X162545000Y-62684000I2074000J190000D01*
G01*
X166170000Y-52310000D02*
G75*
G03*
X163800000Y-54480000I-100000J-2270000D01*
G01*
X163885000Y-56800000D02*
G75*
G03*
X166145000Y-58680000I2070000J190000D01*
G01*
X162870000Y-49850000D02*
G75*
G03*
X164090000Y-48430000I-100000J1320000D01*
G01*
D12*
X72774000Y-80853000D02*
X72774000Y-81453000D01*
X69974000Y-81453000D02*
X69974000Y-80853000D01*
X72074000Y-82153000D02*
X70674000Y-82153000D01*
X70674000Y-80153000D02*
X72074000Y-80153000D01*
X70674000Y-80153000D02*
G75*
G03*
X69974000Y-80853000I0J-700000D01*
G01*
X72074000Y-82153000D02*
G75*
G03*
X72774000Y-81453000I0J700000D01*
G01*
X72774000Y-80853000D02*
G75*
G03*
X72074000Y-80153000I-700000J0D01*
G01*
X69974000Y-81453000D02*
G75*
G03*
X70674000Y-82153000I700000J0D01*
G01*
D10*
X60845000Y-112616000D02*
X60845000Y-118016000D01*
X61095000Y-115816000D02*
X62095000Y-115816000D01*
X62095000Y-114816000D02*
X61595000Y-115716000D01*
X62345000Y-118016000D02*
X62345000Y-112616000D01*
X61595000Y-115716000D02*
X61095000Y-114816000D01*
X62345000Y-112616000D02*
X60845000Y-112616000D01*
X60845000Y-118016000D02*
X62345000Y-118016000D01*
X61095000Y-114816000D02*
X62095000Y-114816000D01*
D12*
X147308835Y-107802000D02*
X147077165Y-107802000D01*
X147308835Y-107082000D02*
X147077165Y-107082000D01*
X169861000Y-110380000D02*
X171761000Y-110380000D01*
X171261000Y-108060000D02*
X169861000Y-108060000D01*
D10*
X138545000Y-98966000D02*
X138545000Y-93566000D01*
X137045000Y-98966000D02*
X138545000Y-98966000D01*
X138295000Y-95766000D02*
X137795000Y-96666000D01*
X137795000Y-96666000D02*
X137295000Y-95766000D01*
X137045000Y-93566000D02*
X137045000Y-98966000D01*
X138545000Y-93566000D02*
X137045000Y-93566000D01*
X137295000Y-96766000D02*
X138295000Y-96766000D01*
X137295000Y-95766000D02*
X138295000Y-95766000D01*
X106645000Y-54505000D02*
X101945000Y-54505000D01*
X103120000Y-56776000D02*
X106730000Y-56776000D01*
X114020000Y-58776000D02*
X114020000Y-62684000D01*
X114020000Y-58730000D02*
X108970000Y-58684000D01*
X105720000Y-49855000D02*
X101945000Y-49855000D01*
X106940000Y-48380000D02*
X106940000Y-47680000D01*
X103120000Y-60730000D02*
X103120000Y-56785000D01*
X111495000Y-47655000D02*
X106945000Y-47655000D01*
X111495000Y-52305000D02*
X108945000Y-52305000D01*
X111520000Y-52280000D02*
X111520000Y-47680000D01*
X114020000Y-62684000D02*
X105395000Y-62684000D01*
X101945000Y-54480000D02*
X101920000Y-49880000D01*
X106735000Y-56800000D02*
G75*
G03*
X108995000Y-58680000I2070000J190000D01*
G01*
X105720000Y-49850000D02*
G75*
G03*
X106940000Y-48430000I-100000J1320000D01*
G01*
X103131000Y-60800000D02*
G75*
G03*
X105395000Y-62684000I2074000J190000D01*
G01*
X109020000Y-52310000D02*
G75*
G03*
X106650000Y-54480000I-100000J-2270000D01*
G01*
X103120000Y-98830000D02*
X103120000Y-94885000D01*
X106645000Y-92605000D02*
X101945000Y-92605000D01*
X114020000Y-100784000D02*
X105395000Y-100784000D01*
X114020000Y-96830000D02*
X108970000Y-96784000D01*
X114020000Y-96876000D02*
X114020000Y-100784000D01*
X111520000Y-90380000D02*
X111520000Y-85780000D01*
X101945000Y-92580000D02*
X101920000Y-87980000D01*
X111495000Y-85755000D02*
X106945000Y-85755000D01*
X111495000Y-90405000D02*
X108945000Y-90405000D01*
X103120000Y-94876000D02*
X106730000Y-94876000D01*
X105720000Y-87955000D02*
X101945000Y-87955000D01*
X106940000Y-86480000D02*
X106940000Y-85780000D01*
X103131000Y-98900000D02*
G75*
G03*
X105395000Y-100784000I2074000J190000D01*
G01*
X109020000Y-90410000D02*
G75*
G03*
X106650000Y-92580000I-100000J-2270000D01*
G01*
X105720000Y-87950000D02*
G75*
G03*
X106940000Y-86530000I-100000J1320000D01*
G01*
X106735000Y-94900000D02*
G75*
G03*
X108995000Y-96780000I2070000J190000D01*
G01*
X80145000Y-115816000D02*
X81145000Y-115816000D01*
X81395000Y-112616000D02*
X79895000Y-112616000D01*
X79895000Y-112616000D02*
X79895000Y-118016000D01*
X81395000Y-118016000D02*
X81395000Y-112616000D01*
X81145000Y-114816000D02*
X80645000Y-115716000D01*
X80145000Y-114816000D02*
X81145000Y-114816000D01*
X79895000Y-118016000D02*
X81395000Y-118016000D01*
X80645000Y-115716000D02*
X80145000Y-114816000D01*
X149595000Y-71355000D02*
X147045000Y-71355000D01*
X141220000Y-79780000D02*
X141220000Y-75835000D01*
X152120000Y-77826000D02*
X152120000Y-81734000D01*
X149595000Y-66705000D02*
X145045000Y-66705000D01*
X149620000Y-71330000D02*
X149620000Y-66730000D01*
X145040000Y-67430000D02*
X145040000Y-66730000D01*
X144745000Y-73555000D02*
X140045000Y-73555000D01*
X152120000Y-81734000D02*
X143495000Y-81734000D01*
X143820000Y-68905000D02*
X140045000Y-68905000D01*
X152120000Y-77780000D02*
X147070000Y-77734000D01*
X141220000Y-75826000D02*
X144830000Y-75826000D01*
X140045000Y-73530000D02*
X140020000Y-68930000D01*
X141231000Y-79850000D02*
G75*
G03*
X143495000Y-81734000I2074000J190000D01*
G01*
X147120000Y-71360000D02*
G75*
G03*
X144750000Y-73530000I-100000J-2270000D01*
G01*
X144835000Y-75850000D02*
G75*
G03*
X147095000Y-77730000I2070000J190000D01*
G01*
X143820000Y-68900000D02*
G75*
G03*
X145040000Y-67480000I-100000J1320000D01*
G01*
D12*
X171261000Y-116823000D02*
X169861000Y-116823000D01*
X169861000Y-119143000D02*
X171761000Y-119143000D01*
D10*
X141220000Y-98830000D02*
X141220000Y-94885000D01*
X140045000Y-92580000D02*
X140020000Y-87980000D01*
X149595000Y-85755000D02*
X145045000Y-85755000D01*
X149620000Y-90380000D02*
X149620000Y-85780000D01*
X152120000Y-96876000D02*
X152120000Y-100784000D01*
X141220000Y-94876000D02*
X144830000Y-94876000D01*
X143820000Y-87955000D02*
X140045000Y-87955000D01*
X144745000Y-92605000D02*
X140045000Y-92605000D01*
X145040000Y-86480000D02*
X145040000Y-85780000D01*
X152120000Y-96830000D02*
X147070000Y-96784000D01*
X152120000Y-100784000D02*
X143495000Y-100784000D01*
X149595000Y-90405000D02*
X147045000Y-90405000D01*
X141231000Y-98900000D02*
G75*
G03*
X143495000Y-100784000I2074000J190000D01*
G01*
X143820000Y-87950000D02*
G75*
G03*
X145040000Y-86530000I-100000J1320000D01*
G01*
X147120000Y-90410000D02*
G75*
G03*
X144750000Y-92580000I-100000J-2270000D01*
G01*
X144835000Y-94900000D02*
G75*
G03*
X147095000Y-96780000I2070000J190000D01*
G01*
D12*
X78235000Y-54945000D02*
X78235000Y-55545000D01*
X75435000Y-55545000D02*
X75435000Y-54945000D01*
X77535000Y-56245000D02*
X76135000Y-56245000D01*
X76135000Y-54245000D02*
X77535000Y-54245000D01*
X78235000Y-54945000D02*
G75*
G03*
X77535000Y-54245000I-700000J0D01*
G01*
X76135000Y-54245000D02*
G75*
G03*
X75435000Y-54945000I0J-700000D01*
G01*
X77535000Y-56245000D02*
G75*
G03*
X78235000Y-55545000I0J700000D01*
G01*
X75435000Y-55545000D02*
G75*
G03*
X76135000Y-56245000I700000J0D01*
G01*
D13*
X137795000Y-61976000D03*
D14*
X137795000Y-54356000D03*
D13*
X80645000Y-100076000D03*
D14*
X80645000Y-92456000D03*
X78994000Y-60325000D03*
X78994000Y-57785000D03*
X78994000Y-55245000D03*
X78994000Y-52705000D03*
D13*
X156845000Y-81026000D03*
D14*
X156845000Y-73406000D03*
X75692000Y-88900000D03*
X75692000Y-86360000D03*
X75692000Y-83820000D03*
X75692000Y-81280000D03*
D13*
X99695000Y-119126000D03*
D14*
X99695000Y-111506000D03*
D13*
X48260000Y-121031000D03*
D14*
X55880000Y-121031000D03*
D15*
X46355000Y-48223600D03*
X47625000Y-64770000D03*
X50165000Y-64770000D03*
X48895000Y-48223600D03*
X51435000Y-48223600D03*
X52705000Y-64770000D03*
X55245000Y-64770000D03*
X53975000Y-48223600D03*
X56515000Y-48223600D03*
X57785000Y-64770000D03*
X59055000Y-48223600D03*
X60325000Y-64770000D03*
X61595000Y-48223600D03*
X62865000Y-64770000D03*
X65405000Y-64770000D03*
X64135000Y-48223600D03*
X66675000Y-48223600D03*
X67945000Y-64770000D03*
X70485000Y-64770000D03*
X69215000Y-48223600D03*
X73025000Y-64770000D03*
X71755000Y-48223600D03*
X75565000Y-64770000D03*
X74295000Y-48223600D03*
X75565000Y-49530000D03*
X74295000Y-63443600D03*
X73025000Y-49530000D03*
X71755000Y-63443600D03*
X69215000Y-63443600D03*
X70485000Y-49530000D03*
X67945000Y-49530000D03*
X66675000Y-63443600D03*
X64135000Y-63443600D03*
X65405000Y-49530000D03*
X62865000Y-49530000D03*
X61595000Y-63443600D03*
X60325000Y-49530000D03*
X59055000Y-63443600D03*
X57785000Y-49530000D03*
X56515000Y-63443600D03*
X53975000Y-63443600D03*
X55245000Y-49530000D03*
X52705000Y-49530000D03*
X51435000Y-63443600D03*
X50165000Y-49530000D03*
X48895000Y-63443600D03*
X46355000Y-63443600D03*
X47625000Y-49530000D03*
D14*
X144272000Y-109855000D03*
X144272000Y-112395000D03*
X144272000Y-114935000D03*
X144272000Y-117475000D03*
D13*
X99695000Y-81026000D03*
D14*
X99695000Y-73406000D03*
D13*
X99695000Y-100076000D03*
D14*
X99695000Y-92456000D03*
D13*
X118745000Y-61976000D03*
D14*
X118745000Y-54356000D03*
D13*
X93980000Y-64008000D03*
D14*
X86360000Y-64008000D03*
D16*
X44122000Y-71106000D03*
X51122000Y-71106000D03*
X51122000Y-69356000D03*
X44122000Y-69356000D03*
D17*
X54422000Y-69006000D03*
X54422000Y-71456000D03*
X45922000Y-73206000D03*
X45922000Y-67256000D03*
X48922000Y-73206000D03*
X48922000Y-67256000D03*
X52922000Y-73206000D03*
X52922000Y-67256000D03*
D13*
X118745000Y-81026000D03*
D14*
X118745000Y-73406000D03*
D13*
X99695000Y-61976000D03*
D14*
X99695000Y-54356000D03*
D13*
X80645000Y-81026000D03*
D14*
X80645000Y-73406000D03*
D18*
X44831000Y-102056000D03*
X44831000Y-95556000D03*
D13*
X137795000Y-81026000D03*
D14*
X137795000Y-73406000D03*
D13*
X118745000Y-100076000D03*
D14*
X118745000Y-92456000D03*
D13*
X156845000Y-100076000D03*
D14*
X156845000Y-92456000D03*
X173736000Y-117348000D03*
X173736000Y-114808000D03*
X173736000Y-112268000D03*
X173736000Y-109728000D03*
D13*
X156845000Y-61976000D03*
D14*
X156845000Y-54356000D03*
X46228000Y-81280000D03*
X46228000Y-83820000D03*
X46228000Y-86360000D03*
X46228000Y-88900000D03*
D13*
X64770000Y-94742000D03*
D14*
X57150000Y-94742000D03*
D13*
X61595000Y-119126000D03*
D14*
X61595000Y-111506000D03*
D13*
X137795000Y-100076000D03*
D14*
X137795000Y-92456000D03*
D13*
X80645000Y-119126000D03*
D14*
X80645000Y-111506000D03*
%LPC*%
D10*
X120152939Y-117461136D02*
X120152939Y-117528480D01*
X120085596Y-117663167D01*
X120018252Y-117730510D01*
X119883565Y-117797854D01*
X119748878Y-117797854D01*
X119647863Y-117764182D01*
X119479504Y-117663167D01*
X119378489Y-117562151D01*
X119277473Y-117393793D01*
X119243802Y-117292777D01*
X119243802Y-117158090D01*
X119311145Y-117023403D01*
X119378489Y-116956060D01*
X119513176Y-116888716D01*
X119580519Y-116888716D01*
X120220283Y-116181610D02*
X120119267Y-116215281D01*
X120018252Y-116316297D01*
X119950909Y-116450984D01*
X119950909Y-116585671D01*
X119984580Y-116686686D01*
X120085596Y-116855045D01*
X120186611Y-116956060D01*
X120354970Y-117057075D01*
X120455985Y-117090747D01*
X120590672Y-117090747D01*
X120725359Y-117023403D01*
X120792702Y-116956060D01*
X120860046Y-116821373D01*
X120860046Y-116754029D01*
X120624344Y-116518327D01*
X120489657Y-116653014D01*
X121163092Y-116585671D02*
X121062076Y-115743877D01*
X120691687Y-116114266D02*
X121533481Y-116215281D01*
X121802855Y-115945907D02*
X121095748Y-115238801D01*
X122206916Y-115541846D02*
X121499809Y-115440831D01*
X121499809Y-114834740D02*
X121499809Y-115642862D01*
X122375275Y-114632709D02*
X122509962Y-114565366D01*
X122577305Y-114565366D01*
X122678320Y-114599037D01*
X122779336Y-114700053D01*
X122813007Y-114801068D01*
X122813007Y-114868411D01*
X122779336Y-114969427D01*
X122509962Y-115238801D01*
X121802855Y-114531694D01*
X122038557Y-114295992D01*
X122139572Y-114262320D01*
X122206916Y-114262320D01*
X122307931Y-114295992D01*
X122375275Y-114363335D01*
X122408946Y-114464350D01*
X122408946Y-114531694D01*
X122375275Y-114632709D01*
X122139572Y-114868411D01*
X123217068Y-113588885D02*
X123856832Y-113891931D01*
X123553786Y-113252167D01*
X123722145Y-112612404D02*
X123789488Y-112545061D01*
X123890503Y-112511389D01*
X123957847Y-112511389D01*
X124058862Y-112545061D01*
X124227221Y-112646076D01*
X124395580Y-112814435D01*
X124496595Y-112982793D01*
X124530267Y-113083809D01*
X124530267Y-113151152D01*
X124496595Y-113252167D01*
X124429251Y-113319511D01*
X124328236Y-113353183D01*
X124260893Y-113353183D01*
X124159877Y-113319511D01*
X123991519Y-113218496D01*
X123823160Y-113050137D01*
X123722145Y-112881778D01*
X123688473Y-112780763D01*
X123688473Y-112713419D01*
X123722145Y-112612404D01*
X124900656Y-112713419D02*
X124968000Y-112713419D01*
X124968000Y-112780763D01*
X124900656Y-112780763D01*
X124900656Y-112713419D01*
X124968000Y-112780763D01*
X125675106Y-112073656D02*
X125271045Y-112477717D01*
X125473076Y-112275687D02*
X124765969Y-111568580D01*
X124799641Y-111736938D01*
X124799641Y-111871625D01*
X124765969Y-111972641D01*
X125910809Y-111703267D02*
X125978152Y-111703267D01*
X125978152Y-111770610D01*
X125910809Y-111770610D01*
X125910809Y-111703267D01*
X125978152Y-111770610D01*
X125742450Y-110592099D02*
X125809793Y-110524755D01*
X125910809Y-110491084D01*
X125978152Y-110491084D01*
X126079167Y-110524755D01*
X126247526Y-110625771D01*
X126415885Y-110794129D01*
X126516900Y-110962488D01*
X126550572Y-111063503D01*
X126550572Y-111130847D01*
X126516900Y-111231862D01*
X126449557Y-111299206D01*
X126348541Y-111332877D01*
X126281198Y-111332877D01*
X126180183Y-111299206D01*
X126011824Y-111198190D01*
X125843465Y-111029832D01*
X125742450Y-110861473D01*
X125708778Y-110760458D01*
X125708778Y-110693114D01*
X125742450Y-110592099D01*
X127931114Y-109817649D02*
X127358694Y-109716633D01*
X127527053Y-110221710D02*
X126819946Y-109514603D01*
X127089320Y-109245229D01*
X127190335Y-109211557D01*
X127257679Y-109211557D01*
X127358694Y-109245229D01*
X127459709Y-109346244D01*
X127493381Y-109447259D01*
X127493381Y-109514603D01*
X127459709Y-109615618D01*
X127190335Y-109884992D01*
X127964785Y-109245229D02*
X128503533Y-108706481D01*
X128301503Y-108033046D02*
X128705564Y-107628985D01*
X129210640Y-108538122D02*
X128503533Y-107831015D01*
X129075953Y-107258596D02*
X129210640Y-107123909D01*
X129311655Y-107090237D01*
X129446342Y-107090237D01*
X129614701Y-107191252D01*
X129850403Y-107426954D01*
X129951419Y-107595313D01*
X129951419Y-107730000D01*
X129917747Y-107831015D01*
X129783060Y-107965702D01*
X129682045Y-107999374D01*
X129547358Y-107999374D01*
X129378999Y-107898359D01*
X129143297Y-107662657D01*
X129042281Y-107494298D01*
X129042281Y-107359611D01*
X129075953Y-107258596D01*
X130389151Y-107359611D02*
X129682045Y-106652504D01*
X129951419Y-106383130D01*
X130052434Y-106349458D01*
X130119777Y-106349458D01*
X130220793Y-106383130D01*
X130321808Y-106484145D01*
X130355480Y-106585161D01*
X130355480Y-106652504D01*
X130321808Y-106753519D01*
X130052434Y-107022893D01*
D19*
X146625500Y-117348000D03*
X147760500Y-117348000D03*
D20*
X137795000Y-59941000D03*
D13*
X137795000Y-61976000D03*
D20*
X137795000Y-56391000D03*
D14*
X137795000Y-54356000D03*
D20*
X80645000Y-98041000D03*
D13*
X80645000Y-100076000D03*
D20*
X80645000Y-94491000D03*
D14*
X80645000Y-92456000D03*
X78994000Y-60325000D03*
X78994000Y-57785000D03*
X78994000Y-55245000D03*
X78994000Y-52705000D03*
D20*
X156845000Y-78991000D03*
D13*
X156845000Y-81026000D03*
D20*
X156845000Y-75441000D03*
D14*
X156845000Y-73406000D03*
X75692000Y-88900000D03*
X75692000Y-86360000D03*
X75692000Y-83820000D03*
X75692000Y-81280000D03*
D21*
X166370000Y-93980000D03*
D22*
X168910000Y-99060000D03*
D23*
X171450000Y-93980000D03*
D22*
X171370000Y-90280000D03*
X162560000Y-96520000D03*
D24*
X160870000Y-93980000D03*
D22*
X170180000Y-96520000D03*
D24*
X171870000Y-93980000D03*
D23*
X161870000Y-93980000D03*
D22*
X161370000Y-90280000D03*
D23*
X170870000Y-93980000D03*
X161290000Y-93980000D03*
D22*
X163830000Y-99060000D03*
X166370000Y-88080000D03*
D25*
X158270000Y-90280000D03*
X171970000Y-99060000D03*
D26*
X169170000Y-88080000D03*
D25*
X159470000Y-96520000D03*
D23*
X151820000Y-55880000D03*
D22*
X149860000Y-60960000D03*
D24*
X152820000Y-55880000D03*
D22*
X144780000Y-60960000D03*
D23*
X142820000Y-55880000D03*
D22*
X151130000Y-58420000D03*
D23*
X142240000Y-55880000D03*
D22*
X142320000Y-52180000D03*
X143510000Y-58420000D03*
D21*
X147320000Y-55880000D03*
D22*
X152320000Y-52180000D03*
X147320000Y-49980000D03*
D24*
X141820000Y-55880000D03*
D23*
X152400000Y-55880000D03*
D25*
X152920000Y-60960000D03*
X139220000Y-52180000D03*
X140420000Y-58420000D03*
D26*
X150120000Y-49980000D03*
D27*
X171511000Y-112791000D03*
X171511000Y-112141000D03*
X171511000Y-111491000D03*
X169611000Y-111491000D03*
X169611000Y-112141000D03*
X169611000Y-112791000D03*
D23*
X123770000Y-55880000D03*
D22*
X130810000Y-60960000D03*
X133270000Y-52180000D03*
X123270000Y-52180000D03*
D23*
X123190000Y-55880000D03*
X132770000Y-55880000D03*
D24*
X133770000Y-55880000D03*
D23*
X133350000Y-55880000D03*
D22*
X124460000Y-58420000D03*
X125730000Y-60960000D03*
X128270000Y-49980000D03*
D21*
X128270000Y-55880000D03*
D22*
X132080000Y-58420000D03*
D24*
X122770000Y-55880000D03*
D25*
X120170000Y-52180000D03*
X133870000Y-60960000D03*
D26*
X131070000Y-49980000D03*
D25*
X121370000Y-58420000D03*
D28*
X77485000Y-57785000D03*
D29*
X76185000Y-57785000D03*
D28*
X72024000Y-86360000D03*
D29*
X70724000Y-86360000D03*
D25*
X63460000Y-77590000D03*
D18*
X58460000Y-77590000D03*
X60960000Y-77590000D03*
D30*
X66560000Y-85090000D03*
X55360000Y-85090000D03*
D18*
X58460000Y-92090000D03*
X63460000Y-92090000D03*
D13*
X99695000Y-119126000D03*
D20*
X99695000Y-117091000D03*
D14*
X99695000Y-111506000D03*
D20*
X99695000Y-113541000D03*
D31*
X58470800Y-75072000D03*
D32*
X58470800Y-73772000D03*
D33*
X50295000Y-121031000D03*
D13*
X48260000Y-121031000D03*
D14*
X55880000Y-121031000D03*
D33*
X53845000Y-121031000D03*
D15*
X46355000Y-48223600D03*
X47625000Y-64770000D03*
X50165000Y-64770000D03*
X48895000Y-48223600D03*
X51435000Y-48223600D03*
X52705000Y-64770000D03*
X55245000Y-64770000D03*
X53975000Y-48223600D03*
X56515000Y-48223600D03*
X57785000Y-64770000D03*
X59055000Y-48223600D03*
X60325000Y-64770000D03*
X61595000Y-48223600D03*
X62865000Y-64770000D03*
X65405000Y-64770000D03*
X64135000Y-48223600D03*
X66675000Y-48223600D03*
X67945000Y-64770000D03*
X70485000Y-64770000D03*
X69215000Y-48223600D03*
X73025000Y-64770000D03*
X71755000Y-48223600D03*
X75565000Y-64770000D03*
X74295000Y-48223600D03*
X75565000Y-49530000D03*
X74295000Y-63443600D03*
X73025000Y-49530000D03*
X71755000Y-63443600D03*
X69215000Y-63443600D03*
X70485000Y-49530000D03*
X67945000Y-49530000D03*
X66675000Y-63443600D03*
X64135000Y-63443600D03*
X65405000Y-49530000D03*
X62865000Y-49530000D03*
X61595000Y-63443600D03*
X60325000Y-49530000D03*
X59055000Y-63443600D03*
X57785000Y-49530000D03*
X56515000Y-63443600D03*
X53975000Y-63443600D03*
X55245000Y-49530000D03*
X52705000Y-49530000D03*
X51435000Y-63443600D03*
X50165000Y-49530000D03*
X48895000Y-63443600D03*
X46355000Y-63443600D03*
X47625000Y-49530000D03*
D14*
X144272000Y-109855000D03*
X144272000Y-112395000D03*
X144272000Y-114935000D03*
X144272000Y-117475000D03*
D34*
X146243000Y-114802500D03*
X147193000Y-114802500D03*
X148143000Y-114802500D03*
X148143000Y-112527500D03*
X146243000Y-112527500D03*
D22*
X90170000Y-107130000D03*
X92710000Y-118110000D03*
X95170000Y-109330000D03*
X93980000Y-115570000D03*
X86360000Y-115570000D03*
D21*
X90170000Y-113030000D03*
D24*
X84670000Y-113030000D03*
D23*
X95250000Y-113030000D03*
D22*
X87630000Y-118110000D03*
D23*
X85670000Y-113030000D03*
X85090000Y-113030000D03*
X94670000Y-113030000D03*
D24*
X95670000Y-113030000D03*
D22*
X85170000Y-109330000D03*
D25*
X82070000Y-109330000D03*
X95770000Y-118110000D03*
D26*
X92970000Y-107130000D03*
D25*
X83270000Y-115570000D03*
D19*
X146625500Y-110871000D03*
X147760500Y-110871000D03*
D13*
X99695000Y-81026000D03*
D20*
X99695000Y-78991000D03*
X99695000Y-75441000D03*
D14*
X99695000Y-73406000D03*
D23*
X132770000Y-93980000D03*
D21*
X128270000Y-93980000D03*
D24*
X133770000Y-93980000D03*
D23*
X123770000Y-93980000D03*
D22*
X124460000Y-96520000D03*
D23*
X133350000Y-93980000D03*
D22*
X132080000Y-96520000D03*
X133270000Y-90280000D03*
X123270000Y-90280000D03*
D24*
X122770000Y-93980000D03*
D23*
X123190000Y-93980000D03*
D22*
X130810000Y-99060000D03*
X128270000Y-88080000D03*
X125730000Y-99060000D03*
D25*
X133870000Y-99060000D03*
X120170000Y-90280000D03*
X121370000Y-96520000D03*
D26*
X131070000Y-88080000D03*
D28*
X72024000Y-83820000D03*
D29*
X70724000Y-83820000D03*
D22*
X48260000Y-115570000D03*
D23*
X46990000Y-113030000D03*
D22*
X54610000Y-118110000D03*
X57070000Y-109330000D03*
X49530000Y-118110000D03*
X47070000Y-109330000D03*
X55880000Y-115570000D03*
D23*
X57150000Y-113030000D03*
D22*
X52070000Y-107130000D03*
D23*
X56570000Y-113030000D03*
X47570000Y-113030000D03*
D24*
X46570000Y-113030000D03*
X57570000Y-113030000D03*
D21*
X52070000Y-113030000D03*
D25*
X43970000Y-109330000D03*
X57670000Y-118110000D03*
D26*
X54870000Y-107130000D03*
D25*
X45170000Y-115570000D03*
D20*
X99695000Y-98041000D03*
D13*
X99695000Y-100076000D03*
D20*
X99695000Y-94491000D03*
D14*
X99695000Y-92456000D03*
D27*
X171511000Y-115712000D03*
X171511000Y-115062000D03*
X171511000Y-114412000D03*
X169611000Y-114412000D03*
X169611000Y-115062000D03*
X169611000Y-115712000D03*
D35*
X164669000Y-108315000D03*
D16*
X162889000Y-108315000D03*
X161109000Y-108315000D03*
X159329000Y-108315000D03*
X157549000Y-108315000D03*
X155769000Y-108315000D03*
X153989000Y-108315000D03*
X152209000Y-108315000D03*
X151319000Y-119015000D03*
X153099000Y-119015000D03*
X154879000Y-119015000D03*
X156659000Y-119015000D03*
X158439000Y-119015000D03*
X160219000Y-119015000D03*
X161999000Y-119015000D03*
X163779000Y-119015000D03*
D31*
X63474600Y-75061600D03*
D32*
X63474600Y-73761600D03*
D20*
X118745000Y-59941000D03*
D13*
X118745000Y-61976000D03*
D20*
X118745000Y-56391000D03*
D14*
X118745000Y-54356000D03*
D36*
X156845000Y-84455000D03*
D22*
X168910000Y-80010000D03*
D23*
X161870000Y-74930000D03*
D22*
X162560000Y-77470000D03*
X161370000Y-71230000D03*
D24*
X160870000Y-74930000D03*
X171870000Y-74930000D03*
D22*
X163830000Y-80010000D03*
X166370000Y-69030000D03*
D21*
X166370000Y-74930000D03*
D22*
X170180000Y-77470000D03*
X171370000Y-71230000D03*
D23*
X171450000Y-74930000D03*
X161290000Y-74930000D03*
X170870000Y-74930000D03*
D25*
X158270000Y-71230000D03*
X171970000Y-80010000D03*
D26*
X169170000Y-69030000D03*
D25*
X159470000Y-77470000D03*
D19*
X146625500Y-116332000D03*
X147760500Y-116332000D03*
D33*
X91945000Y-64008000D03*
D13*
X93980000Y-64008000D03*
D14*
X86360000Y-64008000D03*
D33*
X88395000Y-64008000D03*
D23*
X133350000Y-74930000D03*
D24*
X122770000Y-74930000D03*
D22*
X130810000Y-80010000D03*
X123270000Y-71230000D03*
D23*
X123770000Y-74930000D03*
D22*
X124460000Y-77470000D03*
D24*
X133770000Y-74930000D03*
D23*
X132770000Y-74930000D03*
D22*
X125730000Y-80010000D03*
X132080000Y-77470000D03*
X128270000Y-69030000D03*
D21*
X128270000Y-74930000D03*
D22*
X133270000Y-71230000D03*
D23*
X123190000Y-74930000D03*
D25*
X133870000Y-80010000D03*
X120170000Y-71230000D03*
D26*
X131070000Y-69030000D03*
D25*
X121370000Y-77470000D03*
D37*
X146595500Y-109728000D03*
X147790500Y-109728000D03*
D38*
X170269000Y-104140000D03*
X166112750Y-104140000D03*
X165519000Y-104140000D03*
X166706500Y-104140000D03*
X167894000Y-104140000D03*
X167300250Y-104140000D03*
X168487750Y-104140000D03*
X169675250Y-104140000D03*
X169081500Y-104140000D03*
D28*
X77485000Y-60325000D03*
D29*
X76185000Y-60325000D03*
D16*
X44122000Y-71106000D03*
X51122000Y-71106000D03*
X51122000Y-69356000D03*
X44122000Y-69356000D03*
D17*
X54422000Y-69006000D03*
X54422000Y-71456000D03*
X45922000Y-73206000D03*
X45922000Y-67256000D03*
X48922000Y-73206000D03*
X48922000Y-67256000D03*
X52922000Y-73206000D03*
X52922000Y-67256000D03*
D13*
X118745000Y-81026000D03*
D20*
X118745000Y-78991000D03*
D14*
X118745000Y-73406000D03*
D20*
X118745000Y-75441000D03*
D28*
X77485000Y-52705000D03*
D29*
X76185000Y-52705000D03*
D22*
X113030000Y-77470000D03*
X105410000Y-77470000D03*
D24*
X114720000Y-74930000D03*
D22*
X106680000Y-80010000D03*
D24*
X103720000Y-74930000D03*
D22*
X111760000Y-80010000D03*
D23*
X113720000Y-74930000D03*
X104720000Y-74930000D03*
X114300000Y-74930000D03*
D21*
X109220000Y-74930000D03*
D22*
X104220000Y-71230000D03*
X114220000Y-71230000D03*
D23*
X104140000Y-74930000D03*
D22*
X109220000Y-69030000D03*
D25*
X114820000Y-80010000D03*
X101120000Y-71230000D03*
X102320000Y-77470000D03*
D26*
X112020000Y-69030000D03*
D13*
X99695000Y-61976000D03*
D20*
X99695000Y-59941000D03*
X99695000Y-56391000D03*
D14*
X99695000Y-54356000D03*
D39*
X147790500Y-106299000D03*
X146595500Y-106299000D03*
D13*
X80645000Y-81026000D03*
D20*
X80645000Y-78991000D03*
D14*
X80645000Y-73406000D03*
D20*
X80645000Y-75441000D03*
D18*
X44831000Y-102056000D03*
X44831000Y-95556000D03*
D20*
X137795000Y-78991000D03*
D13*
X137795000Y-81026000D03*
D20*
X137795000Y-75441000D03*
D14*
X137795000Y-73406000D03*
D20*
X118745000Y-98041000D03*
D13*
X118745000Y-100076000D03*
D20*
X118745000Y-94491000D03*
D14*
X118745000Y-92456000D03*
D28*
X72024000Y-88900000D03*
D29*
X70724000Y-88900000D03*
D13*
X156845000Y-100076000D03*
D20*
X156845000Y-98041000D03*
X156845000Y-94491000D03*
D14*
X156845000Y-92456000D03*
D40*
X51010000Y-99485000D03*
X50570000Y-98425000D03*
X52070000Y-96925000D03*
X53130000Y-99485000D03*
X51010000Y-97365000D03*
D41*
X52070000Y-98425000D03*
D40*
X52070000Y-99925000D03*
X53570000Y-98425000D03*
X53130000Y-97365000D03*
D23*
X95250000Y-55880000D03*
D24*
X95670000Y-55880000D03*
D23*
X94670000Y-55880000D03*
X85090000Y-55880000D03*
D22*
X90170000Y-49980000D03*
D23*
X85670000Y-55880000D03*
D22*
X93980000Y-58420000D03*
X85170000Y-52180000D03*
D21*
X90170000Y-55880000D03*
D24*
X84670000Y-55880000D03*
D22*
X92710000Y-60960000D03*
X86360000Y-58420000D03*
X87630000Y-60960000D03*
X95170000Y-52180000D03*
D25*
X82070000Y-52180000D03*
X95770000Y-60960000D03*
D26*
X92970000Y-49980000D03*
D25*
X83270000Y-58420000D03*
D14*
X173736000Y-117348000D03*
X173736000Y-114808000D03*
X173736000Y-112268000D03*
X173736000Y-109728000D03*
D23*
X95250000Y-93980000D03*
D22*
X87630000Y-99060000D03*
X92710000Y-99060000D03*
X95170000Y-90280000D03*
X85170000Y-90280000D03*
X90170000Y-88080000D03*
D23*
X85670000Y-93980000D03*
X85090000Y-93980000D03*
D21*
X90170000Y-93980000D03*
D24*
X95670000Y-93980000D03*
D23*
X94670000Y-93980000D03*
D24*
X84670000Y-93980000D03*
D22*
X86360000Y-96520000D03*
X93980000Y-96520000D03*
D25*
X82070000Y-90280000D03*
X95770000Y-99060000D03*
X83270000Y-96520000D03*
D26*
X92970000Y-88080000D03*
D36*
X156845000Y-65405000D03*
D20*
X156845000Y-59941000D03*
D13*
X156845000Y-61976000D03*
D14*
X156845000Y-54356000D03*
D20*
X156845000Y-56391000D03*
D23*
X113720000Y-113030000D03*
D22*
X105410000Y-115570000D03*
D24*
X114720000Y-113030000D03*
D23*
X104140000Y-113030000D03*
D22*
X113030000Y-115570000D03*
X109220000Y-107130000D03*
X104220000Y-109330000D03*
D24*
X103720000Y-113030000D03*
D22*
X106680000Y-118110000D03*
X114220000Y-109330000D03*
D21*
X109220000Y-113030000D03*
D23*
X104720000Y-113030000D03*
X114300000Y-113030000D03*
D22*
X111760000Y-118110000D03*
D25*
X101120000Y-109330000D03*
X114820000Y-118110000D03*
D26*
X112020000Y-107130000D03*
D25*
X102320000Y-115570000D03*
D23*
X75620000Y-113030000D03*
D21*
X71120000Y-113030000D03*
D23*
X66040000Y-113030000D03*
D22*
X71120000Y-107130000D03*
X73660000Y-118110000D03*
X67310000Y-115570000D03*
D23*
X76200000Y-113030000D03*
D22*
X76120000Y-109330000D03*
X74930000Y-115570000D03*
X68580000Y-118110000D03*
D23*
X66620000Y-113030000D03*
D24*
X76620000Y-113030000D03*
D22*
X66120000Y-109330000D03*
D24*
X65620000Y-113030000D03*
D25*
X63020000Y-109330000D03*
X76720000Y-118110000D03*
X64220000Y-115570000D03*
D26*
X73920000Y-107130000D03*
D14*
X46228000Y-81280000D03*
X46228000Y-83820000D03*
X46228000Y-86360000D03*
X46228000Y-88900000D03*
D23*
X95250000Y-74930000D03*
X85090000Y-74930000D03*
X94670000Y-74930000D03*
D22*
X95170000Y-71230000D03*
D24*
X84670000Y-74930000D03*
D22*
X92710000Y-80010000D03*
X86360000Y-77470000D03*
X90170000Y-69030000D03*
D24*
X95670000Y-74930000D03*
D22*
X85170000Y-71230000D03*
D23*
X85670000Y-74930000D03*
D22*
X87630000Y-80010000D03*
X93980000Y-77470000D03*
D21*
X90170000Y-74930000D03*
D25*
X95770000Y-80010000D03*
X82070000Y-71230000D03*
X83270000Y-77470000D03*
D26*
X92970000Y-69030000D03*
D33*
X62735000Y-94742000D03*
D13*
X64770000Y-94742000D03*
D14*
X57150000Y-94742000D03*
D33*
X59185000Y-94742000D03*
D21*
X166370000Y-55880000D03*
D24*
X160870000Y-55880000D03*
D22*
X161370000Y-52180000D03*
D24*
X171870000Y-55880000D03*
D22*
X163830000Y-60960000D03*
X170180000Y-58420000D03*
D23*
X170870000Y-55880000D03*
D22*
X168910000Y-60960000D03*
X171370000Y-52180000D03*
X162560000Y-58420000D03*
D23*
X171450000Y-55880000D03*
D22*
X166370000Y-49980000D03*
D23*
X161870000Y-55880000D03*
X161290000Y-55880000D03*
D25*
X171970000Y-60960000D03*
X158270000Y-52180000D03*
X159470000Y-58420000D03*
D26*
X169170000Y-49980000D03*
D28*
X72024000Y-81153000D03*
D29*
X70724000Y-81153000D03*
D13*
X61595000Y-119126000D03*
D20*
X61595000Y-117091000D03*
X61595000Y-113541000D03*
D14*
X61595000Y-111506000D03*
D42*
X147760500Y-107442000D03*
X146625500Y-107442000D03*
D27*
X171511000Y-109870000D03*
X171511000Y-109220000D03*
X171511000Y-108570000D03*
X169611000Y-108570000D03*
X169611000Y-109220000D03*
X169611000Y-109870000D03*
D20*
X137795000Y-98041000D03*
D13*
X137795000Y-100076000D03*
D20*
X137795000Y-94491000D03*
D14*
X137795000Y-92456000D03*
D24*
X103720000Y-55880000D03*
D22*
X109220000Y-49980000D03*
D23*
X114300000Y-55880000D03*
X104140000Y-55880000D03*
D22*
X106680000Y-60960000D03*
X114220000Y-52180000D03*
X111760000Y-60960000D03*
D23*
X113720000Y-55880000D03*
D22*
X104220000Y-52180000D03*
D23*
X104720000Y-55880000D03*
D22*
X113030000Y-58420000D03*
D24*
X114720000Y-55880000D03*
D22*
X105410000Y-58420000D03*
D21*
X109220000Y-55880000D03*
D25*
X101120000Y-52180000D03*
X114820000Y-60960000D03*
X102320000Y-58420000D03*
D26*
X112020000Y-49980000D03*
D24*
X103720000Y-93980000D03*
D23*
X104720000Y-93980000D03*
D22*
X106680000Y-99060000D03*
X105410000Y-96520000D03*
D21*
X109220000Y-93980000D03*
D23*
X113720000Y-93980000D03*
D22*
X109220000Y-88080000D03*
D24*
X114720000Y-93980000D03*
D23*
X114300000Y-93980000D03*
D22*
X114220000Y-90280000D03*
X104220000Y-90280000D03*
X113030000Y-96520000D03*
D23*
X104140000Y-93980000D03*
D22*
X111760000Y-99060000D03*
D25*
X101120000Y-90280000D03*
X114820000Y-99060000D03*
D26*
X112020000Y-88080000D03*
D25*
X102320000Y-96520000D03*
D36*
X99695000Y-84455000D03*
D38*
X149520250Y-104140000D03*
X148926500Y-104140000D03*
X152489000Y-104140000D03*
X147739000Y-104140000D03*
X151301500Y-104140000D03*
X148332750Y-104140000D03*
X151895250Y-104140000D03*
X150707750Y-104140000D03*
X150114000Y-104140000D03*
D13*
X80645000Y-119126000D03*
D20*
X80645000Y-117091000D03*
D14*
X80645000Y-111506000D03*
D20*
X80645000Y-113541000D03*
D22*
X143510000Y-77470000D03*
D24*
X141820000Y-74930000D03*
D22*
X149860000Y-80010000D03*
D23*
X151820000Y-74930000D03*
D22*
X144780000Y-80010000D03*
D23*
X152400000Y-74930000D03*
D22*
X152320000Y-71230000D03*
D24*
X152820000Y-74930000D03*
D22*
X142320000Y-71230000D03*
X147320000Y-69030000D03*
D21*
X147320000Y-74930000D03*
D23*
X142240000Y-74930000D03*
D22*
X151130000Y-77470000D03*
D23*
X142820000Y-74930000D03*
D25*
X139220000Y-71230000D03*
X152920000Y-80010000D03*
X140420000Y-77470000D03*
D26*
X150120000Y-69030000D03*
D27*
X171511000Y-118633000D03*
X171511000Y-117983000D03*
X171511000Y-117333000D03*
X169611000Y-117333000D03*
X169611000Y-117983000D03*
X169611000Y-118633000D03*
D36*
X122555000Y-108585000D03*
D22*
X152320000Y-90280000D03*
D23*
X151820000Y-93980000D03*
D22*
X149860000Y-99060000D03*
D24*
X152820000Y-93980000D03*
D22*
X142320000Y-90280000D03*
D23*
X142240000Y-93980000D03*
D22*
X151130000Y-96520000D03*
D21*
X147320000Y-93980000D03*
D22*
X143510000Y-96520000D03*
D24*
X141820000Y-93980000D03*
D22*
X147320000Y-88080000D03*
X144780000Y-99060000D03*
D23*
X152400000Y-93980000D03*
X142820000Y-93980000D03*
D25*
X152920000Y-99060000D03*
X139220000Y-90280000D03*
X140420000Y-96520000D03*
D26*
X150120000Y-88080000D03*
D28*
X77485000Y-55245000D03*
D29*
X76185000Y-55245000D03*
M02*
