G04 #@! TF.GenerationSoftware,KiCad,Pcbnew,(6.0.10)*
G04 #@! TF.CreationDate,2023-03-05T22:21:07-08:00*
G04 #@! TF.ProjectId,tsbym,74736279-6d2e-46b6-9963-61645f706362,rev?*
G04 #@! TF.SameCoordinates,Original*
G04 #@! TF.FileFunction,Paste,Top*
G04 #@! TF.FilePolarity,Positive*
%FSLAX46Y46*%
G04 Gerber Fmt 4.6, Leading zero omitted, Abs format (unit mm)*
G04 Created by KiCad (PCBNEW (6.0.10)) date 2023-03-05 22:21:07*
%MOMM*%
%LPD*%
G01*
G04 APERTURE LIST*
G04 Aperture macros list*
%AMRoundRect*
0 Rectangle with rounded corners*
0 $1 Rounding radius*
0 $2 $3 $4 $5 $6 $7 $8 $9 X,Y pos of 4 corners*
0 Add a 4 corners polygon primitive as box body*
4,1,4,$2,$3,$4,$5,$6,$7,$8,$9,$2,$3,0*
0 Add four circle primitives for the rounded corners*
1,1,$1+$1,$2,$3*
1,1,$1+$1,$4,$5*
1,1,$1+$1,$6,$7*
1,1,$1+$1,$8,$9*
0 Add four rect primitives between the rounded corners*
20,1,$1+$1,$2,$3,$4,$5,0*
20,1,$1+$1,$4,$5,$6,$7,0*
20,1,$1+$1,$6,$7,$8,$9,0*
20,1,$1+$1,$8,$9,$2,$3,0*%
G04 Aperture macros list end*
%ADD10RoundRect,0.155000X-0.212500X-0.155000X0.212500X-0.155000X0.212500X0.155000X-0.212500X0.155000X0*%
%ADD11R,0.950000X1.300000*%
%ADD12R,2.000000X2.000000*%
%ADD13R,1.800000X2.000000*%
%ADD14R,0.650000X0.400000*%
%ADD15R,1.300000X0.950000*%
%ADD16RoundRect,0.150000X0.150000X-0.512500X0.150000X0.512500X-0.150000X0.512500X-0.150000X-0.512500X0*%
%ADD17RoundRect,0.160000X-0.197500X-0.160000X0.197500X-0.160000X0.197500X0.160000X-0.197500X0.160000X0*%
%ADD18RoundRect,0.160000X0.197500X0.160000X-0.197500X0.160000X-0.197500X-0.160000X0.197500X-0.160000X0*%
%ADD19RoundRect,0.155000X0.212500X0.155000X-0.212500X0.155000X-0.212500X-0.155000X0.212500X-0.155000X0*%
G04 APERTURE END LIST*
D10*
X146625500Y-117348000D03*
X147760500Y-117348000D03*
D11*
X137795000Y-59941000D03*
X137795000Y-56391000D03*
X80645000Y-98041000D03*
X80645000Y-94491000D03*
X156845000Y-78991000D03*
X156845000Y-75441000D03*
D12*
X158270000Y-90280000D03*
X171970000Y-99060000D03*
D13*
X169170000Y-88080000D03*
D12*
X159470000Y-96520000D03*
X152920000Y-60960000D03*
X139220000Y-52180000D03*
X140420000Y-58420000D03*
D13*
X150120000Y-49980000D03*
D14*
X171511000Y-112791000D03*
X171511000Y-112141000D03*
X171511000Y-111491000D03*
X169611000Y-111491000D03*
X169611000Y-112141000D03*
X169611000Y-112791000D03*
D12*
X120170000Y-52180000D03*
X133870000Y-60960000D03*
D13*
X131070000Y-49980000D03*
D12*
X121370000Y-58420000D03*
D11*
X99695000Y-117091000D03*
X99695000Y-113541000D03*
D15*
X50295000Y-121031000D03*
X53845000Y-121031000D03*
D16*
X146243000Y-114802500D03*
X147193000Y-114802500D03*
X148143000Y-114802500D03*
X148143000Y-112527500D03*
X146243000Y-112527500D03*
D12*
X82070000Y-109330000D03*
X95770000Y-118110000D03*
D13*
X92970000Y-107130000D03*
D12*
X83270000Y-115570000D03*
D10*
X146625500Y-110871000D03*
X147760500Y-110871000D03*
D11*
X99695000Y-78991000D03*
X99695000Y-75441000D03*
D12*
X133870000Y-99060000D03*
X120170000Y-90280000D03*
X121370000Y-96520000D03*
D13*
X131070000Y-88080000D03*
D12*
X43970000Y-109330000D03*
X57670000Y-118110000D03*
D13*
X54870000Y-107130000D03*
D12*
X45170000Y-115570000D03*
D11*
X99695000Y-98041000D03*
X99695000Y-94491000D03*
D14*
X171511000Y-115712000D03*
X171511000Y-115062000D03*
X171511000Y-114412000D03*
X169611000Y-114412000D03*
X169611000Y-115062000D03*
X169611000Y-115712000D03*
D11*
X118745000Y-59941000D03*
X118745000Y-56391000D03*
D12*
X158270000Y-71230000D03*
X171970000Y-80010000D03*
D13*
X169170000Y-69030000D03*
D12*
X159470000Y-77470000D03*
D10*
X146625500Y-116332000D03*
X147760500Y-116332000D03*
D15*
X91945000Y-64008000D03*
X88395000Y-64008000D03*
D12*
X133870000Y-80010000D03*
X120170000Y-71230000D03*
D13*
X131070000Y-69030000D03*
D12*
X121370000Y-77470000D03*
D17*
X146595500Y-109728000D03*
X147790500Y-109728000D03*
D11*
X118745000Y-78991000D03*
X118745000Y-75441000D03*
D12*
X114820000Y-80010000D03*
X101120000Y-71230000D03*
X102320000Y-77470000D03*
D13*
X112020000Y-69030000D03*
D11*
X99695000Y-59941000D03*
X99695000Y-56391000D03*
D18*
X147790500Y-106299000D03*
X146595500Y-106299000D03*
D11*
X80645000Y-78991000D03*
X80645000Y-75441000D03*
X137795000Y-78991000D03*
X137795000Y-75441000D03*
X118745000Y-98041000D03*
X118745000Y-94491000D03*
X156845000Y-98041000D03*
X156845000Y-94491000D03*
D12*
X82070000Y-52180000D03*
X95770000Y-60960000D03*
D13*
X92970000Y-49980000D03*
D12*
X83270000Y-58420000D03*
X82070000Y-90280000D03*
X95770000Y-99060000D03*
X83270000Y-96520000D03*
D13*
X92970000Y-88080000D03*
D11*
X156845000Y-59941000D03*
X156845000Y-56391000D03*
D12*
X101120000Y-109330000D03*
X114820000Y-118110000D03*
D13*
X112020000Y-107130000D03*
D12*
X102320000Y-115570000D03*
X63020000Y-109330000D03*
X76720000Y-118110000D03*
X64220000Y-115570000D03*
D13*
X73920000Y-107130000D03*
D12*
X95770000Y-80010000D03*
X82070000Y-71230000D03*
X83270000Y-77470000D03*
D13*
X92970000Y-69030000D03*
D15*
X62735000Y-94742000D03*
X59185000Y-94742000D03*
D12*
X171970000Y-60960000D03*
X158270000Y-52180000D03*
X159470000Y-58420000D03*
D13*
X169170000Y-49980000D03*
D11*
X61595000Y-117091000D03*
X61595000Y-113541000D03*
D19*
X147760500Y-107442000D03*
X146625500Y-107442000D03*
D14*
X171511000Y-109870000D03*
X171511000Y-109220000D03*
X171511000Y-108570000D03*
X169611000Y-108570000D03*
X169611000Y-109220000D03*
X169611000Y-109870000D03*
D11*
X137795000Y-98041000D03*
X137795000Y-94491000D03*
D12*
X101120000Y-52180000D03*
X114820000Y-60960000D03*
X102320000Y-58420000D03*
D13*
X112020000Y-49980000D03*
D12*
X101120000Y-90280000D03*
X114820000Y-99060000D03*
D13*
X112020000Y-88080000D03*
D12*
X102320000Y-96520000D03*
D11*
X80645000Y-117091000D03*
X80645000Y-113541000D03*
D12*
X139220000Y-71230000D03*
X152920000Y-80010000D03*
X140420000Y-77470000D03*
D13*
X150120000Y-69030000D03*
D14*
X171511000Y-118633000D03*
X171511000Y-117983000D03*
X171511000Y-117333000D03*
X169611000Y-117333000D03*
X169611000Y-117983000D03*
X169611000Y-118633000D03*
D12*
X152920000Y-99060000D03*
X139220000Y-90280000D03*
X140420000Y-96520000D03*
D13*
X150120000Y-88080000D03*
M02*
