M48
; DRILL file {KiCad (6.0.10)} date Sun Mar  5 22:21:04 2023
; FORMAT={-:-/ absolute / metric / decimal}
; #@! TF.CreationDate,2023-03-05T22:21:04-08:00
; #@! TF.GenerationSoftware,Kicad,Pcbnew,(6.0.10)
; #@! TF.FileFunction,Plated,1,2,PTH
FMAT,2
METRIC
; #@! TA.AperFunction,Plated,PTH,ViaDrill
T1C0.400
; #@! TA.AperFunction,Plated,PTH,ComponentDrill
T2C0.400
; #@! TA.AperFunction,Plated,PTH,ComponentDrill
T3C0.700
; #@! TA.AperFunction,Plated,PTH,ComponentDrill
T4C0.813
; #@! TA.AperFunction,Plated,PTH,ComponentDrill
T5C1.000
; #@! TA.AperFunction,Plated,PTH,ComponentDrill
T6C1.300
; #@! TA.AperFunction,Plated,PTH,ComponentDrill
T7C1.500
; #@! TA.AperFunction,Plated,PTH,ComponentDrill
T8C2.300
%
G90
G05
T1
X45.085Y-113.919
X46.355Y-51.054
X48.895Y-51.054
X48.895Y-60.325
X50.54Y-109.278
X51.435Y-51.054
X52.197Y-52.578
X52.197Y-60.325
X53.975Y-51.054
X53.975Y-54.61
X53.975Y-57.785
X56.515Y-51.054
X57.277Y-53.594
X57.277Y-59.055
X59.055Y-51.054
X59.817Y-56.515
X59.944Y-73.787
X60.17Y-113.82
X61.595Y-51.054
X64.135Y-51.054
X64.135Y-113.919
X65.532Y-70.612
X65.532Y-71.755
X66.675Y-51.054
X66.675Y-76.708
X67.31Y-81.153
X68.834Y-81.153
X69.215Y-51.054
X69.215Y-71.755
X69.59Y-109.278
X69.596Y-83.82
X69.723Y-76.708
X71.755Y-51.054
X71.755Y-71.755
X73.406Y-51.054
X74.295Y-71.755
X75.438Y-51.435
X75.438Y-53.975
X75.438Y-56.515
X75.438Y-59.055
X75.946Y-67.31
X75.946Y-68.326
X75.946Y-69.342
X77.47Y-95.885
X77.47Y-100.965
X78.486Y-68.326
X78.486Y-83.439
X79.22Y-113.82
X79.502Y-69.342
X80.962Y-86.042
X82.042Y-69.088
X83.185Y-56.769
X83.185Y-75.819
X83.185Y-94.869
X83.185Y-113.919
X84.074Y-48.006
X84.836Y-105.156
X88.64Y-71.178
X88.64Y-90.228
X88.64Y-109.278
X88.646Y-52.07
X95.25Y-102.87
X97.409Y-105.156
X98.27Y-61.75
X98.27Y-64.29
X98.27Y-80.8
X98.27Y-99.85
X98.27Y-113.82
X102.235Y-56.769
X102.235Y-75.819
X102.235Y-94.869
X102.235Y-113.919
X107.69Y-71.178
X107.69Y-90.228
X107.69Y-109.278
X107.696Y-52.07
X114.3Y-102.87
X117.32Y-61.75
X117.32Y-64.29
X117.32Y-80.8
X117.32Y-83.975
X117.32Y-99.85
X117.32Y-113.82
X117.348Y-117.602
X121.285Y-56.769
X121.285Y-75.819
X121.285Y-94.869
X126.74Y-52.076
X126.74Y-71.178
X126.74Y-90.228
X136.37Y-61.75
X136.37Y-64.29
X136.37Y-80.8
X136.37Y-83.975
X136.37Y-99.85
X140.335Y-56.769
X140.335Y-75.819
X140.335Y-94.869
X145.79Y-52.076
X145.79Y-71.178
X145.79Y-90.228
X148.844Y-107.442
X155.42Y-61.75
X155.42Y-80.8
X155.42Y-99.85
X159.385Y-56.769
X159.385Y-75.819
X159.385Y-94.869
X164.84Y-52.076
X164.84Y-71.178
X164.84Y-90.228
X167.64Y-119.761
X168.656Y-109.855
X168.656Y-111.506
X168.656Y-112.903
X168.656Y-114.554
X169.481Y-116.522
X169.545Y-119.761
X170.561Y-107.823
X170.561Y-110.617
X170.561Y-113.665
X170.561Y-116.586
X172.593Y-110.49
X172.593Y-113.03
X172.593Y-115.57
X172.593Y-118.11
X174.458Y-99.85
X174.47Y-61.75
X174.47Y-80.8
X174.47Y-94.77
T2
X50.57Y-98.425
X51.01Y-97.365
X51.01Y-99.485
X52.07Y-96.925
X52.07Y-99.925
X53.13Y-97.365
X53.13Y-99.485
X53.57Y-98.425
T3
X151.319Y-119.015
X152.209Y-108.315
X153.099Y-119.015
X153.989Y-108.315
X154.879Y-119.015
X155.769Y-108.315
X156.659Y-119.015
X157.549Y-108.315
X158.439Y-119.015
X159.329Y-108.315
X160.219Y-119.015
X161.109Y-108.315
X161.999Y-119.015
X162.889Y-108.315
X163.779Y-119.015
X164.669Y-108.315
T4
X46.228Y-81.28
X46.228Y-83.82
X46.228Y-86.36
X46.228Y-88.9
X46.355Y-48.224
X46.355Y-63.444
X47.625Y-49.53
X47.625Y-64.77
X48.26Y-121.031
X48.895Y-48.224
X48.895Y-63.444
X50.165Y-49.53
X50.165Y-64.77
X51.435Y-48.224
X51.435Y-63.444
X52.705Y-49.53
X52.705Y-64.77
X53.975Y-48.224
X53.975Y-63.444
X55.245Y-49.53
X55.245Y-64.77
X55.88Y-121.031
X56.515Y-48.224
X56.515Y-63.444
X57.15Y-94.742
X57.785Y-49.53
X57.785Y-64.77
X59.055Y-48.224
X59.055Y-63.444
X60.325Y-49.53
X60.325Y-64.77
X61.595Y-48.224
X61.595Y-63.444
X61.595Y-111.506
X61.595Y-119.126
X62.865Y-49.53
X62.865Y-64.77
X64.135Y-48.224
X64.135Y-63.444
X64.77Y-94.742
X65.405Y-49.53
X65.405Y-64.77
X66.675Y-48.224
X66.675Y-63.444
X67.945Y-49.53
X67.945Y-64.77
X69.215Y-48.224
X69.215Y-63.444
X70.485Y-49.53
X70.485Y-64.77
X71.755Y-48.224
X71.755Y-63.444
X73.025Y-49.53
X73.025Y-64.77
X74.295Y-48.224
X74.295Y-63.444
X75.565Y-49.53
X75.565Y-64.77
X75.692Y-81.28
X75.692Y-83.82
X75.692Y-86.36
X75.692Y-88.9
X78.994Y-52.705
X78.994Y-55.245
X78.994Y-57.785
X78.994Y-60.325
X80.645Y-73.406
X80.645Y-81.026
X80.645Y-92.456
X80.645Y-100.076
X80.645Y-111.506
X80.645Y-119.126
X86.36Y-64.008
X93.98Y-64.008
X99.695Y-54.356
X99.695Y-61.976
X99.695Y-73.406
X99.695Y-81.026
X99.695Y-92.456
X99.695Y-100.076
X99.695Y-111.506
X99.695Y-119.126
X118.745Y-54.356
X118.745Y-61.976
X118.745Y-73.406
X118.745Y-81.026
X118.745Y-92.456
X118.745Y-100.076
X137.795Y-54.356
X137.795Y-61.976
X137.795Y-73.406
X137.795Y-81.026
X137.795Y-92.456
X137.795Y-100.076
X144.272Y-109.855
X144.272Y-112.395
X144.272Y-114.935
X144.272Y-117.475
X156.845Y-54.356
X156.845Y-61.976
X156.845Y-73.406
X156.845Y-81.026
X156.845Y-92.456
X156.845Y-100.076
X173.736Y-109.728
X173.736Y-112.268
X173.736Y-114.808
X173.736Y-117.348
T5
X58.46Y-77.59
X58.46Y-92.09
X60.96Y-77.59
X63.46Y-77.59
X63.46Y-92.09
T6
X44.831Y-95.556
X44.831Y-102.056
T8
X52.07Y-98.425
T5
G00X45.672Y-67.256
M15
G01X46.172Y-67.256
M16
G05
G00X45.672Y-73.206
M15
G01X46.172Y-73.206
M16
G05
G00X48.672Y-67.256
M15
G01X49.172Y-67.256
M16
G05
G00X48.672Y-73.206
M15
G01X49.172Y-73.206
M16
G05
G00X52.672Y-67.256
M15
G01X53.172Y-67.256
M16
G05
G00X52.672Y-73.206
M15
G01X53.172Y-73.206
M16
G05
G00X54.172Y-69.006
M15
G01X54.672Y-69.006
M16
G05
G00X54.172Y-71.456
M15
G01X54.672Y-71.456
M16
G05
T7
G00X55.36Y-84.44
M15
G01X55.36Y-85.74
M16
G05
G00X66.56Y-84.44
M15
G01X66.56Y-85.74
M16
G05
T0
M30
