G04 #@! TF.GenerationSoftware,KiCad,Pcbnew,(6.0.10)*
G04 #@! TF.CreationDate,2023-03-05T22:21:07-08:00*
G04 #@! TF.ProjectId,tsbym,74736279-6d2e-46b6-9963-61645f706362,rev?*
G04 #@! TF.SameCoordinates,Original*
G04 #@! TF.FileFunction,Soldermask,Top*
G04 #@! TF.FilePolarity,Negative*
%FSLAX46Y46*%
G04 Gerber Fmt 4.6, Leading zero omitted, Abs format (unit mm)*
G04 Created by KiCad (PCBNEW (6.0.10)) date 2023-03-05 22:21:07*
%MOMM*%
%LPD*%
G01*
G04 APERTURE LIST*
G04 Aperture macros list*
%AMRoundRect*
0 Rectangle with rounded corners*
0 $1 Rounding radius*
0 $2 $3 $4 $5 $6 $7 $8 $9 X,Y pos of 4 corners*
0 Add a 4 corners polygon primitive as box body*
4,1,4,$2,$3,$4,$5,$6,$7,$8,$9,$2,$3,0*
0 Add four circle primitives for the rounded corners*
1,1,$1+$1,$2,$3*
1,1,$1+$1,$4,$5*
1,1,$1+$1,$6,$7*
1,1,$1+$1,$8,$9*
0 Add four rect primitives between the rounded corners*
20,1,$1+$1,$2,$3,$4,$5,0*
20,1,$1+$1,$4,$5,$6,$7,0*
20,1,$1+$1,$6,$7,$8,$9,0*
20,1,$1+$1,$8,$9,$2,$3,0*%
%AMFreePoly0*
4,1,22,0.500000,-0.750000,0.000000,-0.750000,0.000000,-0.745033,-0.079941,-0.743568,-0.215256,-0.701293,-0.333266,-0.622738,-0.424486,-0.514219,-0.481581,-0.384460,-0.499164,-0.250000,-0.500000,-0.250000,-0.500000,0.250000,-0.499164,0.250000,-0.499963,0.256109,-0.478152,0.396186,-0.417904,0.524511,-0.324060,0.630769,-0.204165,0.706417,-0.067858,0.745374,0.000000,0.744959,0.000000,0.750000,
0.500000,0.750000,0.500000,-0.750000,0.500000,-0.750000,$1*%
%AMFreePoly1*
4,1,20,0.000000,0.744959,0.073905,0.744508,0.209726,0.703889,0.328688,0.626782,0.421226,0.519385,0.479903,0.390333,0.500000,0.250000,0.500000,-0.250000,0.499851,-0.262216,0.476331,-0.402017,0.414519,-0.529596,0.319384,-0.634700,0.198574,-0.708877,0.061801,-0.746166,0.000000,-0.745033,0.000000,-0.750000,-0.500000,-0.750000,-0.500000,0.750000,0.000000,0.750000,0.000000,0.744959,
0.000000,0.744959,$1*%
G04 Aperture macros list end*
%ADD10C,0.150000*%
%ADD11RoundRect,0.155000X-0.212500X-0.155000X0.212500X-0.155000X0.212500X0.155000X-0.212500X0.155000X0*%
%ADD12R,0.950000X1.300000*%
%ADD13R,1.397000X1.397000*%
%ADD14C,1.397000*%
%ADD15C,4.100000*%
%ADD16C,3.000000*%
%ADD17C,1.700000*%
%ADD18C,1.900000*%
%ADD19R,2.000000X2.000000*%
%ADD20R,1.800000X2.000000*%
%ADD21R,0.650000X0.400000*%
%ADD22FreePoly0,180.000000*%
%ADD23FreePoly1,180.000000*%
%ADD24C,2.000000*%
%ADD25R,2.000000X3.200000*%
%ADD26FreePoly0,90.000000*%
%ADD27FreePoly1,90.000000*%
%ADD28R,1.300000X0.950000*%
%ADD29C,1.524000*%
%ADD30RoundRect,0.150000X0.150000X-0.512500X0.150000X0.512500X-0.150000X0.512500X-0.150000X-0.512500X0*%
%ADD31R,1.200000X1.200000*%
%ADD32C,1.200000*%
%ADD33C,4.300000*%
%ADD34RoundRect,0.160000X-0.197500X-0.160000X0.197500X-0.160000X0.197500X0.160000X-0.197500X0.160000X0*%
%ADD35C,0.300000*%
%ADD36O,2.500000X1.700000*%
%ADD37RoundRect,0.160000X0.197500X0.160000X-0.197500X0.160000X-0.197500X-0.160000X0.197500X-0.160000X0*%
%ADD38C,0.500000*%
%ADD39C,4.000000*%
%ADD40RoundRect,0.155000X0.212500X0.155000X-0.212500X0.155000X-0.212500X-0.155000X0.212500X-0.155000X0*%
G04 APERTURE END LIST*
D10*
X120152939Y-117461136D02*
X120152939Y-117528480D01*
X120085596Y-117663167D01*
X120018252Y-117730510D01*
X119883565Y-117797854D01*
X119748878Y-117797854D01*
X119647863Y-117764182D01*
X119479504Y-117663167D01*
X119378489Y-117562151D01*
X119277473Y-117393793D01*
X119243802Y-117292777D01*
X119243802Y-117158090D01*
X119311145Y-117023403D01*
X119378489Y-116956060D01*
X119513176Y-116888716D01*
X119580519Y-116888716D01*
X120220283Y-116181610D02*
X120119267Y-116215281D01*
X120018252Y-116316297D01*
X119950909Y-116450984D01*
X119950909Y-116585671D01*
X119984580Y-116686686D01*
X120085596Y-116855045D01*
X120186611Y-116956060D01*
X120354970Y-117057075D01*
X120455985Y-117090747D01*
X120590672Y-117090747D01*
X120725359Y-117023403D01*
X120792702Y-116956060D01*
X120860046Y-116821373D01*
X120860046Y-116754029D01*
X120624344Y-116518327D01*
X120489657Y-116653014D01*
X121163092Y-116585671D02*
X121062076Y-115743877D01*
X120691687Y-116114266D02*
X121533481Y-116215281D01*
X121802855Y-115945907D02*
X121095748Y-115238801D01*
X122206916Y-115541846D02*
X121499809Y-115440831D01*
X121499809Y-114834740D02*
X121499809Y-115642862D01*
X122375275Y-114632709D02*
X122509962Y-114565366D01*
X122577305Y-114565366D01*
X122678320Y-114599037D01*
X122779336Y-114700053D01*
X122813007Y-114801068D01*
X122813007Y-114868411D01*
X122779336Y-114969427D01*
X122509962Y-115238801D01*
X121802855Y-114531694D01*
X122038557Y-114295992D01*
X122139572Y-114262320D01*
X122206916Y-114262320D01*
X122307931Y-114295992D01*
X122375275Y-114363335D01*
X122408946Y-114464350D01*
X122408946Y-114531694D01*
X122375275Y-114632709D01*
X122139572Y-114868411D01*
X123217068Y-113588885D02*
X123856832Y-113891931D01*
X123553786Y-113252167D01*
X123722145Y-112612404D02*
X123789488Y-112545061D01*
X123890503Y-112511389D01*
X123957847Y-112511389D01*
X124058862Y-112545061D01*
X124227221Y-112646076D01*
X124395580Y-112814435D01*
X124496595Y-112982793D01*
X124530267Y-113083809D01*
X124530267Y-113151152D01*
X124496595Y-113252167D01*
X124429251Y-113319511D01*
X124328236Y-113353183D01*
X124260893Y-113353183D01*
X124159877Y-113319511D01*
X123991519Y-113218496D01*
X123823160Y-113050137D01*
X123722145Y-112881778D01*
X123688473Y-112780763D01*
X123688473Y-112713419D01*
X123722145Y-112612404D01*
X124900656Y-112713419D02*
X124968000Y-112713419D01*
X124968000Y-112780763D01*
X124900656Y-112780763D01*
X124900656Y-112713419D01*
X124968000Y-112780763D01*
X125675106Y-112073656D02*
X125271045Y-112477717D01*
X125473076Y-112275687D02*
X124765969Y-111568580D01*
X124799641Y-111736938D01*
X124799641Y-111871625D01*
X124765969Y-111972641D01*
X125910809Y-111703267D02*
X125978152Y-111703267D01*
X125978152Y-111770610D01*
X125910809Y-111770610D01*
X125910809Y-111703267D01*
X125978152Y-111770610D01*
X125742450Y-110592099D02*
X125809793Y-110524755D01*
X125910809Y-110491084D01*
X125978152Y-110491084D01*
X126079167Y-110524755D01*
X126247526Y-110625771D01*
X126415885Y-110794129D01*
X126516900Y-110962488D01*
X126550572Y-111063503D01*
X126550572Y-111130847D01*
X126516900Y-111231862D01*
X126449557Y-111299206D01*
X126348541Y-111332877D01*
X126281198Y-111332877D01*
X126180183Y-111299206D01*
X126011824Y-111198190D01*
X125843465Y-111029832D01*
X125742450Y-110861473D01*
X125708778Y-110760458D01*
X125708778Y-110693114D01*
X125742450Y-110592099D01*
X127931114Y-109817649D02*
X127358694Y-109716633D01*
X127527053Y-110221710D02*
X126819946Y-109514603D01*
X127089320Y-109245229D01*
X127190335Y-109211557D01*
X127257679Y-109211557D01*
X127358694Y-109245229D01*
X127459709Y-109346244D01*
X127493381Y-109447259D01*
X127493381Y-109514603D01*
X127459709Y-109615618D01*
X127190335Y-109884992D01*
X127964785Y-109245229D02*
X128503533Y-108706481D01*
X128301503Y-108033046D02*
X128705564Y-107628985D01*
X129210640Y-108538122D02*
X128503533Y-107831015D01*
X129075953Y-107258596D02*
X129210640Y-107123909D01*
X129311655Y-107090237D01*
X129446342Y-107090237D01*
X129614701Y-107191252D01*
X129850403Y-107426954D01*
X129951419Y-107595313D01*
X129951419Y-107730000D01*
X129917747Y-107831015D01*
X129783060Y-107965702D01*
X129682045Y-107999374D01*
X129547358Y-107999374D01*
X129378999Y-107898359D01*
X129143297Y-107662657D01*
X129042281Y-107494298D01*
X129042281Y-107359611D01*
X129075953Y-107258596D01*
X130389151Y-107359611D02*
X129682045Y-106652504D01*
X129951419Y-106383130D01*
X130052434Y-106349458D01*
X130119777Y-106349458D01*
X130220793Y-106383130D01*
X130321808Y-106484145D01*
X130355480Y-106585161D01*
X130355480Y-106652504D01*
X130321808Y-106753519D01*
X130052434Y-107022893D01*
D11*
X146625500Y-117348000D03*
X147760500Y-117348000D03*
D12*
X137795000Y-59941000D03*
D13*
X137795000Y-61976000D03*
D12*
X137795000Y-56391000D03*
D14*
X137795000Y-54356000D03*
D12*
X80645000Y-98041000D03*
D13*
X80645000Y-100076000D03*
D12*
X80645000Y-94491000D03*
D14*
X80645000Y-92456000D03*
X78994000Y-60325000D03*
X78994000Y-57785000D03*
X78994000Y-55245000D03*
X78994000Y-52705000D03*
D12*
X156845000Y-78991000D03*
D13*
X156845000Y-81026000D03*
D12*
X156845000Y-75441000D03*
D14*
X156845000Y-73406000D03*
X75692000Y-88900000D03*
X75692000Y-86360000D03*
X75692000Y-83820000D03*
X75692000Y-81280000D03*
D15*
X166370000Y-93980000D03*
D16*
X168910000Y-99060000D03*
D17*
X171450000Y-93980000D03*
D16*
X171370000Y-90280000D03*
X162560000Y-96520000D03*
D18*
X160870000Y-93980000D03*
D16*
X170180000Y-96520000D03*
D18*
X171870000Y-93980000D03*
D17*
X161870000Y-93980000D03*
D16*
X161370000Y-90280000D03*
D17*
X170870000Y-93980000D03*
X161290000Y-93980000D03*
D16*
X163830000Y-99060000D03*
X166370000Y-88080000D03*
D19*
X158270000Y-90280000D03*
X171970000Y-99060000D03*
D20*
X169170000Y-88080000D03*
D19*
X159470000Y-96520000D03*
D17*
X151820000Y-55880000D03*
D16*
X149860000Y-60960000D03*
D18*
X152820000Y-55880000D03*
D16*
X144780000Y-60960000D03*
D17*
X142820000Y-55880000D03*
D16*
X151130000Y-58420000D03*
D17*
X142240000Y-55880000D03*
D16*
X142320000Y-52180000D03*
X143510000Y-58420000D03*
D15*
X147320000Y-55880000D03*
D16*
X152320000Y-52180000D03*
X147320000Y-49980000D03*
D18*
X141820000Y-55880000D03*
D17*
X152400000Y-55880000D03*
D19*
X152920000Y-60960000D03*
X139220000Y-52180000D03*
X140420000Y-58420000D03*
D20*
X150120000Y-49980000D03*
D21*
X171511000Y-112791000D03*
X171511000Y-112141000D03*
X171511000Y-111491000D03*
X169611000Y-111491000D03*
X169611000Y-112141000D03*
X169611000Y-112791000D03*
D17*
X123770000Y-55880000D03*
D16*
X130810000Y-60960000D03*
X133270000Y-52180000D03*
X123270000Y-52180000D03*
D17*
X123190000Y-55880000D03*
X132770000Y-55880000D03*
D18*
X133770000Y-55880000D03*
D17*
X133350000Y-55880000D03*
D16*
X124460000Y-58420000D03*
X125730000Y-60960000D03*
X128270000Y-49980000D03*
D15*
X128270000Y-55880000D03*
D16*
X132080000Y-58420000D03*
D18*
X122770000Y-55880000D03*
D19*
X120170000Y-52180000D03*
X133870000Y-60960000D03*
D20*
X131070000Y-49980000D03*
D19*
X121370000Y-58420000D03*
D22*
X77485000Y-57785000D03*
D23*
X76185000Y-57785000D03*
D22*
X72024000Y-86360000D03*
D23*
X70724000Y-86360000D03*
D19*
X63460000Y-77590000D03*
D24*
X58460000Y-77590000D03*
X60960000Y-77590000D03*
D25*
X66560000Y-85090000D03*
X55360000Y-85090000D03*
D24*
X58460000Y-92090000D03*
X63460000Y-92090000D03*
D13*
X99695000Y-119126000D03*
D12*
X99695000Y-117091000D03*
D14*
X99695000Y-111506000D03*
D12*
X99695000Y-113541000D03*
D26*
X58470800Y-75072000D03*
D27*
X58470800Y-73772000D03*
D28*
X50295000Y-121031000D03*
D13*
X48260000Y-121031000D03*
D14*
X55880000Y-121031000D03*
D28*
X53845000Y-121031000D03*
D29*
X46355000Y-48223600D03*
X47625000Y-64770000D03*
X50165000Y-64770000D03*
X48895000Y-48223600D03*
X51435000Y-48223600D03*
X52705000Y-64770000D03*
X55245000Y-64770000D03*
X53975000Y-48223600D03*
X56515000Y-48223600D03*
X57785000Y-64770000D03*
X59055000Y-48223600D03*
X60325000Y-64770000D03*
X61595000Y-48223600D03*
X62865000Y-64770000D03*
X65405000Y-64770000D03*
X64135000Y-48223600D03*
X66675000Y-48223600D03*
X67945000Y-64770000D03*
X70485000Y-64770000D03*
X69215000Y-48223600D03*
X73025000Y-64770000D03*
X71755000Y-48223600D03*
X75565000Y-64770000D03*
X74295000Y-48223600D03*
X75565000Y-49530000D03*
X74295000Y-63443600D03*
X73025000Y-49530000D03*
X71755000Y-63443600D03*
X69215000Y-63443600D03*
X70485000Y-49530000D03*
X67945000Y-49530000D03*
X66675000Y-63443600D03*
X64135000Y-63443600D03*
X65405000Y-49530000D03*
X62865000Y-49530000D03*
X61595000Y-63443600D03*
X60325000Y-49530000D03*
X59055000Y-63443600D03*
X57785000Y-49530000D03*
X56515000Y-63443600D03*
X53975000Y-63443600D03*
X55245000Y-49530000D03*
X52705000Y-49530000D03*
X51435000Y-63443600D03*
X50165000Y-49530000D03*
X48895000Y-63443600D03*
X46355000Y-63443600D03*
X47625000Y-49530000D03*
D14*
X144272000Y-109855000D03*
X144272000Y-112395000D03*
X144272000Y-114935000D03*
X144272000Y-117475000D03*
D30*
X146243000Y-114802500D03*
X147193000Y-114802500D03*
X148143000Y-114802500D03*
X148143000Y-112527500D03*
X146243000Y-112527500D03*
D16*
X90170000Y-107130000D03*
X92710000Y-118110000D03*
X95170000Y-109330000D03*
X93980000Y-115570000D03*
X86360000Y-115570000D03*
D15*
X90170000Y-113030000D03*
D18*
X84670000Y-113030000D03*
D17*
X95250000Y-113030000D03*
D16*
X87630000Y-118110000D03*
D17*
X85670000Y-113030000D03*
X85090000Y-113030000D03*
X94670000Y-113030000D03*
D18*
X95670000Y-113030000D03*
D16*
X85170000Y-109330000D03*
D19*
X82070000Y-109330000D03*
X95770000Y-118110000D03*
D20*
X92970000Y-107130000D03*
D19*
X83270000Y-115570000D03*
D11*
X146625500Y-110871000D03*
X147760500Y-110871000D03*
D13*
X99695000Y-81026000D03*
D12*
X99695000Y-78991000D03*
X99695000Y-75441000D03*
D14*
X99695000Y-73406000D03*
D17*
X132770000Y-93980000D03*
D15*
X128270000Y-93980000D03*
D18*
X133770000Y-93980000D03*
D17*
X123770000Y-93980000D03*
D16*
X124460000Y-96520000D03*
D17*
X133350000Y-93980000D03*
D16*
X132080000Y-96520000D03*
X133270000Y-90280000D03*
X123270000Y-90280000D03*
D18*
X122770000Y-93980000D03*
D17*
X123190000Y-93980000D03*
D16*
X130810000Y-99060000D03*
X128270000Y-88080000D03*
X125730000Y-99060000D03*
D19*
X133870000Y-99060000D03*
X120170000Y-90280000D03*
X121370000Y-96520000D03*
D20*
X131070000Y-88080000D03*
D22*
X72024000Y-83820000D03*
D23*
X70724000Y-83820000D03*
D16*
X48260000Y-115570000D03*
D17*
X46990000Y-113030000D03*
D16*
X54610000Y-118110000D03*
X57070000Y-109330000D03*
X49530000Y-118110000D03*
X47070000Y-109330000D03*
X55880000Y-115570000D03*
D17*
X57150000Y-113030000D03*
D16*
X52070000Y-107130000D03*
D17*
X56570000Y-113030000D03*
X47570000Y-113030000D03*
D18*
X46570000Y-113030000D03*
X57570000Y-113030000D03*
D15*
X52070000Y-113030000D03*
D19*
X43970000Y-109330000D03*
X57670000Y-118110000D03*
D20*
X54870000Y-107130000D03*
D19*
X45170000Y-115570000D03*
D12*
X99695000Y-98041000D03*
D13*
X99695000Y-100076000D03*
D12*
X99695000Y-94491000D03*
D14*
X99695000Y-92456000D03*
D21*
X171511000Y-115712000D03*
X171511000Y-115062000D03*
X171511000Y-114412000D03*
X169611000Y-114412000D03*
X169611000Y-115062000D03*
X169611000Y-115712000D03*
D31*
X164669000Y-108315000D03*
D32*
X162889000Y-108315000D03*
X161109000Y-108315000D03*
X159329000Y-108315000D03*
X157549000Y-108315000D03*
X155769000Y-108315000D03*
X153989000Y-108315000D03*
X152209000Y-108315000D03*
X151319000Y-119015000D03*
X153099000Y-119015000D03*
X154879000Y-119015000D03*
X156659000Y-119015000D03*
X158439000Y-119015000D03*
X160219000Y-119015000D03*
X161999000Y-119015000D03*
X163779000Y-119015000D03*
D26*
X63474600Y-75061600D03*
D27*
X63474600Y-73761600D03*
D12*
X118745000Y-59941000D03*
D13*
X118745000Y-61976000D03*
D12*
X118745000Y-56391000D03*
D14*
X118745000Y-54356000D03*
D33*
X156845000Y-84455000D03*
D16*
X168910000Y-80010000D03*
D17*
X161870000Y-74930000D03*
D16*
X162560000Y-77470000D03*
X161370000Y-71230000D03*
D18*
X160870000Y-74930000D03*
X171870000Y-74930000D03*
D16*
X163830000Y-80010000D03*
X166370000Y-69030000D03*
D15*
X166370000Y-74930000D03*
D16*
X170180000Y-77470000D03*
X171370000Y-71230000D03*
D17*
X171450000Y-74930000D03*
X161290000Y-74930000D03*
X170870000Y-74930000D03*
D19*
X158270000Y-71230000D03*
X171970000Y-80010000D03*
D20*
X169170000Y-69030000D03*
D19*
X159470000Y-77470000D03*
D11*
X146625500Y-116332000D03*
X147760500Y-116332000D03*
D28*
X91945000Y-64008000D03*
D13*
X93980000Y-64008000D03*
D14*
X86360000Y-64008000D03*
D28*
X88395000Y-64008000D03*
D17*
X133350000Y-74930000D03*
D18*
X122770000Y-74930000D03*
D16*
X130810000Y-80010000D03*
X123270000Y-71230000D03*
D17*
X123770000Y-74930000D03*
D16*
X124460000Y-77470000D03*
D18*
X133770000Y-74930000D03*
D17*
X132770000Y-74930000D03*
D16*
X125730000Y-80010000D03*
X132080000Y-77470000D03*
X128270000Y-69030000D03*
D15*
X128270000Y-74930000D03*
D16*
X133270000Y-71230000D03*
D17*
X123190000Y-74930000D03*
D19*
X133870000Y-80010000D03*
X120170000Y-71230000D03*
D20*
X131070000Y-69030000D03*
D19*
X121370000Y-77470000D03*
D34*
X146595500Y-109728000D03*
X147790500Y-109728000D03*
D35*
X170269000Y-104140000D03*
X166112750Y-104140000D03*
X165519000Y-104140000D03*
X166706500Y-104140000D03*
X167894000Y-104140000D03*
X167300250Y-104140000D03*
X168487750Y-104140000D03*
X169675250Y-104140000D03*
X169081500Y-104140000D03*
D22*
X77485000Y-60325000D03*
D23*
X76185000Y-60325000D03*
D32*
X44122000Y-71106000D03*
X51122000Y-71106000D03*
X51122000Y-69356000D03*
X44122000Y-69356000D03*
D36*
X54422000Y-69006000D03*
X54422000Y-71456000D03*
X45922000Y-73206000D03*
X45922000Y-67256000D03*
X48922000Y-73206000D03*
X48922000Y-67256000D03*
X52922000Y-73206000D03*
X52922000Y-67256000D03*
D13*
X118745000Y-81026000D03*
D12*
X118745000Y-78991000D03*
D14*
X118745000Y-73406000D03*
D12*
X118745000Y-75441000D03*
D22*
X77485000Y-52705000D03*
D23*
X76185000Y-52705000D03*
D16*
X113030000Y-77470000D03*
X105410000Y-77470000D03*
D18*
X114720000Y-74930000D03*
D16*
X106680000Y-80010000D03*
D18*
X103720000Y-74930000D03*
D16*
X111760000Y-80010000D03*
D17*
X113720000Y-74930000D03*
X104720000Y-74930000D03*
X114300000Y-74930000D03*
D15*
X109220000Y-74930000D03*
D16*
X104220000Y-71230000D03*
X114220000Y-71230000D03*
D17*
X104140000Y-74930000D03*
D16*
X109220000Y-69030000D03*
D19*
X114820000Y-80010000D03*
X101120000Y-71230000D03*
X102320000Y-77470000D03*
D20*
X112020000Y-69030000D03*
D13*
X99695000Y-61976000D03*
D12*
X99695000Y-59941000D03*
X99695000Y-56391000D03*
D14*
X99695000Y-54356000D03*
D37*
X147790500Y-106299000D03*
X146595500Y-106299000D03*
D13*
X80645000Y-81026000D03*
D12*
X80645000Y-78991000D03*
D14*
X80645000Y-73406000D03*
D12*
X80645000Y-75441000D03*
D24*
X44831000Y-102056000D03*
X44831000Y-95556000D03*
D12*
X137795000Y-78991000D03*
D13*
X137795000Y-81026000D03*
D12*
X137795000Y-75441000D03*
D14*
X137795000Y-73406000D03*
D12*
X118745000Y-98041000D03*
D13*
X118745000Y-100076000D03*
D12*
X118745000Y-94491000D03*
D14*
X118745000Y-92456000D03*
D22*
X72024000Y-88900000D03*
D23*
X70724000Y-88900000D03*
D13*
X156845000Y-100076000D03*
D12*
X156845000Y-98041000D03*
X156845000Y-94491000D03*
D14*
X156845000Y-92456000D03*
D38*
X51010000Y-99485000D03*
X50570000Y-98425000D03*
X52070000Y-96925000D03*
X53130000Y-99485000D03*
X51010000Y-97365000D03*
D39*
X52070000Y-98425000D03*
D38*
X52070000Y-99925000D03*
X53570000Y-98425000D03*
X53130000Y-97365000D03*
D17*
X95250000Y-55880000D03*
D18*
X95670000Y-55880000D03*
D17*
X94670000Y-55880000D03*
X85090000Y-55880000D03*
D16*
X90170000Y-49980000D03*
D17*
X85670000Y-55880000D03*
D16*
X93980000Y-58420000D03*
X85170000Y-52180000D03*
D15*
X90170000Y-55880000D03*
D18*
X84670000Y-55880000D03*
D16*
X92710000Y-60960000D03*
X86360000Y-58420000D03*
X87630000Y-60960000D03*
X95170000Y-52180000D03*
D19*
X82070000Y-52180000D03*
X95770000Y-60960000D03*
D20*
X92970000Y-49980000D03*
D19*
X83270000Y-58420000D03*
D14*
X173736000Y-117348000D03*
X173736000Y-114808000D03*
X173736000Y-112268000D03*
X173736000Y-109728000D03*
D17*
X95250000Y-93980000D03*
D16*
X87630000Y-99060000D03*
X92710000Y-99060000D03*
X95170000Y-90280000D03*
X85170000Y-90280000D03*
X90170000Y-88080000D03*
D17*
X85670000Y-93980000D03*
X85090000Y-93980000D03*
D15*
X90170000Y-93980000D03*
D18*
X95670000Y-93980000D03*
D17*
X94670000Y-93980000D03*
D18*
X84670000Y-93980000D03*
D16*
X86360000Y-96520000D03*
X93980000Y-96520000D03*
D19*
X82070000Y-90280000D03*
X95770000Y-99060000D03*
X83270000Y-96520000D03*
D20*
X92970000Y-88080000D03*
D33*
X156845000Y-65405000D03*
D12*
X156845000Y-59941000D03*
D13*
X156845000Y-61976000D03*
D14*
X156845000Y-54356000D03*
D12*
X156845000Y-56391000D03*
D17*
X113720000Y-113030000D03*
D16*
X105410000Y-115570000D03*
D18*
X114720000Y-113030000D03*
D17*
X104140000Y-113030000D03*
D16*
X113030000Y-115570000D03*
X109220000Y-107130000D03*
X104220000Y-109330000D03*
D18*
X103720000Y-113030000D03*
D16*
X106680000Y-118110000D03*
X114220000Y-109330000D03*
D15*
X109220000Y-113030000D03*
D17*
X104720000Y-113030000D03*
X114300000Y-113030000D03*
D16*
X111760000Y-118110000D03*
D19*
X101120000Y-109330000D03*
X114820000Y-118110000D03*
D20*
X112020000Y-107130000D03*
D19*
X102320000Y-115570000D03*
D17*
X75620000Y-113030000D03*
D15*
X71120000Y-113030000D03*
D17*
X66040000Y-113030000D03*
D16*
X71120000Y-107130000D03*
X73660000Y-118110000D03*
X67310000Y-115570000D03*
D17*
X76200000Y-113030000D03*
D16*
X76120000Y-109330000D03*
X74930000Y-115570000D03*
X68580000Y-118110000D03*
D17*
X66620000Y-113030000D03*
D18*
X76620000Y-113030000D03*
D16*
X66120000Y-109330000D03*
D18*
X65620000Y-113030000D03*
D19*
X63020000Y-109330000D03*
X76720000Y-118110000D03*
X64220000Y-115570000D03*
D20*
X73920000Y-107130000D03*
D14*
X46228000Y-81280000D03*
X46228000Y-83820000D03*
X46228000Y-86360000D03*
X46228000Y-88900000D03*
D17*
X95250000Y-74930000D03*
X85090000Y-74930000D03*
X94670000Y-74930000D03*
D16*
X95170000Y-71230000D03*
D18*
X84670000Y-74930000D03*
D16*
X92710000Y-80010000D03*
X86360000Y-77470000D03*
X90170000Y-69030000D03*
D18*
X95670000Y-74930000D03*
D16*
X85170000Y-71230000D03*
D17*
X85670000Y-74930000D03*
D16*
X87630000Y-80010000D03*
X93980000Y-77470000D03*
D15*
X90170000Y-74930000D03*
D19*
X95770000Y-80010000D03*
X82070000Y-71230000D03*
X83270000Y-77470000D03*
D20*
X92970000Y-69030000D03*
D28*
X62735000Y-94742000D03*
D13*
X64770000Y-94742000D03*
D14*
X57150000Y-94742000D03*
D28*
X59185000Y-94742000D03*
D15*
X166370000Y-55880000D03*
D18*
X160870000Y-55880000D03*
D16*
X161370000Y-52180000D03*
D18*
X171870000Y-55880000D03*
D16*
X163830000Y-60960000D03*
X170180000Y-58420000D03*
D17*
X170870000Y-55880000D03*
D16*
X168910000Y-60960000D03*
X171370000Y-52180000D03*
X162560000Y-58420000D03*
D17*
X171450000Y-55880000D03*
D16*
X166370000Y-49980000D03*
D17*
X161870000Y-55880000D03*
X161290000Y-55880000D03*
D19*
X171970000Y-60960000D03*
X158270000Y-52180000D03*
X159470000Y-58420000D03*
D20*
X169170000Y-49980000D03*
D22*
X72024000Y-81153000D03*
D23*
X70724000Y-81153000D03*
D13*
X61595000Y-119126000D03*
D12*
X61595000Y-117091000D03*
X61595000Y-113541000D03*
D14*
X61595000Y-111506000D03*
D40*
X147760500Y-107442000D03*
X146625500Y-107442000D03*
D21*
X171511000Y-109870000D03*
X171511000Y-109220000D03*
X171511000Y-108570000D03*
X169611000Y-108570000D03*
X169611000Y-109220000D03*
X169611000Y-109870000D03*
D12*
X137795000Y-98041000D03*
D13*
X137795000Y-100076000D03*
D12*
X137795000Y-94491000D03*
D14*
X137795000Y-92456000D03*
D18*
X103720000Y-55880000D03*
D16*
X109220000Y-49980000D03*
D17*
X114300000Y-55880000D03*
X104140000Y-55880000D03*
D16*
X106680000Y-60960000D03*
X114220000Y-52180000D03*
X111760000Y-60960000D03*
D17*
X113720000Y-55880000D03*
D16*
X104220000Y-52180000D03*
D17*
X104720000Y-55880000D03*
D16*
X113030000Y-58420000D03*
D18*
X114720000Y-55880000D03*
D16*
X105410000Y-58420000D03*
D15*
X109220000Y-55880000D03*
D19*
X101120000Y-52180000D03*
X114820000Y-60960000D03*
X102320000Y-58420000D03*
D20*
X112020000Y-49980000D03*
D18*
X103720000Y-93980000D03*
D17*
X104720000Y-93980000D03*
D16*
X106680000Y-99060000D03*
X105410000Y-96520000D03*
D15*
X109220000Y-93980000D03*
D17*
X113720000Y-93980000D03*
D16*
X109220000Y-88080000D03*
D18*
X114720000Y-93980000D03*
D17*
X114300000Y-93980000D03*
D16*
X114220000Y-90280000D03*
X104220000Y-90280000D03*
X113030000Y-96520000D03*
D17*
X104140000Y-93980000D03*
D16*
X111760000Y-99060000D03*
D19*
X101120000Y-90280000D03*
X114820000Y-99060000D03*
D20*
X112020000Y-88080000D03*
D19*
X102320000Y-96520000D03*
D33*
X99695000Y-84455000D03*
D35*
X149520250Y-104140000D03*
X148926500Y-104140000D03*
X152489000Y-104140000D03*
X147739000Y-104140000D03*
X151301500Y-104140000D03*
X148332750Y-104140000D03*
X151895250Y-104140000D03*
X150707750Y-104140000D03*
X150114000Y-104140000D03*
D13*
X80645000Y-119126000D03*
D12*
X80645000Y-117091000D03*
D14*
X80645000Y-111506000D03*
D12*
X80645000Y-113541000D03*
D16*
X143510000Y-77470000D03*
D18*
X141820000Y-74930000D03*
D16*
X149860000Y-80010000D03*
D17*
X151820000Y-74930000D03*
D16*
X144780000Y-80010000D03*
D17*
X152400000Y-74930000D03*
D16*
X152320000Y-71230000D03*
D18*
X152820000Y-74930000D03*
D16*
X142320000Y-71230000D03*
X147320000Y-69030000D03*
D15*
X147320000Y-74930000D03*
D17*
X142240000Y-74930000D03*
D16*
X151130000Y-77470000D03*
D17*
X142820000Y-74930000D03*
D19*
X139220000Y-71230000D03*
X152920000Y-80010000D03*
X140420000Y-77470000D03*
D20*
X150120000Y-69030000D03*
D21*
X171511000Y-118633000D03*
X171511000Y-117983000D03*
X171511000Y-117333000D03*
X169611000Y-117333000D03*
X169611000Y-117983000D03*
X169611000Y-118633000D03*
D33*
X122555000Y-108585000D03*
D16*
X152320000Y-90280000D03*
D17*
X151820000Y-93980000D03*
D16*
X149860000Y-99060000D03*
D18*
X152820000Y-93980000D03*
D16*
X142320000Y-90280000D03*
D17*
X142240000Y-93980000D03*
D16*
X151130000Y-96520000D03*
D15*
X147320000Y-93980000D03*
D16*
X143510000Y-96520000D03*
D18*
X141820000Y-93980000D03*
D16*
X147320000Y-88080000D03*
X144780000Y-99060000D03*
D17*
X152400000Y-93980000D03*
X142820000Y-93980000D03*
D19*
X152920000Y-99060000D03*
X139220000Y-90280000D03*
X140420000Y-96520000D03*
D20*
X150120000Y-88080000D03*
D22*
X77485000Y-55245000D03*
D23*
X76185000Y-55245000D03*
M02*
